<?xml version="1.0" encoding="UTF-8" standalone="no"?><!DOCTYPE svg PUBLIC "-//W3C//DTD SVG 1.1//EN" "http://www.w3.org/Graphics/SVG/1.1/DTD/svg11.dtd"><svg width="100%" height="100%" viewBox="0 0 1641 1624" version="1.1" xmlns="http://www.w3.org/2000/svg" xmlns:xlink="http://www.w3.org/1999/xlink" xml:space="preserve" xmlns:serif="http://www.serif.com/" style="fill-rule:evenodd;clip-rule:evenodd;"><path d="M693.737,567.133l29.575,-22.563l26.013,-26.654l75.021,23.346l114.312,33.046l11.95,77.483l3.563,38.604l3.079,39.825l1.446,31.113l0.304,31.117l-1.813,34.42l-1.204,29.075l-10.925,0l1.146,-37.716l-0.242,-65.529l-4.95,-66.963l-1.208,-11.787l-5.371,-32.705l-6.821,-19.058l-19.733,-3.05l-35.854,-6.004l-60.959,-12.229l-44.6,-11.092l-72.729,-22.679Z" style="fill-rule:nonzero;stroke:#000;stroke-width:0.79px;"/><path d="M853.741,410.079l0,16.437l-6.095,121.204l17.862,5.238l1.933,-46.867l6.038,-101.366l1.025,-21.58l-4.588,-37.815l-4.887,-3.505l-26.133,16.827l-43.459,32.71l-23.175,19.488l-10.804,7.862c0,0 7.783,-0.212 18.046,0.508c10.2,0.713 10.442,12.475 10.442,12.475l-4.288,14.255l-13.033,16.708l11.587,15.358l2.775,-1.933l66.754,-66.004Z" style="fill-rule:nonzero;stroke:#000;stroke-width:0.79px;"/><path d="M679.616,294.652l-2.295,5.244l-8.871,6.525l9.716,11.763l12.071,8.368l-2.412,11.401l-7.609,12.995l23.784,43.535l35.187,10.325l16.292,7.487l3.746,6.496c-0,0 9.112,0.704 21.062,1.704c11.892,0.988 8.15,11.325 8.15,11.325l-3.741,15.93l-16.48,19.833l-27.52,23.117l8.087,9.012l0.542,5.883l3.258,7.975l-5.187,8.888l-51.184,44.5l-11.529,-2.146l-24.925,-9.933l-33.679,-14.688l-28.308,-15.321l-34.763,-25.654l-18.167,-17.733l-17.866,-20.575l-14.484,-20.567l-14.004,-27.15l-6.821,-21.45l-3.679,-5.058l-10.804,-24.697l-5.675,-21.471l0,-18.953l3.563,-18.567l9.112,-15.424l12.375,-13.896l-13.221,-14.385l-14.604,-15.853l6.217,-8.471l13.641,-8.023l19.734,-5.153l22.212,-1.323l29.213,0.755l35.908,4.682l28.729,6.446l34.284,11.921l28.245,12.748l20.521,11.859l-0.541,3.396l-8.571,19.46l-7.363,9.824l-11.346,-6.906Z" style="fill-rule:nonzero;"/><path d="M520.7,220.901l-7.184,0.961l-10.2,-36.352l-1.691,-24.463l0.362,-22.916l5.071,-22.186l13.579,-27.827l15.329,-18.258l13.342,-11.365l16.717,-8.416l24.808,-5.516l22.992,-0.471l25.291,3.069l30.78,11.425l24.145,12.156l22.571,19.865l13.521,19.636l-22.696,23.35l-17.141,26.058l-9.655,20.475l-5.012,22.487l-1.75,19.727l1.392,19.393l1.387,10.573l-33.017,-14.198l-29.633,-7.491l-33.679,-6.797l-23.842,-2.073l-25.104,-1.752l-10.683,0.906Z" style="fill:#fff;fill-rule:nonzero;"/><path d="M515.629,220.086c-0,-0 -9.538,28.184 9.354,29.133c18.892,0.948 -31.929,31.465 -31.083,90.909c0.904,59.442 70.012,180.58 199.837,224.917l-32.108,-7.854l-56.675,-28.612l-31.446,-21.363l-38.75,-35.412l-25.287,-33.663l-16.175,-39.487l-6.155,-19.504l-14.304,-26.027l-2.175,-30.812l4.646,-21.019l16.296,-22.849l3.2,-7.166l-25.833,-28.263c-0,0 13.825,-21.901 46.658,-22.928Z" style="fill:#333;fill-opacity:0.27;fill-rule:nonzero;"/><path d="M698.629,262.353l5.25,-7.932l8.75,-12.174l10.079,-13.715l9.717,-17.986l9.9,-31.846l0.725,-21.87l-2.659,-23.46l-9.291,-22.04l-8.088,4.755l-14.971,17.394l-9.716,14.415l-12.129,21.128l-9.659,25.435l-2.475,19.056l0.063,25.072l1.629,12.483l22.875,11.285Z" style="fill-rule:nonzero;"/><path d="M773.041,463.062l-11.708,11.246l-21.062,16.179l7.604,8.65l1.75,7.325l2.354,7.779l-3.138,4.746l43.938,12.008l-0,-18.904l-0.179,-22.062l-19.559,-26.967Z" style="fill:#fff;fill-rule:nonzero;"/><path d="M697.962,261.677c135.979,-157.126 -67.779,-258.994 -148.354,-202.692c-80.575,56.308 -35.429,163.535 -35.429,163.535" style="fill:none;fill-rule:nonzero;stroke:#000;stroke-width:5.04px;stroke-linecap:round;stroke-linejoin:round;"/><path d="M661.204,150.879l-5.071,71.195l-72.967,-19.564l0,-72.56l78.038,20.929Z" style="fill:none;fill-rule:nonzero;stroke:#000;stroke-width:3px;stroke-linecap:round;stroke-linejoin:round;"/><path d="M677.079,250.47c-19.313,-82.421 54.379,-140.729 54.379,-140.729" style="fill:none;fill-rule:nonzero;stroke:#000;stroke-width:3px;stroke-linecap:round;stroke-linejoin:round;"/><path d="M704.962,392.291c0,0 -46.591,-75.116 -58.725,-113.649c-12.071,-38.54 -86.125,-39.531 -86.125,-39.531" style="fill:none;fill-rule:nonzero;stroke:#000;stroke-width:5.04px;stroke-linecap:round;stroke-linejoin:round;"/><path d="M549.366,257.345c-46.35,17.14 -38.808,45.886 -30.779,80.94c8.029,35.06 72.971,69.552 79.85,93.919c6.879,24.371 68.504,63 79.671,59.362c11.163,-3.633 31.442,15.154 51.058,5.767c19.675,-9.392 61.505,-45.15 60.055,-66.138c-1.446,-20.991 -28.85,-6.175 -32.171,-16.162c-3.379,-9.992 -69.167,-24.746 -69.167,-24.746" style="fill:none;fill-rule:nonzero;stroke:#000;stroke-width:5.04px;stroke-linecap:round;stroke-linejoin:round;"/><path d="M527.158,248.512c-43.7,15.207 -45.45,86.215 -45.45,86.215" style="fill:none;fill-rule:nonzero;stroke:#000;stroke-width:5.04px;stroke-linecap:round;stroke-linejoin:round;"/><path d="M645.212,272.818c10.5,3.625 33.196,21.671 42.188,26.819c8.991,5.147 20.821,-30.849 20.821,-30.849c-76.046,-48.968 -169.055,-51.318 -198.388,-46.98c-29.333,4.338 -40.858,18.602 -39.712,22.227c1.145,3.631 27.825,30.353 27.825,30.353" style="fill:none;fill-rule:nonzero;stroke:#000;stroke-width:5.04px;stroke-linecap:round;stroke-linejoin:round;"/><path d="M679.071,294.405c2.475,8.415 -11.65,11.666 -11.65,11.666c-0,-0 14.545,15.829 21.308,19.128c6.758,3.304 -7.125,26.946 -7.125,26.946" style="fill:none;fill-rule:nonzero;stroke:#000;stroke-width:5.04px;stroke-linecap:round;stroke-linejoin:round;"/><path d="M865.387,554.908c0,-0 8.146,-154.371 8.992,-164.371c0.787,-10.004 -1.146,-44.265 -7.121,-48.265c-6.037,-3.993 -107.433,77.219 -107.433,77.219" style="fill:none;fill-rule:nonzero;stroke:#000;stroke-width:3px;stroke-linecap:round;stroke-linejoin:round;"/><path d="M482.433,329.935c1.629,187.177 212.933,237.106 212.933,237.106c0,0 44.663,-36.904 52.388,-46.558c7.787,-9.654 1.387,-7.95 1.571,-15.538c0.179,-7.595 -8.871,-13.662 -8.871,-13.662" style="fill:none;fill-rule:nonzero;stroke:#000;stroke-width:5.04px;stroke-linecap:round;stroke-linejoin:round;"/><path d="M489.975,389.079c-44.238,-76.501 4.95,-115.059 4.95,-115.059" style="fill:none;fill-rule:nonzero;stroke:#000;stroke-width:5.04px;stroke-linecap:round;stroke-linejoin:round;"/><path d="M925.925,621.07c-107.854,-10.166 -231.642,-54.97 -231.642,-54.97" style="fill:none;fill-rule:nonzero;stroke:#000;stroke-width:3px;stroke-linecap:round;stroke-linejoin:round;"/><path d="M583.954,130.343l-8.875,-1.13l-0,72.126l10.079,1.8" style="fill:none;fill-rule:nonzero;stroke:#000;stroke-width:3px;stroke-linecap:round;stroke-linejoin:round;"/><path d="M924.175,620.17c26.916,21.371 21.666,235.288 21.666,235.288l9.175,-2.508c14.846,-113.25 -16.237,-278.43 -16.237,-278.43l-190.842,-56.479" style="fill:none;fill-rule:nonzero;stroke:#000;stroke-width:3px;stroke-linecap:round;stroke-linejoin:round;"/><path d="M605.558,177.378c0,9.28 7.608,16.922 16.9,16.922c9.296,0 16.9,-7.637 16.9,-16.922c0,-9.28 -7.604,-16.923 -16.9,-16.929c-9.233,-0 -16.9,7.63 -16.9,16.916"/><path d="M637.004,3.214l-20.4,170.78" style="fill:none;fill-rule:nonzero;stroke:#000;stroke-width:3px;stroke-linecap:round;stroke-linejoin:round;"/><path d="M629.762,7.365c0,4.042 3.321,7.371 7.363,7.371c3.983,-0 7.362,-3.323 7.362,-7.365c0,-4.042 -3.316,-7.371 -7.362,-7.371c-4.042,0 -7.363,3.323 -7.363,7.365Z"/><path d="M848.729,546.095l5.554,-136.508l-70.617,70.133" style="fill:none;fill-rule:nonzero;stroke:#000;stroke-width:3px;stroke-linecap:round;stroke-linejoin:round;"/><path d="M939.683,882.604l101.217,9.746l-97.05,-54.613l-4.167,44.867Z" style="fill-rule:nonzero;stroke:#000;stroke-width:0.79px;stroke-linecap:round;stroke-linejoin:round;"/><path d="M792.841,529.395c0,0 0.421,-24.141 -0.183,-34.5c-0.6,-10.354 -19.733,-31.07 -19.733,-31.07" style="fill:none;fill-rule:nonzero;stroke:#000;stroke-width:5.04px;stroke-linecap:round;stroke-linejoin:round;"/><path d="M862.912,537.304l49.55,31.979l-51.121,-9.221l1.571,-22.758Z" style="fill-rule:nonzero;stroke:#000;stroke-width:0.79px;stroke-linecap:round;stroke-linejoin:round;"/><path d="M968.05,946.783c-0,-0 6.229,-7.833 9.125,-4.554c2.896,3.275 2.621,18.662 2.621,18.662l-9.688,9.817l-43.679,29.937l-39.9,23.784c-0,-0 -37.558,-2.034 -51.338,-12.438c-13.775,-10.408 -6.745,-16.4 -6.745,-16.4c-0,0 18.57,-7.9 27.266,-9.258c8.692,-1.363 15.521,-14.004 15.521,-14.004l24.963,-30.484l14.512,-14.062c0,-0 11.396,-6.954 18.4,3.321c7,10.266 10.304,15.037 10.304,15.037c0,0 24.534,8.204 28.638,0.642Z" style="fill-rule:nonzero;"/><path d="M1133.16,897.8c0,-0 5.696,-14.642 -2.291,-17.088c-7.984,-2.446 -18.971,-6.796 -18.971,-6.796c-0,0 2.596,-18.75 -20.209,-26.166c-22.804,-7.417 -26.429,6.575 -26.429,6.575c0,-0 -17.358,6.6 -26.762,4.2c-9.35,-2.396 -44.584,-3.642 -46.888,1.87c-2.354,5.505 6.713,25.309 17.825,34.375c11.113,9.071 18.359,10.655 18.359,10.655c-0,-0 28.033,-29.05 54.116,-25.963c26.084,3.083 47.738,17.529 50.125,19.296c2.338,1.758 1.125,-0.958 1.125,-0.958Z" style="fill-rule:nonzero;"/><path d="M992.654,912.441l-12.863,16.55l-10.504,-1.729l-25.083,-7.175l-12.079,-6.704l-4.021,-13.088l-2.025,-10.083l-1.363,-10.146l4.388,-26.771l-0.754,-12.587l3.721,-19.117l10.791,-39.837l5.263,-9.846l12.316,-12.942l25.842,-17.366l32.208,-15.538l44,-15.958l29.096,-9.025l10.325,-15.963l5.613,-14.337l7.325,-24.254l2.596,-19.563l-0.155,-9.608l-29.995,-8.592l-12.284,-6.546l-7.304,-9.546l-11.208,3.063l-65.779,1.771l-13.421,-1.554l-4.954,-4.455l-7.217,-17.262l0.162,-17.158l3.959,-9.43l10.125,-13.625l14.258,-11.729c0,0 10.058,-6.808 9.713,-5.921c-0.35,0.884 17.058,-9.704 34.962,-9.333c17.9,0.367 51.671,1.608 51.671,1.608l37.937,2.438l-11.683,-9.754l-17.317,-15.692c0,0 -13.575,-17.129 -13.4,-19.571c0.125,-2.458 -1.704,-11.871 18.809,-10.775c-0,0 13.091,26.513 30.375,38.134c17.287,11.612 33.458,21.562 32.508,20.687c-0.954,-0.871 27.946,10.579 50.029,12.467c22.084,1.883 52.154,-3.563 52.154,-3.563l29.221,-7.491l28.259,-11.725l21.241,-13.163l16.092,-14.296l12.504,-21.616c0,-0 9.913,8.108 14.154,16.583c4.246,8.471 2.567,15.471 -0.35,19.258c-2.966,3.775 -10.929,9.221 -10.929,9.221l12.117,3.358c-0,0 46.596,11.18 70.541,29.938c23.946,18.758 33.909,31.283 33.909,31.283l16.383,24.125l9.838,20.559l-59.688,42.137l-52.629,-11.25c-0,0 -34.279,-5.758 -31.533,-21.083l-11.8,-0.546l-7.321,-2.108c-0,-0 12.75,16.991 9.529,38.054c-3.267,21.046 -7.917,41.804 -7.917,41.804l-5.75,21.017c0,-0 -3.279,19.087 -11.779,30.312c-8.55,11.213 -15.392,12.729 -15.392,12.729c0,0 -0.275,17.975 -3.108,26.642c-2.837,8.671 -7.2,17.396 -7.2,17.396c0,-0 -8.137,17.466 -26.283,32.175c-18.15,14.716 -42.221,14.179 -42.221,14.179c-0,-0 -35.404,-2.4 -38.338,-9.142c0,0 -9.754,14.659 -20.425,17.934c-10.62,3.283 -27.725,-2.417 -27.725,-2.417l-16.558,11.042c0,-0 -19.833,-20.384 -40.079,-25.067l-8.075,-1.321l-2.579,6.942c-0,-0 -21.896,-5.388 -28.042,1.533c-6.142,6.917 -10.912,10.754 -19.633,9.629c-8.675,-1.108 -45.284,-4.058 -55.096,-0.166c-9.858,3.875 -22.896,5.704 -17.571,26.766c5.271,21.046 14.767,18.717 17.496,26.204l-0,-0.004Z" style="fill-rule:nonzero;"/><path d="M991.716,859.033c0,-0 -0.758,14.962 8.63,26.012c9.387,11.046 27.35,20.767 27.35,20.767l-15.063,16.292c0,-0 -29.796,-12.746 -34.379,-28.738c-4.588,-16 -6.608,-29.883 13.462,-34.333Z" style="fill:#fff;fill-rule:nonzero;"/><path d="M826.804,996.262c-0.375,0.983 -2.013,12.225 14.8,18.608c16.762,6.363 44.075,8.896 44.075,8.896l-43.596,26.45c0,0 -20.333,-1.771 -27.862,-11.291c-7.475,-9.517 -2.938,-31.659 12.583,-42.663Z" style="fill:#fff;fill-rule:nonzero;"/><path d="M936.879,916.795l-5.1,17.617l7.825,12.229l17.429,3.313c0,-0 8.65,1.191 8.933,-0.054c0.284,-1.242 5,-21.659 5,-21.659l-34.087,-11.446Z" style="fill:#fff;fill-rule:nonzero;"/><path d="M1098.05,841.025l-2.308,7.129c-0,-0 17.712,10.441 16.337,25.296l17.354,6.583l9.638,-20.813c-0,0 -24.684,-16.637 -41.021,-18.195Z" style="fill:#fff;fill-rule:nonzero;"/><path d="M902.241,571.704l12.409,3.091l3.108,22.65l5.604,-0.737c0,-0 3.896,3.179 5.688,1.15c1.796,-2.029 9.433,-2.696 10.679,0.487c1.246,3.184 4.304,0.484 8.508,-2.066c4.154,-2.571 6.871,-6.213 10.592,1.204c3.771,7.429 4.908,16.008 0.333,16.337c-4.629,0.317 -13.971,-3.112 -15.429,-3.916c-1.458,-0.8 -2.908,-2.029 -2.908,-2.029c-0,-0 -5.154,6.254 -13.084,3.591c-7.925,-2.662 -13.462,-9.758 -13.462,-9.758c-0,-0 -12.004,3.204 -13.808,-1.321c-1.8,-4.529 2.662,-9.425 2.662,-9.425l-2.471,-14.429l1.579,-4.829Z" style="fill:#fff;fill-rule:nonzero;"/><path d="M1415,640.845c-0,0 -9.113,12.68 -0.592,21.725c8.575,9.067 21.296,7.6 21.296,7.6l18.383,-2.608c0,0 7.6,1.075 11.013,5.846c3.458,4.792 25.441,18.217 45.712,9.046c20.271,-9.175 24.571,-25.65 24.696,-30.309c0.125,-4.65 -7.483,-17.866 -7.483,-17.866c-0,-0 11.412,-19.584 3.016,-23.121c-8.341,-3.521 -16.441,2.642 -17.112,4.317c-0.671,1.679 -11.446,-11.434 -17.809,-0.717l-11.012,-6.642c-0,0 -1.817,-19.233 -12.992,-18.883c-11.175,0.346 -36.616,10.446 -37.758,27.642c-1.146,17.2 18.454,15.679 18.454,15.679l4.625,-4.096l0.846,-6.117l7.392,6.829l-4.163,13.975l1.921,8.075l-48.433,-10.375Z" style="fill:#fff;fill-rule:nonzero;"/><path d="M964.462,569.104c0,-0 -23.125,-11.017 -25.862,-13.884c-2.688,-2.854 -11.454,-13.395 -17.079,-5.791c-5.63,7.612 -18.017,22.4 -18.017,22.4l10.879,2.946l1.754,6.891l2.329,16.542l3.688,-1.833c-0,-0 1.358,3.362 5.004,1.687c3.592,-1.683 8.738,-4.325 10.788,-0.921c2,3.396 6.1,1.438 6.1,1.438l8.916,-5.384c0,0 5.579,0.763 5.909,4.338c0.379,3.587 3.958,7.929 3.958,7.929l12.046,-12.542c-0,0 -8.213,-12.175 -8.525,-14.025c-0.363,-1.858 -1.888,-9.791 -1.888,-9.791Z" style="fill-rule:nonzero;"/><path d="M1129.6,511.65c-0,-0 -72.371,-7.217 -104.221,-2.988c-24.333,3.225 -53.546,27.254 -58.963,45.246c-5.462,17.979 4.571,40.808 14.238,42.629c9.721,1.825 75.804,3.338 86.629,-4.108" style="fill:none;fill-rule:nonzero;stroke:#000;stroke-width:7.85px;stroke-linecap:round;stroke-linejoin:round;"/><path d="M1052.92,537.712c0,0 6.321,62.071 31.813,70.338c25.492,8.27 39.5,11.037 39.5,11.037" style="fill:none;fill-rule:nonzero;stroke:#000;stroke-width:7.85px;stroke-linecap:round;stroke-linejoin:round;"/><path d="M1228.23,775.962c-0,0 -0.854,103.117 -65.096,81.254l-16.912,10.159c-0,-0 -21.692,-24.492 -55.342,-27.188l4.571,-23.071c-0,0 -28.642,-14.591 -20.892,-65.55c8.271,-54.483 46.258,-125.071 148.671,-71.696c68.35,35.63 95.329,49.588 103.55,74.905c10.142,31.212 -30.788,123.837 -115.975,88.104" style="fill:none;fill-rule:nonzero;stroke:#000;stroke-width:7.85px;stroke-linecap:round;stroke-linejoin:round;"/><path d="M1327.05,761.345c-0,0 20.067,-6.033 27.221,-39.816c7.15,-33.775 26.446,-78.867 4.141,-105.296" style="fill:none;fill-rule:nonzero;stroke:#000;stroke-width:7.85px;stroke-linecap:round;stroke-linejoin:round;"/><path d="M1338.91,554.958c0,-0 -22.208,63.425 40.442,64.421" style="fill:none;fill-rule:nonzero;stroke:#000;stroke-width:7.85px;stroke-linecap:round;stroke-linejoin:round;"/><path d="M1411.79,555.491c0,0 -4.175,22.809 -15.775,34.104c-11.6,11.292 -31.725,35.296 -2.42,45.25c29.354,9.967 69.754,16.088 69.754,16.088" style="fill:none;fill-rule:nonzero;stroke:#000;stroke-width:7.85px;stroke-linecap:round;stroke-linejoin:round;"/><path d="M1378.16,500.45c0,-0 108.008,11.158 144.092,109.441" style="fill:none;fill-rule:nonzero;stroke:#000;stroke-width:7.85px;stroke-linecap:round;stroke-linejoin:round;"/><path d="M1528.58,635.008c-0,-0 10.387,-19.192 2.037,-23.683c-8.35,-4.492 -22.441,1.825 -22.166,21.77c0.271,19.95 14.75,14.392 20.129,1.913Z" style="fill:none;fill-rule:nonzero;stroke:#000;stroke-width:7.85px;stroke-linecap:round;stroke-linejoin:round;"/><path d="M1514.2,616.437c-0,0 -11.521,-12.146 -17.229,-2.454c-5.754,9.679 -13.513,38.117 -5.696,41.779c7.871,3.675 13.796,-13.204 16.208,-26.3" style="fill:none;fill-rule:nonzero;stroke:#000;stroke-width:7.85px;stroke-linecap:round;stroke-linejoin:round;"/><path d="M1495.38,614.32c-0,0 -14.759,-9.77 -18.934,-6.733c-4.175,3.042 -6.587,6.154 -9.941,18.946c-3.409,12.779 -9.454,21.925 1.146,27.292c10.6,5.362 15.979,-19.475 17.554,-24.5c1.579,-5.021 3.766,-12.305 3.766,-12.305" style="fill:none;fill-rule:nonzero;stroke:#000;stroke-width:7.85px;stroke-linecap:round;stroke-linejoin:round;"/><path d="M1486.55,609.595c-0,0 -3.142,-19.533 -14.359,-19.829c-11.166,-0.283 -28.887,5.467 -36.033,21.267c-7.096,15.817 7.4,24.367 16.504,21.083c9.104,-3.275 0.558,-8.637 10.667,-18.029" style="fill:none;fill-rule:nonzero;stroke:#000;stroke-width:7.85px;stroke-linecap:round;stroke-linejoin:round;"/><path d="M1414.47,641.595c-0,0 -12.2,17.092 6.925,25.517c19.125,8.417 34.145,-5.525 41.745,4.542c7.65,10.075 47.875,28.804 70.067,-9.217c0,0 7.896,-13.196 -5.267,-27.862" style="fill:none;fill-rule:nonzero;stroke:#000;stroke-width:7.85px;stroke-linecap:round;stroke-linejoin:round;"/><path d="M1465.47,628.741c0,0 -5.687,-7.75 -7.495,-6.454" style="fill:none;fill-rule:nonzero;stroke:#000;stroke-width:7.85px;stroke-linecap:round;stroke-linejoin:round;"/><path d="M965.429,569.337c-0,0 -21.592,-8.7 -31.767,-18.637c-10.171,-9.934 -16.221,3.02 -20.25,8.712c-4.029,5.696 -14.812,13.575 -12.891,18.658c1.87,5.067 2.408,16.042 2.833,13.284" style="fill:none;fill-rule:nonzero;stroke:#000;stroke-width:7.85px;stroke-linecap:round;stroke-linejoin:round;"/><path d="M935.079,582.191c-0,0 -14.45,-4.525 -20.708,1.017c-6.259,5.542 -16.667,10.442 -14.2,16.708c2.512,6.284 16.304,2.859 20.633,-3.337c4.275,-6.209 12.746,-3.554 12.746,-3.554" style="fill:none;fill-rule:nonzero;stroke:#000;stroke-width:7.85px;stroke-linecap:round;stroke-linejoin:round;"/><path d="M912.825,602.087c-0,0 18.325,15.571 25.641,8.517c7.263,-7.063 -1.454,-18.592 -8.504,-14.104c-7.104,4.47 -8.15,-0.85 -8.15,-0.85" style="fill:none;fill-rule:nonzero;stroke:#000;stroke-width:7.85px;stroke-linecap:round;stroke-linejoin:round;"/><path d="M940.458,608.037c0,0 18.504,10.917 21.525,3.158c3.021,-7.754 -6.692,-22.391 -11.771,-16.604c-5.083,5.788 -9.983,4.725 -9.983,4.725" style="fill:none;fill-rule:nonzero;stroke:#000;stroke-width:7.85px;stroke-linecap:round;stroke-linejoin:round;"/><path d="M962.521,605.412l12.775,-12.233" style="fill:none;fill-rule:nonzero;stroke:#000;stroke-width:7.85px;stroke-linecap:round;stroke-linejoin:round;"/><path d="M917.966,598.475c0.296,-6.271 -2.05,-15.375 -2.05,-15.375l-1.012,-8.638l-11.671,-3.212" style="fill:none;fill-rule:nonzero;stroke:#000;stroke-width:7.85px;stroke-linecap:round;stroke-linejoin:round;"/><path d="M1092.62,700.825c-0,-0 -136.967,35.683 -150.496,83.041c-13.579,47.338 -14.683,58.184 -13.346,67.617c1.388,9.442 -6.087,25.675 -2.958,36.067c3.179,10.408 1.25,25.516 11.521,29.508c10.275,3.983 39.241,15.575 43.3,10.771c4.112,-4.796 12.575,-16.692 12.575,-16.692" style="fill:none;fill-rule:nonzero;stroke:#000;stroke-width:7.85px;stroke-linecap:round;stroke-linejoin:round;"/><path d="M1014.31,921.304c-11.737,0.033 -41.158,-20.875 -39.617,-43.334c1.546,-22.458 27.917,-22.429 65.959,-19.783c37.991,2.629 16.596,-15.371 44.025,-11.867c27.483,3.517 27.346,27.967 27.346,27.967l19.7,7.104c-0,0 4.341,0.538 3.325,8.679c-1.021,8.15 -2.975,11.38 -2.975,11.38" style="fill:none;fill-rule:nonzero;stroke:#000;stroke-width:7.85px;stroke-linecap:round;stroke-linejoin:round;"/><path d="M1129.81,879.454l8.954,-18.892" style="fill:none;fill-rule:nonzero;stroke:#000;stroke-width:7.85px;stroke-linecap:round;stroke-linejoin:round;"/><path d="M1097.9,841.216l-2.509,7.463" style="fill:none;fill-rule:nonzero;stroke:#000;stroke-width:7.85px;stroke-linecap:round;stroke-linejoin:round;"/><path d="M843.329,1050.02c-0,0 -37.954,13.392 -36.779,29.813c1.125,16.408 20.241,71.95 66.979,73.621c46.687,1.654 113.571,-28.934 167.779,-66.413c54.208,-37.483 140.238,-109.412 114.704,-158.029c-25.537,-48.617 -79.325,-60.171 -110.362,-38.196c-31.034,21.975 -49.692,61.717 -87.267,88.275c-37.625,26.546 -115.054,70.929 -115.054,70.929Z" style="fill:#fff;fill-rule:nonzero;stroke:#000;stroke-width:7.85px;stroke-linecap:round;stroke-linejoin:round;"/><path d="M808.571,1087.74c-0,0 39.904,-29.175 48.554,-31.375c8.65,-2.208 138.246,-82.904 162.2,-126.237c23.904,-43.346 81.275,-49.388 103.658,-36.046" style="fill:none;fill-rule:nonzero;stroke:#000;stroke-width:7.85px;stroke-linecap:round;stroke-linejoin:round;"/><path d="M844.654,1049.7c0.183,-0.467 -38.146,-0.467 -34.446,-25.5c4.771,-31.779 35.079,-35.7 46.904,-38.446c11.825,-2.746 42.946,-55.767 56.863,-59.65c13.916,-3.879 25.008,19.825 25.008,19.825c0,-0 28.754,8.792 29.892,1.212c1.183,-7.562 15.708,-9.904 11.037,13.921" style="fill:none;fill-rule:nonzero;stroke:#000;stroke-width:7.85px;stroke-linecap:round;stroke-linejoin:round;"/><path d="M971.154,928.745l-4.95,19.663" style="fill:none;fill-rule:nonzero;stroke:#000;stroke-width:7.85px;stroke-linecap:round;stroke-linejoin:round;"/><path d="M936.358,917.716l-4.771,17.621" style="fill:none;fill-rule:nonzero;stroke:#000;stroke-width:7.85px;stroke-linecap:round;stroke-linejoin:round;"/><path d="M826.741,997.1c0,-0 -7.3,22.95 60.475,26.795" style="fill:none;fill-rule:nonzero;stroke:#000;stroke-width:7.85px;stroke-linecap:round;stroke-linejoin:round;"/><path d="M814.954,1011.09c-0,0 20.962,24.175 51.129,25.371" style="fill:none;fill-rule:nonzero;stroke:#000;stroke-width:7.85px;stroke-linecap:round;stroke-linejoin:round;"/><path d="M991.087,859.954c0,-0 0.504,30.666 35.763,45.387" style="fill:none;fill-rule:nonzero;stroke:#000;stroke-width:7.85px;stroke-linecap:round;stroke-linejoin:round;"/><path d="M1117.94,617.57c0,0 2.1,34.55 -20.246,74.13" style="fill:none;fill-rule:nonzero;stroke:#000;stroke-width:7.85px;stroke-linecap:round;stroke-linejoin:round;"/><path d="M1245.7,526.85c-0,-0 150.196,-14.863 133.858,-110.209c-15.287,-89.637 -77.612,-67.495 -55.566,-116.754c22.1,-49.256 96.637,-115.686 63.808,-147.944c-32.833,-32.259 -72.504,18.616 -88.813,73.424c-16.304,54.807 -19.883,85.975 -19.883,85.975c0,-0 -54.067,-5.344 -58.458,-9.289c-4.392,-3.948 -12.834,-154.77 -72.45,-173.95c-59.671,-19.189 -23.779,60.235 -6.542,100.564c9.583,22.307 42.379,79.236 21.683,89.988c-20.77,10.823 -54.987,34.157 -66.35,80.899c-11.416,46.733 32.434,132.504 148.713,127.296Z" style="fill:#fff;fill-rule:nonzero;stroke:#000;stroke-width:7.85px;stroke-linecap:round;stroke-linejoin:round;"/><path d="M1377.45,454.795c-0,0 26.108,20.355 12.066,36.671c-14.091,16.3 -77.6,40.025 -126.4,32.984" style="fill:none;fill-rule:nonzero;stroke:#000;stroke-width:2.7px;stroke-linecap:round;stroke-linejoin:round;"/><path d="M1103.48,454.833c-0,-0 -22.958,-0.667 -17.296,12.75c5.667,13.417 41.042,59.225 93.838,52.312" style="fill:none;fill-rule:nonzero;stroke:#000;stroke-width:2.7px;stroke-linecap:round;stroke-linejoin:round;"/><path d="M1288.6,313.83l17.775,5.432c-0,0 40.212,-88.385 54.77,-105.214c14.609,-16.821 15.792,-42.934 -9.55,-38.577c-25.341,4.353 -62.995,138.359 -62.995,138.359Z" style="fill-rule:nonzero;stroke:#000;stroke-width:2.7px;stroke-linecap:round;stroke-linejoin:round;"/><path d="M1186.33,312.415l22.392,-5.839c-0,0 -27.296,-143.488 -57.955,-141.063c-30.608,2.439 37.175,99.039 35.563,146.902Z" style="fill-rule:nonzero;stroke:#000;stroke-width:2.7px;stroke-linecap:round;stroke-linejoin:round;"/><path d="M1332.21,473.379c0.179,1.871 -2.742,3.675 -6.533,4.046c-3.792,0.366 -7,-0.842 -7.184,-2.713c-0.179,-1.871 2.738,-3.729 6.53,-4.096c3.791,-0.371 7.004,0.892 7.187,2.763Z"/><path d="M1286.45,461.058c-0,-0 -36.192,-32.017 -52.575,-32.013l52.575,32.013Z" style="fill-rule:nonzero;"/><path d="M1334.25,453.195c-0,0 21.362,-43.345 36.512,-49.575l-36.512,49.575Z" style="fill-rule:nonzero;"/><path d="M587.696,886.729l19.133,-76.1l-108.038,-130.542l16.538,-105.162l-257.296,-435.037l-256.993,311.437l6.579,108.512l246.19,-311.864l6.639,1.674l246.552,427.111l-62.529,72.754l48.887,50.133l94.338,87.084Z" style="fill-rule:nonzero;"/><path d="M11.966,560.562l245.284,-315.283l247.275,431.162l-61.863,75.134l143.225,135.741l-353.564,-110.908l70.194,-138.433l-290.551,-77.413Z" style="fill:#fff;fill-rule:nonzero;stroke:#000;stroke-width:3.13px;"/><path d="M302.757,639.908l-295.802,-77.671l-3.018,-114.137l254.036,-312.677l256.21,446.51l-13.521,97.85l-57.158,70.904l148.175,140.825l-358.753,-115.087l69.831,-136.517Z" style="fill:none;fill-rule:nonzero;stroke:#000;stroke-width:7.88px;stroke-linecap:round;stroke-linejoin:round;"/><path d="M500.841,686.012l103.388,128.892l-16.779,71.6" style="fill:none;fill-rule:nonzero;stroke:#000;stroke-width:7.88px;stroke-linecap:round;stroke-linejoin:round;"/><path d="M259,134.807l-2.837,120.392" style="fill:none;fill-rule:nonzero;stroke:#000;stroke-width:7.88px;stroke-linecap:round;stroke-linejoin:round;"/><path d="M7.559,562.108l249.027,-318.521l249.268,435.588" style="fill:none;fill-rule:nonzero;stroke:#000;stroke-width:7.88px;stroke-linecap:round;stroke-linejoin:round;"/><path d="M107.205,513.004l43.396,-0.634l-4.768,45.696" style="fill:none;fill-rule:nonzero;stroke:#000;stroke-width:7.88px;stroke-linecap:round;stroke-linejoin:round;"/><path d="M247.108,369.391l-1.63,52.4l50.095,-9.425" style="fill:none;fill-rule:nonzero;stroke:#000;stroke-width:7.88px;stroke-linecap:round;stroke-linejoin:round;"/><path d="M210.656,473.962c-0,0 3.621,-56.308 39.895,-38.442c36.273,17.871 10.079,94.713 -35.248,101.588c-45.327,6.871 -67.417,-41.413 -4.647,-63.146Z" style="fill-rule:nonzero;stroke:#000;stroke-width:7.88px;stroke-linecap:round;stroke-linejoin:round;"/><path d="M372.046,804.516l-4.158,35.138l-2.74,58.616l0.452,87.159l7.038,70.487l11.624,122.679l10.025,90.796l12.451,102.713l5.692,32.396l121.228,-59.9l505.225,-23.85l1.629,-37.692l-2.137,-63.746l-5.963,-70.825l-6.446,-67.1l-19.537,-136.325l-12.179,-86.367l-13.659,-78.595l-15.612,-90.121l-11.196,-40.525l-18.417,-44.804l-20.237,-35.88l-30.383,-32.512l-233.58,43.283l-156.983,59.379l-123.211,147.125l1.074,18.471Z" style="fill:#fff;fill-rule:nonzero;stroke:#000;stroke-width:3.13px;"/><path d="M411.008,1399.48l120.258,-56.496l508.592,-24.113l-6.471,19.875l-22.071,20.521l-40.337,18.438l-58.413,16.891l-70.995,13.692l-61.605,5.667l-77.858,7.316l-68.583,2.5l-64.363,0.584l-48.171,-0.763l-43.808,-2.633c0,-0 -67.745,-3.929 -66.175,-21.479Z" style="fill-rule:nonzero;"/><path d="M875.191,530.787c0,0 46.213,105.642 5.455,119.788c-40.763,14.141 -104.75,-46.638 -160.709,-30.692c-55.946,15.942 -59.525,46.537 -46.262,102.279c13.266,55.746 17.083,128.546 -53.4,122.471c-70.484,-6.079 -96.038,-45.771 -83.854,-119.771c12.187,-74 -23.784,-99.187 -32.971,-45.633c-9.192,53.558 90.829,334.625 25.525,385.191c-65.304,50.575 -113.467,-24.57 -119.486,-139.845c-6.011,-115.275 -20.774,-158.359 -34.572,-127.471c-13.797,30.875 -9.041,188.158 -9.041,188.158c-0,0 -12.886,20.954 -18.493,-92.2c-5.601,-113.154 -9.041,-217.804 51.845,-279.404c60.88,-61.604 171.797,-115.142 231.372,-103.6c59.583,11.537 193.566,26.2 219.521,9.217c25.958,-16.984 71.55,11.208 67.47,54.787c0,0 -30.72,-12.067 -42.4,-43.275Z" style="fill:#fff;fill-rule:nonzero;stroke:#000;stroke-width:7.88px;stroke-linecap:round;stroke-linejoin:round;"/><path d="M915.016,570.066c0,0 37.25,53.525 49.434,117.725c12.183,64.196 93.75,531.171 73.121,638.584c-20.63,107.416 -612.713,115.229 -624.87,78c-12.15,-37.225 -47.277,-420.967 -47.277,-420.967" style="fill:none;fill-rule:nonzero;stroke:#000;stroke-width:7.88px;stroke-linecap:round;stroke-linejoin:round;"/><path d="M644.071,1366.25c-0,0 20.466,226.13 27.02,243.092c6.555,16.967 208.992,-5.121 208.992,-5.121l-34.925,-249.85l-201.087,11.879Z" style="fill:#fff;fill-rule:nonzero;stroke:#000;stroke-width:7.88px;stroke-linecap:round;stroke-linejoin:round;"/><path d="M843.746,947.495c-9.171,-1.279 -26.675,11.017 -57.338,16.442c-12.854,2.267 -41.767,-11.854 -52.808,-8.962c-7.246,1.887 10.925,26.858 27.4,45.483c16.475,18.625 27.4,24.667 66.45,-8.463c39.05,-33.141 25.533,-43.216 16.296,-44.5Z" style="fill-rule:nonzero;"/><path d="M637.996,861.275c-0,-0 -5.796,-10.4 13.337,-9.013c19.133,1.383 46.35,9.738 47.017,22.758c0.662,13.021 -60.354,-13.745 -60.354,-13.745Z" style="fill-rule:nonzero;stroke:#000;stroke-width:3.13px;"/><path d="M914.483,851.058c0,-0 5.854,-10.4 -13.279,-9.013c-19.133,1.384 -46.354,9.738 -47.017,22.759c-0.662,13.021 60.296,-13.746 60.296,-13.746Z" style="fill-rule:nonzero;stroke:#000;stroke-width:3.13px;"/><path d="M1256.21,1137.85c0,-0 -67.091,-40.571 -74.275,-156.859c-7.187,-116.296 87.559,-190.912 169.409,-204.016c81.845,-13.1 91.37,-8.813 130.45,-0.605c39.075,8.213 75.204,36.667 75.204,36.667c-0,0 35.541,26.546 51.804,65.425c16.258,38.879 21.092,42.358 27.121,70.621c6.029,28.258 3.012,83.375 -14.488,121.167c-17.512,37.795 -44.283,55.512 -44.283,55.512l-13.471,10.413l23.254,28.22c0,0 23.859,36.855 23.35,89.734c-0.5,52.883 -43.221,88.441 -43.221,88.441c0,0 -70.241,54.359 -134.162,56.963c-63.929,2.596 -116.983,-20.933 -142.408,-32.721c-25.43,-11.787 -58.246,-41.012 -69.859,-72.687c-11.604,-31.684 -15.196,-70.905 2.192,-110.384c17.387,-39.479 33.383,-45.891 33.383,-45.891Z" style="fill:#fff;fill-rule:nonzero;"/><path d="M1389.53,1398.14l-0,175.238c-0,-0 29.371,1.683 36.5,19.712c7.171,18.025 4.908,26.379 4.908,26.379l-96.566,-2.108l-0.08,-231.987l55.238,12.766Z" style="fill-rule:nonzero;stroke:#000;stroke-width:2.02px;"/><path d="M1334.6,1386.83l-0.271,230.537l97.192,0c-0,0 6,-56.554 -67.975,-39.095" style="fill:none;fill-rule:nonzero;stroke:#000;stroke-width:5.08px;stroke-linecap:round;stroke-linejoin:round;"/><path d="M1389.38,1574.69l-0,-177.312" style="fill:none;fill-rule:nonzero;stroke:#000;stroke-width:5.08px;stroke-linecap:round;stroke-linejoin:round;"/><path d="M1435.23,1398.2l-0,219.683l98.4,0.029c-0,0 4.246,-41.529 -42.384,-43.925l0,-186.437c0,-0 -47.095,9.7 -56.016,10.65Z" style="fill-rule:nonzero;stroke:#000;stroke-width:2.02px;"/><path d="M1435.81,1397.39l0.392,219.854l97.191,0c0,0 5.959,-56.554 -67.975,-39.091" style="fill:none;fill-rule:nonzero;stroke:#000;stroke-width:5.08px;stroke-linecap:round;stroke-linejoin:round;"/><path d="M1491.2,1574.56l-1.092,-186.875" style="fill:none;fill-rule:nonzero;stroke:#000;stroke-width:5.08px;stroke-linecap:round;stroke-linejoin:round;"/><path d="M1391.2,1162.89c-0,0 107.487,44.588 180.275,-17.8l-8.188,-9.558c0,0 -64.104,55.446 -172.087,27.358Z" style="fill-rule:nonzero;stroke:#000;stroke-width:3.12px;"/><path d="M1281.29,1153.38l-34.546,-5.884l9.4,-10.25l25.146,16.134Z" style="fill-rule:nonzero;stroke:#000;stroke-width:3.12px;"/><path d="M1280.61,1152.54c0,0 -102.683,-42 -96.996,-187.271c5.65,-145.271 140.667,-214.241 280.746,-192.483c140.079,21.762 192.317,170.896 167.584,271.25c-24.7,100.35 -162.48,152.937 -242.025,117.483" style="fill:none;fill-rule:nonzero;stroke:#000;stroke-width:5.08px;stroke-linecap:round;stroke-linejoin:round;"/><path d="M1566.38,1139.12c0,0 53.488,49.979 42.733,129.509c-10.75,79.529 -113.395,131.083 -194.341,130.633c-76.042,-0.421 -183.242,-40.817 -201.592,-125.279c-18.346,-84.463 42.929,-135.817 42.929,-135.817" style="fill:none;fill-rule:nonzero;stroke:#000;stroke-width:5.08px;stroke-linecap:round;stroke-linejoin:round;"/><path d="M1629.3,991.962c-0,67.171 -63.575,122.446 -140.859,122.458c-77.287,0.009 -140.862,-55.25 -140.9,-122.425c0,-67.17 63.534,-122.458 140.821,-122.491c77.246,-0.025 140.858,55.216 140.938,122.383" style="fill:#fff;"/><path d="M1629.3,991.962c-0,67.171 -63.575,122.446 -140.859,122.458c-77.287,0.009 -140.862,-55.25 -140.9,-122.425c0,-67.17 63.534,-122.458 140.821,-122.491c77.246,-0.025 140.858,55.216 140.938,122.383" style="fill:none;fill-rule:nonzero;stroke:#000;stroke-width:5.08px;stroke-linecap:round;stroke-linejoin:round;"/><path d="M1485.4,992.662c-0,10.888 -6.779,19.854 -14.959,19.854c-8.183,0.004 -14.92,-8.958 -14.92,-19.854c-0,-10.887 6.7,-19.854 14.92,-19.862c8.18,-0.005 14.917,8.958 14.959,19.85"/><path d="M1589.33,993.795c-0,10.892 -6.738,19.85 -14.921,19.855c-8.217,-0 -14.958,-8.959 -14.958,-19.85c-0,-10.892 6.741,-19.859 14.958,-19.863c8.183,-0.004 14.921,8.95 14.921,19.846"/><path d="M1511.81,999.133c0,-0 3.621,12.446 13.4,12.621c9.817,0.171 12.271,-12.304 12.271,-12.304" style="fill:none;fill-rule:nonzero;stroke:#000;stroke-width:5.08px;stroke-linecap:round;stroke-linejoin:round;"/><path d="M1399.58,815.712l23.879,-83.317l-132.604,-80.875l108.646,-92.733l-83.013,90.838l124.225,79.558l-41.133,86.529Z" style="fill-rule:nonzero;stroke:#000;stroke-width:3.12px;"/><path d="M1436.67,572.3c0,24.2 -19.866,44.116 -44.058,44.12c-24.154,0 -44.058,-19.908 -44.058,-44.104c-0,-24.2 19.866,-44.116 44.058,-44.129c24.15,-0.008 44.058,19.892 44.058,44.092"/><path d="M1358.17,816.55c-0,-0 36.812,-13.13 80.283,6.35" style="fill:none;fill-rule:nonzero;stroke:#000;stroke-width:3.12px;stroke-linecap:round;stroke-linejoin:round;"/><path d="M1431.98,797.062c-0,0 -32.304,11.138 -49.183,33.725" style="fill:none;fill-rule:nonzero;stroke:#000;stroke-width:3.13px;stroke-linecap:round;stroke-linejoin:round;"/><path d="M840.583,1397.17c0,0 -56.221,-0.666 -81.579,-14.266c-25.358,-13.604 -29.7,-35.288 -30.829,-51.259c-1.134,-15.966 -11.234,-49.608 -43.354,-12.666c-32.121,36.937 -46.5,120.471 10.758,151.416c-0,0 12.362,69.03 61.792,87.263c-0,-0 -5.35,60.771 25.704,57.992c31.083,-2.78 9.466,-49.217 74.466,-44.388c65,4.829 115.021,-13.162 130.784,-68.217l5.162,-32.275c0,0 5.692,69.73 57.354,88.38c51.688,18.654 85.542,10.379 85.542,10.379c0,-0 35.175,-4.117 42.788,19.062c7.612,23.175 46.029,52.029 57.1,-33.491c-0,-0 46.154,-29.234 58.112,-89.038c0,0 49.017,-32.092 33.913,-98.067c-15.1,-65.975 -59.492,-84.187 -66.288,-51.191c-6.829,33.004 4.971,43.979 -29.1,63.775c-34.104,19.791 -79.254,18.525 -79.254,18.525c-0,-0 -65.408,59.416 -164.071,58.712c-98.662,-0.704 -149,-60.646 -149,-60.646Z" style="fill:#30aad8;fill-rule:nonzero;stroke:#000;stroke-width:1.63px;"/><path d="M1243.54,1210.17c0,134.383 -110.458,244.975 -244.696,244.991c-134.262,0.021 -244.762,-110.533 -244.804,-244.921c-0.021,-134.387 110.396,-245.008 244.659,-245.066c134.237,-0.059 244.758,110.462 244.841,244.85" style="fill:#30aad8;"/><path d="M1243.54,1210.17c0,134.383 -110.458,244.975 -244.696,244.991c-134.262,0.021 -244.762,-110.533 -244.804,-244.921c-0.021,-134.387 110.396,-245.008 244.659,-245.066c134.237,-0.059 244.758,110.462 244.841,244.85" style="fill:none;fill-rule:nonzero;stroke:#000;stroke-width:8.32px;stroke-linecap:round;stroke-linejoin:round;"/><path d="M1152.36,1401.14c0,0 104.142,-4.062 105.704,-55.146c1.584,-51.087 25.409,-59.408 46.192,-27.787c20.804,31.616 53.029,104.266 -10.671,147.008" style="fill:none;fill-rule:nonzero;stroke:#000;stroke-width:8.32px;stroke-linecap:round;stroke-linejoin:round;"/><path d="M1095.62,1435.38c-0,-0 12.191,64.429 75.687,53.395c35.434,-6.158 65.263,19.184 61.679,76.309c-3.608,57.121 -42.045,61.479 -55.929,18.158c-13.862,-43.317 -175.033,47.596 -182.871,-129.071" style="fill:none;fill-rule:nonzero;stroke:#000;stroke-width:8.32px;stroke-linecap:round;stroke-linejoin:round;"/><path d="M1233.01,1557.25c0,-0 70.958,-42.909 55.471,-105.309c-15.508,-62.404 -46.317,-74.025 -50.258,-35.4c-3.938,38.625 -85.921,67.817 -101.075,-3.787" style="fill:none;fill-rule:nonzero;stroke:#000;stroke-width:8.32px;stroke-linecap:round;stroke-linejoin:round;"/><path d="M840.483,1397.96c0,0 -108.85,2.054 -110.412,-49.033c-1.584,-51.084 -25.413,-59.404 -46.192,-27.788c-20.804,31.621 -53.029,104.267 10.671,147.013" style="fill:none;fill-rule:nonzero;stroke:#000;stroke-width:8.32px;stroke-linecap:round;stroke-linejoin:round;"/><path d="M894.516,1434.55c0,-0 -14.195,68.191 -77.691,57.158c-35.434,-6.158 -65.263,19.183 -61.679,76.304c3.608,57.125 42.045,61.484 55.929,18.163c13.858,-43.321 175.033,47.596 182.871,-129.075" style="fill:none;fill-rule:nonzero;stroke:#000;stroke-width:8.32px;stroke-linecap:round;stroke-linejoin:round;"/><path d="M755.104,1560.19c-0,0 -70.938,-42.908 -55.45,-105.312c15.508,-62.4 46.317,-74.025 50.258,-35.396c3.938,38.625 88.759,63.213 103.892,-8.387" style="fill:none;fill-rule:nonzero;stroke:#000;stroke-width:8.32px;stroke-linecap:round;stroke-linejoin:round;"/><path d="M1138.9,1182.5c2.504,6.096 -7.85,15.059 -22.959,19.838c-15.108,4.779 -29.62,3.679 -32.125,-2.417c-2.508,-6.096 7.846,-15.058 22.955,-19.837c15.108,-4.779 29.595,-3.692 32.12,2.396"/><path d="M881.379,1185.41c-2.508,6.1 7.85,15.054 22.958,19.833c15.109,4.78 29.617,3.696 32.125,-2.408c2.509,-6.104 -7.85,-15.058 -22.954,-19.837c-15.108,-4.784 -29.617,-3.7 -32.125,2.404"/><path d="M1048.12,1300.51c-0,31.733 -20.321,57.85 -45.021,57.854c-24.708,0.004 -45.038,-26.104 -45.046,-57.837c-0.004,-31.734 20.317,-57.855 45.017,-57.871c24.7,-0.013 45.037,26.087 45.05,57.821" style="fill:none;fill-rule:nonzero;stroke:#000;stroke-width:8.31px;stroke-linecap:round;stroke-linejoin:round;"/><path d="M1024.76,1301.53c0,15.658 -10.029,28.546 -22.225,28.55c-12.187,-0 -22.221,-12.884 -22.225,-28.542c-0.004,-15.662 10.025,-28.554 22.217,-28.558c12.187,-0.009 22.225,12.871 22.233,28.533"/><path d="M1024.76,1301.53c0,15.658 -10.029,28.546 -22.225,28.55c-12.187,-0 -22.221,-12.884 -22.225,-28.542c-0.004,-15.662 10.025,-28.554 22.217,-28.558c12.187,-0.009 22.225,12.871 22.233,28.533" style="fill:none;fill-rule:nonzero;stroke:#000;stroke-width:1.33px;stroke-linecap:round;stroke-linejoin:round;"/><path d="M1146.62,1241.92c0,21.696 -17.833,39.546 -39.504,39.55c-21.666,0.005 -39.504,-17.845 -39.512,-39.537c-0.004,-21.692 17.821,-39.55 39.491,-39.558c21.667,-0.009 39.513,17.829 39.525,39.525" style="fill:#fff;"/><path d="M1146.62,1241.92c0,21.696 -17.833,39.546 -39.504,39.55c-21.666,0.005 -39.504,-17.845 -39.512,-39.537c-0.004,-21.692 17.821,-39.55 39.491,-39.558c21.667,-0.009 39.513,17.829 39.525,39.525" style="fill:none;fill-rule:nonzero;stroke:#000;stroke-width:2.71px;stroke-linecap:round;stroke-linejoin:round;"/><path d="M936.4,1245.41c-0,21.692 -17.829,39.546 -39.5,39.546c-21.671,0.004 -39.504,-17.842 -39.513,-39.534c-0.004,-21.691 17.821,-39.55 39.492,-39.558c21.667,-0.012 39.512,17.829 39.521,39.521" style="fill:#fff;"/><path d="M936.4,1245.41c-0,21.692 -17.829,39.546 -39.5,39.546c-21.671,0.004 -39.504,-17.842 -39.513,-39.534c-0.004,-21.691 17.821,-39.55 39.492,-39.558c21.667,-0.012 39.512,17.829 39.521,39.521" style="fill:none;fill-rule:nonzero;stroke:#000;stroke-width:2.71px;stroke-linecap:round;stroke-linejoin:round;"/><path d="M1130.2,1240.98c-0,12.208 -10.034,22.258 -22.234,22.262c-12.195,0 -22.237,-10.046 -22.241,-22.258c-0,-12.208 10.033,-22.258 22.229,-22.263c12.196,-0.008 22.242,10.034 22.246,22.242"/><path d="M1133.03,1227.73c-0,3.916 -3.217,7.133 -7.125,7.133c-3.908,-0 -7.121,-3.217 -7.121,-7.129c-0.004,-3.909 3.208,-7.134 7.117,-7.134c3.908,0 7.125,3.217 7.129,7.125" style="fill:#fff;"/><path d="M919.229,1244.12c-0,12.212 -10.033,22.258 -22.233,22.262c-12.196,0 -22.238,-10.046 -22.238,-22.254c-0.004,-12.213 10.029,-22.263 22.225,-22.267c12.196,-0.004 22.242,10.034 22.246,22.246"/><path d="M919.5,1232.47c-0,3.913 -3.217,7.134 -7.121,7.134c-3.908,-0 -7.125,-3.221 -7.125,-7.13c-0,-3.912 3.212,-7.133 7.121,-7.133c3.904,0 7.125,3.217 7.125,7.129Z" style="fill:#fff;"/><path d="M1237.13,1063.64c-0,0 62.583,-30.829 49.508,-109.058c0,-0 -37.191,98.391 -247.366,112.933c-210.175,14.542 -241.555,-52.212 -273.384,-9.608c-31.829,42.6 -6.791,104.8 44.217,118.812c51.012,14.017 341.617,33.884 429.867,-40.887l-33.25,8.366l101.229,-107.691l-70.821,27.133Z" style="fill:#fff;fill-rule:nonzero;stroke:#000;stroke-width:8.31px;stroke-linecap:round;stroke-linejoin:round;"/><path d="M426.862,1403.88l5.184,-24.625l62.691,-11.892l2.259,-2.887l-18.392,-41.525l-41.542,-77.575c0,-0 36.696,-11.346 42.463,-26.309c5.766,-14.958 4.012,-32.716 4.012,-32.716c0,-0 -70.634,34.525 -109.754,32.475c-39.036,-2.05 -76.734,-4.888 -76.734,-4.888l-71.72,-17.587l-22.569,-8.425c0,-0 -3.093,38.079 25.662,50.562c28.838,12.479 23.489,10.621 23.489,10.621l-21.566,41.367l-23.656,47.125l-14.796,31.671l45.64,6.258l20.228,6.133l3.428,24.334l165.673,-2.117Z" style="fill:#fff;fill-rule:nonzero;stroke:#000;stroke-width:4.33px;"/><path d="M417.754,1510.33l-0,-79.984l9.696,-25.112l-166.929,-0.234l10.198,29.738l0.251,75.692l53.413,-0.142l-0.669,-65.367l41.294,0.529l-0.419,67.088l48.984,-0.05l4.01,0.646l0.171,-2.804Z" style="fill-rule:nonzero;"/><path d="M360.577,1591.14l127.389,2.042c0,0 0.588,20.225 -12.287,22.133c-12.954,1.905 -115.853,-3.466 -115.853,-3.466l0.751,-20.709Z" style="fill:#fff;fill-rule:nonzero;"/><path d="M329.401,1594.52l-0.168,15.196l-62.19,1.933l-59.181,-1.22l-4.514,-18.525l126.053,2.616Z" style="fill:#fff;fill-rule:nonzero;"/><path d="M360.745,1531.54l59.18,0.625c-0,0 43.3,-15.158 59.933,13.088c16.721,28.258 6.188,48.7 6.188,48.7l-126.973,-1.642l1.672,-60.771Z" style="fill-rule:nonzero;"/><path d="M264.95,1526.22l64.113,2.238l0.168,64.971l-126.805,-0.575c-0,-0 -15.465,-79.509 62.524,-66.634Z" style="fill-rule:nonzero;"/><path d="M257.679,1382.01c-0,0 -0.668,21.1 5.852,31.938c6.52,10.833 8.526,21.604 3.928,27.529c-4.597,5.921 -13.791,4.283 -16.132,2.466c-2.34,-1.816 -7.607,-2.637 -8.109,2.325c-0.501,4.963 6.855,4.25 10.282,2.463c3.511,-1.792 14.795,-6.738 15.966,0.308c1.17,7.046 3.009,23.179 -13.625,28.209c-16.635,5.029 -42.297,6.125 -55.588,-6.059c-13.29,-12.191 -18.89,-29.529 -19.141,-49.837c-0.167,-20.317 11.703,-52.692 11.703,-52.692l28.503,3.467l27.25,7.162l9.111,2.721Z" style="fill-rule:nonzero;"/><path d="M497.166,1366.09c0,0 13.542,24.383 11.284,57.15c-2.342,32.767 -17.388,59.658 -62.192,53.1c-44.885,-6.571 -22.233,-36.4 -22.233,-36.4c-0,0 19.729,12.058 22.15,8.333c2.341,-3.72 -1.171,-10.608 -8.525,-7.304c-7.271,3.304 -20.729,-2.433 -18.221,-14.333c2.508,-11.896 15.379,-38.917 12.371,-45.358l31.929,-8.83l33.437,-6.358Z" style="fill-rule:nonzero;"/><path d="M341.102,1218.51c-0,0 -216.413,-8.367 -240.319,-138.508c-23.99,-130.146 59.18,-272.992 238.563,-282.409c179.3,-9.412 270.162,160.28 250.266,264.042c-18.304,95.088 -139.341,163.475 -248.51,156.875Z" style="fill:#fff;fill-rule:nonzero;stroke:#000;stroke-width:7.85px;stroke-linecap:round;stroke-linejoin:round;"/><path d="M446.675,814.375c-0,-0 6.854,-64.9 42.296,-60.271c35.441,4.616 88.937,57.491 86.345,88.862c-2.591,31.367 -45.47,35.442 -45.47,35.442c-0,-0 -29.509,-39.258 -83.171,-64.033Z" style="fill-rule:nonzero;stroke:#000;stroke-width:7.85px;stroke-linecap:round;stroke-linejoin:round;"/><path d="M241.714,817.62c-0,0 -7.858,-69.141 -43.383,-64.512c-35.443,4.617 -88.939,57.492 -86.348,88.862c2.591,31.367 45.556,35.442 45.556,35.442c-0,0 30.51,-36.9 84.175,-59.792Z" style="fill-rule:nonzero;stroke:#000;stroke-width:7.85px;stroke-linecap:round;stroke-linejoin:round;"/><path d="M484.121,1187.69c-0,0 17.804,61.558 -88.102,60.821" style="fill:none;fill-rule:nonzero;stroke:#000;stroke-width:7.85px;stroke-linecap:round;stroke-linejoin:round;"/><path d="M203.181,1187.75c0,-0 -14.879,63.45 87.602,64.354" style="fill:none;fill-rule:nonzero;stroke:#000;stroke-width:7.85px;stroke-linecap:round;stroke-linejoin:round;"/><path d="M437.312,1246.03c0,-0 38.784,63.983 60.684,120.046c21.816,56.062 10.533,107.154 -35.105,110.475c-45.641,3.329 -47.645,-21.896 -42.045,-31.954c5.683,-10.067 20.729,8.591 24.825,1.462c4.095,-7.129 -6.438,-8.842 -8.609,-5.021c-2.175,3.825 -23.489,1.867 -16.3,-17.979c7.188,-19.85 27.334,-54.121 -17.052,-174.904" style="fill:none;fill-rule:nonzero;stroke:#000;stroke-width:7.85px;stroke-linecap:round;stroke-linejoin:round;"/><path d="M252.081,1249.64c-0,0 -38.786,63.988 -60.686,120.05c-21.817,56.067 -10.533,107.15 35.107,110.48c45.639,3.325 47.729,-21.896 42.045,-31.963c-5.6,-10.067 -20.729,8.604 -24.825,1.475c-4.096,-7.129 6.52,-8.854 8.609,-5.029c2.174,3.821 23.572,1.867 16.3,-17.983c-7.189,-19.838 -27.333,-54.121 17.052,-174.905" style="fill:none;fill-rule:nonzero;stroke:#000;stroke-width:7.85px;stroke-linecap:round;stroke-linejoin:round;"/><path d="M299.808,1439.23c-0,-0 48.064,13.775 82.92,-0" style="fill:none;fill-rule:nonzero;stroke:#000;stroke-width:7.85px;stroke-linecap:round;stroke-linejoin:round;"/><path d="M261.359,1405.34l166.345,0" style="fill:none;fill-rule:nonzero;stroke:#000;stroke-width:7.85px;stroke-linecap:round;stroke-linejoin:round;"/><path d="M364.256,1445.28l0,68.604" style="fill:none;fill-rule:nonzero;stroke:#000;stroke-width:7.85px;stroke-linecap:round;stroke-linejoin:round;"/><path d="M324.051,1444.42l-0,65.871" style="fill:none;fill-rule:nonzero;stroke:#000;stroke-width:7.85px;stroke-linecap:round;stroke-linejoin:round;"/><path d="M271.556,1438.04l0,74.054" style="fill:none;fill-rule:nonzero;stroke:#000;stroke-width:7.85px;stroke-linecap:round;stroke-linejoin:round;"/><path d="M417.5,1429.91l-0,83.833" style="fill:none;fill-rule:nonzero;stroke:#000;stroke-width:7.85px;stroke-linecap:round;stroke-linejoin:round;"/><path d="M396.77,1554.37c-0,0 18.809,-30.483 52.242,-25.429c33.438,5.054 38.284,27.779 38.2,51.117c0,23.337 -1.337,32.071 -8.608,33.437c-7.271,1.363 -116.44,1.238 -118.111,-2.312c-1.756,-3.546 0.25,-80.15 0.25,-80.15l62.861,0.946" style="fill:none;fill-rule:nonzero;stroke:#000;stroke-width:7.85px;stroke-linecap:round;stroke-linejoin:round;"/><path d="M293.207,1551.33c-0,-0 -18.808,-30.483 -52.244,-25.429c-33.519,5.054 -38.283,27.779 -38.283,51.116c0.084,23.338 1.421,32.067 8.694,33.438c7.272,1.362 116.356,1.237 118.112,-2.308c1.755,-3.559 -0.252,-78.271 -0.252,-78.271l-62.943,-0.938" style="fill:none;fill-rule:nonzero;stroke:#000;stroke-width:7.85px;stroke-linecap:round;stroke-linejoin:round;"/><path d="M334.831,1516.42c-0,-2.679 -2.174,-4.862 -4.849,-4.862l-65.785,-0c-2.675,-0 -4.848,2.183 -4.848,4.862l0,3.75c0,2.675 2.173,4.859 4.848,4.859l65.785,-0c2.675,-0 4.849,-2.184 4.849,-4.859l-0,-3.75Z" style="fill:#fff;stroke:#000;stroke-width:7.85px;stroke-linecap:round;stroke-linejoin:round;stroke-miterlimit:4.9;"/><path d="M430.541,1518.55c0,-2.68 -2.175,-4.863 -4.85,-4.863l-65.867,0c-2.675,0 -4.849,2.183 -4.849,4.863l0,3.75c0,2.675 2.174,4.858 4.849,4.858l65.867,-0c2.675,-0 4.85,-2.183 4.85,-4.858l0,-3.75Z" style="fill:#fff;stroke:#000;stroke-width:7.85px;stroke-linecap:round;stroke-linejoin:round;stroke-miterlimit:4.9;"/><path d="M203.848,1592.88l126.554,0.791" style="fill:none;fill-rule:nonzero;stroke:#000;stroke-width:7.85px;stroke-linecap:round;stroke-linejoin:round;"/><path d="M360.578,1592.24l124.968,1.463" style="fill:none;fill-rule:nonzero;stroke:#000;stroke-width:7.85px;stroke-linecap:round;stroke-linejoin:round;"/><path d="M432.133,1381.09c0,0 41.542,-14.258 66.371,-13.6" style="fill:none;fill-rule:nonzero;stroke:#000;stroke-width:7.85px;stroke-linecap:round;stroke-linejoin:round;"/><path d="M192.731,1368.75c0,0 41.711,2.238 64.029,13.85" style="fill:none;fill-rule:nonzero;stroke:#000;stroke-width:7.85px;stroke-linecap:round;stroke-linejoin:round;"/><path d="M382.392,983.337c0,0 19.476,-16.733 32.349,-23.404c27.417,-14.167 127.138,-61.483 131.234,67.15c4.012,128.637 -141.85,64.117 -163.583,-43.746Z" style="fill-rule:nonzero;stroke:#000;stroke-width:4.33px;"/><path d="M298.052,981.879c-0,-0 -19.476,-16.734 -32.349,-23.392c-27.417,-14.175 -127.14,-61.492 -131.236,67.138c-4.012,128.641 141.851,64.12 163.585,-43.746Z" style="fill-rule:nonzero;stroke:#000;stroke-width:4.33px;"/><path d="M360.912,1017.13c-0,5.337 -8.778,9.729 -19.477,9.729c-10.616,0 -19.476,-4.392 -19.476,-9.729c0,-5.338 8.777,-9.733 19.476,-9.742c10.699,0 19.477,4.396 19.477,9.734"/><path d="M342.272,1018.61l-0,25.296" style="fill:none;fill-rule:nonzero;stroke:#000;stroke-width:4.33px;stroke-linecap:round;stroke-linejoin:round;"/><path d="M467.871,981.95l6.92,-12.455l12.771,0l-12.012,21.046l12.529,21.996l-12.808,0l-7.4,-13.204l-7.28,13.204l-12.887,0l12.571,-21.996l-12.017,-21.046l12.85,0l6.763,12.455Z" style="fill:#fff;fill-rule:nonzero;"/><path d="M207.416,980.65l-6.922,-12.45l-12.768,-0l12.012,21.041l-12.53,21.996l12.809,0l7.399,-13.204l7.279,13.204l12.888,0l-12.57,-21.996l12.014,-21.041l-12.849,-0l-6.762,12.45Z" style="fill:#fff;fill-rule:nonzero;"/></svg>