<?xml version="1.0" encoding="UTF-8" standalone="no"?><!DOCTYPE svg PUBLIC "-//W3C//DTD SVG 1.1//EN" "http://www.w3.org/Graphics/SVG/1.1/DTD/svg11.dtd"><svg width="100%" height="100%" viewBox="0 0 2014 1451" version="1.1" xmlns="http://www.w3.org/2000/svg" xmlns:xlink="http://www.w3.org/1999/xlink" xml:space="preserve" xmlns:serif="http://www.serif.com/" style="fill-rule:evenodd;clip-rule:evenodd;"><path d="M966.402,236.605c0,0 -54.716,-55.574 -121.541,-51.752c-66.759,3.821 121.541,51.752 121.541,51.752Z" style="fill-rule:nonzero;stroke:#000;stroke-width:4.16px;"/><path d="M770.848,315.216c0,-0 -54.712,-55.574 -121.542,-51.752c-66.754,3.821 121.542,51.752 121.542,51.752Z" style="fill-rule:nonzero;stroke:#000;stroke-width:4.16px;"/><path d="M1032.6,798.447c0,0 -54.787,-55.575 -121.542,-51.75c-66.758,3.813 121.542,51.75 121.542,51.75Z" style="fill-rule:nonzero;stroke:#000;stroke-width:4.16px;"/><path d="M1814.95,1013.22c0,0 -54.712,-55.571 -121.542,-51.758c-66.754,3.821 121.542,51.758 121.542,51.758Z" style="fill-rule:nonzero;stroke:#000;stroke-width:4.16px;"/><path d="M1291.52,60.522c0,0 -54.783,-55.574 -121.542,-51.752c-66.758,3.815 121.542,51.752 121.542,51.752Z" style="fill-rule:nonzero;stroke:#000;stroke-width:4.16px;"/><path d="M1685.24,94.961c-0,-0 -54.717,-55.581 -121.546,-51.76c-66.754,3.822 121.546,51.76 121.546,51.76Z" style="fill-rule:nonzero;stroke:#000;stroke-width:4.16px;"/><path d="M597.34,627.735c-0,-0 -54.788,-55.575 -121.542,-51.75c-66.758,3.812 121.542,51.75 121.542,51.75Z" style="fill-rule:nonzero;stroke:#000;stroke-width:4.16px;"/><path d="M861.831,267.862c0,7.623 6.267,13.894 13.946,13.894c7.604,-0 13.871,-6.271 13.871,-13.887c0,-7.622 -6.267,-13.893 -13.871,-13.9c-7.608,-0 -13.946,6.271 -13.946,13.893Z" style="stroke:#000;stroke-width:2.61px;"/><path d="M1185.12,129.293c0,7.623 6.267,13.894 13.875,13.894c7.675,-0 13.942,-6.264 13.942,-13.887c-0,-7.622 -6.267,-13.893 -13.942,-13.893c-7.608,-0.007 -13.875,6.271 -13.875,13.886Z" style="stroke:#000;stroke-width:2.61px;"/><path d="M1339.41,834.181c-0,7.625 6.266,13.896 13.87,13.896c7.609,-0 13.875,-6.271 13.875,-13.896c0,-7.617 -6.2,-13.888 -13.875,-13.892c-7.604,0 -13.87,6.271 -13.87,13.892Z" style="stroke:#000;stroke-width:2.61px;"/><path d="M1730.59,162.337c-0,7.623 6.27,13.894 13.875,13.894c7.675,0 13.941,-6.271 13.941,-13.887c0,-7.622 -6.266,-13.893 -13.941,-13.9c-7.605,0 -13.875,6.271 -13.875,13.893Z" style="stroke:#000;stroke-width:2.61px;"/><path d="M1669.96,856.21c0,7.617 6.267,13.887 13.942,13.887c7.604,0.009 13.871,-6.262 13.871,-13.887c-0,-7.621 -6.267,-13.892 -13.871,-13.892c-7.604,-0.008 -13.942,6.263 -13.942,13.879"/><path d="M1669.96,856.21c0,7.617 6.267,13.887 13.942,13.887c7.604,0.009 13.871,-6.262 13.871,-13.887c-0,-7.621 -6.267,-13.892 -13.871,-13.892c-7.604,-0.008 -13.942,6.263 -13.942,13.879" style="fill:none;fill-rule:nonzero;stroke:#000;stroke-width:2.61px;"/><path d="M1933.74,737.222c-0,0 70.137,-204.158 -75.983,-415.792c-0,0 -177.1,-245.142 -484.759,-215.377c-307.729,29.757 -394.558,266.679 -394.558,266.679c-0,-0 -152.596,16.399 -193.579,93.236c-0,0 -151.542,-20.812 -157.738,126.317c0,-0 7.113,74.933 77.388,84.079c-0,0 88.237,31.5 182.879,-15.092c-0,0 91.262,49.459 143.583,-37.612c0,-0 21.829,100.133 174.217,45.087c-0,0 52.392,97.205 154.496,53.546c-0,0 27.816,152.746 141.683,148.792c113.938,-3.958 95.629,-103.767 95.629,-103.767c0,0 -9.858,33.867 40.492,41.659c50.279,7.791 74.783,7.595 74.783,7.595c0,0 22.042,36.192 45.842,48.125c-0,0 3.733,124.221 127.175,142.942c-0,0 89.292,-1.379 112.954,-105.333c0,-0 29.925,-44.329 -41.758,-115.421c-0,-0 -9.296,-43.167 -22.746,-49.663Z" style="fill:#fff;fill-rule:nonzero;stroke:#000;stroke-width:4.16px;"/><path d="M1935.6,734.247c0,0 104.854,-342.849 -234.633,-550.858c-339.559,-208.008 -757.775,25.261 -743.479,320.283l1.125,16.45" style="fill:none;fill-rule:nonzero;stroke:#000;stroke-width:10.49px;stroke-linecap:round;stroke-linejoin:round;"/><path d="M1797.72,689.439c-0,0 132.742,-6.179 162.525,99.267c-0,-0 82.462,63.979 18.875,163.916c-63.588,99.938 -206.892,55.821 -222.875,-90.133" style="fill:none;fill-rule:nonzero;stroke:#000;stroke-width:10.49px;stroke-linecap:round;stroke-linejoin:round;"/><path d="M1865.82,889.018c-0,0 -109.709,12.492 -152.104,-71.579" style="fill:none;fill-rule:nonzero;stroke:#000;stroke-width:10.49px;stroke-linecap:round;stroke-linejoin:round;"/><path d="M1809.34,773.689c-0,0 -87.392,84.513 -211.892,20.079" style="fill:none;fill-rule:nonzero;stroke:#000;stroke-width:10.49px;stroke-linecap:round;stroke-linejoin:round;"/><path d="M1592.45,735.739c0,0 39.575,122.429 -82.108,134.325c-121.75,11.892 -152.809,-146.733 -152.809,-146.733" style="fill:none;fill-rule:nonzero;stroke:#000;stroke-width:10.49px;stroke-linecap:round;stroke-linejoin:round;"/><path d="M1388.45,704.256c0,-0 -106.683,85.671 -185.762,-37.471" style="fill:none;fill-rule:nonzero;stroke:#000;stroke-width:10.49px;stroke-linecap:round;stroke-linejoin:round;"/><path d="M1249.94,646.535c-0,-0 -190.763,115.85 -228.088,-47.65" style="fill:none;fill-rule:nonzero;stroke:#000;stroke-width:10.49px;stroke-linecap:round;stroke-linejoin:round;"/><path d="M1031.64,630.685c-0,-0 -77.95,102.504 -192.384,-7.913" style="fill:none;fill-rule:nonzero;stroke:#000;stroke-width:10.49px;stroke-linecap:round;stroke-linejoin:round;"/><path d="M1139.03,431.093c0,0 -161.891,-48.035 -188.371,130.292" style="fill:none;fill-rule:nonzero;stroke:#000;stroke-width:10.49px;stroke-linecap:round;stroke-linejoin:round;"/><path d="M980.373,369.6c0,0 -155.908,17.019 -197.175,96.831c0,-0 -132.317,-16.975 -155.271,105.879c-23.029,122.858 187.029,141.954 265.409,87.392" style="fill:none;fill-rule:nonzero;stroke:#000;stroke-width:10.49px;stroke-linecap:round;stroke-linejoin:round;"/><path d="M1380.84,305.249c-0,0 87.037,47.537 82.387,108.038c-4.645,60.502 -59.008,103.235 -129.85,67.335c-70.841,-35.904 -8.029,-73.691 -8.029,-73.691c0,0 -31.266,-14.661 -37.604,-38.07" style="fill:none;fill-rule:nonzero;stroke:#000;stroke-width:10.49px;stroke-linecap:round;stroke-linejoin:round;"/><path d="M1376.41,444.402c0,-0 -3.662,34.25 -41.687,39.12" style="fill:none;fill-rule:nonzero;stroke:#000;stroke-width:10.49px;stroke-linecap:round;stroke-linejoin:round;"/><path d="M1733.71,429.027c34.787,6.437 95.275,-24.96 82.529,-66.683c-12.746,-41.715 -147.667,-124.556 -177.313,-96.952c-29.646,27.612 32.746,152.16 94.784,163.635Z" style="fill-rule:nonzero;stroke:#000;stroke-width:10.49px;stroke-linecap:round;stroke-linejoin:round;"/><path d="M1466.33,233.424c0,16.561 13.592,30.194 30.138,30.194c16.621,0.007 30.212,-13.619 30.279,-30.187c0,-16.561 -13.658,-30.202 -30.208,-30.208c-16.617,-0.007 -30.209,13.619 -30.209,30.18"/><path d="M1462.18,216.849c0,8.023 6.621,14.633 14.646,14.633c8.029,0.007 14.65,-6.603 14.65,-14.633c0,-8.031 -6.621,-14.64 -14.65,-14.64c-8.025,-0.007 -14.646,6.602 -14.646,14.626" style="fill:#fff;"/><path d="M455.515,416.841c-0,0 180.6,-147.048 347.141,-59.49c166.546,87.559 165.192,249.213 165.192,249.213c0,0 159.104,57.521 131.171,229.542c-28.004,172.012 -150.921,189.379 -280.204,170.971c-129.35,-18.417 -270.821,-89.046 -270.821,-89.046l-217.646,-91.617c0,0 -211.458,-88.842 -171.066,-258.667c-0,0 84.127,-210.16 296.233,-150.906Z" style="fill:#fff;fill-rule:nonzero;"/><path d="M526.698,450.343c0,0 -163.225,-112.182 -302.395,23.675c-139.169,135.85 -62.012,283.5 143.324,367.296c205.404,83.8 603.488,298.413 705.171,69.679c101.613,-228.741 -108.829,-309.979 -108.829,-309.979" style="fill:none;fill-rule:nonzero;stroke:#000;stroke-width:8.66px;stroke-linecap:round;stroke-linejoin:round;"/><path d="M454.069,417.944c-0,-0 186.662,-144.506 343.371,-61.599c156.704,82.907 185.466,205.565 161.262,339.586" style="fill:none;fill-rule:nonzero;stroke:#000;stroke-width:8.66px;stroke-linecap:round;stroke-linejoin:round;"/><path d="M614.706,501.856c-1.112,12.508 -12.333,21.891 -24.82,20.783c-12.484,-1.104 -21.88,-12.304 -20.767,-24.812c1.108,-12.5 12.333,-21.88 24.817,-20.784c12.487,1.1 21.883,12.3 20.77,24.8"/><path d="M927.265,616.431c-1.113,12.5 -12.338,21.883 -24.821,20.775c-12.483,-1.096 -21.879,-12.304 -20.771,-24.804c1.113,-12.509 12.267,-21.896 24.821,-20.792c12.483,1.108 21.879,12.3 20.771,24.808"/><path d="M729.736,579.097c-0,0 24.358,26.63 56.183,28.83" style="fill:none;fill-rule:nonzero;stroke:#000;stroke-width:8.66px;stroke-linecap:round;stroke-linejoin:round;"/><path d="M110.461,783.147c-0,0 32.413,-174.287 172.295,-205.475c139.821,-31.154 218.713,63.35 218.713,63.35c-0,0 120.75,-44.954 189.275,68.671c68.525,113.625 5.733,184.209 -78.404,237.171c-84.188,53.008 -201.125,81.646 -201.125,81.646l-171.539,53.979c-0,0 -166.592,52.563 -226.82,-65.912c0,-0 -54.798,-163.363 97.605,-233.43Z" style="fill:#fff;fill-rule:nonzero;"/><path d="M168.302,767.568c0,0 -150.064,15.246 -163.886,162.6c-13.86,147.379 103.698,195.096 264.24,142.629c160.58,-52.495 497.484,-123.912 443.78,-306.733c-53.705,-182.817 -215.938,-126.358 -215.938,-126.358" style="fill:none;fill-rule:nonzero;stroke:#000;stroke-width:6.61px;stroke-linecap:round;stroke-linejoin:round;"/><path d="M110.182,784.464c-0,0 37.117,-175.754 168.995,-204.8c131.879,-29.046 209.013,28 261.025,117.704" style="fill:none;fill-rule:nonzero;stroke:#000;stroke-width:6.61px;stroke-linecap:round;stroke-linejoin:round;"/><path d="M244.82,754.093c5.519,7.804 3.644,18.759 -4.186,24.292c-7.795,5.504 -18.751,3.617 -24.269,-4.188c-5.521,-7.808 -3.646,-18.766 4.145,-24.275c7.828,-5.533 18.784,-3.645 24.302,4.159"/><path d="M482.752,666.702c5.521,7.808 3.609,18.787 -4.183,24.295c-7.796,5.505 -18.788,3.642 -24.304,-4.162c-5.521,-7.808 -3.646,-18.763 4.179,-24.3c7.792,-5.508 18.783,-3.646 24.304,4.158"/><path d="M349.652,742.302c0,-0 27.25,3.479 46.804,-10.913" style="fill:none;fill-rule:nonzero;stroke:#000;stroke-width:6.61px;stroke-linecap:round;stroke-linejoin:round;"/><path d="M1462.68,900.281c0,-0 137.529,-111.959 264.334,-45.292c126.812,66.663 125.762,189.754 125.762,189.754c0,0 121.167,43.8 99.846,174.771c-21.317,130.971 -114.883,144.196 -213.346,130.175c-98.471,-14.012 -206.167,-67.792 -206.167,-67.792l-165.741,-69.762c-0,-0 -160.984,-67.642 -130.25,-196.95c-0,-0 64.029,-160.021 225.562,-114.904Z" style="fill:#fff;fill-rule:nonzero;"/><path d="M1516.84,925.789c-0,0 -124.271,-85.417 -230.205,18.033c-105.979,103.446 -47.254,215.867 109.105,279.667c156.404,63.808 459.479,227.217 536.895,53.046c77.413,-174.175 -82.816,-236.025 -82.816,-236.025" style="fill:none;fill-rule:nonzero;stroke:#000;stroke-width:6.61px;stroke-linecap:round;stroke-linejoin:round;"/><path d="M1461.57,901.131c0,-0 142.083,-110.046 261.421,-46.917c119.342,63.133 141.217,156.521 122.792,258.575" style="fill:none;fill-rule:nonzero;stroke:#000;stroke-width:6.61px;stroke-linecap:round;stroke-linejoin:round;"/><path d="M1583.87,965.022c-0.846,9.521 -9.367,16.663 -18.917,15.817c-9.508,-0.842 -16.637,-9.367 -15.791,-18.887c0.845,-9.525 9.37,-16.667 18.875,-15.83c9.55,0.838 16.679,9.363 15.833,18.884"/><path d="M1821.86,1052.25c-0.846,9.529 -9.413,16.662 -18.917,15.825c-9.508,-0.842 -16.679,-9.371 -15.833,-18.892c0.845,-9.525 9.366,-16.667 18.916,-15.825c9.504,0.833 16.679,9.362 15.834,18.883"/><path d="M1671.44,1023.83c-0,-0 18.521,20.275 42.746,21.945" style="fill:none;fill-rule:nonzero;stroke:#000;stroke-width:6.61px;stroke-linecap:round;stroke-linejoin:round;"/><path d="M1425.04,509.447c-0,0 75.287,59.567 83.958,165.009c8.604,105.437 7.571,211.308 7.571,211.308l-4.404,227.5c-0,0 -16.104,104.888 -72.121,155.746c-56.021,50.858 -132.687,58.708 -132.687,58.708l-70.263,0.579l-133.304,-5.633c-0,0 -39.158,-5.112 -91.392,-46.733c-52.304,-41.621 -63.108,-94.854 -71.091,-124.725c-7.913,-29.884 -4.059,-127.217 38.333,-166.809c42.462,-39.587 56.225,-52.045 56.225,-52.045l30.075,-14.767l-0.825,-212.2c-0,-0 0.479,-168.958 141.629,-210.779c141.15,-41.817 195.654,5.337 195.654,5.337l22.642,9.504Z" style="fill:#fff;fill-rule:nonzero;"/><path d="M1306.67,1274.23l-0.55,85.037c-0,0 30.35,5.454 33.583,20.959c3.238,15.504 1.034,26.904 1.034,26.904l-80.45,-3.159l0.687,-131.225l45.696,1.484Z" style="fill:#fff;fill-rule:nonzero;"/><path d="M1305.57,1272.19l-0,91.667" style="fill:none;fill-rule:nonzero;stroke:#000;stroke-width:10.25px;stroke-linecap:round;stroke-linejoin:round;"/><path d="M1282.1,1367.59c0,0 35.788,-11.687 52.717,5.384c16.929,17.075 6.054,31.8 6.054,31.8l-79.762,-0l-0,-131.005" style="fill:none;fill-rule:nonzero;stroke:#000;stroke-width:10.25px;stroke-linecap:round;stroke-linejoin:round;"/><path d="M1386.92,1303.97l-0.621,57.321c0,0 33.583,2.171 37.438,26.225c3.92,24.046 -13.075,21.146 -13.075,21.146l-67.584,-1.025l-0.825,-87.3l44.667,-16.367Z" style="fill:#fff;fill-rule:nonzero;"/><path d="M1363.17,1369.38c0,-0 35.788,-11.688 52.788,5.383c16.929,17.079 6.054,31.808 6.054,31.808l-79.763,0l0,-84.158" style="fill:none;fill-rule:nonzero;stroke:#000;stroke-width:10.25px;stroke-linecap:round;stroke-linejoin:round;"/><path d="M1387.19,1364.18l-0,-61.342" style="fill:none;fill-rule:nonzero;stroke:#000;stroke-width:10.25px;stroke-linecap:round;stroke-linejoin:round;"/><path d="M1188.3,1325.16l0.413,36.2c-0,-0 32.483,10.337 36.475,26.304c4.058,15.958 -8.259,20.358 -8.259,20.358l-73.087,-2.345l-0.55,-81.117l45.008,0.6Z" style="fill:#fff;fill-rule:nonzero;"/><path d="M1164.77,1367.09c-0,-0 35.787,-11.688 52.716,5.383c16.93,17.071 6.125,31.809 6.125,31.809l-79.833,-0l0,-76.155" style="fill:none;fill-rule:nonzero;stroke:#000;stroke-width:10.25px;stroke-linecap:round;stroke-linejoin:round;"/><path d="M1188.79,1361.88l-0,-36.325" style="fill:none;fill-rule:nonzero;stroke:#000;stroke-width:10.25px;stroke-linecap:round;stroke-linejoin:round;"/><path d="M1107.03,1270.86l-0.071,89.833c0,0 34.825,0.954 36.409,17.788c1.583,16.833 0.687,26.212 0.687,26.212l-83.821,-1.479l1.859,-136.412l44.937,4.058Z" style="fill:#fff;fill-rule:nonzero;"/><path d="M1083.08,1366.09c0,-0 35.784,-11.688 52.713,5.387c17,17.071 6.125,31.805 6.125,31.805l-79.763,-0l0,-131.013" style="fill:none;fill-rule:nonzero;stroke:#000;stroke-width:10.25px;stroke-linecap:round;stroke-linejoin:round;"/><path d="M1106.61,1272.11l-0,87.921" style="fill:none;fill-rule:nonzero;stroke:#000;stroke-width:10.25px;stroke-linecap:round;stroke-linejoin:round;"/><path d="M1064.57,1082.14l-0,-398.837c-0,-0 5.021,-190.259 224.762,-202.004c219.742,-11.75 225.175,191.654 225.796,251.37c0.621,59.725 -3.096,376.146 -3.096,376.146c0,0 -12.87,199.875 -205.495,217.771" style="fill:none;fill-rule:nonzero;stroke:#000;stroke-width:10.25px;stroke-linecap:round;stroke-linejoin:round;"/><path d="M1260.57,1327.06c-0,-0 -140.804,2.016 -154.638,-5.942" style="fill:none;fill-rule:nonzero;stroke:#000;stroke-width:10.25px;stroke-linecap:round;stroke-linejoin:round;"/><path d="M1065.19,916.552c-0,-0 -99.309,45.2 -119.196,133.587c-19.892,88.379 0.275,150.142 31.379,192.367c31.175,42.229 84.167,67.154 84.167,67.154" style="fill:none;fill-rule:nonzero;stroke:#000;stroke-width:10.25px;stroke-linecap:round;stroke-linejoin:round;"/><path d="M1040.27,930.097c0,0 -7.433,-64.712 -77.008,-72.587c-69.646,-7.883 -86.646,76.783 -86.646,76.783" style="fill:none;fill-rule:nonzero;stroke:#000;stroke-width:10.25px;stroke-linecap:round;stroke-linejoin:round;"/><path d="M935.115,972.756c-0,-0 -23.396,-53.354 -91.321,-34.159c-67.925,19.2 -93.529,147.659 38.262,164.796" style="fill:none;fill-rule:nonzero;stroke:#000;stroke-width:10.25px;stroke-linecap:round;stroke-linejoin:round;"/><path d="M949.844,1190.29c-0,0 -44.938,44.296 -105.5,11.754c-60.629,-32.541 -42.254,-101.279 -16.033,-115.179" style="fill:none;fill-rule:nonzero;stroke:#000;stroke-width:10.25px;stroke-linecap:round;stroke-linejoin:round;"/><path d="M1307.02,1325.68c19.683,-8.838 52.1,-118.913 14.387,-147.842c-37.716,-28.933 -34.55,-169.962 75.492,-172.879c110.112,-2.908 114.171,96.025 114.171,96.025c-0,-0 -1.996,202.783 -204.05,224.696Z" style="fill-rule:nonzero;stroke:#000;stroke-width:4.07px;"/><path d="M1369.78,841.268c0,0 1.513,57.788 42.805,55.084c41.291,-2.705 33.033,-55.517 33.033,-55.517" style="fill:none;fill-rule:nonzero;stroke:#000;stroke-width:10.25px;stroke-linecap:round;stroke-linejoin:round;"/><path d="M1379.96,536.831c158.975,-61.054 350.979,-131.578 350.429,-132.156c-1.583,-2.655 -194.071,158.514 -276.858,253.897c-31.109,35.8 -117.821,-104.745 -73.571,-121.741Z" style="fill:#fff;fill-rule:nonzero;stroke:#000;stroke-width:10.25px;stroke-linecap:round;stroke-linejoin:round;"/><path d="M1514.51,791.235c0,30.7 -13.487,55.971 -29.866,55.971c-16.379,0.008 -29.867,-25.25 -29.867,-55.959c0,-30.704 13.488,-55.975 29.867,-55.987c16.379,-0.017 29.866,25.237 29.866,55.942"/><path d="M1322.09,796.568c-0,30.704 -13.488,55.967 -29.867,55.975c-16.379,0 -29.8,-25.258 -29.871,-55.962c0,-30.7 13.492,-55.979 29.871,-55.992c16.379,-0.012 29.867,25.238 29.867,55.942"/><path d="M1428.89,821.556c-0,4.312 -8.05,7.854 -17.825,7.854c-9.842,-0 -17.821,-3.542 -17.821,-7.846c-0.071,-4.312 7.983,-7.862 17.754,-7.862c9.842,-0 17.825,3.541 17.892,7.854Z"/><path d="M1330,764.26c0,11.879 -4.883,21.65 -10.804,21.65c-5.917,-0 -10.871,-9.767 -10.871,-21.646c0,-11.879 4.884,-21.658 10.871,-21.658c5.921,-0.009 10.804,9.758 10.804,21.637" style="fill:#fff;"/><path d="M1517.26,765.66c-0,11.879 -4.888,21.654 -10.805,21.662c-5.92,0 -10.804,-9.775 -10.804,-21.654c0,-11.879 4.884,-21.654 10.804,-21.658c5.917,-0.008 10.805,9.767 10.805,21.646" style="fill:#fff;"/><path d="M1377.28,538.806l363.021,-139.95l-286.771,254.816c0,0 -57.737,3.842 -76.525,-37.658c-18.858,-41.496 -19.545,-59.6 0.275,-77.208Z" style="fill:#fff;fill-rule:nonzero;stroke:#000;stroke-width:4.07px;"/><path d="M1376.87,539.947c-0,0 -4.542,95.025 76.804,112.475l15.138,-13.895c-0,-0 -68.063,-25.038 -71.225,-106.78l-20.717,8.2Z" style="fill-rule:nonzero;stroke:#000;stroke-width:4.07px;"/><path d="M1433.51,516.985c0,-0 -1.033,78.475 60.146,98.212l2.963,2.2l13.004,-14.025c-0,0 -56.225,-31.295 -56.567,-92.466l-19.546,6.079Z" style="fill-rule:nonzero;stroke:#000;stroke-width:4.07px;"/><path d="M1499.64,492.972c-0,0 -3.371,65.917 46.591,79.359l12.734,-11.646c-0,-0 -48.725,-27.404 -37.096,-76.35l-22.229,8.637Z" style="fill-rule:nonzero;stroke:#000;stroke-width:4.07px;"/><path d="M1560.14,470.035c-0,-0 6.333,44.192 39.916,53.8l12.179,-11.367c0.688,-0.096 -33.787,-18.758 -33.1,-49.362l-18.995,6.929Z" style="fill-rule:nonzero;stroke:#000;stroke-width:4.07px;"/><path d="M1622.56,445.168c0,0 8.325,29.242 24.567,35.088l17.275,-15.092c0,0 -17.412,-13.05 -18.446,-28.833l-23.396,8.837Z" style="fill-rule:nonzero;stroke:#000;stroke-width:4.07px;"/><path d="M1038.96,932.656c-0,-0 -0.896,-53.3 -55.329,-70.675c-54.438,-17.371 -75.15,15.262 -85.405,24.391c-10.254,9.134 -20.92,50.85 -20.92,50.85c-0,0 -60.771,-10.991 -82.792,44.513c-22.021,55.5 10.254,94.687 32.483,104.433c0,0 -35.925,41.084 -16.862,84.425c19.133,43.342 109.7,64.871 137.846,16.284c-0,-0 -19.613,-88.342 2.616,-149.675c22.229,-61.338 88.363,-104.546 88.363,-104.546Z" style="fill-rule:nonzero;stroke:#000;stroke-width:4.07px;"/><path d="M734.731,1218.28c0,-0 22.042,-220.259 22.042,-332.167c0,-87.779 11.113,-189.479 166.942,-203.771c219.133,-20.104 263.954,111.542 266.837,237.338c2.95,125.796 -11.175,193.583 16.579,234.004c27.755,40.425 125.559,103.879 133.971,124.533c8.413,20.663 -0.121,35.238 -64.283,38.754c-64.163,3.517 -203.846,-6.012 -206.054,5.375c-2.213,11.392 36.162,11.471 107.204,12.359c71.1,0.887 325.842,5.021 330.321,18.216c4.421,13.188 -170.625,5.625 -169.95,21.667c0.675,16.05 114.571,-5.558 145.575,11.221c31.071,16.783 -134.463,25.412 -144.225,22.325c-9.763,-3.088 -450.604,-3.175 -520.109,-13.3c-69.5,-10.125 -139.25,-14.575 -120.279,-23.179c19.034,-8.609 171.671,-13.204 164.796,-34.021c-6.817,-20.817 -132.133,-22.725 -158.717,-21.296c-26.525,1.438 -67.295,-10.583 -32.295,-17.25c34.933,-6.658 55.995,-10.542 61.645,-80.808Z" style="fill:#30aad8;fill-rule:nonzero;stroke:#000;stroke-width:9.15px;stroke-linecap:round;stroke-linejoin:round;"/><path d="M1111.35,883.231c0,21.916 8.967,39.958 19.833,39.958c10.867,0.008 19.771,-18.029 19.771,-39.95c0,-21.925 -8.904,-39.967 -19.771,-39.979c-10.866,-0.004 -19.77,18.025 -19.833,39.946"/><path d="M879.752,876.393c0,21.921 8.904,39.963 19.771,39.963c10.867,0.004 19.833,-18.029 19.833,-39.95c0,-21.921 -8.966,-39.971 -19.77,-39.984c-10.867,-0.004 -19.834,18.025 -19.834,39.946"/><path d="M1064.87,898.797c0,0 -1.167,16.246 -15.167,18.171c-13.937,1.921 -19.279,-3.508 -21.612,-14.471" style="fill:none;fill-rule:nonzero;stroke:#000;stroke-width:6.39px;stroke-linecap:round;stroke-linejoin:round;"/><path d="M1033.56,884.902c0,3.262 6.2,5.941 13.755,5.941c7.491,0 13.691,-2.679 13.691,-5.941c0.063,-3.259 -6.2,-5.946 -13.691,-5.946c-7.555,-0 -13.755,2.687 -13.755,5.946Z"/><path d="M1103.49,869.827c-0,10.033 3.133,18.287 6.879,18.287c3.804,0.004 6.937,-8.25 6.937,-18.283c0,-10.034 -3.133,-18.292 -6.937,-18.3c-3.746,-0.004 -6.879,8.25 -6.879,18.283" style="fill:#fff;"/><path d="M878.648,861.535c0,10.033 3.133,18.296 6.879,18.296c3.804,-0 6.938,-8.254 6.938,-18.288c-0,-10.037 -3.134,-18.296 -6.938,-18.296c-3.746,-0.004 -6.879,8.255 -6.879,18.288Z" style="fill:#fff;"/><path d="M130.32,1324.66l-2.834,9.625l60.864,75.196l45.729,-34.692l40.357,5.042l8.795,31.312c0,0 18.896,20.792 33.671,24.638c14.771,3.841 57.063,-4.3 57.063,-4.3l8.658,-4.284l-2.092,-21.291l-7.475,-22.155l-9.775,-12.037c0,-0 34.975,-6.496 60.971,-47.575c25.988,-41.079 37.325,-71.046 37.325,-71.046c0,0 15.234,-66.754 13.879,-83.742c-1.358,-16.987 -9.004,-58.454 -25.704,-69.508c-16.696,-11.054 -39.662,-1.062 -45.208,-0.05c-5.55,1.017 -38.138,23.246 -38.138,23.246c0,-0 25.088,-64.254 -11.504,-90.613c-36.587,-26.366 -97.451,33.98 -97.451,33.98l-28.378,27.512c-0,0 4.483,-46.212 -28.622,-49.921c-33.104,-3.708 -67.419,62.509 -67.419,62.509l-26.564,64.104c-0,-0 -10.896,62.662 -9.849,73.596c1.047,10.933 5.752,46 7.935,51.845c2.183,5.85 13.502,25.53 25.766,28.609Z" style="fill-rule:nonzero;stroke:#000;stroke-width:3.13px;"/><path d="M126.642,1332.35l62.571,73.762c0,0 -41.261,34.6 -54.609,37.129c-13.349,2.525 -42.933,-8.771 -55.472,-26.579c-12.54,-17.804 -23.361,-42.875 -20.506,-52.217c2.849,-9.35 13.19,-19.266 22.346,-18.75c9.156,0.513 29.149,9.025 29.149,9.025l16.521,-22.37Z" style="fill:#fff;fill-rule:nonzero;stroke:#000;stroke-width:3.13px;"/><path d="M363.798,1371.86c0,0 30.067,-14.483 38.092,-21.342c8.021,-6.858 23.741,-25.3 23.741,-25.3c0,0 21.009,27.984 29.03,45.746c8.025,17.759 9.733,53.084 -4.305,65.104c-14.033,12.021 -35.625,-5.616 -38.937,-9.008c-3.321,-3.392 -6.6,-5.583 -6.6,-5.583l-23.104,7.054c-0,-0 0.854,-40.342 -17.917,-56.671Z" style="fill:#fff;fill-rule:nonzero;stroke:#000;stroke-width:3.13px;"/><path d="M245.109,1327.84c0,-0 -29.995,-34.133 -66.763,-26.788c-36.773,7.35 -69.988,53.971 -69.988,53.971c-0,0 -20.068,-17.662 -41.584,-2.466c-21.511,15.195 4.842,59.254 21.722,73.308c16.88,14.054 42.758,23.392 58.342,12.067c15.59,-11.325 93.339,-67.392 93.339,-67.392" style="fill:none;fill-rule:nonzero;stroke:#fff;stroke-width:7.42px;stroke-linecap:round;stroke-linejoin:round;"/><path d="M230.7,1375.6c-0,-0 98.19,18.704 149.819,-10.338c51.633,-29.046 81.179,-105.442 91.2,-149.658c10.017,-44.209 2.254,-109.559 -30.542,-119.396c-32.796,-9.842 -75.162,28.108 -75.162,28.108c-0,0 30.566,-76.783 -19.529,-95.271c-50.1,-18.483 -117.229,66.7 -117.229,66.7c-0,0 8.633,-66.083 -49.858,-45.345c-58.495,20.741 -123.043,230.662 -49.418,277.337" style="fill:none;fill-rule:nonzero;stroke:#fff;stroke-width:7.42px;stroke-linecap:round;stroke-linejoin:round;"/><path d="M423.911,1323.57c-0,0 26.716,28.142 35.441,55.3c8.729,27.15 3.129,51.555 -14.233,60.096c-17.358,8.538 -40.075,-18.383 -40.075,-18.383c-0,-0 -121.108,54.958 -130.858,-41.346" style="fill:none;fill-rule:nonzero;stroke:#fff;stroke-width:7.42px;stroke-linecap:round;stroke-linejoin:round;"/><path d="M382.206,1429.34c0.996,-3.346 1.625,-39.441 -20.129,-57.208" style="fill:none;fill-rule:nonzero;stroke:#fff;stroke-width:7.42px;stroke-linecap:round;stroke-linejoin:round;"/><path d="M129.033,1334.79c-0,0 55.636,66.142 57.348,69.458" style="fill:none;fill-rule:nonzero;stroke:#fff;stroke-width:7.42px;stroke-linecap:round;stroke-linejoin:round;"/><path d="M292.756,1165.09l-33.938,8.888l28.255,33.07" style="fill:none;fill-rule:nonzero;stroke:#fff;stroke-width:7.42px;stroke-linecap:round;stroke-linejoin:round;"/><path d="M213.598,1140.45l23.377,29.709l-37.819,1.887" style="fill:none;fill-rule:nonzero;stroke:#fff;stroke-width:7.42px;stroke-linecap:round;stroke-linejoin:round;"/><path d="M266.61,1204.64c-3.611,-0.746 -52.892,-17.321 -52.892,-17.321c0,0 -8.427,32.646 17.419,40.442c25.846,7.8 33.792,-9.121 35.473,-23.121Z" style="fill-rule:nonzero;stroke:#fff;stroke-width:7.42px;stroke-linecap:round;stroke-linejoin:round;"/><path d="M631.194,761.581c-0,-0 -48.513,6.783 -57.4,9.237c-8.892,2.454 -22.358,8.134 -22.358,8.134c-0,-0 -10.721,-11.763 -36.713,-9.617c-25.987,2.142 -54.467,27.962 -54.467,27.962c0,0 -22.104,21.925 -25.287,36.296c-3.179,14.375 -5.446,22.338 -4.629,26.767c0.825,4.433 3.137,11.483 3.137,11.483c0,0 -10.841,9.063 -27.7,43.267c-16.862,34.208 -21.375,70.933 -23.012,80.808c-1.642,9.884 0.362,51.009 0.421,62.113c0.062,11.104 12.383,54.075 16.5,65.541c4.116,11.467 30.616,55.105 30.616,55.105l37.296,42.404l18.213,15.15l52.766,30.262l36.934,13.917c-0,-0 53.525,11.375 90.116,7.358c36.596,-4.016 60.209,-11.7 60.209,-11.7c-0,0 56.45,-24.087 78.35,-39.721c21.9,-15.637 38.908,-39.762 38.908,-39.762c-0,-0 26.054,-26.238 34.875,-49.904c8.817,-23.671 18.208,-44.488 18.208,-44.488l11.867,-52.591l-1.288,-50.8l-7.337,-41.075l-15.921,-42.975l-29.233,-50.942l-36.654,-37.008l-43.546,-32.55l-40.254,-17.43l-34.855,-9.92l0.063,-18.634c-0,0 1.554,-28.058 7.987,-40.016c6.43,-11.955 15.413,-31.263 15.413,-31.263c-0,0 13.433,-26.967 42.304,-38.9c28.875,-11.933 60.458,-13.287 60.458,-13.287l17.417,-0.98l-0.596,-6.895l-13.933,-8.33l-20.292,-7.345l-24.916,-1.734l-31.717,5.967l-36.817,16.862l-21.562,15.521l-17.054,19.071l-13.3,19.846l-11.634,22.571c0,-0 -8.496,20.866 -9.537,22.508c-1.042,1.638 -11.192,33.354 -11.192,33.354l1.146,6.363Z" style="fill:#4ac4d9;fill-rule:nonzero;stroke:#000;stroke-width:1.88px;"/><path d="M644.461,1289.18c145.625,-0 263.675,-117.992 263.675,-263.542c-0,-145.55 -118.05,-263.537 -263.675,-263.537c-145.625,-0 -263.675,117.987 -263.675,263.537c-0,145.55 118.05,263.542 263.675,263.542Z" style="fill:none;fill-rule:nonzero;stroke:#000;stroke-width:4.55px;stroke-linecap:round;stroke-linejoin:round;"/><path d="M432.906,957.835c0,-0 -7.975,16.233 -7.904,31.408c0.071,15.179 12.35,32.688 12.35,32.688l11.179,10.671l14.284,2.079l9.779,2.4l2.2,4.062c-0,0 11.658,-5.95 21.537,-5.241c9.875,0.708 23.696,4.5 23.696,4.5l6.888,4.183l9.962,-5.396c0,0 15.804,-3 22.663,-0.796c6.858,2.204 18.7,9.088 18.7,9.088l2.987,4.958c0,0 6.921,-11.325 23.234,-10.746c16.308,0.579 24.62,5.521 24.62,5.521l9.746,4.975l3.104,7.925c0,0 8.125,-11.812 13.925,-13.037c5.8,-1.23 27.484,0.554 27.484,0.554l14.896,3.354l4.558,5.662l2.133,3.98c0,-0 6.1,-11.192 9.234,-12.067c3.137,-0.879 20.983,-5.35 20.983,-5.35l14.612,-8.333l14.13,-18.375l6.033,-12.042l-0.033,-13.054l-3.98,-10.946l-7.17,7.267l-17.371,1.462l-16.188,-3.25l-12.171,-6.887l-3.195,-7.713l-4.284,9.863l-17.666,4.637l-22.38,-3.058c0,-0 -11.762,-5.009 -12.291,-5.334c-0.525,-0.329 -7.754,-10.116 -7.754,-10.116l-2.85,10.971l-20.859,3.054l-26.062,-4.096l-10.113,-10.208l-4.983,9.475l-25.838,2.608l-20.57,-3.479l-5.605,-6.846l-8,6.3l-27.858,0.158l-14.437,-4.454l-10.555,1.717l-24.095,-1.167l-9.396,-5.662l-1.121,-3.867l-0.188,-4Z" style="fill-rule:nonzero;"/><path d="M448.465,1032.55c-0,-0 12.996,1.325 17.696,2.445c4.704,1.125 8.075,7.925 8.075,7.925c-0,0 15.804,-8.833 25.979,-7.333c10.171,1.496 23.779,5.117 24.979,7.454c1.204,2.342 1.604,3.7 1.604,3.7c0,0 11.029,-9.579 24.979,-8.604c13.946,0.975 20.963,5.479 20.963,5.479l8.146,9.567c-0,-0 11.1,-11.958 21.67,-11.321c10.571,0.642 27.017,4.963 27.017,4.963l9.788,6.412l2.4,7.867c-0,-0 7.337,-13.338 18.004,-14.229c10.662,-0.892 28.854,1.22 28.854,1.22l10.242,4.275l4.804,7.896c-0,0 5.729,-9.271 10.696,-11.396c4.966,-2.125 22.25,-6.341 22.25,-6.341l-23.488,15.175l-25.596,12.891l-56.121,15.609l-46.804,4.35l-46.662,-7.446l-42.354,-15.854l-34.234,-21.85l-12.779,-9.5l-0.108,-3.354Z" style="fill:#fff;fill-rule:nonzero;"/><path d="M476.423,930.218c0,0 -24.846,10.279 -29.687,12.717c-4.838,2.442 -14.255,15.133 -14.255,15.133c0,0 1.692,11.159 12.309,13.963c10.616,2.8 29.312,0.554 29.312,0.554l3.879,-3.517c0,0 5.117,4.904 15.705,6.388c10.583,1.487 27.775,-1.009 27.775,-1.009l8.241,-3.95c0,0 2.996,4.959 15.746,7.63c12.754,2.675 30.833,0.02 30.833,0.02l7.896,-4.208l2.417,-5.625c-0,0 7.583,10.492 27.279,13.388c19.696,2.891 28.113,-2.592 28.113,-2.592l3.954,-6.5l0.987,-3.7c0,-0 7.913,13.442 19.421,15.717c11.504,2.275 30.65,0.308 30.65,0.308l10.446,-5.404c-0,-0 4.075,-9.75 3.742,-9.042c-0.338,0.713 3.741,14.175 13.32,16.692c9.584,2.516 28.913,2.458 32.771,0.841c3.863,-1.612 8.084,-8.287 8.084,-8.287l-10.996,-12.758l-31.8,-24.68l-25.763,-6.2l-47.391,-6.658l-78.738,-4.246l-73.079,2.338l-21.171,2.687Z" style="fill:#fff;fill-rule:nonzero;"/><path d="M504.298,1212.92l-28.733,36.942l-17.567,26.721l-10.317,17.833c0,0 -21.037,-8.804 -33.65,14.604c-12.616,23.413 -0.72,71.1 -0.72,71.1c-0,0 12.954,34.48 45.158,27.78c32.2,-6.705 27.525,-23.321 33.942,-36.946c6.416,-13.621 24.391,-44.379 24.391,-44.379c0,-0 9.734,-14.984 13.6,-19.867c3.871,-4.875 29.829,-48.975 29.829,-48.975l-55.933,-44.813Z" style="fill:#4ac4d9;fill-rule:nonzero;"/><path d="M502.194,1214.98c-0,-0 -26.829,31.558 -31.842,39.845c-5.012,8.292 -22.854,38.788 -22.854,38.788c0,-0 -21.733,-6.996 -33.504,16.2c-11.763,23.192 -7.625,75.117 14.75,91.079c22.371,15.958 48.104,3.979 54.462,-7.304c6.363,-11.288 28.571,-64.558 41.709,-80.592c13.133,-16.033 31.2,-49.562 31.2,-49.562" style="fill:none;fill-rule:nonzero;stroke:#000;stroke-width:4.75px;stroke-linecap:round;stroke-linejoin:round;"/><path d="M448.19,1294.06c-0,-0 33.354,9.425 39.383,32.05" style="fill:none;fill-rule:nonzero;stroke:#000;stroke-width:4.75px;stroke-linecap:round;stroke-linejoin:round;"/><path d="M699.19,1282.38c-0,-0 3.196,43.517 24.7,51.071c21.504,7.554 16.033,3.887 16.033,3.887c0,0 7.017,23.817 21.667,24.579c14.65,0.763 24.771,-17.845 24.771,-17.845l8.787,-30.109c0,0 4.458,-28.191 4.779,-33.671c0.321,-5.483 -3.779,-20.079 -3.779,-20.079l-9.162,-12.346c-0,0 -82.088,-2.554 -87.796,34.513Z" style="fill:#4ac4d9;fill-rule:nonzero;"/><path d="M698.523,1284.07c0,0 0.683,45.013 30.992,52.079c30.312,7.071 54.466,-22.258 54.466,-22.258" style="fill:none;fill-rule:nonzero;stroke:#000;stroke-width:4.75px;stroke-linecap:round;stroke-linejoin:round;"/><path d="M739.252,1337.06c0,0 6.404,30.313 29.917,24.763c23.512,-5.555 31.262,-71.867 30.683,-87.288c-0.537,-14.342 -13.383,-25.275 -13.383,-25.275" style="fill:none;fill-rule:nonzero;stroke:#000;stroke-width:4.75px;stroke-linecap:round;stroke-linejoin:round;"/><path d="M764.423,1261.77c0,0 0.104,24.013 9.758,33.6" style="fill:none;fill-rule:nonzero;stroke:#000;stroke-width:4.75px;stroke-linecap:round;stroke-linejoin:round;"/><path d="M628.065,763.543c-0,0 22.646,-103.846 84.733,-140.079c62.083,-36.233 101.663,-21.458 114.471,-14.696c12.8,6.771 23,14.721 8.408,15.759c-14.591,1.033 -76.733,-2.509 -111.279,50.512c-34.542,53.021 -25.371,93.438 -25.371,93.438" style="fill:none;fill-rule:nonzero;stroke:#000;stroke-width:4.75px;stroke-linecap:round;stroke-linejoin:round;"/><path d="M485.79,929.156c-0,-0 -50.863,6.429 -59.829,42.483c-8.967,36.05 26.12,86.196 106.283,109.9c80.162,23.708 163.783,-7.667 212.333,-44.079c48.546,-36.417 18.925,-70.379 -17.729,-92.538c-36.65,-22.158 -233.283,-20.175 -241.058,-15.766Z" style="fill:none;fill-rule:nonzero;stroke:#000;stroke-width:4.75px;stroke-linecap:round;stroke-linejoin:round;"/><path d="M432.636,957.552c-0,-0 -1.684,10.133 10.683,13.933c12.362,3.796 30.6,1.679 32.579,0.812" style="fill:none;fill-rule:nonzero;stroke:#000;stroke-width:4.75px;stroke-linecap:round;stroke-linejoin:round;"/><path d="M475.869,931.71c-0,-0 -9.388,34.454 6.9,41.154c16.292,6.704 43.496,1.483 45.371,-0.954" style="fill:none;fill-rule:nonzero;stroke:#000;stroke-width:4.75px;stroke-linecap:round;stroke-linejoin:round;"/><path d="M528.152,927.427c0,-0 -7.75,42.045 7.796,48.329c15.542,6.291 44.183,3.1 47.242,-0.721c3.066,-3.821 3.021,-47.754 3.021,-47.754" style="fill:none;fill-rule:nonzero;stroke:#000;stroke-width:4.75px;stroke-linecap:round;stroke-linejoin:round;"/><path d="M586.14,965.027c-0,-0 -2.813,10.366 17.591,14.487c20.409,4.121 36.713,1.538 39.538,-2.429c2.829,-3.963 5.467,-46.367 5.467,-46.367" style="fill:none;fill-rule:nonzero;stroke:#000;stroke-width:4.75px;stroke-linecap:round;stroke-linejoin:round;"/><path d="M646.698,960.943c0,0 -4.421,18.209 20.071,22.613c24.496,4.4 39.158,1.016 40.65,-6.546c1.496,-7.567 4.75,-37.825 4.75,-37.825" style="fill:none;fill-rule:nonzero;stroke:#000;stroke-width:4.75px;stroke-linecap:round;stroke-linejoin:round;"/><path d="M711.406,953.86c0,-0 -7.941,26.187 11.659,31.983c19.604,5.796 41.883,5.192 40.829,-6.471" style="fill:none;fill-rule:nonzero;stroke:#000;stroke-width:4.75px;stroke-linecap:round;stroke-linejoin:round;"/><path d="M446.823,1033.02c0,0 17.533,1.28 22.354,2.83c4.817,1.55 5.492,6.483 5.492,6.483" style="fill:none;fill-rule:nonzero;stroke:#000;stroke-width:4.75px;stroke-linecap:round;stroke-linejoin:round;"/><path d="M469.661,1051.74c-0,-0 1.275,-12.138 15.629,-14.788c14.358,-2.645 36.916,3.255 39.058,6.6" style="fill:none;fill-rule:nonzero;stroke:#000;stroke-width:4.75px;stroke-linecap:round;stroke-linejoin:round;"/><path d="M520.99,1076.33c-0,-0 -5.509,-30.254 14.504,-36.192c20.012,-5.942 46.658,2.604 45.25,15.779" style="fill:none;fill-rule:nonzero;stroke:#000;stroke-width:4.75px;stroke-linecap:round;stroke-linejoin:round;"/><path d="M578.902,1089.15c0,-0 -4.233,-36.813 8.775,-43.646c13.009,-6.829 44.329,-0.734 50.496,6.5c6.167,7.229 2.8,32.729 2.8,32.729" style="fill:none;fill-rule:nonzero;stroke:#000;stroke-width:4.75px;stroke-linecap:round;stroke-linejoin:round;"/><path d="M642.04,1061.01c-0,-0 3.783,-14.363 18.171,-13.988c14.383,0.375 44.895,-3.02 43.404,16.209c-0,-0 6.341,-10.513 10.825,-13.313c4.483,-2.804 20.362,-5.504 20.362,-5.504" style="fill:none;fill-rule:nonzero;stroke:#000;stroke-width:4.75px;stroke-linecap:round;stroke-linejoin:round;"/><path d="M662.044,797.502c-0,-0 26.746,-12.921 44.271,-13.459c17.529,-0.541 40.7,5.725 40.7,5.725c-0,0 15.337,5.109 19.133,11.217c3.788,6.108 17.908,22.692 17.908,22.692l5.738,17.045l-6.308,23.392c-0,0 -20.23,-12.5 -31.1,-15.304c-10.863,-2.804 -66.171,-9.196 -66.171,-9.196l-42.359,1.125c0,0 -2.937,-24.75 18.188,-43.237Z" style="fill:#fff;fill-rule:nonzero;"/><path d="M716.465,902.972c40.241,0 72.862,-28.495 72.862,-63.645c0,-35.155 -32.621,-63.65 -72.862,-63.65c-40.242,-0 -72.863,28.495 -72.863,63.65c0,35.15 32.621,63.645 72.863,63.645Z" style="fill:none;fill-rule:nonzero;stroke:#000;stroke-width:4.35px;"/><path d="M445.802,885.956c23.075,14.621 64.071,1.683 91.571,-28.896c27.5,-30.579 31.092,-67.217 8.021,-81.833c-23.075,-14.621 -64.071,-1.684 -91.571,28.895c-27.5,30.575 -31.092,67.217 -8.021,81.834Z" style="fill:#4ac4d9;fill-rule:nonzero;stroke:#000;stroke-width:4.72px;stroke-linecap:round;stroke-linejoin:round;"/><path d="M484.452,781.493c0,0 -15.954,7.696 -22.262,14.321c-6.309,6.629 -20.925,25.575 -20.925,25.575l-8.867,26.917c0,-0 12.479,-15.063 26.558,-14.871c14.075,0.192 42.105,0.392 42.105,0.392l34.795,0.22l13.809,-2.32l-1.296,-24.65l-10.604,-17.334l-18.05,-7.325l-15.029,-3.75l-20.234,2.825Z" style="fill:#fff;fill-rule:nonzero;"/><path d="M445.802,885.956c23.075,14.621 64.071,1.683 91.571,-28.896c27.5,-30.579 31.092,-67.217 8.021,-81.833c-23.075,-14.621 -64.071,-1.684 -91.571,28.895c-27.5,30.575 -31.092,67.217 -8.021,81.834Z" style="fill:none;fill-rule:nonzero;stroke:#000;stroke-width:4.72px;stroke-linecap:round;stroke-linejoin:round;"/><path d="M432.156,848.252c0,-0 13.8,-17.259 42.35,-14.43c28.546,2.83 65.405,0.13 71.784,-0.929c6.383,-1.062 2.691,-28.158 -2.9,-35.958c-5.592,-7.8 -23.259,-22.7 -61.317,-15.413" style="fill:none;fill-rule:nonzero;stroke:#000;stroke-width:4.75px;stroke-linecap:round;stroke-linejoin:round;"/><path d="M644.615,840.768c-0,0 106.221,-5.475 139.287,22.759" style="fill:none;fill-rule:nonzero;stroke:#000;stroke-width:4.75px;stroke-linecap:round;stroke-linejoin:round;"/><path d="M664.786,796.668c-0,0 82.912,-45.871 124.1,36.379" style="fill:none;fill-rule:nonzero;stroke:#000;stroke-width:4.75px;stroke-linecap:round;stroke-linejoin:round;"/><path d="M471.344,1376.34c-0,-0 -25.271,-93.408 -57.8,-58.583" style="fill:none;fill-rule:nonzero;stroke:#000;stroke-width:4.75px;stroke-linecap:round;stroke-linejoin:round;"/><path d="M632.244,759.231l-2.904,8.971l67.271,3.095l-1.363,-10.937c0,-0 -57.879,-7.029 -63.004,-1.129Z" style="fill:#4ac4d9;fill-rule:nonzero;"/><path d="M722.34,803.439l8.8,-11.937l13.991,1.875l-15.537,20.62l10.062,25.167l-14.037,-1.879l-5.8,-14.75l-9.338,12.721l-14.075,-1.884l16.275,-21.641l-9.616,-23.988l14.037,1.879l5.238,13.817Z"/><path d="M493.252,798.156l11.046,-9.709l14.488,3.471l-19.438,16.729l6.904,24.088l-14.533,-3.479l-3.942,-14.109l-11.725,10.355l-14.575,-3.492l20.367,-17.558l-6.608,-22.967l14.533,3.483l3.483,13.188Z"/><path d="M1567.38,1268.05l2.834,9.629l-60.863,75.191l-45.729,-34.687l-40.358,5.042l-8.796,31.312c-0,0 -18.896,20.792 -33.671,24.638c-14.771,3.841 -57.062,-4.3 -57.062,-4.3l-8.659,-4.288l2.092,-21.287l7.475,-22.155l9.775,-12.037c-0,-0 -34.975,-6.5 -60.967,-47.575c-25.991,-41.079 -37.329,-71.046 -37.329,-71.046c0,0 -15.233,-66.754 -13.879,-83.742c1.358,-16.987 9.004,-58.454 25.704,-69.508c16.696,-11.054 39.667,-1.062 45.213,-0.05c5.55,1.017 38.133,23.246 38.133,23.246c-0,-0 -25.088,-64.254 11.504,-90.613c36.588,-26.366 97.454,33.98 97.454,33.98l28.375,27.512c0,0 -4.483,-46.212 28.621,-49.921c33.104,-3.708 67.421,62.509 67.421,62.509l26.567,64.1c-0,-0 10.895,62.666 9.845,73.6c-1.045,10.933 -5.75,46 -7.933,51.845c-2.183,5.85 -13.504,25.53 -25.767,28.605Z" style="fill:#fff;fill-rule:nonzero;stroke:#000;stroke-width:3.13px;"/><path d="M1571.06,1275.75l-62.571,73.762c-0,0 41.258,34.6 54.608,37.129c13.35,2.525 42.933,-8.771 55.471,-26.579c12.542,-17.804 23.362,-42.875 20.508,-52.217c-2.85,-9.35 -13.191,-19.266 -22.346,-18.75c-9.158,0.513 -29.15,9.025 -29.15,9.025l-16.52,-22.37Z" style="fill-rule:nonzero;stroke:#000;stroke-width:3.13px;"/><path d="M1333.91,1315.26c0,0 -30.07,-14.483 -38.095,-21.342c-8.021,-6.858 -23.742,-25.3 -23.742,-25.3c-0,0 -21.008,27.984 -29.029,45.742c-8.025,17.763 -9.734,53.088 4.304,65.108c14.033,12.021 35.625,-5.616 38.942,-9.008c3.316,-3.392 6.595,-5.583 6.595,-5.583l23.109,7.054c-0,-0 -0.859,-40.346 17.916,-56.671Z" style="fill-rule:nonzero;stroke:#000;stroke-width:3.13px;"/><path d="M1452.59,1271.24c-0,-0 29.996,-34.133 66.762,-26.792c36.771,7.35 69.988,53.975 69.988,53.975c-0,0 20.067,-17.662 41.583,-2.466c21.513,15.195 -4.841,59.254 -21.721,73.308c-16.879,14.054 -42.758,23.392 -58.341,12.067c-15.592,-11.33 -93.342,-67.396 -93.342,-67.396" style="fill:none;fill-rule:nonzero;stroke:#000;stroke-width:7.42px;stroke-linecap:round;stroke-linejoin:round;"/><path d="M1467,1319c0,-0 -98.191,18.704 -149.821,-10.338c-51.633,-29.046 -81.179,-105.442 -91.195,-149.658c-10.021,-44.209 -2.259,-109.559 30.537,-119.4c32.8,-9.838 75.163,28.112 75.163,28.112c-0,0 -30.567,-76.783 19.529,-95.275c50.1,-18.479 117.229,66.704 117.229,66.704c-0,0 -8.633,-66.083 49.858,-45.345c58.496,20.737 123.042,230.658 49.417,277.337" style="fill:none;fill-rule:nonzero;stroke:#000;stroke-width:7.42px;stroke-linecap:round;stroke-linejoin:round;"/><path d="M1273.79,1266.97c-0,0 -26.717,28.142 -35.442,55.304c-8.725,27.15 -3.129,51.555 14.233,60.096c17.359,8.538 40.075,-18.383 40.075,-18.383c0,-0 121.109,54.958 130.859,-41.346" style="fill:none;fill-rule:nonzero;stroke:#000;stroke-width:7.42px;stroke-linecap:round;stroke-linejoin:round;"/><path d="M1315.49,1372.74c-0.996,-3.346 -1.625,-39.441 20.129,-57.208" style="fill:none;fill-rule:nonzero;stroke:#000;stroke-width:7.42px;stroke-linecap:round;stroke-linejoin:round;"/><path d="M1568.67,1278.19c-0,0 -55.638,66.142 -57.35,69.458" style="fill:none;fill-rule:nonzero;stroke:#000;stroke-width:7.42px;stroke-linecap:round;stroke-linejoin:round;"/><path d="M1404.94,1108.49l33.937,8.888l-28.254,33.07" style="fill:none;fill-rule:nonzero;stroke:#000;stroke-width:7.42px;stroke-linecap:round;stroke-linejoin:round;"/><path d="M1484.1,1083.85l-23.375,29.709l37.817,1.883" style="fill:none;fill-rule:nonzero;stroke:#000;stroke-width:7.42px;stroke-linecap:round;stroke-linejoin:round;"/><path d="M1431.09,1148.04c3.612,-0.742 52.891,-17.317 52.891,-17.317c0,0 8.43,32.646 -17.416,40.442c-25.846,7.796 -33.792,-9.121 -35.475,-23.125Z" style="fill-rule:nonzero;stroke:#000;stroke-width:7.42px;stroke-linecap:round;stroke-linejoin:round;"/></svg>