<?xml version="1.0" encoding="UTF-8" standalone="no"?><!DOCTYPE svg PUBLIC "-//W3C//DTD SVG 1.1//EN" "http://www.w3.org/Graphics/SVG/1.1/DTD/svg11.dtd"><svg width="100%" height="100%" viewBox="0 0 2024 1427" version="1.1" xmlns="http://www.w3.org/2000/svg" xmlns:xlink="http://www.w3.org/1999/xlink" xml:space="preserve" xmlns:serif="http://www.serif.com/" style="fill-rule:evenodd;clip-rule:evenodd;"><path d="M413.772,417.464c-0,0 -94.942,-55.987 -209.282,25.409l-136.046,-82.425l117.747,125.908c-0,-0 -23.411,33.758 -5.747,88.917l-171.544,147.829l186.828,-97.317c-0,0 -50.781,49.296 -22.369,127.658c28.41,78.359 77.987,149.471 201.6,101.634c0,-0 61.25,87.204 179.813,8.383l161.446,87l-68.638,-119.862c0,-0 105.467,-44.142 47.609,-192.571l-281.417,-220.563Z" style="fill:#fff;fill-rule:nonzero;stroke:#000;stroke-width:3.13px;"/><path d="M693.655,638.243c0,0 65.45,131.534 -45.925,194.092" style="fill:none;fill-rule:nonzero;stroke:#000;stroke-width:3.13px;"/><path d="M638.559,815.764l74.838,132.975l-158.892,-85.466c0,-0 -100.687,78.979 -181.621,-8.084c0,0 -120.33,63.129 -182.777,-59.391c-62.44,-122.521 7.96,-171.425 7.96,-171.425l-191.625,102.191l173.331,-151.279c0,0 -15.841,-48.458 3.971,-87.142" style="fill:none;fill-rule:nonzero;stroke:#000;stroke-width:3.13px;"/><path d="M206.683,508.798l-138.315,-149.113l161.536,99.317" style="fill:none;fill-rule:nonzero;stroke:#000;stroke-width:3.13px;"/><path d="M204.964,443.564c0,0 100.491,-81.212 209.962,-24.908" style="fill:none;fill-rule:nonzero;stroke:#000;stroke-width:3.13px;"/><path d="M583.568,725.906c-0,-0 6.587,-123.558 -85.171,-132.971c-91.758,-9.412 -130.633,45.483 -130.633,45.483" style="fill:none;fill-rule:nonzero;stroke:#000;stroke-width:3.13px;"/><path d="M439.255,596.685c0,0 15.154,-118.012 -149.004,-93.204" style="fill:none;fill-rule:nonzero;stroke:#000;stroke-width:3.13px;"/><path d="M445.88,380.127c0,-0 -53.362,57.204 -48.329,69.662c5.038,12.454 195.313,170.179 210.621,167.013c15.312,-3.167 35.754,-43.55 35.754,-43.55" style="fill:#fff;fill-rule:nonzero;"/><path d="M445.88,380.127c0,-0 -53.362,57.204 -48.329,69.662c5.038,12.454 195.313,170.179 210.621,167.013c15.312,-3.167 35.754,-43.55 35.754,-43.55" style="fill:none;fill-rule:nonzero;stroke:#000;stroke-width:7.88px;stroke-linecap:round;stroke-linejoin:round;"/><path d="M860.839,444.502c-0,-0 58.141,120.508 -36.013,156.804c-94.162,36.296 -183.792,63.971 -187.754,17.354c-3.967,-46.612 5.712,-49.912 5.712,-49.912" style="fill:#fff;fill-rule:nonzero;"/><path d="M860.839,444.502c-0,-0 58.141,120.508 -36.013,156.804c-94.162,36.296 -183.792,63.971 -187.754,17.354c-3.967,-46.612 5.712,-49.912 5.712,-49.912" style="fill:none;fill-rule:nonzero;stroke:#000;stroke-width:7.88px;stroke-linecap:round;stroke-linejoin:round;"/><path d="M503.934,196.585c0,-0 -92.875,-42.028 -130.141,0.104c-37.271,42.135 -85.004,159.192 -69.384,181.359c15.617,22.166 118.667,-8.917 144.4,5.625" style="fill:#fff;fill-rule:nonzero;"/><path d="M503.934,196.585c0,-0 -92.875,-42.028 -130.141,0.104c-37.271,42.135 -85.004,159.192 -69.384,181.359c15.617,22.166 118.667,-8.917 144.4,5.625" style="fill:none;fill-rule:nonzero;stroke:#000;stroke-width:7.88px;stroke-linecap:round;stroke-linejoin:round;"/><path d="M447.372,385.273c-0,-0 9.425,-429.952 516.625,-376.781c-0,-0 167.479,379.139 -320.008,562.868l-196.617,-186.087Z" style="fill:#fff;fill-rule:nonzero;stroke:#000;stroke-width:7.88px;stroke-linecap:round;stroke-linejoin:round;"/><path d="M731.834,22.224c0,0 181.059,178.9 252.171,216.163c0,-0 24.309,-127.733 -19.616,-230.115c-0,-0 -174.446,-11.983 -232.555,13.952Z" style="fill:#fff;fill-rule:nonzero;stroke:#000;stroke-width:7.88px;stroke-linecap:round;stroke-linejoin:round;"/><path d="M835.722,155.676c42.862,79.524 4.792,184.567 -84.346,232.717c-89.133,48.155 -197.754,22.355 -240.642,-57.158c-42.887,-79.504 -4.845,-184.562 84.275,-232.732c89.121,-48.178 197.759,-22.407 240.667,57.086" style="fill:#fff;"/><path d="M835.722,155.676c42.862,79.524 4.792,184.567 -84.346,232.717c-89.133,48.155 -197.754,22.355 -240.642,-57.158c-42.887,-79.504 -4.845,-184.562 84.275,-232.732c89.121,-48.178 197.759,-22.407 240.667,57.086" style="fill:none;fill-rule:nonzero;stroke:#000;stroke-width:4.83px;"/><path d="M797.714,176.938c33.804,62.721 3.775,145.572 -66.525,183.551c-70.296,37.975 -155.971,17.625 -189.796,-45.079c-33.825,-62.712 -3.821,-145.567 66.466,-183.567c70.288,-37.995 155.975,-17.669 189.817,45.026" style="fill:none;fill-rule:nonzero;stroke:#000;stroke-width:3.83px;"/><path d="M797.468,177.422c33.8,62.717 3.775,145.567 -66.529,183.546c-70.3,37.975 -155.967,17.63 -189.796,-45.08c-33.825,-62.71 -3.817,-145.568 66.471,-183.563c70.291,-37.994 155.97,-17.671 189.816,45.028"/><path d="M797.468,177.422c33.8,62.717 3.775,145.567 -66.529,183.546c-70.3,37.975 -155.967,17.63 -189.796,-45.08c-33.825,-62.71 -3.817,-145.568 66.471,-183.563c70.291,-37.994 155.97,-17.671 189.816,45.028" style="fill:none;fill-rule:nonzero;stroke:#000;stroke-width:3.83px;"/><path d="M508.826,511.656l-55.133,-46.729l138.191,-101.825l-83.058,148.554Z" style="fill:#fff;fill-rule:nonzero;stroke:#000;stroke-width:7.88px;stroke-linecap:round;stroke-linejoin:round;"/><path d="M606.572,132.391c-0,0 -12.3,113.234 16.287,117.224c28.596,3.993 15.921,128.491 15.921,128.491l10.109,2.275c-0,-0 37.875,-1.508 50.654,-6.025c12.779,-4.508 0.016,-117.406 -29.738,-152.1c-29.754,-34.694 -19.496,-105.819 -19.496,-105.819c0,0 -35.316,9.937 -43.737,15.954Z" style="fill:#fff;fill-rule:nonzero;stroke:#000;stroke-width:3.13px;"/><path d="M1704.92,455.839c-0,0 73.962,58.596 82.483,162.317c8.45,103.721 7.434,207.871 7.434,207.871l-4.325,223.791c-0,0 -15.821,103.18 -70.85,153.209c-55.034,50.033 -130.35,57.754 -130.35,57.754l-69.025,0.567l-130.955,-5.542c0,-0 -38.466,-5.029 -89.783,-45.971c-51.379,-40.942 -61.996,-93.308 -69.837,-122.696c-7.775,-29.391 -3.988,-125.141 37.658,-164.091c41.712,-38.938 55.233,-51.192 55.233,-51.192l29.546,-14.529l-0.812,-208.742c-0,0 0.475,-166.208 139.133,-207.35c138.662,-41.129 192.208,5.254 192.208,5.254l22.242,9.35Z" style="fill:#fff;fill-rule:nonzero;"/><path d="M1588.64,1208.16l-0.542,83.654c-0,0 29.812,5.363 32.992,20.617c3.179,15.25 1.012,26.463 1.012,26.463l-79.029,-3.109l0.675,-129.087l44.892,1.462Z" style="fill:#fff;fill-rule:nonzero;"/><path d="M1587.56,1206.16l0,90.175" style="fill:none;fill-rule:nonzero;stroke:#000;stroke-width:10.25px;stroke-linecap:round;stroke-linejoin:round;"/><path d="M1564.5,1300.01c0,-0 35.154,-11.5 51.788,5.296c16.629,16.796 5.945,31.279 5.945,31.279l-78.354,-0l0,-128.871" style="fill:none;fill-rule:nonzero;stroke:#000;stroke-width:10.25px;stroke-linecap:round;stroke-linejoin:round;"/><path d="M1667.47,1237.42l-0.609,56.383c0,-0 32.996,2.137 36.78,25.8c3.854,23.654 -12.846,20.8 -12.846,20.8l-66.388,-1.008l-0.812,-85.88l43.875,-16.095Z" style="fill:#fff;fill-rule:nonzero;"/><path d="M1644.15,1301.76c-0,0 35.154,-11.496 51.854,5.296c16.629,16.8 5.95,31.288 5.95,31.288l-78.358,-0l-0,-82.784" style="fill:none;fill-rule:nonzero;stroke:#000;stroke-width:10.25px;stroke-linecap:round;stroke-linejoin:round;"/><path d="M1667.74,1296.65l-0,-60.342" style="fill:none;fill-rule:nonzero;stroke:#000;stroke-width:10.25px;stroke-linecap:round;stroke-linejoin:round;"/><path d="M1472.35,1258.26l0.408,35.609c0,-0 31.909,10.17 35.83,25.875c3.991,15.7 -8.113,20.029 -8.113,20.029l-71.8,-2.309l-0.537,-79.795l44.212,0.591Z" style="fill:#fff;fill-rule:nonzero;"/><path d="M1449.23,1299.5c0,-0 35.155,-11.496 51.788,5.3c16.629,16.791 6.017,31.287 6.017,31.287l-78.425,0l-0,-74.912" style="fill:none;fill-rule:nonzero;stroke:#000;stroke-width:10.25px;stroke-linecap:round;stroke-linejoin:round;"/><path d="M1472.83,1294.38l0,-35.733" style="fill:none;fill-rule:nonzero;stroke:#000;stroke-width:10.25px;stroke-linecap:round;stroke-linejoin:round;"/><path d="M1392.51,1204.85l-0.066,88.37c-0,0 34.208,0.938 35.762,17.496c1.559,16.559 0.679,25.788 0.679,25.788l-82.345,-1.454l1.825,-134.192l44.145,3.992Z" style="fill:#fff;fill-rule:nonzero;"/><path d="M1368.98,1298.52c0,-0 35.159,-11.496 51.788,5.295c16.7,16.796 6.016,31.288 6.016,31.288l-78.354,-0l0,-128.879" style="fill:none;fill-rule:nonzero;stroke:#000;stroke-width:10.25px;stroke-linecap:round;stroke-linejoin:round;"/><path d="M1392.11,1206.07l0,86.487" style="fill:none;fill-rule:nonzero;stroke:#000;stroke-width:10.25px;stroke-linecap:round;stroke-linejoin:round;"/><path d="M1350.79,1019.21l-0,-392.342c-0,0 4.937,-187.158 220.804,-198.712c215.871,-11.559 221.208,188.529 221.821,247.275c0.608,58.754 -3.046,370.021 -3.046,370.021c-0,-0 -12.642,196.616 -201.871,214.22" style="fill:none;fill-rule:nonzero;stroke:#000;stroke-width:10.25px;stroke-linecap:round;stroke-linejoin:round;"/><path d="M1543.34,1260.13c-0,-0 -138.325,1.979 -151.913,-5.846" style="fill:none;fill-rule:nonzero;stroke:#000;stroke-width:10.25px;stroke-linecap:round;stroke-linejoin:round;"/><path d="M1351.4,856.314c0,0 -97.558,44.459 -117.096,131.409c-19.537,86.941 0.271,147.695 30.83,189.233c30.625,41.542 82.683,66.062 82.683,66.062" style="fill:none;fill-rule:nonzero;stroke:#000;stroke-width:10.25px;stroke-linecap:round;stroke-linejoin:round;"/><path d="M1326.93,869.635c0,0 -7.3,-63.658 -75.65,-71.404c-68.421,-7.754 -85.116,75.533 -85.116,75.533" style="fill:none;fill-rule:nonzero;stroke:#000;stroke-width:10.25px;stroke-linecap:round;stroke-linejoin:round;"/><path d="M1223.63,911.602c0,-0 -22.987,-52.488 -89.716,-33.604c-66.73,18.887 -91.88,145.254 37.587,162.108" style="fill:none;fill-rule:nonzero;stroke:#000;stroke-width:10.25px;stroke-linecap:round;stroke-linejoin:round;"/><path d="M1238.09,1125.59c-0,0 -44.146,43.575 -103.642,11.563c-59.558,-32.013 -41.508,-99.629 -15.75,-113.304" style="fill:none;fill-rule:nonzero;stroke:#000;stroke-width:10.25px;stroke-linecap:round;stroke-linejoin:round;"/><path d="M1588.98,1258.78c19.333,-8.696 51.179,-116.979 14.129,-145.438c-37.05,-28.458 -33.937,-167.187 74.163,-170.058c108.171,-2.863 112.162,94.458 112.162,94.458c0,0 -1.962,199.479 -200.454,221.038Z" style="fill-rule:nonzero;stroke:#000;stroke-width:4.07px;"/><path d="M1650.63,782.256c0,-0 1.488,56.842 42.054,54.183c40.563,-2.658 32.45,-54.612 32.45,-54.612" style="fill:none;fill-rule:nonzero;stroke:#000;stroke-width:10.25px;stroke-linecap:round;stroke-linejoin:round;"/><path d="M1660.64,482.777c156.171,-60.059 344.791,-129.434 344.25,-130.004c-1.554,-2.613 -190.65,155.933 -271.979,249.762c-30.559,35.217 -115.746,-103.042 -72.271,-119.758Z" style="fill:#fff;fill-rule:nonzero;stroke:#000;stroke-width:10.25px;stroke-linecap:round;stroke-linejoin:round;"/><path d="M1792.81,733.035c-0,30.2 -13.25,55.058 -29.342,55.058c-16.092,0.009 -29.342,-24.837 -29.342,-55.041c0,-30.209 13.25,-55.067 29.342,-55.079c16.092,-0.013 29.342,24.825 29.342,55.029"/><path d="M1603.78,738.281c0,30.204 -13.25,55.058 -29.341,55.062c-16.092,0 -29.275,-24.845 -29.342,-55.05c0,-30.195 13.25,-55.062 29.342,-55.079c16.091,-0.012 29.341,24.829 29.341,55.034"/><path d="M1708.71,762.864c0,4.242 -7.908,7.725 -17.508,7.725c-9.667,0 -17.512,-3.483 -17.512,-7.721c-0.067,-4.241 7.845,-7.733 17.445,-7.733c9.667,0 17.509,3.483 17.575,7.729Z"/><path d="M1611.56,706.498c0,11.687 -4.8,21.3 -10.616,21.3c-5.813,-0 -10.679,-9.609 -10.679,-21.292c-0,-11.688 4.8,-21.308 10.679,-21.308c5.816,-0.005 10.616,9.6 10.616,21.287" style="fill:#fff;"/><path d="M1795.52,707.881c-0,11.683 -4.8,21.3 -10.617,21.304c-5.812,0 -10.612,-9.612 -10.612,-21.3c-0,-11.683 4.8,-21.3 10.612,-21.308c5.817,-0.004 10.617,9.608 10.617,21.296" style="fill:#fff;"/><path d="M1658.01,484.718l356.625,-137.67l-281.716,250.666c-0,0 -56.725,3.779 -75.18,-37.046c-18.525,-40.82 -19.2,-58.629 0.271,-75.95Z" style="fill:#fff;fill-rule:nonzero;stroke:#000;stroke-width:4.07px;"/><path d="M1657.6,485.839c-0,0 -4.463,93.479 75.45,110.646l14.875,-13.667c-0,0 -66.867,-24.633 -69.975,-105.041l-20.35,8.062Z" style="fill-rule:nonzero;stroke:#000;stroke-width:4.07px;"/><path d="M1713.24,463.256c-0,-0 -1.017,77.196 59.087,96.608l2.908,2.167l12.775,-13.796c0,0 -55.233,-30.787 -55.57,-90.962l-19.2,5.983Z" style="fill-rule:nonzero;stroke:#000;stroke-width:4.07px;"/><path d="M1778.2,439.635c0,0 -3.312,64.842 45.771,78.063l12.508,-11.459c0,0 -47.866,-26.954 -36.441,-75.104l-21.838,8.5Z" style="fill-rule:nonzero;stroke:#000;stroke-width:4.07px;"/><path d="M1837.63,417.068c0,0 6.221,43.471 39.213,52.925l11.967,-11.183c0.675,-0.096 -33.196,-18.454 -32.521,-48.558l-18.659,6.816Z" style="fill-rule:nonzero;stroke:#000;stroke-width:4.07px;"/><path d="M1898.95,392.606c0,-0 8.179,28.767 24.134,34.517l16.97,-14.846c0,-0 -17.104,-12.838 -18.12,-28.363l-22.984,8.692Z" style="fill-rule:nonzero;stroke:#000;stroke-width:4.07px;"/><path d="M1325.65,872.152c-0,-0 -0.879,-52.434 -54.358,-69.525c-53.475,-17.084 -73.825,15.016 -83.896,23.996c-10.075,8.983 -20.554,50.02 -20.554,50.02c-0,0 -59.696,-10.812 -81.334,43.788c-21.633,54.596 10.075,93.146 31.913,102.733c-0,0 -35.292,40.417 -16.563,83.05c18.792,42.638 107.763,63.813 135.417,16.017c-0,-0 -19.271,-86.9 2.567,-147.238c21.837,-60.333 86.808,-102.841 86.808,-102.841Z" style="fill-rule:nonzero;stroke:#000;stroke-width:4.07px;"/><path d="M1194.19,403.027c-0,-0 56.333,-59.246 109.833,-32.996c53.5,26.25 47.096,90.55 40.971,108.471c-6.129,17.912 -22.5,39.287 -22.5,39.287c-0,0 -83.588,-85.179 -128.304,-114.762Z" style="fill-rule:nonzero;stroke:#000;stroke-width:5.5px;"/><path d="M1687.84,1414.26l-676.471,-3.604c-0,-0 -284.05,19.879 -353.829,-26.792c-69.779,-46.671 -75.45,-40.687 -90.996,-112.858c-15.638,-72.171 -13.9,-133.308 -13.9,-133.308l-1.829,-101.921c-0,-0 -2.838,-276.271 49.2,-388.721c52.037,-112.454 59.171,-138.733 59.171,-138.733c-0,-0 -51.763,-88.992 18.562,-119.446c70.238,-30.45 116.879,0.771 123.371,19.762l16.004,-21.829c0,0 95.108,-52.283 214.729,-34.883c119.713,17.4 190.679,76.1 190.679,76.1c0,-0 109.925,88.6 130.959,149.612c21.033,61.013 42.162,132.104 42.162,132.104l8.321,75.796l102.242,50.65c-0,0 109.104,78.138 147.146,176.817c38.045,98.679 50.941,180.112 50.941,180.112l-16.462,221.142Z" style="fill-rule:nonzero;stroke:#000;stroke-width:5.5px;"/><path d="M1691.73,1412.71c0,0 -43.712,-21.591 -42.708,-101.287c1.004,-79.696 38.866,-113.679 38.866,-113.679c0,-0 41.246,-17.638 55.971,33.004c14.629,50.633 18.838,149.579 -5.033,162.504c-23.958,12.921 -47.096,19.458 -47.096,19.458Z" style="fill-rule:nonzero;stroke:#000;stroke-width:5.5px;"/><path d="M1390.94,1410.21c-0,0 -59.446,-68.766 -27.621,-149.862c31.829,-81.084 35.85,-64.763 52.129,-59.209c16.279,5.567 36.217,19 42.525,59.95c6.312,40.95 -12.071,130.667 -23.775,140.875c-11.8,10.205 -43.258,8.246 -43.258,8.246Z" style="fill-rule:nonzero;stroke:#000;stroke-width:5.5px;"/><path d="M1393.23,1411.88c0,-0 -49.021,-44.154 -35.758,-118.163c13.35,-74.02 29.996,-92.045 29.996,-92.045c-0,-0 -59.08,24.954 -66.942,34.27c-7.867,9.317 -19.663,31.588 -19.663,31.588c0,-0 -64.75,1.983 -58.987,-0.054c5.671,-2.05 -36.767,24.508 -35.667,66.712c1.004,42.196 20.392,76.154 20.392,76.154l166.629,1.538Z" style="fill:#fff;fill-rule:nonzero;stroke:#000;stroke-width:5.5px;"/><path d="M1700.87,1192.51c-0,0 -24.692,-0.104 -28.992,10.479c-4.3,10.571 -35.3,66.896 -21.491,122.475c13.808,55.584 15.454,87.2 33.837,88.838l-140.287,-1.6l-3.75,-83.458l10.425,-42.68l18.2,-21.987l26.062,-0.108c0,-0 13.171,-60.988 105.996,-71.959Z" style="fill:#fff;fill-rule:nonzero;stroke:#000;stroke-width:5.5px;"/><path d="M1702.48,1194.72c0,0 -14.445,-314.866 -303.987,-410.083c-289.629,-95.229 -533.442,66.796 -533.442,66.796" style="fill:none;fill-rule:nonzero;stroke:#fff;stroke-width:13.87px;stroke-linecap:round;stroke-linejoin:round;"/><path d="M1402.15,781.11c0,0 -1.829,-184.725 -112.941,-297.6c-111.117,-112.883 -327.584,-196.475 -491.834,-81.175" style="fill:none;fill-rule:nonzero;stroke:#fff;stroke-width:13.87px;stroke-linecap:round;stroke-linejoin:round;"/><path d="M816.401,459.968c0,0 3.292,-94.904 -101.054,-84.133c-104.346,10.783 -95.292,154.729 18.475,170.888" style="fill:none;fill-rule:nonzero;stroke:#fff;stroke-width:13.87px;stroke-linecap:round;stroke-linejoin:round;"/><path d="M659.93,510.752c0,-0 -62.462,124.762 -82.95,213.346c-20.758,90.1 -53.591,509.566 12.804,605.095c66.396,95.53 175.042,84.875 400.925,82.021c225.796,-2.846 694.125,1.325 694.125,1.325" style="fill:none;fill-rule:nonzero;stroke:#fff;stroke-width:13.87px;stroke-linecap:round;stroke-linejoin:round;"/><path d="M1321.03,519.035c0,0 51.309,-53.754 13.721,-116.975c-37.587,-63.221 -117.883,-30.708 -139.737,-0.612" style="fill:none;fill-rule:nonzero;stroke:#fff;stroke-width:13.87px;stroke-linecap:round;stroke-linejoin:round;"/><path d="M1289.21,1325.65c0,-0 -1.645,-77.029 54.142,-107.463c55.783,-30.441 95.475,-32.229 110.017,29.088c14.45,61.325 6.491,133.833 -26.521,164.008" style="fill:none;fill-rule:nonzero;stroke:#fff;stroke-width:13.87px;stroke-linecap:round;stroke-linejoin:round;"/><path d="M1150.57,1266.44l150.071,0" style="fill:none;fill-rule:nonzero;stroke:#fff;stroke-width:13.87px;stroke-linecap:round;stroke-linejoin:round;"/><path d="M1391,1200.8c-0,-0 -35.392,26.333 -36.488,106.566c-1.1,80.234 39.688,104.271 39.688,104.271" style="fill:none;fill-rule:nonzero;stroke:#fff;stroke-width:13.87px;stroke-linecap:round;stroke-linejoin:round;"/><path d="M1249.06,1266.41c-0,-0 -45.45,19.221 -41.792,75.321c3.567,56.096 21.583,67.75 21.583,67.75" style="fill:none;fill-rule:nonzero;stroke:#fff;stroke-width:13.87px;stroke-linecap:round;stroke-linejoin:round;"/><path d="M1588.35,1322.86c0,0 -13.167,-75.271 53.042,-110.162c66.121,-34.9 90.541,-17.146 108.283,36.391c17.742,53.525 1.646,138.675 -18.75,152.213c-20.392,13.537 -38.133,14.196 -60.725,10.966" style="fill:none;fill-rule:nonzero;stroke:#fff;stroke-width:13.87px;stroke-linecap:round;stroke-linejoin:round;"/><path d="M1687.12,1195.43c-0,-0 -38.5,21.258 -40.058,106.829c-1.463,85.571 44.083,113.396 44.083,113.396" style="fill:none;fill-rule:nonzero;stroke:#fff;stroke-width:13.87px;stroke-linecap:round;stroke-linejoin:round;"/><path d="M1497.63,1265.49l97.488,0" style="fill:none;fill-rule:nonzero;stroke:#fff;stroke-width:13.87px;stroke-linecap:round;stroke-linejoin:round;"/><path d="M1563.02,1266.93c-0,-0 -42.433,41.508 -13.992,145.091" style="fill:none;fill-rule:nonzero;stroke:#fff;stroke-width:13.87px;stroke-linecap:round;stroke-linejoin:round;"/><path d="M759.064,1017.96c-0,0 89.716,88.158 72.887,130.996c-16.825,42.825 -67.308,63.412 -106.358,30.862c-39.05,-32.558 -48.471,-84.637 -48.471,-84.637" style="fill:none;fill-rule:nonzero;stroke:#fff;stroke-width:13.87px;stroke-linecap:round;stroke-linejoin:round;"/><path d="M1279.36,628.948c-0,27.037 12.254,49.291 26.979,49.291c14.816,0 26.979,-22.241 26.979,-49.279c-0,-27.029 -12.163,-49.292 -26.979,-49.3c-14.725,-0.017 -26.888,22.225 -26.979,49.263" style="fill:#fff;"/><path d="M1039.76,633.927c0,27.037 12.163,49.291 26.98,49.291c14.816,0.009 26.979,-22.233 26.979,-49.27c-0,-27.038 -12.163,-49.3 -26.979,-49.309c-14.817,-0.008 -26.98,22.225 -26.98,49.263" style="fill:#fff;"/><path d="M1234.18,639.202l-72.062,1.179c-0,-0 -2.104,49.812 33.837,48.558c36.03,-1.254 41.792,-10.608 38.225,-49.737Z" style="fill:#fff;fill-rule:nonzero;stroke:#000;stroke-width:5.5px;"/><path d="M683.647,455.302c-0,24.191 19.937,44.087 44.079,44.087c24.142,0.009 44.079,-19.887 44.079,-44.071c0,-24.183 -19.937,-44.087 -44.079,-44.1c-24.142,-0.016 -43.987,19.871 -44.079,44.063" style="fill:#fff;"/><path d="M1035.83,622.406c0,22.954 6.313,41.846 13.992,41.846c7.591,0.008 13.904,-18.884 13.904,-41.838c-0,-22.954 -6.313,-41.854 -13.904,-41.866c-7.679,-0.009 -13.992,18.875 -13.992,41.829"/><path d="M1273.79,615.477c-0,22.962 6.308,41.854 13.991,41.854c7.592,-0 13.9,-18.879 13.9,-41.838c0,-22.962 -6.308,-41.854 -13.9,-41.875c-7.683,-0.008 -13.991,18.875 -13.991,41.842"/><path d="M353.976,972.143c0,0 -24.242,32.684 -36.958,66.905c-12.721,34.22 -28.809,80.687 -28.809,80.687c0,0 -28.081,81.121 -24.454,117.129c3.623,36.013 21.196,84.746 55,91.625c33.804,6.875 40,-16.05 39.134,-32.012c-0.871,-15.959 -4.005,-35.163 -4.005,-35.163l1.446,-14.487c0,-0 17.304,7.387 24.279,0.033c6.975,-7.358 6.65,-20.175 3.95,-30.396c-2.7,-10.225 -10.379,-35.004 -9.695,-41.991c0.691,-6.992 12.05,-65.609 12.05,-65.609l3.154,-10.65c-0,0 -27.488,-80.325 -35.092,-126.071Z" style="fill:#fff;fill-rule:nonzero;stroke:#000;stroke-width:2.37px;"/><path d="M986.159,968.127c0,-0 8.9,6.279 15.609,17.7c6.712,11.421 26.929,59.204 30.05,68.608c3.129,9.408 20.087,64.792 20.087,64.792c0,-0 8.5,20.321 12.775,33.116c4.275,12.8 13.217,64.746 13.217,64.746c-0,0 0.667,41.725 -10.633,66.392c-11.296,24.671 -33.663,46.992 -54.467,44.442c-20.804,-2.559 -30.746,-14.771 -28.029,-40.213c2.716,-25.442 3.383,-42.4 3.383,-42.4c0,0 -23.337,12.167 -27.95,-5.225c-4.612,-17.392 0.642,-31 0.642,-31l6.008,-35.458l-6.35,-50.129l-9.479,-44.688l35.137,-110.683Z" style="fill:#fff;fill-rule:nonzero;stroke:#000;stroke-width:2.37px;"/><path d="M714.484,1262.63l-4.662,76.5l-1.333,35.416l6.325,21.392l8.562,7.008l73.738,11.921l52.929,0.404l43.275,-5.133l8.35,-3.617l2.871,-14.587l-6.05,-19.808l-15.755,-18.521l-19.27,-16.125l-13.292,-12.413l8.554,-33.921l24.421,-112.325l-168.663,83.809Z" style="fill:#fff;fill-rule:nonzero;stroke:#000;stroke-width:2.37px;"/><path d="M633.397,1261.74l2.967,55.359l0.95,72.862l-15.655,16.942l-42.45,6.6l-102.933,-0.429l-18.625,-5.2l-7.742,-15.242l3,-15.517l10.734,-14.991l30.129,-29.171l1.487,-17.867l-22.137,-102.737l-4.458,-32.134l164.733,81.525Z" style="fill:#fff;fill-rule:nonzero;stroke:#000;stroke-width:2.37px;"/><path d="M670.976,1265.38c175.4,-0 317.588,-137.592 317.588,-307.325c-0,-169.734 -142.188,-307.325 -317.588,-307.325c-175.396,-0 -317.587,137.591 -317.587,307.325c-0,169.733 142.191,307.325 317.587,307.325Z" style="fill:#fff;fill-rule:nonzero;stroke:#000;stroke-width:5.98px;stroke-linecap:round;stroke-linejoin:round;"/><path d="M353.076,968.206c0,-0 -23.075,40.104 -29.975,56.308c-6.908,16.204 -29.037,82.388 -34.862,96.134c-5.834,13.75 -30.759,96.4 -22.626,134.129c8.137,37.733 30.117,78.229 67.463,74.479c37.342,-3.754 20.954,-53.758 21.183,-63.613c0.234,-9.862 1.192,-19.654 1.192,-19.654c0,0 12.146,10.604 24.367,0.771c12.221,-9.837 1.662,-35.654 -1.346,-47.946c-3.008,-12.287 -3.854,-21.921 -2.163,-31.679c1.688,-9.758 3.546,-37.175 12.08,-68.767" style="fill:none;fill-rule:nonzero;stroke:#000;stroke-width:5.98px;stroke-linecap:round;stroke-linejoin:round;"/><path d="M989.201,966.081c0,-0 23.071,40.108 29.975,56.308c6.904,16.204 29.033,82.388 34.863,96.134c5.829,13.75 30.758,96.4 22.625,134.129c-8.138,37.729 -30.121,78.233 -67.463,74.475c-37.342,-3.75 -20.958,-53.75 -21.187,-63.613c-0.23,-9.858 -1.188,-19.65 -1.188,-19.65c0,0 -12.15,10.604 -24.371,0.767c-12.221,-9.833 -1.662,-35.65 1.35,-47.938c3.009,-12.291 3.85,-21.925 2.163,-31.683c-1.692,-9.758 -3.546,-37.179 -12.079,-68.771" style="fill:none;fill-rule:nonzero;stroke:#000;stroke-width:5.98px;stroke-linecap:round;stroke-linejoin:round;"/><path d="M714.597,1263.66c-0,-0 -3.138,71.825 -4.496,80.808c-1.358,8.988 -3.117,49.879 9.367,55.829c12.483,5.946 76.033,17.25 112.958,15.092c36.917,-2.158 66.629,-2.254 69.204,-12.621c2.571,-10.358 4.384,-26.475 -15.383,-46.591c-19.763,-20.117 -37.263,-27.234 -36.396,-32.284c0.871,-5.054 25.908,-102.925 30.892,-135.404" style="fill:none;fill-rule:nonzero;stroke:#000;stroke-width:5.98px;stroke-linecap:round;stroke-linejoin:round;"/><path d="M469.859,1196.26c0,0 31.817,128.758 23.621,137.579c-8.196,8.817 -43.604,30.192 -42.837,53.392c0.771,23.2 12.987,25.012 50.704,26.233c37.717,1.221 70.171,-1.487 97.329,-4.091c27.163,-2.6 39.404,-13.438 38.796,-25.917c-0.617,-12.483 -2.258,-119.446 -2.258,-119.446" style="fill:none;fill-rule:nonzero;stroke:#000;stroke-width:5.98px;stroke-linecap:round;stroke-linejoin:round;"/><path d="M494.58,1332.53c0,-0 23.242,-8.954 52.296,-8.317c29.054,0.629 50.138,8.792 50.138,8.792" style="fill:none;fill-rule:nonzero;stroke:#000;stroke-width:5.98px;stroke-linecap:round;stroke-linejoin:round;"/><path d="M750.489,1337.14c-0,0 70.991,-25.395 100.483,-14.587" style="fill:none;fill-rule:nonzero;stroke:#000;stroke-width:5.98px;stroke-linecap:round;stroke-linejoin:round;"/><path d="M556.155,894.852c0,-0 26.417,17.846 51.925,5.658c25.509,-12.187 47.829,-29.583 68.079,-24.846c20.255,4.729 52.538,22.35 69.134,22.992c16.596,0.642 30.833,-8.7 30.833,-8.7" style="fill:none;fill-rule:nonzero;stroke:#000;stroke-width:5.98px;stroke-linecap:round;stroke-linejoin:round;"/><path d="M765.718,861.914c28.35,0 51.333,-23 51.333,-51.375c0,-28.375 -22.983,-51.375 -51.333,-51.375c-28.35,0 -51.334,23 -51.334,51.375c0,28.375 22.984,51.375 51.334,51.375Z" style="fill-rule:nonzero;stroke:#000;stroke-width:2.37px;"/><path d="M571.839,868.856c28.35,-0 51.333,-23 51.333,-51.375c-0,-28.375 -22.983,-51.379 -51.333,-51.379c-28.355,-0 -51.334,23.004 -51.334,51.379c0,28.375 22.979,51.375 51.334,51.375Z" style="fill-rule:nonzero;stroke:#000;stroke-width:2.37px;"/><path d="M790.772,828.289c19.475,0 35.262,-15.796 35.262,-35.287c0,-19.492 -15.787,-35.292 -35.262,-35.292c-19.471,0 -35.258,15.8 -35.258,35.292c-0,19.491 15.787,35.287 35.258,35.287Z" style="fill:#fff;fill-rule:nonzero;"/><path d="M591.872,835.902c19.475,-0 35.262,-15.8 35.262,-35.288c0,-19.491 -15.787,-35.291 -35.262,-35.291c-19.475,-0 -35.258,15.8 -35.258,35.291c-0,19.488 15.783,35.288 35.258,35.288Z" style="fill:#fff;fill-rule:nonzero;"/><path d="M670.976,1265.38c175.4,-0 317.588,-137.592 317.588,-307.325c-0,-169.734 -142.188,-307.325 -317.588,-307.325c-175.396,-0 -317.587,137.591 -317.587,307.325c-0,169.733 142.191,307.325 317.587,307.325Z" style="fill:none;fill-rule:nonzero;stroke:#000;stroke-width:5.98px;stroke-linecap:round;stroke-linejoin:round;"/><path d="M348.518,1196.66l5.358,-25.45l64.808,-12.291l2.334,-2.984l-19.013,-42.921l-42.946,-80.183c0,0 37.934,-11.725 43.896,-27.187c5.963,-15.467 4.15,-33.817 4.15,-33.817c0,-0 -73.021,35.683 -113.462,33.562c-40.353,-2.116 -79.324,-5.05 -79.324,-5.05l-74.143,-18.179l-23.331,-8.708c0,-0 -3.198,39.358 26.528,52.262c29.813,12.896 24.283,10.975 24.283,10.975l-22.294,42.759l-24.455,48.708l-15.296,32.733l47.182,6.471l20.911,6.338l3.543,25.15l171.271,-2.188Z" style="fill:#fff;fill-rule:nonzero;stroke:#000;stroke-width:5.2px;"/><path d="M339.097,1306.68l-0,-82.671l10.021,-25.954l-172.564,-0.242l10.543,30.738l0.259,78.233l55.218,-0.146l-0.692,-67.562l42.686,0.546l-0.429,69.341l50.637,-0.05l4.146,0.667l0.175,-2.9Z" style="fill-rule:nonzero;"/><path d="M279.993,1390.22l131.691,2.109c0,-0 0.605,20.904 -12.7,22.875c-13.395,1.975 -119.768,-3.579 -119.768,-3.579l0.777,-21.405Z" style="fill:#fff;fill-rule:nonzero;"/><path d="M247.758,1393.7l-0.173,15.708l-64.291,1.996l-61.18,-1.263l-4.666,-19.145l130.31,2.704Z" style="fill:#fff;fill-rule:nonzero;"/><path d="M280.167,1328.61l61.18,0.65c-0,-0 44.762,-15.671 61.958,13.525c17.284,29.204 6.396,50.333 6.396,50.333l-131.263,-1.696l1.729,-62.812Z" style="fill-rule:nonzero;"/><path d="M181.135,1323.11l66.279,2.309l0.173,67.154l-131.088,-0.596c0,-0 -15.986,-82.175 64.636,-68.867Z" style="fill-rule:nonzero;"/><path d="M173.617,1174.06c-0,-0 -0.691,21.812 6.05,33.012c6.74,11.2 8.813,22.33 4.06,28.455c-4.752,6.125 -14.257,4.429 -16.676,2.55c-2.42,-1.875 -7.865,-2.725 -8.383,2.404c-0.519,5.129 7.085,4.396 10.628,2.546c3.63,-1.855 15.296,-6.963 16.505,0.316c1.21,7.284 3.111,23.959 -14.085,29.154c-17.196,5.2 -43.725,6.334 -57.464,-6.258c-13.74,-12.604 -19.529,-30.521 -19.788,-51.512c-0.173,-21 12.098,-54.459 12.098,-54.459l29.466,3.579l28.17,7.405l9.419,2.808Z" style="fill-rule:nonzero;"/><path d="M421.189,1157.6c-0,-0 14,25.204 11.666,59.07c-2.421,33.867 -17.975,61.663 -64.291,54.884c-46.405,-6.788 -22.988,-37.621 -22.988,-37.621c0,-0 20.396,12.462 22.9,8.612c2.421,-3.845 -1.208,-10.962 -8.812,-7.55c-7.517,3.417 -21.43,-2.516 -18.838,-14.812c2.592,-12.3 15.9,-40.225 12.788,-46.883l33.008,-9.125l34.567,-6.575Z" style="fill-rule:nonzero;"/><path d="M259.858,1005.07c0,0 -223.721,-8.65 -248.435,-143.162c-24.8,-134.517 61.179,-282.163 246.62,-291.892c185.354,-9.729 279.283,165.659 258.721,272.909c-18.925,98.283 -144.05,168.966 -256.906,162.145Z" style="fill:#fff;fill-rule:nonzero;stroke:#000;stroke-width:9.43px;stroke-linecap:round;stroke-linejoin:round;"/><path d="M368.997,587.352c-0,-0 7.087,-67.075 43.725,-62.292c36.637,4.771 91.942,59.421 89.262,91.846c-2.679,32.421 -47.008,36.633 -47.008,36.633c0,0 -30.5,-40.579 -85.979,-66.187Z" style="fill-rule:nonzero;stroke:#000;stroke-width:9.43px;stroke-linecap:round;stroke-linejoin:round;"/><path d="M157.114,590.71c0,0 -8.123,-71.462 -44.848,-66.679c-36.639,4.771 -91.942,59.421 -89.264,91.846c2.679,32.421 47.095,36.633 47.095,36.633c-0,0 31.541,-38.137 87.017,-61.8Z" style="fill-rule:nonzero;stroke:#000;stroke-width:9.43px;stroke-linecap:round;stroke-linejoin:round;"/><path d="M407.709,973.206c0,-0 18.405,63.625 -91.079,62.867" style="fill:none;fill-rule:nonzero;stroke:#000;stroke-width:9.43px;stroke-linecap:round;stroke-linejoin:round;"/><path d="M117.279,973.273c0,-0 -15.382,65.583 90.56,66.516" style="fill:none;fill-rule:nonzero;stroke:#000;stroke-width:9.43px;stroke-linecap:round;stroke-linejoin:round;"/><path d="M359.318,1033.51c-0,0 40.096,66.138 62.737,124.079c22.55,57.946 10.888,110.754 -36.296,114.188c-47.179,3.441 -49.254,-22.634 -43.466,-33.029c5.879,-10.405 21.433,8.883 25.666,1.512c4.234,-7.367 -6.654,-9.142 -8.9,-5.187c-2.245,3.954 -24.283,1.929 -16.85,-18.584c7.43,-20.516 28.259,-55.941 -17.629,-180.783" style="fill:none;fill-rule:nonzero;stroke:#000;stroke-width:9.43px;stroke-linecap:round;stroke-linejoin:round;"/><path d="M167.828,1037.25c0,-0 -40.095,66.133 -62.735,124.079c-22.554,57.954 -10.889,110.754 36.293,114.196c47.181,3.433 49.341,-22.634 43.466,-33.038c-5.79,-10.404 -21.43,8.892 -25.665,1.521c-4.234,-7.367 6.74,-9.15 8.901,-5.196c2.246,3.95 24.368,1.929 16.85,-18.587c-7.431,-20.505 -28.256,-55.938 17.628,-180.78" style="fill:none;fill-rule:nonzero;stroke:#000;stroke-width:9.43px;stroke-linecap:round;stroke-linejoin:round;"/><path d="M217.171,1233.21c0,-0 49.688,14.233 85.722,-0" style="fill:none;fill-rule:nonzero;stroke:#000;stroke-width:9.43px;stroke-linecap:round;stroke-linejoin:round;"/><path d="M177.421,1198.17l171.959,0" style="fill:none;fill-rule:nonzero;stroke:#000;stroke-width:9.43px;stroke-linecap:round;stroke-linejoin:round;"/><path d="M283.793,1239.46l-0,70.912" style="fill:none;fill-rule:nonzero;stroke:#000;stroke-width:9.43px;stroke-linecap:round;stroke-linejoin:round;"/><path d="M242.228,1238.57l0,68.08" style="fill:none;fill-rule:nonzero;stroke:#000;stroke-width:9.43px;stroke-linecap:round;stroke-linejoin:round;"/><path d="M187.964,1231.97l0,76.538" style="fill:none;fill-rule:nonzero;stroke:#000;stroke-width:9.43px;stroke-linecap:round;stroke-linejoin:round;"/><path d="M338.839,1223.57l-0,86.65" style="fill:none;fill-rule:nonzero;stroke:#000;stroke-width:9.43px;stroke-linecap:round;stroke-linejoin:round;"/><path d="M317.405,1352.21c0,-0 19.442,-31.504 54.009,-26.279c34.562,5.221 39.575,28.712 39.491,52.833c0,24.121 -1.383,33.15 -8.9,34.558c-7.521,1.409 -120.375,1.28 -122.102,-2.387c-1.815,-3.667 0.259,-82.842 0.259,-82.842l64.981,0.975" style="fill:none;fill-rule:nonzero;stroke:#000;stroke-width:9.43px;stroke-linecap:round;stroke-linejoin:round;"/><path d="M210.344,1349.07c0,0 -19.442,-31.504 -54.007,-26.283c-34.652,5.225 -39.577,28.713 -39.577,52.833c0.087,24.121 1.47,33.142 8.987,34.559c7.518,1.412 120.287,1.283 122.101,-2.384c1.815,-3.679 -0.259,-80.9 -0.259,-80.9l-65.069,-0.966" style="fill:none;fill-rule:nonzero;stroke:#000;stroke-width:9.43px;stroke-linecap:round;stroke-linejoin:round;"/><path d="M253.377,1312.14c-0,-2.308 -1.903,-4.187 -4.149,-4.187l-69.734,-0c-2.334,-0 -4.148,1.879 -4.148,4.187l0,5.554c0,2.309 1.814,4.184 4.148,4.184l69.734,-0c2.246,-0 4.149,-1.875 4.149,-4.184l-0,-5.554Z" style="fill:#fff;stroke:#000;stroke-width:9.43px;stroke-linecap:round;stroke-linejoin:round;stroke-miterlimit:4.9;"/><path d="M352.318,1314.34c-0,-2.308 -1.9,-4.183 -4.234,-4.183l-69.647,0c-2.333,0 -4.235,1.875 -4.235,4.183l0,5.555c0,2.308 1.902,4.183 4.235,4.183l69.647,-0c2.334,-0 4.234,-1.875 4.234,-4.183l-0,-5.555Z" style="fill:#fff;stroke:#000;stroke-width:9.43px;stroke-linecap:round;stroke-linejoin:round;stroke-miterlimit:4.9;"/><path d="M117.969,1392.01l130.828,0.821" style="fill:none;fill-rule:nonzero;stroke:#000;stroke-width:9.43px;stroke-linecap:round;stroke-linejoin:round;"/><path d="M279.993,1391.35l129.187,1.512" style="fill:none;fill-rule:nonzero;stroke:#000;stroke-width:9.43px;stroke-linecap:round;stroke-linejoin:round;"/><path d="M353.959,1173.11c0,-0 42.946,-14.738 68.613,-14.054" style="fill:none;fill-rule:nonzero;stroke:#000;stroke-width:9.43px;stroke-linecap:round;stroke-linejoin:round;"/><path d="M106.478,1160.35c-0,-0 43.119,2.312 66.191,14.316" style="fill:none;fill-rule:nonzero;stroke:#000;stroke-width:9.43px;stroke-linecap:round;stroke-linejoin:round;"/><path d="M302.547,761.993c-0,0 20.133,-17.3 33.442,-24.191c28.341,-14.642 131.433,-63.55 135.666,69.404c4.15,132.962 -146.641,66.275 -169.108,-45.213Z" style="fill-rule:nonzero;stroke:#000;stroke-width:5.2px;"/><path d="M215.357,760.485c-0,0 -20.135,-17.296 -33.442,-24.179c-28.343,-14.65 -131.434,-63.558 -135.668,69.396c-4.148,132.962 146.642,66.271 169.11,-45.217Z" style="fill-rule:nonzero;stroke:#000;stroke-width:5.2px;"/><path d="M280.34,796.923c0,5.516 -9.074,10.058 -20.135,10.058c-10.974,-0 -20.133,-4.542 -20.133,-10.058c-0,-5.517 9.072,-10.059 20.133,-10.067c11.061,-0 20.135,4.542 20.135,10.058"/><path d="M261.068,798.452l-0,26.146" style="fill:none;fill-rule:nonzero;stroke:#000;stroke-width:5.2px;stroke-linecap:round;stroke-linejoin:round;"/><path d="M394.418,769.152l8.316,-14.959l15.338,0l-14.433,25.28l15.054,26.429l-15.388,-0l-8.887,-15.867l-8.746,15.867l-15.483,-0l15.1,-26.429l-14.434,-25.28l15.438,0l8.125,14.959Z" style="fill:#fff;fill-rule:nonzero;"/><path d="M118.152,767.806l-8.315,-14.958l-15.341,-0l14.433,25.283l-15.054,26.429l15.389,0l8.888,-15.867l8.746,15.867l15.484,0l-15.102,-26.429l14.433,-25.283l-15.436,-0l-8.125,14.958Z" style="fill:#fff;fill-rule:nonzero;"/></svg>