<?xml version="1.0" encoding="UTF-8" standalone="no"?><!DOCTYPE svg PUBLIC "-//W3C//DTD SVG 1.1//EN" "http://www.w3.org/Graphics/SVG/1.1/DTD/svg11.dtd"><svg width="100%" height="100%" viewBox="0 0 734 818" version="1.1" xmlns="http://www.w3.org/2000/svg" xmlns:xlink="http://www.w3.org/1999/xlink" xml:space="preserve" xmlns:serif="http://www.serif.com/" style="fill-rule:evenodd;clip-rule:evenodd;"><g><g id="corcopo"><path id="base" d="M318.407,267.392l323.07,289.37l-1.14,28.58c-0,0 -12.134,145.376 -174.018,227.806l-398.605,-206.596c0,-0 225.715,-161.691 250.693,-339.16Z" style="fill:#fff;fill-rule:nonzero;"/><path id="path48984" d="M341.147,284.152c-0,-0 45.955,156.202 17.469,214.82c-28.486,58.618 -47.447,57.629 -47.198,108.013c0.25,50.385 -58.927,96.463 -58.927,96.463l55.479,29.442c0,0 51.448,-42.397 52.402,-97.267c0.953,-54.87 41.403,-67.98 54.84,-141.411c13.436,-73.43 -29.398,-178.504 -29.398,-178.504l-44.667,-31.556Z" style="fill-rule:nonzero;"/><path id="cop2" d="M45.523,591.237c0,0 29.066,29.675 63.672,18.937c34.606,-10.738 70.747,-58.15 70.747,-58.15l63.342,-72.785l33.858,-46.787l32.572,-69.713c-0,-0 18.313,-46.786 16.327,-71.012c-1.986,-24.227 -21.652,-41.993 -21.652,-41.993l-18.443,-8.372c0,0 20.155,34.999 -10.69,98.907c-30.844,63.908 -62.621,109.6 -62.621,109.6l-42.57,54.899l-38.361,41.399l-41.129,33.948c-0,0 -34.511,18.12 -45.052,11.122Z" style="fill:#fff;fill-rule:nonzero;stroke:#000;stroke-width:3.12px;"/><path id="cop" d="M243.306,407.52l23.413,-48.11l21.126,-55.731c0,-0 5.254,-36.203 2.509,-50.188c-2.744,-13.984 -20.843,-22.538 -20.843,-22.538l-25.494,2.038l-37.123,17.104l-47.095,39.578l-45.118,57.604l-41.071,53.655l-24.344,46.303l-24.601,63.407l-5.846,38.249l5.406,25.898l11.737,11.267l14.64,4.196l29.594,-5.402l51.408,-40.14l41.128,-44.336l32.859,-41.136l37.715,-51.718Z" style="fill:#fff;fill-rule:nonzero;stroke:#000;stroke-width:3.12px;"/><path id="path48987" d="M510.268,458.354c0,0 21.135,38.048 4.207,79.294c-16.927,41.246 -30.829,52.891 -28.925,103.222c1.905,50.33 -77.607,139.494 -77.607,139.494l41.726,23.254c0,-0 84.611,-86.949 89.303,-130.343c4.693,-43.394 -3.238,-135.473 25.685,-135.254c28.924,0.22 0.384,-52.831 0.384,-52.831l-54.773,-26.836Z" style="fill-rule:nonzero;"/></g><g id="copo"><path id="path26828" d="M222.836,362.221c-17.317,26.998 -44.06,43.353 -59.246,36.232c-15.185,-7.121 -13.435,-35.195 3.878,-62.195c17.313,-27.001 44.057,-43.364 59.247,-36.251c15.191,7.113 13.448,35.182 -3.86,62.185"/><path id="path36901" d="M169.274,281.77c0,0 67.646,-67.738 107.15,-46.996c39.504,20.742 -4.771,134.457 -50.084,196.513c-45.313,62.056 -128.395,168.728 -179.229,159.291c-50.835,-9.437 -18.662,-99.056 3.155,-147.209c21.817,-48.154 98.702,-145.764 119.008,-161.599Z" style="fill:none;fill-rule:nonzero;stroke:#000;stroke-width:7.85px;stroke-linecap:round;stroke-linejoin:round;"/><path id="path36903" d="M39.97,587.896c0,-0 50.897,47.975 95.763,7.485c44.867,-40.49 128.026,-130.813 153.499,-188.484c25.472,-57.671 70.474,-141.51 -6.192,-166.769" style="fill:none;fill-rule:nonzero;stroke:#000;stroke-width:7.85px;stroke-linecap:round;stroke-linejoin:round;"/><path id="path36905" d="M61.35,602.685l406.943,211.057c-0,-0 106.53,-52.463 146.63,-149.518c40.1,-97.056 24.085,-108.913 24.085,-108.913l-323.525,-291.867" style="fill:none;fill-rule:nonzero;stroke:#000;stroke-width:7.85px;stroke-linecap:round;stroke-linejoin:round;"/><path id="corcanudo" d="M171.314,373.933l-80.923,-75.22l-27.327,31.464c-0,-0 -48.532,2.064 -56.622,-48.268l60.418,-64.883c-0,-0 30.814,-25.652 54.504,1.97c23.689,27.622 96.832,108.397 96.832,108.397l-46.882,46.54Z" style="fill:#fff;fill-rule:nonzero;stroke:#000;stroke-width:3.12px;"/><path id="path36907" d="M213.547,321.636l-92.198,-100.791c-0,-0 -27.811,-30.452 -55.737,-1.403c-27.926,29.049 -58.993,65.527 -58.993,65.527c-0,0 12.808,48.617 56.532,43.834l49.3,-50.765" style="fill:none;fill-rule:nonzero;stroke:#000;stroke-width:7.85px;stroke-linecap:round;stroke-linejoin:round;"/><path id="path36909" d="M90.882,301.308l87.774,79.124" style="fill:none;fill-rule:nonzero;stroke:#000;stroke-width:7.85px;stroke-linecap:round;stroke-linejoin:round;"/></g><g id="corpato"><path id="sapato" d="M366.53,472.311l-9.089,-51.465l-18.428,1.891c0,-0 -1.444,-26.743 -19.965,-31.051c-18.521,-4.308 -41.706,-0.942 -41.459,38.73c0.247,39.672 14.954,54.93 14.954,54.93l73.987,-13.035Z" style="fill-rule:nonzero;stroke:#000;stroke-width:3.12px;"/><path id="cor-pato" serif:id="cor pato" d="M410.248,413.867c0,-0 -33.164,-33.842 -42.994,-61.437c-9.831,-27.594 -18.536,-65.153 10.702,-118.48c29.238,-53.327 114.806,-132.399 114.806,-132.399c0,0 60.351,-63.983 111.73,-57.024c51.379,6.959 70.839,35.425 77.023,43.394c6.184,7.969 18.617,44.807 12.382,68.182c-0,0 -50.768,-4.759 -65.986,14.76c-15.218,19.519 -23.118,52.903 -22.27,72.726c-0,-0 61.694,-8.212 64.669,4.233c2.976,12.445 1.082,19.343 -21.615,36.689c-22.698,17.345 -39.432,9.619 -37.181,26.262c2.252,16.643 26.22,44.113 26.22,44.113c-0,0 13.731,39.621 -9.748,83.226c-23.48,43.605 -106.21,47.932 -126.599,41.339c-20.388,-6.592 -49.437,-28.264 -49.437,-28.264c0,-0 -58.871,22.491 -85.96,22.839l-9.709,-52.317c-0,0 41.26,-1.06 53.967,-7.842Z" style="fill:#fff;fill-rule:nonzero;stroke:#000;stroke-width:3.12px;"/></g><g id="corfone"><path id="path49752" d="M486.527,105.551l72.849,-54.096l-20.312,-2.082c0,-0 -44.966,-2.299 -52.537,56.178Z" style="fill-rule:nonzero;stroke:#000;stroke-width:3.12px;"/><path id="path49754" d="M692.704,156.385l1.304,-11.821c0,-0 -30.238,-4.253 -51.35,7.089c-21.111,11.342 -37.485,20.906 -44.421,46.986c-6.936,26.08 -1.707,47.724 -1.707,47.724l9.505,-2.494c-0,-0 -4.556,-103.507 86.669,-87.484Z" style="fill-rule:nonzero;"/><path id="path49747" d="M693.709,156.748l27.094,17.106l2.876,-50.496c-0,-0 -0.636,-73.554 -41.132,-98.655c-40.496,-25.1 -90.315,-21.363 -90.315,-21.363c0,0 -57.206,10.22 -58.339,26.533c-1.134,16.312 9.217,22.839 19.974,19.967c10.757,-2.871 59.128,-9.962 82.438,-0.754c23.31,9.208 69.294,36.541 57.404,107.662l0,0Z" style="fill:#fff;fill-rule:nonzero;"/><path id="path49606" d="M487.045,108.002c-0,0 -2.637,-51.396 56.451,-60.314c0,0 -10.487,-6.34 -8.434,-22.557c0,-0 -72.575,-5.485 -62.923,93.832l14.906,-10.961Z" style="fill:#fff;fill-rule:nonzero;"/><path id="path49534" d="M606.433,245.624l1.226,-30.277l11.276,-32.385c-0,0 23.535,-28.284 44.276,-27.744c20.74,0.539 28.684,0.895 28.684,0.895c-0,-0 18.48,5.509 25.804,17.021c7.324,11.513 11.855,33.432 11.855,33.432c0,0 3.438,21.311 -8.912,38.695c-12.35,17.383 -24.051,30.19 -24.051,30.19l-26.257,9.447l-16.734,-4.163c0,0 36.363,-25.127 15.222,-36.262c-21.142,-11.135 -62.389,1.151 -62.389,1.151Z" style="fill:#fff;fill-rule:nonzero;"/></g><g id="pato"><path id="path36919" d="M503.361,412.125c-0,0 -22.347,32.681 -75.12,47.693c-52.773,15.011 -137.445,23.939 -137.445,23.939c0,-0 -26.302,-63.398 -4.349,-83.655c21.954,-20.257 49.543,-10.312 53.329,22.813c-0,0 75.289,4.291 124.042,-41.522" style="fill:none;fill-rule:nonzero;stroke:#000;stroke-width:7.85px;stroke-linecap:round;stroke-linejoin:round;"/><path id="path36921" d="M454.694,451.849c0,0 56.065,47.273 118.735,24.188c62.67,-23.084 85.311,-84.415 59.578,-126.73c-25.734,-42.316 -32.088,-48.135 -4.345,-55.549c27.744,-7.415 61.829,-43.622 33.938,-50.662c-27.89,-7.039 -84.562,8.082 -84.562,8.082" style="fill:none;fill-rule:nonzero;stroke:#000;stroke-width:7.85px;stroke-linecap:round;stroke-linejoin:round;"/><path id="path36923" d="M409.638,414.162c0,0 -89.279,-81.897 -34.415,-172.676c54.864,-90.779 172.084,-201.052 213.434,-196.745" style="fill:none;fill-rule:nonzero;stroke:#000;stroke-width:7.85px;stroke-linecap:round;stroke-linejoin:round;"/><path id="path36925" d="M605.454,245.823c0,0 -4.113,-82.429 56.776,-90.199c60.185,-7.679 74.284,41.079 65.342,73.679c-8.943,32.601 -33.683,59.785 -74.432,52.962" style="fill:none;fill-rule:nonzero;stroke:#000;stroke-width:7.85px;stroke-linecap:round;stroke-linejoin:round;"/><path id="path36929" d="M720.661,173.204c0,0 18.912,-111.635 -38.611,-148.667c-57.522,-37.032 -137.418,-16.669 -145.264,3.008c-7.845,19.678 11.128,28.752 34.974,19.563c23.845,-9.189 142.318,-4.092 121.229,107.41" style="fill:none;fill-rule:nonzero;stroke:#000;stroke-width:7.85px;stroke-linecap:round;stroke-linejoin:round;"/><path id="path36931" d="M693.473,147.185c0,0 -50.31,-16.285 -84.815,30.988c-23.519,32.22 -11.965,69.674 -11.965,69.674" style="fill:none;fill-rule:nonzero;stroke:#000;stroke-width:7.85px;stroke-linecap:round;stroke-linejoin:round;"/><path id="path36933" d="M544.354,47.871c-0,0 -59.693,5.867 -56.775,60.551" style="fill:none;fill-rule:nonzero;stroke:#000;stroke-width:7.85px;stroke-linecap:round;stroke-linejoin:round;"/><path id="path36935" d="M537.814,25.888c-0,-0 -78.556,-4.596 -64.648,96.152" style="fill:none;fill-rule:nonzero;stroke:#000;stroke-width:7.85px;stroke-linecap:round;stroke-linejoin:round;"/></g><g id="rostopato"><path id="path37463" d="M525.63,126.191c0,-0 -0.094,-22.134 20.687,-16.248c20.782,5.887 39.05,44.954 18.528,47.684c-20.523,2.73 -33.191,-19.814 -39.215,-31.436Z" style="fill:#fff;fill-rule:nonzero;stroke:#000;stroke-width:7.85px;stroke-linecap:round;stroke-linejoin:round;"/><path id="path37465" d="M539.152,77.029c-0,-0 8.147,24.421 24.305,19.725" style="fill:none;fill-rule:nonzero;stroke:#000;stroke-width:7.85px;stroke-linecap:round;stroke-linejoin:round;"/><path id="path37467" d="M597.946,123.286c-0,0 -2.514,26.031 22.132,26.966" style="fill:none;fill-rule:nonzero;stroke:#000;stroke-width:7.85px;stroke-linecap:round;stroke-linejoin:round;"/></g></g></svg>