<?xml version="1.0" encoding="UTF-8" standalone="no"?><!DOCTYPE svg PUBLIC "-//W3C//DTD SVG 1.1//EN" "http://www.w3.org/Graphics/SVG/1.1/DTD/svg11.dtd"><svg width="100%" height="100%" viewBox="0 0 1090 673" version="1.1" xmlns="http://www.w3.org/2000/svg" xmlns:xlink="http://www.w3.org/1999/xlink" xml:space="preserve" xmlns:serif="http://www.serif.com/" style="fill-rule:evenodd;clip-rule:evenodd;stroke-linecap:round;stroke-linejoin:round;"><g id="engrenage1"><path id="corcorpo" d="M460.334,257.807c-0,-0 -46.278,-53.111 -62.362,-49.576c-16.085,3.534 -60.575,39.474 -57.353,50.34c3.223,10.866 36.367,64.144 36.367,64.144c-0,-0 -19.983,25.946 -25.182,45.671c-5.199,19.726 -8.99,38.305 -25.454,38.639c-16.464,0.335 -56.458,0.215 -57.948,14.974c-1.489,14.758 0.379,69.301 10.75,72.788c10.371,3.487 68.888,-7.522 74.412,2.913c5.524,10.436 7.555,25.008 19.334,41.08c11.779,16.072 25.535,19.296 23.45,34.03c-2.085,14.734 -26.796,57.621 -15.288,75.556c11.508,17.934 62.199,30.83 74.52,11.009c12.321,-19.821 26.618,-52.275 40.401,-52.013c13.783,0.263 66.687,-2.115 72.888,-7.512c6.201,-5.397 33.253,61.517 53.454,57.171c20.2,-4.347 57.785,-34.89 55.971,-48.622c-1.815,-13.731 -29.234,-61.83 -20.569,-73.077c8.665,-11.248 28.524,-38.662 31.693,-56.835c3.168,-18.173 -0.271,-27.033 3.872,-28.991c4.143,-1.958 65.421,-14.973 66.098,-28.036c0.677,-13.063 5.551,-70.424 -6.959,-73.433c-12.51,-3.009 -70.621,11.94 -74.412,6.519c-3.791,-5.421 -20.808,-34.673 -31.341,-46.04c-10.534,-11.367 -17.358,-15.068 -10.534,-27.558c6.824,-12.49 20.309,-60.705 15.868,-67.797c-4.441,-7.093 -58.977,-31.26 -67.263,-22.902c-8.286,8.358 -41.917,64.549 -53.453,62.4c-11.535,-2.149 -42.55,0.765 -70.96,5.158Z" style="fill:#4ac4d9;fill-rule:nonzero;stroke:#000;stroke-width:6.67px;"/><circle id="corrsto" cx="515.72" cy="425.213" r="143.256" style="fill:#fff;stroke:#000;stroke-width:7.36px;"/><circle id="path4915" cx="515.72" cy="425.213" r="143.256" style="fill:none;stroke:#000;stroke-width:7.36px;"/><path id="path4917" d="M460.334,257.807c-0,-0 -46.278,-53.111 -62.362,-49.576c-16.085,3.534 -60.575,39.474 -57.353,50.34c3.223,10.866 36.367,64.144 36.367,64.144c-0,-0 -19.983,25.946 -25.182,45.671c-5.199,19.726 -8.99,38.305 -25.454,38.639c-16.464,0.335 -56.458,0.215 -57.948,14.974c-1.489,14.758 0.379,69.301 10.75,72.788c10.371,3.487 68.888,-7.522 74.412,2.913c5.524,10.436 7.555,25.008 19.334,41.08c11.779,16.072 25.535,19.296 23.45,34.03c-2.085,14.734 -26.796,57.621 -15.288,75.556c11.508,17.934 62.199,30.83 74.52,11.009c12.321,-19.821 26.618,-52.275 40.401,-52.013c13.783,0.263 66.687,-2.115 72.888,-7.512c6.201,-5.397 33.253,61.517 53.454,57.171c20.2,-4.347 57.785,-34.89 55.971,-48.622c-1.815,-13.731 -29.234,-61.83 -20.569,-73.077c8.665,-11.248 28.524,-38.662 31.693,-56.835c3.168,-18.173 -0.271,-27.033 3.872,-28.991c4.143,-1.958 65.421,-14.973 66.098,-28.036c0.677,-13.063 5.551,-70.424 -6.959,-73.433c-12.51,-3.009 -70.621,11.94 -74.412,6.519c-3.791,-5.421 -20.808,-34.673 -31.341,-46.04c-10.534,-11.367 -17.358,-15.068 -10.534,-27.558c6.824,-12.49 20.309,-60.705 15.868,-67.797c-4.441,-7.093 -58.977,-31.26 -67.263,-22.902c-8.286,8.358 -41.917,64.549 -53.453,62.4c-11.535,-2.149 -42.55,0.765 -70.96,5.158Z" style="fill:none;fill-rule:nonzero;stroke:#000;stroke-width:6.67px;"/><path id="path4948" d="M453.229,443.54c0,0 18.874,46.902 79.259,33.278" style="fill:none;fill-rule:nonzero;stroke:#000;stroke-width:5.49px;"/><path id="path4950" d="M532.374,468.94c-0,0 -1.571,4.872 2.207,16.812" style="fill:none;fill-rule:nonzero;stroke:#000;stroke-width:5.49px;"/><path id="path4952" d="M458.011,436.748c-0,0 -4.59,6.496 -13.431,11.128" style="fill:none;fill-rule:nonzero;stroke:#000;stroke-width:5.49px;"/><path id="path4954" d="M469.134,315.864c12.559,6.687 14.528,27.568 4.394,46.601c-10.133,19.033 -28.556,29.057 -41.115,22.371c-12.558,-6.686 -14.527,-27.567 -4.394,-46.6c10.133,-19.034 28.556,-29.058 41.115,-22.372Z"/><path id="path4954-6" d="M625.671,384.273c12.558,6.686 14.527,27.567 4.394,46.601c-10.133,19.033 -28.556,29.057 -41.115,22.371c-12.559,-6.687 -14.528,-27.568 -4.394,-46.601c10.133,-19.033 28.556,-29.057 41.115,-22.371Z"/><path id="path4954-2" d="M637.043,388.726c7.581,4.036 8.77,16.64 2.653,28.129c-6.117,11.488 -17.237,17.539 -24.818,13.503c-7.581,-4.036 -8.769,-16.64 -2.652,-28.129c6.116,-11.488 17.237,-17.539 24.817,-13.503Z" style="fill:#fff;"/><path id="path4954-2-9" d="M474.671,318.705c7.58,4.036 8.769,16.64 2.652,28.129c-6.116,11.489 -17.237,17.539 -24.817,13.503c-7.581,-4.036 -8.77,-16.64 -2.653,-28.128c6.117,-11.489 17.237,-17.54 24.818,-13.504Z" style="fill:#fff;"/></g><g id="engrenahe2"><path id="corcorpo1" serif:id="corcorpo" d="M953.443,205.366c0,-0 32.192,-36.945 43.38,-34.487c11.189,2.459 42.138,27.46 39.896,35.019c-2.241,7.558 -25.297,44.619 -25.297,44.619c-0,0 13.9,18.049 17.517,31.771c3.616,13.721 6.254,26.645 17.706,26.878c11.453,0.232 39.274,0.149 40.31,10.416c1.036,10.266 -0.264,48.207 -7.478,50.633c-7.214,2.425 -47.92,-5.233 -51.763,2.027c-3.842,7.259 -5.255,17.396 -13.449,28.575c-8.194,11.18 -17.762,13.423 -16.312,23.673c1.45,10.249 18.64,40.082 10.635,52.558c-8.006,12.476 -43.268,21.446 -51.838,7.658c-8.571,-13.788 -18.516,-36.364 -28.104,-36.181c-9.588,0.183 -46.39,-1.471 -50.703,-5.226c-4.314,-3.754 -23.131,42.793 -37.183,39.77c-14.052,-3.024 -40.197,-24.271 -38.935,-33.822c1.262,-9.552 20.336,-43.011 14.308,-50.835c-6.028,-7.824 -19.842,-26.894 -22.046,-39.535c-2.204,-12.642 0.188,-18.805 -2.694,-20.167c-2.882,-1.363 -45.509,-10.416 -45.98,-19.503c-0.47,-9.087 -3.861,-48.989 4.841,-51.082c8.703,-2.093 49.126,8.306 51.763,4.535c2.637,-3.771 14.475,-24.119 21.802,-32.026c7.327,-7.908 12.074,-10.483 7.327,-19.171c-4.746,-8.688 -14.127,-42.227 -11.038,-47.161c3.089,-4.934 41.026,-21.745 46.79,-15.931c5.764,5.814 29.159,44.902 37.183,43.407c8.025,-1.495 29.599,0.532 49.362,3.588Z" style="fill:#4ac4d9;fill-rule:nonzero;stroke:#000;stroke-width:4.64px;"/><circle id="corrsto1" serif:id="corrsto" cx="914.915" cy="321.818" r="99.652" style="fill:#fff;stroke:#000;stroke-width:5.12px;"/><circle id="circle5668" cx="914.915" cy="321.818" r="99.652" style="fill:none;stroke:#000;stroke-width:5.12px;"/><path id="path5670" d="M953.443,205.366c0,-0 32.192,-36.945 43.38,-34.487c11.189,2.459 42.138,27.46 39.896,35.019c-2.241,7.558 -25.297,44.619 -25.297,44.619c-0,0 13.9,18.049 17.517,31.771c3.616,13.721 6.254,26.645 17.706,26.878c11.453,0.232 39.274,0.149 40.31,10.416c1.036,10.266 -0.264,48.207 -7.478,50.633c-7.214,2.425 -47.92,-5.233 -51.763,2.027c-3.842,7.259 -5.255,17.396 -13.449,28.575c-8.194,11.18 -17.762,13.423 -16.312,23.673c1.45,10.249 18.64,40.082 10.635,52.558c-8.006,12.476 -43.268,21.446 -51.838,7.658c-8.571,-13.788 -18.516,-36.364 -28.104,-36.181c-9.588,0.183 -46.39,-1.471 -50.703,-5.226c-4.314,-3.754 -23.131,42.793 -37.183,39.77c-14.052,-3.024 -40.197,-24.271 -38.935,-33.822c1.262,-9.552 20.336,-43.011 14.308,-50.835c-6.028,-7.824 -19.842,-26.894 -22.046,-39.535c-2.204,-12.642 0.188,-18.805 -2.694,-20.167c-2.882,-1.363 -45.509,-10.416 -45.98,-19.503c-0.47,-9.087 -3.861,-48.989 4.841,-51.082c8.703,-2.093 49.126,8.306 51.763,4.535c2.637,-3.771 14.475,-24.119 21.802,-32.026c7.327,-7.908 12.074,-10.483 7.327,-19.171c-4.746,-8.688 -14.127,-42.227 -11.038,-47.161c3.089,-4.934 41.026,-21.745 46.79,-15.931c5.764,5.814 29.159,44.902 37.183,43.407c8.025,-1.495 29.599,0.532 49.362,3.588Z" style="fill:none;fill-rule:nonzero;stroke:#000;stroke-width:4.64px;"/><path id="path5672" d="M958.385,334.566c-0,0 -13.129,32.626 -55.134,23.149" style="fill:none;fill-rule:nonzero;stroke:#000;stroke-width:3.82px;"/><path id="path5674" d="M903.33,352.235c0,0 1.093,3.389 -1.535,11.695" style="fill:none;fill-rule:nonzero;stroke:#000;stroke-width:3.82px;"/><path id="path5676" d="M955.059,329.842c-0,-0 3.193,4.518 9.343,7.741" style="fill:none;fill-rule:nonzero;stroke:#000;stroke-width:3.82px;"/><path id="ellipse5678" d="M947.321,245.752c-8.736,4.651 -10.106,19.177 -3.057,32.417c7.049,13.239 19.865,20.213 28.601,15.561c8.736,-4.651 10.106,-19.176 3.057,-32.416c-7.049,-13.24 -19.865,-20.213 -28.601,-15.562Z"/><path id="ellipse5680" d="M838.431,293.339c-8.737,4.651 -10.106,19.176 -3.057,32.416c7.049,13.24 19.864,20.213 28.6,15.562c8.737,-4.651 10.106,-19.176 3.057,-32.416c-7.049,-13.24 -19.864,-20.213 -28.6,-15.562Z"/><path id="ellipse5682" d="M830.52,296.436c-5.274,2.808 -6.101,11.575 -1.846,19.567c4.255,7.992 11.991,12.201 17.264,9.394c5.273,-2.808 6.1,-11.575 1.845,-19.567c-4.255,-7.992 -11.99,-12.201 -17.263,-9.394Z" style="fill:#fff;"/><path id="ellipse5684" d="M943.47,247.728c-5.273,2.808 -6.1,11.575 -1.845,19.567c4.255,7.992 11.99,12.201 17.263,9.394c5.274,-2.808 6.101,-11.576 1.846,-19.568c-4.255,-7.991 -11.991,-12.2 -17.264,-9.393Z" style="fill:#fff;"/></g><g id="engrenage3"><path id="corcorpo2" serif:id="corcorpo" d="M136.146,50.523c0,0 -32.191,-36.945 -43.38,-34.486c-11.189,2.458 -42.137,27.459 -39.896,35.018c2.242,7.558 25.298,44.62 25.298,44.62c-0,-0 -13.901,18.048 -17.518,31.77c-3.616,13.721 -6.253,26.646 -17.706,26.878c-11.452,0.233 -39.274,0.15 -40.31,10.416c-1.036,10.266 0.264,48.208 7.478,50.633c7.215,2.426 47.92,-5.232 51.763,2.027c3.842,7.259 5.255,17.396 13.449,28.576c8.194,11.18 17.763,13.422 16.312,23.672c-1.45,10.25 -18.64,40.083 -10.634,52.558c8.005,12.476 43.267,21.446 51.838,7.658c8.57,-13.788 18.516,-36.363 28.104,-36.18c9.587,0.182 46.389,-1.472 50.702,-5.226c4.314,-3.755 23.132,42.792 37.184,39.769c14.052,-3.023 40.197,-24.27 38.935,-33.822c-1.263,-9.552 -20.336,-43.011 -14.309,-50.835c6.028,-7.824 19.843,-26.893 22.047,-39.535c2.203,-12.642 -0.189,-18.805 2.693,-20.167c2.882,-1.362 45.509,-10.416 45.98,-19.503c0.471,-9.086 3.861,-48.988 -4.841,-51.082c-8.703,-2.093 -49.126,8.306 -51.763,4.536c-2.637,-3.771 -14.474,-24.12 -21.802,-32.027c-7.327,-7.907 -12.074,-10.482 -7.327,-19.17c4.747,-8.688 14.127,-42.228 11.038,-47.162c-3.089,-4.934 -41.026,-21.745 -46.79,-15.931c-5.764,5.815 -29.159,44.903 -37.183,43.407c-8.024,-1.495 -29.599,0.533 -49.362,3.588Z" style="fill:#4ac4d9;fill-rule:nonzero;stroke:#000;stroke-width:4.64px;"/><circle id="corrsto2" serif:id="corrsto" cx="174.674" cy="166.975" r="99.652" style="fill:#fff;stroke:#000;stroke-width:5.12px;"/><circle id="circle5692" cx="174.674" cy="166.975" r="99.652" style="fill:none;stroke:#000;stroke-width:5.12px;"/><path id="path5694" d="M136.146,50.523c0,0 -32.191,-36.945 -43.38,-34.486c-11.189,2.458 -42.137,27.459 -39.896,35.018c2.242,7.558 25.298,44.62 25.298,44.62c-0,-0 -13.901,18.048 -17.518,31.77c-3.616,13.721 -6.253,26.646 -17.706,26.878c-11.452,0.233 -39.274,0.15 -40.31,10.416c-1.036,10.266 0.264,48.208 7.478,50.633c7.215,2.426 47.92,-5.232 51.763,2.027c3.842,7.259 5.255,17.396 13.449,28.576c8.194,11.18 17.763,13.422 16.312,23.672c-1.45,10.25 -18.64,40.083 -10.634,52.558c8.005,12.476 43.267,21.446 51.838,7.658c8.57,-13.788 18.516,-36.363 28.104,-36.18c9.587,0.182 46.389,-1.472 50.702,-5.226c4.314,-3.755 23.132,42.792 37.184,39.769c14.052,-3.023 40.197,-24.27 38.935,-33.822c-1.263,-9.552 -20.336,-43.011 -14.309,-50.835c6.028,-7.824 19.843,-26.893 22.047,-39.535c2.203,-12.642 -0.189,-18.805 2.693,-20.167c2.882,-1.362 45.509,-10.416 45.98,-19.503c0.471,-9.086 3.861,-48.988 -4.841,-51.082c-8.703,-2.093 -49.126,8.306 -51.763,4.536c-2.637,-3.771 -14.474,-24.12 -21.802,-32.027c-7.327,-7.907 -12.074,-10.482 -7.327,-19.17c4.747,-8.688 14.127,-42.228 11.038,-47.162c-3.089,-4.934 -41.026,-21.745 -46.79,-15.931c-5.764,5.815 -29.159,44.903 -37.183,43.407c-8.024,-1.495 -29.599,0.533 -49.362,3.588Z" style="fill:none;fill-rule:nonzero;stroke:#000;stroke-width:4.64px;"/><path id="path5696" d="M131.204,179.724c0,-0 13.129,32.626 55.135,23.149" style="fill:none;fill-rule:nonzero;stroke:#000;stroke-width:3.82px;"/><path id="path5698" d="M186.259,197.393c0,-0 -1.092,3.388 1.535,11.694" style="fill:none;fill-rule:nonzero;stroke:#000;stroke-width:3.82px;"/><path id="path5700" d="M134.531,174.999c-0,0 -3.193,4.518 -9.343,7.741" style="fill:none;fill-rule:nonzero;stroke:#000;stroke-width:3.82px;"/><path id="ellipse5702" d="M142.268,90.909c8.736,4.652 10.106,19.177 3.057,32.417c-7.049,13.24 -19.865,20.213 -28.601,15.562c-8.736,-4.651 -10.106,-19.177 -3.057,-32.417c7.049,-13.24 19.865,-20.213 28.601,-15.562Z"/><path id="ellipse5704" d="M251.159,138.496c8.736,4.651 10.106,19.177 3.057,32.417c-7.049,13.24 -19.865,20.213 -28.601,15.562c-8.736,-4.652 -10.106,-19.177 -3.057,-32.417c7.049,-13.24 19.865,-20.213 28.601,-15.562Z"/><path id="ellipse5706" d="M259.07,141.594c5.273,2.807 6.1,11.575 1.845,19.567c-4.255,7.992 -11.991,12.201 -17.264,9.393c-5.273,-2.807 -6.1,-11.575 -1.845,-19.567c4.255,-7.992 11.99,-12.201 17.264,-9.393Z" style="fill:#fff;"/><path id="ellipse5708" d="M146.12,92.885c5.273,2.808 6.1,11.576 1.845,19.568c-4.255,7.991 -11.991,12.2 -17.264,9.393c-5.273,-2.808 -6.1,-11.575 -1.845,-19.567c4.255,-7.992 11.99,-12.201 17.264,-9.394Z" style="fill:#fff;"/></g></svg>