<?xml version="1.0" encoding="UTF-8" standalone="no"?><!DOCTYPE svg PUBLIC "-//W3C//DTD SVG 1.1//EN" "http://www.w3.org/Graphics/SVG/1.1/DTD/svg11.dtd"><svg width="100%" height="100%" viewBox="0 0 1950 1505" version="1.1" xmlns="http://www.w3.org/2000/svg" xmlns:xlink="http://www.w3.org/1999/xlink" xml:space="preserve" xmlns:serif="http://www.serif.com/" style="fill-rule:evenodd;clip-rule:evenodd;stroke-linecap:round;stroke-linejoin:round;"><g><clipPath id="_clip1"><rect x="3.87" y="3.838" width="1945.8" height="1495.83"/></clipPath><g clip-path="url(#_clip1)"><path d="M1781.35,897.013c0,-0 119.838,-1.713 131.109,-1.729c11.266,-0.021 21.937,-6.417 25.896,-49.963c3.958,-43.546 9.329,-171.55 9.912,-179.908c0.588,-8.363 -9.867,-27.367 -41.667,-34.863c-31.8,-7.495 -48.55,-11.704 -90.129,-11.729c-41.579,-0.029 -289.45,11.904 -296.946,12.3c-7.491,0.4 -35.266,1.396 -37.237,36.621c-1.967,35.229 -10.888,180.375 -10.888,180.375c0,0 -7.945,33.458 27.38,39.742c35.329,6.283 77.462,13.062 118.966,12.883c42.417,-0.183 163.604,-3.729 163.604,-3.729Z" style="fill:#f9f9f9;fill-rule:nonzero;stroke:#000;stroke-width:3.07px;"/><path d="M1781.35,897.013c0,-0 119.838,-1.713 131.109,-1.729c11.266,-0.021 21.937,-6.417 25.896,-49.963c3.958,-43.546 9.329,-171.55 9.912,-179.908c0.588,-8.363 -9.867,-27.367 -41.667,-34.863c-31.8,-7.495 -48.55,-11.704 -90.129,-11.729c-41.579,-0.029 -289.45,11.904 -296.946,12.3c-7.491,0.4 -35.266,1.396 -37.237,36.621c-1.967,35.229 -10.888,180.375 -10.888,180.375c0,0 -7.945,33.458 27.38,39.742c35.329,6.283 77.462,13.062 118.966,12.883c42.417,-0.183 163.604,-3.729 163.604,-3.729Z" style="fill:none;fill-rule:nonzero;stroke:#000;stroke-width:3.07px;"/><path d="M1643.74,652.521c-31.633,1.471 -63.571,6.538 -91.737,29.309c-23.509,19.004 -33.909,55.395 -34.038,89.254c-0.142,35.608 27.808,69.096 66.013,76.712c71.575,14.271 152.245,7.221 193.833,-29.975c33.733,-30.175 35.925,-97.504 10.792,-132.321c-28.621,-39.65 -94.692,-35.312 -144.863,-32.979Z" style="fill-rule:nonzero;stroke:#000;stroke-width:3.38px;"/><path d="M1646.69,659.967c-28.175,1.638 -55.579,7.283 -81.179,27.979c-21.371,17.275 -34.167,49.092 -33.142,79.788c1.025,30.8 26.759,63.204 60,69.725c57.209,11.229 138.384,6.566 176.184,-27.246c30.666,-27.425 32.654,-88.625 9.812,-120.271c-26.016,-36.042 -86.071,-32.629 -131.675,-29.975Z" style="fill:#30aad8;fill-rule:nonzero;stroke:#000;stroke-width:3.07px;"/><path d="M1598.61,722.871c-0,0 -1.004,-16.191 6.912,-20.191c7.917,-4.005 19.179,0.25 17.125,17.02c-2.054,16.771 4.546,46.267 -11.504,47.388c-15.537,1.087 -14.917,-1.613 -12.533,-44.217Z" style="fill-rule:nonzero;stroke:#000;stroke-width:3.07px;"/><path d="M1683.9,721.542c0,0 -1,-16.192 6.917,-20.196c7.913,-4 19.179,0.254 17.125,17.025c-2.054,16.771 4.546,46.263 -11.504,47.388c-15.538,1.087 -14.917,-1.617 -12.538,-44.217Z" style="fill-rule:nonzero;stroke:#000;stroke-width:3.07px;"/><path d="M1608.35,792.271l87.608,-3.433c-0,-0 -41.608,42.517 -87.608,3.433Z" style="fill-rule:nonzero;stroke:#000;stroke-width:3.07px;"/><path d="M1622.04,886.234c0,-0 8.871,32.75 28.133,33.896c19.263,1.145 109.892,4.07 121.513,-7.655c11.617,-11.729 17.987,-30.354 17.987,-30.354c0,0 -90.762,-2.762 -167.633,4.113Z" style="fill-rule:nonzero;stroke:#000;stroke-width:3.07px;"/><path d="M1944.7,724.971c0,0 -7.545,-30.721 -32.766,-29.787c-25.225,0.933 -25.696,60.962 -20.4,88.466c5.3,27.509 15.183,29.259 30.187,23.542c15.009,-5.712 32.075,-26.667 22.979,-82.221Z" style="fill-rule:nonzero;stroke:#000;stroke-width:3.07px;"/><path d="M1496.4,887.859l359.184,-7.217" style="fill:none;fill-rule:nonzero;stroke:#000;stroke-width:1.16px;"/><path d="M1943.98,652.317c-0,0 -72.271,-24.808 -80.805,-5.842c-8.533,18.963 -30.745,223.434 -10.637,233.171c20.112,9.738 62.587,14.55 62.587,14.55" style="fill:none;fill-rule:nonzero;stroke:#000;stroke-width:1.16px;"/><path d="M1871.05,640.075c0,0 1.754,-16.625 -18.275,-19.179" style="fill:none;fill-rule:nonzero;stroke:#000;stroke-width:1.16px;"/><path d="M1511.56,672.717c7.296,-0.396 13.208,-6.633 13.208,-13.925c0,-7.296 -5.912,-12.887 -13.208,-12.487c-7.292,0.395 -13.204,6.629 -13.204,13.925c-0,7.291 5.912,12.883 13.204,12.487Z" style="fill-rule:nonzero;"/><path d="M1547.02,671.725c7.275,-0.395 13.171,-6.612 13.171,-13.887c-0,-7.271 -5.896,-12.846 -13.171,-12.45c-7.271,0.396 -13.167,6.612 -13.167,13.887c0,7.271 5.896,12.846 13.167,12.45Z" style="fill-rule:nonzero;"/><path d="M1786.79,867.184c7.275,-0.396 13.171,-6.613 13.171,-13.884c-0,-7.275 -5.896,-12.85 -13.171,-12.45c-7.271,0.396 -13.167,6.613 -13.167,13.884c0,7.271 5.896,12.846 13.167,12.45Z" style="fill-rule:nonzero;"/><path d="M1825.5,865.73c7.275,-0.396 13.171,-6.613 13.171,-13.888c0,-7.271 -5.896,-12.846 -13.171,-12.45c-7.271,0.396 -13.166,6.613 -13.166,13.888c-0,7.27 5.895,12.845 13.166,12.45Z" style="fill-rule:nonzero;"/><path d="M1143.62,536.855c48.054,-0 87.013,-38.959 87.013,-87.013c-0,-48.058 -38.959,-87.016 -87.013,-87.016c-48.058,0 -87.017,38.958 -87.017,87.016c0,48.054 38.959,87.013 87.017,87.013Z" style="fill-rule:nonzero;stroke:#000;stroke-width:8.9px;"/><path d="M1136.4,413.619c-0,-0 16.966,23.836 33.32,2.718" style="fill:none;fill-rule:nonzero;stroke:#fff;stroke-width:4.17px;"/><path d="M1189.93,417.695c-0,0 19.287,11.897 33.054,-0.142" style="fill:none;fill-rule:nonzero;stroke:#fff;stroke-width:4.17px;"/><path d="M1162.8,445c0,0 17.829,20.53 35.113,-0.82" style="fill:none;fill-rule:nonzero;stroke:#fff;stroke-width:4.17px;"/><path d="M543.745,397.205c48.059,0 87.017,-38.957 87.017,-87.014c-0,-48.057 -38.958,-87.015 -87.017,-87.015c-48.058,-0 -87.016,38.958 -87.016,87.015c-0,48.057 38.958,87.014 87.016,87.014Z" style="fill:#4ac4d9;fill-rule:nonzero;stroke:#000;stroke-width:8.9px;"/><path d="M505.762,295.228c-0,-0 15.079,23.247 32.95,-0.011" style="fill:none;fill-rule:nonzero;stroke:#000;stroke-width:4.17px;"/><path d="M554.924,296.178c0,-0 15.075,23.247 32.95,-0.011" style="fill:none;fill-rule:nonzero;stroke:#000;stroke-width:4.17px;"/><path d="M528.958,323.038c-0,-0 15.079,23.247 32.95,-0.012" style="fill:none;fill-rule:nonzero;stroke:#000;stroke-width:4.17px;"/><path d="M1306.95,704.45c48.058,0 87.012,-38.958 87.012,-87.016c0,-48.054 -38.954,-87.013 -87.012,-87.013c-48.059,0 -87.017,38.959 -87.017,87.013c-0,48.058 38.958,87.016 87.017,87.016Z" style="fill:#fff;fill-rule:nonzero;stroke:#000;stroke-width:8.9px;"/><path d="M1260.94,617.455c0,-0 16.567,18.137 31.188,-0" style="fill:none;fill-rule:nonzero;stroke:#000;stroke-width:4.17px;"/><path d="M1310.69,618.5c0,0 16.563,18.138 31.188,0" style="fill:none;fill-rule:nonzero;stroke:#000;stroke-width:4.17px;"/><path d="M1287.14,648.809c0,-0 16.567,18.137 31.188,-0" style="fill:none;fill-rule:nonzero;stroke:#000;stroke-width:4.17px;"/><path d="M335.449,1360.86l2.683,9.121l-57.625,71.233l-43.296,-32.863l-38.214,4.775l-8.328,29.663c0,-0 -17.891,19.696 -31.878,23.337c-13.988,3.642 -54.031,-4.075 -54.031,-4.075l-8.198,-4.058l1.985,-20.167l7.075,-20.983l9.254,-11.404c0,-0 -33.116,-6.154 -57.724,-45.071c-24.609,-38.917 -35.343,-67.3 -35.343,-67.3c-0,0 -14.423,-63.237 -13.138,-79.329c1.285,-16.096 8.524,-55.375 24.333,-65.846c15.809,-10.475 37.555,-1.008 42.808,-0.046c5.254,0.963 36.108,22.021 36.108,22.021c-0,0 -23.753,-60.867 10.89,-85.842c34.644,-24.97 92.272,32.192 92.272,32.192l26.869,26.063c0,-0 -4.245,-43.775 27.097,-47.292c31.341,-3.513 63.834,59.217 63.834,59.217l25.154,60.72c-0,0 10.315,59.367 9.323,69.725c-0.992,10.355 -5.449,43.575 -7.514,49.113c-2.066,5.537 -12.783,24.183 -24.396,27.096Z" style="fill:#4ac4d9;fill-rule:nonzero;stroke:#000;stroke-width:4.17px;stroke-linecap:butt;stroke-linejoin:miter;"/><path d="M338.934,1368.15l-59.242,69.875c-0,0 39.067,32.78 51.705,35.175c12.637,2.392 40.645,-8.308 52.518,-25.175c11.873,-16.866 22.12,-40.62 19.42,-49.47c-2.7,-8.85 -12.491,-18.246 -21.161,-17.759c-8.668,0.488 -27.6,8.55 -27.6,8.55l-15.64,-21.196Z" style="fill:#fff;fill-rule:nonzero;stroke:#000;stroke-width:4.17px;stroke-linecap:butt;stroke-linejoin:miter;"/><path d="M114.39,1405.58c-0,-0 -28.474,-13.713 -36.07,-20.213c-7.595,-6.496 -22.478,-23.967 -22.478,-23.967c0,0 -19.891,26.505 -27.486,43.334c-7.596,16.825 -9.214,50.283 4.075,61.675c13.288,11.387 33.732,-5.321 36.871,-8.534c3.14,-3.216 6.246,-5.295 6.246,-5.295l21.876,6.683c-0,-0 -0.809,-38.217 16.966,-53.683Z" style="fill:#fff;fill-rule:nonzero;stroke:#000;stroke-width:4.17px;stroke-linecap:butt;stroke-linejoin:miter;"/><path d="M226.762,1363.87c-0,0 28.403,-32.333 63.216,-25.375c34.814,6.959 66.265,51.129 66.265,51.129c-0,0 19.002,-16.733 39.371,-2.337c20.37,14.396 -4.587,56.129 -20.569,69.446c-15.982,13.312 -40.482,22.158 -55.239,11.429c-14.757,-10.729 -88.372,-63.842 -88.372,-63.842" style="fill:none;fill-rule:nonzero;stroke:#000;stroke-width:9.89px;"/><path d="M240.409,1409.12c0,0 -92.967,17.721 -141.854,-9.791c-48.887,-27.513 -76.859,-99.888 -86.346,-141.767c-9.487,-41.883 -2.137,-103.792 28.916,-113.113c31.052,-9.32 71.164,26.634 71.164,26.634c0,-0 -28.939,-72.742 18.495,-90.25c47.433,-17.513 110.991,63.187 110.991,63.187c0,0 -8.175,-62.608 47.207,-42.958c55.381,19.646 116.5,218.504 46.788,262.721" style="fill:none;fill-rule:nonzero;stroke:#000;stroke-width:9.89px;"/><path d="M57.474,1359.83c0,-0 -25.297,26.658 -33.559,52.383c-8.262,25.729 -2.963,48.842 13.475,56.933c16.438,8.088 37.947,-17.412 37.947,-17.412c-0,-0 114.667,52.058 123.897,-39.167" style="fill:none;fill-rule:nonzero;stroke:#000;stroke-width:9.89px;"/><path d="M96.959,1460.03c-0.94,-3.167 -1.538,-37.363 19.059,-54.196" style="fill:none;fill-rule:nonzero;stroke:#000;stroke-width:9.89px;"/><path d="M336.669,1370.46c-0,-0 -52.676,62.658 -54.3,65.8" style="fill:none;fill-rule:nonzero;stroke:#000;stroke-width:9.89px;"/><path d="M181.649,1209.7l32.135,8.416l-26.751,31.329" style="fill:none;fill-rule:nonzero;stroke:#000;stroke-width:9.89px;"/><path d="M256.604,1186.36l-22.135,28.142l35.81,1.783" style="fill:none;fill-rule:nonzero;stroke:#000;stroke-width:9.89px;"/><path d="M206.405,1247.17c3.419,-0.704 50.082,-16.408 50.082,-16.408c0,-0 7.977,30.929 -16.494,38.316c-24.472,7.384 -31.993,-8.645 -33.588,-21.908Z" style="fill-rule:nonzero;stroke:#000;stroke-width:9.89px;"/><path d="M1636.21,1383.13l2.683,9.12l-57.625,71.234l-43.296,-32.863l-38.212,4.775l-8.329,29.663c-0,-0 -17.892,19.696 -31.879,23.337c-13.988,3.642 -54.03,-4.075 -54.03,-4.075l-8.195,-4.058l1.983,-20.167l7.075,-20.987l9.254,-11.4c0,-0 -33.117,-6.154 -57.725,-45.071c-24.608,-38.917 -35.342,-67.3 -35.342,-67.3c0,-0 -14.425,-63.238 -13.137,-79.329c1.283,-16.096 8.525,-55.375 24.333,-65.846c15.809,-10.475 37.554,-1.008 42.809,-0.046c5.254,0.963 36.104,22.021 36.104,22.021c-0,-0 -23.75,-60.871 10.891,-85.842c34.646,-24.971 92.271,32.192 92.271,32.192l26.871,26.062c0,0 -4.246,-43.775 27.096,-47.291c31.342,-3.513 63.833,59.216 63.833,59.216l25.154,60.721c0,0 10.317,59.367 9.325,69.725c-0.991,10.354 -5.45,43.575 -7.516,49.113c-2.063,5.537 -12.779,24.183 -24.396,27.096Z" style="fill:#fff;fill-rule:nonzero;stroke:#000;stroke-width:4.17px;stroke-linecap:butt;stroke-linejoin:miter;"/><path d="M1639.69,1390.42l-59.241,69.875c-0,0 39.066,32.779 51.704,35.175c12.637,2.392 40.646,-8.308 52.516,-25.175c11.875,-16.871 22.121,-40.621 19.421,-49.471c-2.7,-8.85 -12.491,-18.245 -21.158,-17.758c-8.671,0.488 -27.604,8.55 -27.604,8.55l-15.638,-21.196Z" style="fill-rule:nonzero;stroke:#000;stroke-width:4.17px;stroke-linecap:butt;stroke-linejoin:miter;"/><path d="M1415.15,1427.85c0,0 -28.47,-13.712 -36.066,-20.212c-7.596,-6.496 -22.479,-23.967 -22.479,-23.967c-0,0 -19.892,26.504 -27.488,43.329c-7.596,16.83 -9.212,50.288 4.075,61.68c13.288,11.387 33.733,-5.321 36.871,-8.534c3.142,-3.216 6.246,-5.296 6.246,-5.296l21.875,6.684c-0,-0 -0.809,-38.217 16.966,-53.684Z" style="fill-rule:nonzero;stroke:#000;stroke-width:4.17px;stroke-linecap:butt;stroke-linejoin:miter;"/><path d="M1527.52,1386.14c0,0 28.4,-32.333 63.217,-25.375c34.813,6.958 66.263,51.129 66.263,51.129c-0,0 19.004,-16.733 39.37,-2.337c20.371,14.396 -4.587,56.129 -20.566,69.441c-15.984,13.317 -40.484,22.163 -55.242,11.434c-14.758,-10.729 -88.371,-63.842 -88.371,-63.842" style="fill:none;fill-rule:nonzero;stroke:#000;stroke-width:9.89px;"/><path d="M1541.17,1431.39c0,0 -92.966,17.721 -141.854,-9.792c-48.887,-27.512 -76.858,-99.887 -86.346,-141.766c-9.487,-41.884 -2.137,-103.792 28.917,-113.113c31.05,-9.321 71.162,26.634 71.162,26.634c0,-0 -28.937,-72.742 18.496,-90.255c47.434,-17.508 110.992,63.192 110.992,63.192c-0,0 -8.175,-62.608 47.204,-42.958c55.383,19.646 116.5,218.504 46.792,262.721" style="fill:none;fill-rule:nonzero;stroke:#000;stroke-width:9.89px;"/><path d="M1358.24,1382.11c-0,-0 -25.3,26.654 -33.563,52.383c-8.258,25.725 -2.962,48.842 13.475,56.929c16.438,8.092 37.95,-17.408 37.95,-17.408c0,-0 114.667,52.058 123.896,-39.171" style="fill:none;fill-rule:nonzero;stroke:#000;stroke-width:9.89px;"/><path d="M1397.72,1482.3c-0.941,-3.166 -1.537,-37.362 19.059,-54.195" style="fill:none;fill-rule:nonzero;stroke:#000;stroke-width:9.89px;"/><path d="M1637.43,1392.73c-0,-0 -52.675,62.658 -54.3,65.8" style="fill:none;fill-rule:nonzero;stroke:#000;stroke-width:9.89px;"/><path d="M1482.41,1231.98l32.137,8.417l-26.75,31.329" style="fill:none;fill-rule:nonzero;stroke:#000;stroke-width:9.89px;"/><path d="M1557.37,1208.63l-22.137,28.141l35.812,1.784" style="fill:none;fill-rule:nonzero;stroke:#000;stroke-width:9.89px;"/><path d="M1507.17,1269.44c3.417,-0.704 50.083,-16.408 50.083,-16.408c0,-0 7.975,30.929 -16.495,38.316c-24.471,7.384 -31.992,-8.646 -33.588,-21.908Z" style="fill-rule:nonzero;stroke:#000;stroke-width:9.89px;"/><path d="M473.666,1407.1l17.983,-66.229l24.421,-87.679l46.338,-170.792l10.141,38.317l77.013,287.246l171.896,-38.054l-69.109,-235.979l-68.495,-237.159l-59.346,19.075c-0,0 -61.042,13.992 -78.096,15.196c-17.058,1.204 -57.929,0.979 -57.929,0.979l-75.265,-7.741l-58.58,263.97l-41.446,179.696l160.474,39.154Z" style="fill:#4ac4d9;fill-rule:nonzero;stroke:#000;stroke-width:2.81px;stroke-linecap:butt;stroke-linejoin:miter;"/><path d="M431.32,727.063l-16.132,1.837l-2.487,24.388l-22.98,-3.958c0,-0 -25.458,-9.584 -34.12,-17.5c-8.662,-7.921 -23.357,-20.73 -26.646,-26.605c-3.29,-5.875 -14.342,-23.204 -14.342,-23.204l-11.244,-23.796l-11.365,-30.554l-7.487,-28.041l-2.209,-17.33l-0.263,-11.02l1.465,-9.467l-49.966,8.496l-50.187,5.654l-0.684,13.962l0.746,54.375l5.158,43.338c-0,-0 6.671,34.137 13.206,49.779c6.534,15.646 12.484,25.9 12.484,25.9c-0,0 16.044,29.921 30.804,47.892c14.76,17.975 20.104,22.887 20.104,22.887c-0,0 27.448,24.196 45.335,32.475c17.887,8.284 40.455,17.013 40.455,17.013l21.124,7.266l-2.328,26.705c-0,-0 55.413,7.845 80.897,11.412c25.483,3.563 73.262,3.325 73.262,3.325c0,0 33.95,-1.287 60.729,-7.746c26.78,-6.458 40.042,-9.041 40.042,-9.041l41.2,-12.375l67.275,-26.459l-12.158,-40.791c-0,-0 24.283,-12.046 46.633,-32.43c22.35,-20.383 33.417,-36.545 33.417,-36.545c-0,-0 14.287,-20.321 19.058,-30.792c4.775,-10.475 13.496,-36.896 13.496,-36.896l6.208,-37.3l4.142,-39.183l1.229,-43l-0.979,-31.684l-2.9,-37.458l-6.254,-40.7l-47.954,6.721l-55.367,7.392l1.333,46.954l-1.212,44.583l-3.196,30.95c-0,0 -4.967,26.45 -8.379,33.929c-3.409,7.475 -10.121,20.238 -10.121,20.238l-18.85,24.1l-32.025,33.529l-20.508,16.675l-2.617,-24.225l-87.921,7.825l-94.062,7.237l-22.859,1.263Z" style="fill-rule:nonzero;stroke:#000;stroke-width:2.81px;stroke-linecap:butt;stroke-linejoin:miter;"/><path d="M676.045,1402.11l110.579,-24.63l12.392,31.955l45.817,0.254c-0,-0 21.437,0.408 28,4.987c6.562,4.575 13.071,14 13.071,14c-0,0 5.108,12.725 1.304,17.288c-3.8,4.558 -13.304,6.6 -13.304,6.6l-5.855,-0.575l-3.133,-2.413c0,0 1.096,8.963 -7.825,10.242c-8.917,1.279 -17.887,-0.275 -17.887,-0.275c-0,-0 -6.634,5.042 -25.971,6.412c-19.342,1.367 -48.359,4 -48.359,4l-40.812,1.442l-17.963,-1.321l-4.9,-2.862l-7.65,-15.704l-13.3,-35.175l-3.85,-10.546l-0.354,-3.679Z" style="fill:#fff;fill-rule:nonzero;stroke:#000;stroke-width:2.81px;stroke-linecap:butt;stroke-linejoin:miter;"/><path d="M449.062,1401.78l-98.142,-24.109l-4.9,24.559l-7.111,21.379l-7.4,9.754l-11.142,4.417l-33.544,6.433l-18.649,7.504l-4.556,5.354l-5.019,15.509c0,-0 -0.545,6.233 0.943,9.604c1.489,3.367 4.624,8.912 12.26,10.683c7.637,1.771 15.313,-0.3 15.313,-0.3l6.723,-3.754c0,0 10.436,10.263 20.56,7.654c10.124,-2.608 11.003,-6.221 11.003,-6.221c0,0 20.877,2.571 48.077,-0.337c27.2,-2.904 42.198,-5.546 42.198,-5.546c0,0 14.478,-2.304 17.161,-9.575c2.687,-7.267 9,-34.504 9,-34.504l7.225,-38.504Z" style="fill:#fff;fill-rule:nonzero;stroke:#000;stroke-width:2.81px;stroke-linecap:butt;stroke-linejoin:miter;"/><path d="M746.312,481.85l-6.892,-19.362c0,-0 -2.604,-13.921 -2.671,-17.5c-0.066,-3.575 2.167,-17.292 8.355,-19.2c6.187,-1.908 12.812,9.771 12.812,9.771l6.646,9.908l-1.729,-18.683c-0,-0 -2.95,-32.799 7.816,-36.677c10.767,-3.879 11.442,1.409 13.138,4.689c1.7,3.28 3.925,11.304 3.925,11.304c-0,-0 -3.992,-24.996 5.962,-30.675c9.955,-5.678 16.109,-0.813 19.309,6.965c3.204,7.779 3.621,27.168 3.621,27.168l0.804,14.384c-0,0 7.071,-23.551 14.95,-21.556c7.875,1.995 3.583,34.839 3.583,34.839l-4.025,32.421l-59.562,8.779l-26.042,3.425Z" style="fill:#fff;fill-rule:nonzero;stroke:#000;stroke-width:2.81px;stroke-linecap:butt;stroke-linejoin:miter;"/><path d="M192.657,574.538l-6.279,-26.221l-4.886,-24.446l-2.046,-17.8c-0,0 0.643,-9.671 5.162,-8.412c4.519,1.258 11.26,10.479 11.26,10.479l5.088,9.254l-2.523,-24.779c-0,-0 -2.842,-22.896 7.914,-27.621c10.756,-4.729 17.802,9.3 17.802,9.3l3.588,15.021c0,-0 3.462,-15.571 11.356,-13.558c7.894,2.016 10.756,8.679 11.608,11.383c0.852,2.7 3.34,20.975 3.34,20.975l1.836,23.683l6.767,-14.691c0,-0 5.694,-14.638 13.607,-5.638c7.913,9.004 6.803,27.192 6.803,27.192l-3.772,24.2l-45.416,7.65l-41.209,4.029Z" style="fill:#fff;fill-rule:nonzero;stroke:#000;stroke-width:2.81px;stroke-linecap:butt;stroke-linejoin:miter;"/><path d="M429.608,727.817l-4.809,-28.65l-82.199,6.579l39.452,-40.508l-55.415,8.225l48.34,-49.008l-49.201,-3.88l64.269,-55.025l33.554,-118.27l65.546,91.554l43.346,-4.967l54.388,-105.187l53.966,113.629l68.079,17.537l-60.35,34.984l59.096,13l-58.154,33.254l39.663,15.037l-72.317,28.359l5.121,27.42l-192.375,15.917Z" style="fill:#fff;fill-rule:nonzero;stroke:#000;stroke-width:2.81px;stroke-linecap:butt;stroke-linejoin:miter;"/><path d="M412.522,752.75c-0,0 -66.141,0.659 -103.123,-80.625c-36.982,-81.279 -25.646,-110.2 -25.646,-110.2l-26.894,5.455l-73.622,8.316c-0,0 -7.933,100.463 20.677,166.484c28.61,66.025 65.61,100.054 96.002,118.083c30.393,18.025 71.872,30.146 71.872,30.146l-2.705,26.312c0,0 103.787,23.846 190.908,12.167c87.117,-11.675 172.896,-52.1 172.896,-52.1l-12.042,-41.288c0,0 102.159,-44.72 117.925,-164.387c15.767,-119.667 -3.762,-201.55 -3.762,-201.55l-103.25,14.204c-0,0 10.05,127.542 -19.179,171.963c-29.234,44.42 -73.8,78.445 -73.8,78.445l-2.934,-23.383l-220.18,18.258l-3.143,23.7Z" style="fill:none;fill-rule:nonzero;stroke:#000;stroke-width:2.81px;stroke-linecap:butt;stroke-linejoin:miter;"/><path d="M413.554,924.138l-40.645,185.158l-59.774,258.638l160.819,39.321l106.25,-392.434" style="fill:none;fill-rule:nonzero;stroke:#000;stroke-width:2.81px;stroke-linecap:butt;stroke-linejoin:miter;"/><path d="M562.166,1082.2l86.942,325.725l172.175,-38.141l-137.167,-470.6" style="fill:none;fill-rule:nonzero;stroke:#000;stroke-width:2.81px;stroke-linecap:butt;stroke-linejoin:miter;"/><path d="M350.719,1377.59c0,0 -6.632,50.188 -22.155,57.083c-15.522,6.892 -58.096,7.392 -65.424,23.313c-7.328,15.921 -6.323,30.621 7.712,34.687c14.035,4.067 23.355,-4.295 23.355,-4.295" style="fill:none;fill-rule:nonzero;stroke:#000;stroke-width:2.81px;stroke-linecap:butt;stroke-linejoin:miter;"/><path d="M300.048,1458.24c0,-0 -12.669,8.875 -10.234,22.021c2.435,13.141 18.659,18.787 27.953,14.808c9.293,-3.975 8.395,-5.529 8.395,-5.529" style="fill:none;fill-rule:nonzero;stroke:#000;stroke-width:2.81px;stroke-linecap:butt;stroke-linejoin:miter;"/><path d="M330.007,1460.33c0,0 -15.585,8.021 -13.968,17.592c1.617,9.571 1.831,13.625 22.555,13.538c20.723,-0.088 86.355,-3.78 93.085,-14.796c6.733,-11.017 17.804,-74.9 17.804,-74.9" style="fill:none;fill-rule:nonzero;stroke:#000;stroke-width:2.81px;stroke-linecap:butt;stroke-linejoin:miter;"/><path d="M786.541,1378.21l12.104,31.054c0,-0 48.167,-0.554 62.913,1.85c14.746,2.4 25.187,14.121 27.121,26.933c1.929,12.809 -20.038,18.346 -23.888,11.079" style="fill:none;fill-rule:nonzero;stroke:#000;stroke-width:2.81px;stroke-linecap:butt;stroke-linejoin:miter;"/><path d="M842.27,1428.77c0,0 12.671,3.446 17.55,8.467c4.879,5.021 7.134,15.754 2.484,20.237c-4.646,4.479 -23.292,2.246 -23.292,2.246" style="fill:none;fill-rule:nonzero;stroke:#000;stroke-width:2.81px;stroke-linecap:butt;stroke-linejoin:miter;"/><path d="M814.374,1439.78c0,-0 16.788,-2.45 22.767,4.825c5.979,7.275 8.563,13.545 -5.212,18.254c-13.78,4.708 -117.296,11.658 -127.13,6.554c-9.837,-5.108 -29.083,-66.1 -29.083,-66.1" style="fill:none;fill-rule:nonzero;stroke:#000;stroke-width:2.81px;stroke-linecap:butt;stroke-linejoin:miter;"/><path d="M746.349,482.1c0,0 -9.729,-23.533 -9.483,-37.025c0.242,-13.491 8.217,-25.62 15.296,-17.245c7.079,8.379 12.608,18.875 12.608,18.875c0,-0 -6.691,-48.87 3.421,-55.354c10.117,-6.484 13.467,-1.564 15.963,3.634c2.5,5.197 5.891,24.37 5.891,24.37c0,-0 -10.887,-37.531 5.971,-44.845c16.863,-7.315 19.821,16.269 20.058,24.47c0.234,8.2 0.896,26.095 0.896,26.095c0,0 5.809,-23.185 15.663,-22.379c9.85,0.806 -0.904,67.929 -0.904,67.929" style="fill:none;fill-rule:nonzero;stroke:#000;stroke-width:2.81px;stroke-linecap:butt;stroke-linejoin:miter;"/><path d="M278.45,565.175c0,0 6.438,-24.633 4.362,-37.966c-2.075,-13.334 -11.627,-24.267 -17.5,-15.004c-5.873,9.258 -9.925,20.408 -9.925,20.408c0,-0 -0.016,-49.325 -10.92,-54.371c-10.903,-5.046 -13.552,0.283 -15.32,5.771c-1.767,5.487 -2.518,24.946 -2.518,24.946c-0,-0 5.68,-38.663 -12.018,-43.617c-17.698,-4.954 -17.425,18.817 -16.542,26.971c0.883,8.154 2.66,25.975 2.66,25.975c0,-0 -8.906,-22.179 -18.558,-20.042c-9.652,2.138 10.344,76.05 10.344,76.05" style="fill:none;fill-rule:nonzero;stroke:#000;stroke-width:2.81px;stroke-linecap:butt;stroke-linejoin:miter;"/><path d="M429.429,729.325l-4.417,-29.662l-82.925,6.271l39.548,-39.788l-55.778,7.238l49.207,-48.854l-49.738,-3.917l64.069,-54.058l34.163,-119.034l65.146,91.242l43.725,-4.604l54.145,-105.2l54.596,113.191l67.638,17.234l-60.917,35.221l60.113,13.008l-59.021,33.421l41.079,15.379l-73.158,27.837l5.154,27.667" style="fill:none;fill-rule:nonzero;stroke:#000;stroke-width:2.81px;stroke-linecap:butt;stroke-linejoin:miter;"/><path d="M429.691,493.58l-13.312,49.029l42.879,-6.288l-29.567,-42.741Z" style="fill-rule:nonzero;stroke:#000;stroke-width:2.81px;stroke-linecap:butt;stroke-linejoin:miter;"/><path d="M580.824,476.063l-18.012,47.925l41.329,-3.496l-23.317,-44.429Z" style="fill-rule:nonzero;stroke:#000;stroke-width:2.81px;stroke-linecap:butt;stroke-linejoin:miter;"/><path d="M571.883,625.596c26.1,-1.783 45.9,-23.075 44.229,-47.554c-1.675,-24.483 -24.188,-42.879 -50.288,-41.096c-26.095,1.784 -45.895,23.071 -44.225,47.554c1.675,24.48 24.188,42.88 50.284,41.096Z" style="fill-rule:nonzero;"/><path d="M461.824,639.613c26.1,-1.783 45.9,-23.075 44.23,-47.554c-1.675,-24.484 -24.188,-42.884 -50.288,-41.1c-26.096,1.783 -45.897,23.075 -44.225,47.554c1.673,24.483 24.188,42.883 50.283,41.1Z" style="fill-rule:nonzero;"/><path d="M517.808,617.996c-0,0 -12.484,2.859 -15.754,7.234c-3.271,4.375 4.42,15.037 16.737,13.825c12.313,-1.213 23.988,-6.467 20.788,-15.042c-3.205,-8.571 -21.771,-6.017 -21.771,-6.017Z" style="fill-rule:nonzero;stroke:#000;stroke-width:2.81px;stroke-linecap:butt;stroke-linejoin:miter;"/><path d="M503.333,596.221c-0,0 17.587,-7.829 25.558,-3.675l-1.983,-9.696c-0,0 -23.734,2.155 -26.292,7.492c-2.554,5.338 2.717,5.879 2.717,5.879Z" style="fill-rule:nonzero;stroke:#000;stroke-width:2.81px;stroke-linecap:butt;stroke-linejoin:miter;"/><path d="M428.341,571.538l20.233,36.358l8.488,-10.083l26.733,32.654l9.934,-8.908l-42.58,-44.129l-3.804,15.912l-14.558,-25.175l-4.446,3.371Z" style="fill:#fff;fill-rule:nonzero;stroke:#000;stroke-width:2.81px;stroke-linecap:butt;stroke-linejoin:miter;"/><path d="M537.437,552.792l20.233,36.358l8.488,-10.083l26.733,32.654l9.933,-8.908l-42.579,-44.133l-3.804,15.912l-14.562,-25.171l-4.442,3.371Z" style="fill:#fff;fill-rule:nonzero;stroke:#000;stroke-width:2.81px;stroke-linecap:butt;stroke-linejoin:miter;"/><path d="M480.733,669.48c-0,-0 47.037,35.729 85.933,-8.613" style="fill:none;fill-rule:nonzero;stroke:#000;stroke-width:2.81px;stroke-linecap:butt;stroke-linejoin:miter;"/><path d="M926.008,337.366l-23.463,10.331l-8.254,-7.944l-9.062,12.717l-12.38,76.58l-4.895,61.63l-3.309,132.258l-2.283,162.829l1.25,19.258l26.883,23.555l44.254,22.479l9.396,-19.4l6.7,-10.821l3.125,-39.429l-5.779,-73.913l-1.425,-84.15l0.575,-7.266l31.863,4.587l24.737,-5.404l14.85,-8.533l5.079,-13.025l1.242,-10.409l6.196,-10.112l-6.529,-13.859l-9.392,-10.5l-12.358,-5.433l-2.95,-70.017l-5.617,-66.658l-2.688,-17.49c0,-0 10.667,-6.759 11.33,-13.595c0.666,-6.836 -2.721,-34.225 -2.721,-34.225l-2.054,-15.994l4.57,-9.992l-4.1,-6.497l-11.454,-1.832c0,-0 -13.579,0.107 -16.058,0.369c-2.479,0.262 -19.538,-4.881 -19.538,-4.881l-8.762,-3.402l-5.988,18.906l-1.5,69.282l-10.283,-4.065l0.792,-45.935Z" style="fill-rule:nonzero;stroke:#000;stroke-width:3.16px;stroke-linecap:butt;stroke-linejoin:miter;"/><path d="M730.154,339.939c-0,0 -34.25,15.344 -43.534,36.311c-9.283,20.968 -13.604,84.48 -13.604,84.48l-9.071,99.612c0,0 -9.879,-0.221 -12.058,2.846c-2.183,3.062 -2.421,15.571 -2.421,15.571c0,-0 -3.117,14.387 -2.258,19.591c0.854,5.205 4.241,10.925 11.408,14.375c7.167,3.446 40.704,5.571 40.704,5.571l1.759,53.463l-8.463,153c0,-0 51.571,-8.284 60.229,-13.55c8.659,-5.267 11.554,-16.538 11.554,-16.538l2.134,-130.925l2.983,-175.921l0.588,-101.96l-3.667,-27.897c-0,0 -11.271,0.12 -17.888,-3.103c-6.616,-3.222 -18.395,-14.926 -18.395,-14.926Z" style="fill-rule:nonzero;"/><path d="M947.624,615.421c0,0 -0.912,39.538 -1.32,51.654c-0.409,12.117 4.133,63.571 4.504,77.45c0.371,13.88 4.166,55.684 2.291,63.142c-1.879,7.454 -4.533,16.871 -8.704,22.35c-4.171,5.475 -12.233,23.021 -13.071,36.171c-0.841,13.15 2.492,17.592 6.492,15.733c4,-1.862 8.492,-13.35 8.975,-16.179c0.483,-2.829 5.063,-12.421 8.283,-2.458c3.221,9.958 2.9,20.833 2.184,23.937c-0.713,3.104 -10.013,35.479 -5.013,38.942c5,3.462 15.454,-2.896 15.454,-2.896c0,0 2.53,8.925 7.384,7.154c4.85,-1.775 7.75,-6.762 7.75,-6.762c-0,-0 6.05,6.804 10.271,2.862c4.22,-3.941 6.012,-11.716 6.012,-11.716c0,-0 9.146,9.808 12.996,0.862c3.854,-8.95 4.15,-28.021 4.15,-28.021l-4.208,-43.266c-0,-0 -8.259,-12.759 -8.988,-18.767c-0.725,-6.008 -0.146,-31.638 -0.146,-31.638l6.834,-69.516l0.345,-70.829l-1.5,-40.059c0,0 -18.366,7.534 -32.404,6.475c-14.033,-1.054 -28.571,-4.625 -28.571,-4.625Z" style="fill:#4ac4d9;fill-rule:nonzero;"/><path d="M661.337,615.117l-2.125,96.429l-0.313,92.596c0,0 -10.616,47.379 -9.037,60.05c1.583,12.675 11.279,30.088 16.029,38.938c4.75,8.854 15.154,11.641 17.354,10.3c2.2,-1.338 4.713,-9.067 4.713,-9.067l4.471,-3.358l3.716,-78.18l-2.058,-2.12l2.146,-76.5l4.079,-127.213l-24.671,-0.6l-14.304,-1.275Z" style="fill:#4ac4d9;fill-rule:nonzero;"/><path d="M706.558,161.85c-0,0 -2.334,-12.128 -0.963,-22.829c1.371,-10.702 16.734,-44.088 16.734,-44.088l24.058,-39.14l17.787,-24.277l23.813,-2.515l42.367,-15.569l33.612,-6.913l35.513,10.19l38.379,23.81l22.429,7.544l8.737,9.493l4.655,18.388l10.225,30.477l13.183,24.027l4.667,9.003l-7.088,11.028l-13.812,6.75l-14.371,-0l-2.804,42.179l-10.75,61.553l-13.63,52.364l-3.945,40.869l-0.517,32.899l-9.013,-2.645l-1.07,-38.256l4.725,-48.358l13.462,-42.939c0,0 -14.658,-25.251 -17.446,-40.852c-2.791,-15.6 -0.829,-36.927 -0.829,-36.927l4.746,-40.656l-17.479,-20.075l-63.904,-14.572l-59.092,0.097l-59.413,7.821l-14.05,34.827l-8.916,17.292Z" style="fill:#fff;fill-rule:nonzero;stroke:#000;stroke-width:3.16px;stroke-linecap:butt;stroke-linejoin:miter;"/><path d="M713.349,1381.92l-24.683,18.738c0,-0 -31.633,14.175 -33.396,32.05c-1.762,17.875 21.35,26.637 44.554,24.883c23.2,-1.758 54.884,-16.367 59.6,-20.354c4.713,-3.988 40.834,-35.629 40.834,-35.629l-23.292,-16.596l-24.212,-11.192l-20.792,2.771l-18.613,5.329Z" style="fill-rule:nonzero;stroke:#000;stroke-width:3.16px;stroke-linecap:butt;stroke-linejoin:miter;"/><path d="M850.662,1401.31l-46.663,40.833c0,0 -17.091,28.342 1.08,38.179c18.175,9.838 75.783,0.384 75.783,0.384l30.621,-14.871l35.841,-39.413l-22.591,-10.779l-20.234,-10.192l-53.837,-4.141Z" style="fill-rule:nonzero;stroke:#000;stroke-width:3.16px;stroke-linecap:butt;stroke-linejoin:miter;"/><path d="M696.841,823.905l-4.937,76.795l-7.809,92.521l-1.312,63.184c-0,-0 0.65,117.383 0.216,128.3c-0.437,10.916 13.096,89.808 14.092,100.325c0.996,10.516 15.233,98.35 15.233,98.35c0,-0 21.35,-11.038 37.025,-9.13c15.68,1.909 24.95,9.359 24.95,9.359l27.83,16.262l5.775,1.342l-0.784,-18.429l-10.721,-89.409l-11.583,-133.4l-2.133,-79.316l2.671,-71.004l6.695,-101.659l3.175,-50.046l26.971,-0.416l1.834,82.508l2.72,119.679l2.909,108.879l-0.421,35.134l11.408,89.587l12.2,78.771c0,0 -14.683,24.85 -6.496,28.033c8.188,3.188 34.638,1.971 34.638,1.971c-0,0 29.208,0.804 39.158,8.75c9.95,7.942 29.417,18.304 34.829,15.409c5.413,-2.892 4.346,-9.713 1.084,-19.738c-3.267,-10.021 -17.404,-66.154 -17.213,-75.7c0.192,-9.546 0.538,-44.171 0.538,-44.171l-0.559,-122.937l-2.537,-103.038l-1.638,-118.966l-1.912,-62.813l-2.792,-11.9l3.579,-16.8l-21.77,-12.362l-34.988,-18.955l-14.071,-14.841l-0.596,-32.934l-98.6,-3.187l-2.704,35.675l-4.754,5.833l-31.529,11.409l-27.671,3.075Z" style="fill-rule:nonzero;"/><path d="M786.874,361.176l-20.366,-7.795l-0.717,11.692c0,0 5.667,32.061 3.083,48.946c-2.579,16.886 -0.85,78.844 -0.85,78.844l-1.816,116.571l0.175,98.358l-2.092,62.167l97.408,1.175l0.755,-93.742l3.966,-114.596l1.334,-104.004l6.366,-52.072l8.842,-43.666c-0,0 -31.679,20.706 -45.133,22.721c-13.455,2.013 -33.217,-0 -38.5,-6.51c-5.284,-6.511 -12.455,-18.089 -12.455,-18.089Z" style="fill:#fff;fill-rule:nonzero;stroke:#000;stroke-width:3.16px;stroke-linecap:butt;stroke-linejoin:miter;"/><path d="M740.158,162.278c-0,-0 1.954,15.18 2.654,23.478c0.696,8.299 0.087,22.294 -1.313,30.269c-1.395,7.975 1.613,27.081 1.68,38.443c0.07,11.362 9.166,57.519 9.916,63.57c0.75,6.05 10.009,32.603 18.929,37.637c8.921,5.035 16.792,5.943 16.792,5.943c0,0 4.838,18.029 26.396,23.741c21.562,5.712 49.217,-10.346 49.217,-10.346l19.758,-12.009l1.4,-16.951l-9.046,-76.582l-2.533,-41.831l5.129,-78.062l-15.608,0.692l-4.33,-23.956l-76.745,22.001c-0,0 -32.763,1.936 -42.296,13.963Z" style="fill:#4ac4d9;fill-rule:nonzero;"/><path d="M768.995,241.981c18.538,-0 33.567,-15.028 33.567,-33.566c-0,-18.538 -15.029,-33.566 -33.567,-33.566c-18.537,0 -33.566,15.028 -33.566,33.566c-0,18.538 15.029,33.566 33.566,33.566Z" style="fill:#fff;fill-rule:nonzero;stroke:#000;stroke-width:5.66px;stroke-linecap:butt;stroke-linejoin:miter;"/><path d="M838.187,241.981c18.537,-0 33.567,-15.028 33.567,-33.566c-0,-18.538 -15.03,-33.566 -33.567,-33.566c-18.538,0 -33.563,15.028 -33.563,33.566c0,18.538 15.025,33.566 33.563,33.566Z" style="fill:#fff;fill-rule:nonzero;stroke:#000;stroke-width:5.66px;stroke-linecap:butt;stroke-linejoin:miter;"/><path d="M717.483,667.355l9.583,33.516l6.808,-5.758c0,-0 18.555,32.917 5.709,54.458l-20.496,-70.425c-0,0 -10.3,45.213 -11.838,51.221l10.809,-28.962l20.371,49.95c-5.925,8.441 -17.221,14.82 -37.2,16.195c-0,0 25.329,10.175 42.291,-3.7l0.759,1.85l-0.58,-1.995c3.088,-2.567 5.892,-5.934 8.209,-10.317c15.05,-28.483 -14.734,-62.017 -14.734,-62.017l8.205,-10.562l-27.896,-13.454Z" style="fill:#4ac4d9;fill-rule:nonzero;"/><path d="M900.266,744.125l5.433,19l3.859,-3.266c-0,-0 10.516,18.662 3.237,30.871l-11.621,-39.921c0,-0 -5.837,25.629 -6.708,29.033l6.125,-16.417l11.55,28.317c-3.358,4.788 -9.762,8.4 -21.087,9.179c-0,0 14.354,5.771 23.975,-2.096l0.429,1.05l-0.329,-1.133c1.75,-1.454 3.341,-3.362 4.654,-5.85c8.529,-16.146 -8.354,-35.154 -8.354,-35.154l4.654,-5.988l-15.817,-7.625Z" style="fill:#4ac4d9;fill-rule:nonzero;"/><path d="M893.195,717.059l-5.433,19l-3.858,-3.267c-0,0 -10.517,18.663 -3.234,30.871l11.617,-39.921c-0,0 5.837,25.629 6.708,29.033l-6.125,-16.412l-11.55,28.312c3.363,4.788 9.767,8.4 21.088,9.18c-0,-0 -14.354,5.77 -23.971,-2.096l-0.433,1.05l0.329,-1.134c-1.75,-1.454 -3.338,-3.362 -4.654,-5.85c-8.53,-16.145 8.354,-35.154 8.354,-35.154l-4.654,-5.987l15.816,-7.625Z" style="fill:#4ac4d9;fill-rule:nonzero;"/><path d="M918.808,694.15l5.433,19l3.858,-3.266c0,-0 10.517,18.658 3.238,30.871l-11.621,-39.921c0,-0 -5.837,25.629 -6.708,29.033l6.125,-16.417l11.55,28.317c-3.359,4.783 -9.763,8.4 -21.088,9.179c0,0 14.359,5.771 23.975,-2.096l0.429,1.05l-0.329,-1.133c1.75,-1.454 3.342,-3.362 4.654,-5.85c8.53,-16.146 -8.354,-35.154 -8.354,-35.154l4.654,-5.988l-15.816,-7.625Z" style="fill:#4ac4d9;fill-rule:nonzero;"/><path d="M903.829,641.434l-5.434,19l-3.858,-3.267c-0,0 -10.517,18.663 -3.238,30.871l11.621,-39.921c0,0 5.838,25.633 6.709,29.033l-6.125,-16.412l-11.55,28.312c3.358,4.788 9.762,8.4 21.087,9.18c0,-0 -14.354,5.77 -23.975,-2.096l-0.429,1.05l0.329,-1.134c-1.75,-1.454 -3.342,-3.362 -4.654,-5.85c-8.529,-16.141 8.354,-35.154 8.354,-35.154l-4.654,-5.983l15.817,-7.629Z" style="fill:#4ac4d9;fill-rule:nonzero;"/><path d="M920.483,613.105l5.429,19l3.858,-3.263c0,0 10.521,18.658 3.238,30.867l-11.617,-39.921c0,-0 -5.842,25.633 -6.712,29.037l6.129,-16.416l11.546,28.312c-3.359,4.788 -9.763,8.404 -21.088,9.184c0,-0 14.358,5.766 23.975,-2.1l0.429,1.05l-0.325,-1.134c1.75,-1.454 3.338,-3.362 4.65,-5.846c8.534,-16.145 -8.35,-35.154 -8.35,-35.154l4.65,-5.987l-15.812,-7.629Z" style="fill:#4ac4d9;fill-rule:nonzero;"/><path d="M901.47,563.346l-5.429,19l-3.858,-3.266c-0,-0 -10.521,18.662 -3.238,30.87l11.617,-39.92c-0,-0 5.842,25.629 6.712,29.033l-6.129,-16.417l-11.546,28.317c3.359,4.787 9.763,8.4 21.088,9.179c-0,0 -14.358,5.771 -23.975,-2.096l-0.429,1.05l0.325,-1.133c-1.75,-1.454 -3.338,-3.363 -4.65,-5.85c-8.534,-16.146 8.35,-35.154 8.35,-35.154l-4.65,-5.988l15.812,-7.625Z" style="fill:#4ac4d9;fill-rule:nonzero;"/><path d="M941.629,364.214l7.904,27.651l5.616,-4.752c0,-0 15.305,27.157 4.709,44.925l-16.909,-58.096c0,0 -8.495,37.301 -9.762,42.254l8.912,-23.891l16.809,41.208c-4.888,6.962 -14.209,12.225 -30.688,13.358c0,0 20.892,8.396 34.888,-3.054l0.625,1.529l-0.475,-1.646c2.546,-2.116 4.862,-4.895 6.771,-8.512c12.416,-23.498 -12.155,-51.16 -12.155,-51.16l6.771,-8.714l-23.016,-11.1Z" style="fill:#4ac4d9;fill-rule:nonzero;"/><path d="M732.274,563.346l-5.433,19l-3.858,-3.266c-0,-0 -10.517,18.662 -3.234,30.87l11.617,-39.92c0,-0 5.838,25.629 6.708,29.033l-6.125,-16.417l-11.55,28.317c3.363,4.787 9.763,8.4 21.088,9.179c-0,0 -14.354,5.771 -23.975,-2.096l-0.429,1.05l0.329,-1.133c-1.75,-1.454 -3.342,-3.363 -4.654,-5.85c-8.529,-16.146 8.354,-35.154 8.354,-35.154l-4.654,-5.988l15.816,-7.625Z" style="fill:#4ac4d9;fill-rule:nonzero;"/><path d="M739.674,527.071l5.434,19l3.858,-3.262c0,-0 10.517,18.658 3.238,30.866l-11.621,-39.92c-0,-0 -5.838,25.633 -6.709,29.037l6.125,-16.417l11.55,28.313c-3.358,4.787 -9.762,8.404 -21.087,9.183c-0,0 14.354,5.767 23.975,-2.1l0.429,1.05l-0.329,-1.133c1.75,-1.454 3.342,-3.363 4.654,-5.846c8.529,-16.146 -8.354,-35.154 -8.354,-35.154l4.654,-5.988l-15.817,-7.629Z" style="fill:#4ac4d9;fill-rule:nonzero;"/><path d="M752.304,486.338l-13.184,14.717l-2.046,-4.621c0,-0 -17.612,12.191 -16.395,26.358l27.891,-30.837c0,-0 -5.946,25.604 -6.65,29.05l1.663,-17.446l-22.759,20.429c0.934,5.771 5.113,11.821 14.963,17.467c-0,-0 -15.438,-1.08 -20.65,-12.359l-0.846,0.759l0.788,-0.875c-0.938,-2.075 -1.534,-4.488 -1.63,-7.296c-0.62,-18.25 22.867,-27.975 22.867,-27.975l-1.571,-7.417l17.559,0.046Z" style="fill:#4ac4d9;fill-rule:nonzero;"/><path d="M735.045,356.407l-13.387,20.544l-3.384,-5.282c0,-0 -19.291,18.282 -15.12,35.422l28.37,-43.09c0,-0 -2.445,32.527 -2.658,36.882l-1.262,-21.706l-24.046,29.354c2.233,6.903 8.504,13.532 21.65,18.594c-0,0 -19.134,1.592 -27.663,-11.252l-0.891,1.088l0.8,-1.223c-1.542,-2.364 -2.73,-5.209 -3.38,-8.636c-4.212,-22.264 22.759,-38.632 22.759,-38.632l-3.329,-8.8l21.541,-3.263Z" style="fill:#4ac4d9;fill-rule:nonzero;"/><path d="M731.445,339.955c-3.221,0.011 -36.241,12.464 -46.558,41.198c-10.317,28.733 -22.45,182.056 -22.45,182.056c-0,-0 20.354,15.966 39.612,12.271" style="fill:none;fill-rule:nonzero;stroke:#000;stroke-width:8.06px;"/><path d="M662.712,561.5c-0,0 -7.779,-4.233 -11.696,3.763c-3.912,7.996 -0.242,18.192 14.108,23.533" style="fill:none;fill-rule:nonzero;stroke:#000;stroke-width:8.06px;"/><path d="M650.708,574.663c-0,-0 -10.434,27.804 4.754,36.537c15.192,8.738 45.5,6.671 45.5,6.671" style="fill:none;fill-rule:nonzero;stroke:#000;stroke-width:8.06px;"/><path d="M710.566,432.992c0,0 -10.25,175.238 -10.183,187.288c0.066,12.05 -7.513,203.625 -7.513,203.625c0,-0 62.925,-4.192 68.542,-20.455c5.617,-16.262 7.875,-381.158 7.983,-403.135c0.121,-21.975 -4.441,-43.423 -4.441,-43.423" style="fill:none;fill-rule:nonzero;stroke:#000;stroke-width:8.06px;"/><path d="M659.587,614.263l-0.913,187.304c0,0 -10.033,43.863 -8.283,65.425c1.754,21.567 18.825,46.438 29.892,46.217c11.071,-0.221 6.066,-10.7 -0.125,-22.613c-6.188,-11.912 -6.438,-22.554 -6.438,-22.554" style="fill:none;fill-rule:nonzero;stroke:#000;stroke-width:8.06px;"/><path d="M696.045,824.855c0,-0 -5.441,118.241 -9.879,155.633c-4.442,37.392 -4.6,194.458 -1.412,225.675c3.191,31.212 28.266,176.646 28.266,176.646c0,-0 35.959,-18.034 58.909,-0.884c22.95,17.155 40.525,30.446 35.645,8.663c-4.879,-21.788 -18.82,-181.613 -24.325,-258.05c-5.504,-76.438 12.405,-274.529 12.405,-274.529" style="fill:none;fill-rule:nonzero;stroke:#000;stroke-width:8.06px;"/><path d="M784.27,858.613l37.896,-1.6c0,-0 7.729,288.962 7.042,328.617c-0.692,39.654 22.825,187.954 22.825,187.954c-0,-0 -14.634,23.216 -5.629,25.975c9.004,2.758 52.841,1.596 68.037,9.704c15.196,8.108 44.65,26.971 44.275,11.308c-0.375,-15.662 -22.637,-70.925 -20.071,-97.891c2.563,-26.971 -5.375,-438.48 -5.375,-438.48" style="fill:none;fill-rule:nonzero;stroke:#000;stroke-width:8.06px;"/><path d="M935.124,344.922c0,0 30.513,-1.13 48.95,28.78c18.438,29.911 20.034,185.703 20.034,185.703c-0,-0 -28.479,22.504 -64.034,5.616" style="fill:none;fill-rule:nonzero;stroke:#000;stroke-width:8.06px;"/><path d="M1003.22,543.963c0,-0 18.35,5.383 25.38,20.55c7.033,15.171 -12.913,29.679 -38.384,29.95" style="fill:none;fill-rule:nonzero;stroke:#000;stroke-width:8.06px;"/><path d="M1024.41,582.492c-0,0 4.241,21.567 -17.025,32.329c-21.271,10.763 -56.646,3.354 -68.454,-3.858c-11.805,-7.217 -8.888,-41.3 -0.705,-46.604c8.18,-5.304 -0.929,-98 -0.929,-98" style="fill:none;fill-rule:nonzero;stroke:#000;stroke-width:8.06px;"/><path d="M1008.96,616.555c-0,-0 0.837,76.241 0.262,105.254c-0.575,29.016 -9.683,85.325 -6.808,100.421c2.875,15.091 9.833,12.291 12.046,35.962c2.212,23.671 2.875,57.017 -6.633,61.5c-9.509,4.483 -9.205,-10.283 -9.205,-21.312" style="fill:none;fill-rule:nonzero;stroke:#000;stroke-width:8.06px;"/><path d="M999.691,908.609c0,-0 -3.658,24.016 -13.383,19.137c-9.725,-4.883 -7.221,-38.854 -7.221,-38.854" style="fill:none;fill-rule:nonzero;stroke:#000;stroke-width:8.06px;"/><path d="M983.245,922.421c0,0 -15.479,19.275 -16.133,0.054c-0.658,-19.216 2.5,-31.545 2.5,-31.545" style="fill:none;fill-rule:nonzero;stroke:#000;stroke-width:8.06px;"/><path d="M969.204,921.763c-0,-0 -22.292,11.471 -19.134,-4.717c3.159,-16.187 9.004,-29.862 6.846,-44.891c-2.158,-15.03 -8.725,-18.284 -10.067,-7.888c-1.345,10.396 -12.133,26.25 -15.416,12.658c-3.284,-13.595 3.629,-34.029 15.166,-49.22c11.538,-15.196 4.75,-74.675 4.75,-74.675c0,-0 -8.441,-106.692 -4.375,-139.509" style="fill:none;fill-rule:nonzero;stroke:#000;stroke-width:8.06px;"/><path d="M934.574,850.68c0,-0 -67.475,-29.092 -71.541,-48.588c-4.063,-19.496 2.766,-328.008 4.925,-344.692c2.158,-16.683 13.166,-100.566 19.479,-109.859" style="fill:none;fill-rule:nonzero;stroke:#000;stroke-width:8.06px;"/><path d="M786.524,361.302c0,-0 23.042,56.253 96.492,1.708" style="fill:none;fill-rule:nonzero;stroke:#000;stroke-width:8.06px;"/><path d="M739.299,161.111c0,0 4.25,40.949 1.313,54.737c-2.938,13.788 8.942,127.48 30.675,140.578c21.729,13.099 67.037,4.633 89.987,-24.459" style="fill:none;fill-rule:nonzero;stroke:#000;stroke-width:8.06px;"/><path d="M731.304,339.905c-0,-0 13.287,36.344 15.57,51.262c2.284,14.918 22.105,98.363 22.105,98.363" style="fill:none;fill-rule:nonzero;stroke:#000;stroke-width:5.66px;stroke-linecap:butt;stroke-linejoin:miter;"/><path d="M867.287,459.28c-0,-0 21.392,-68.827 42.121,-84.159" style="fill:none;fill-rule:nonzero;stroke:#000;stroke-width:8.06px;"/><path d="M945.849,301.473c0,-0 22.338,7.575 37.909,6.83c15.571,-0.745 23.45,4.937 16.041,14.312c-7.412,9.376 18.696,57.963 -10.945,69.048" style="fill:none;fill-rule:nonzero;stroke:#000;stroke-width:8.06px;"/><path d="M764.587,768.65c-0,0 87.362,3.613 97.4,2.484" style="fill:none;fill-rule:nonzero;stroke:#000;stroke-width:8.06px;"/><path d="M663.32,824.217c0,0 -3.75,36.204 2.692,42.546c6.442,6.342 15.196,-25.313 18.229,-37.638" style="fill:none;fill-rule:nonzero;stroke:#000;stroke-width:5.66px;stroke-linecap:butt;stroke-linejoin:miter;"/><path d="M683.708,866.213l8.691,27.079" style="fill:none;fill-rule:nonzero;stroke:#000;stroke-width:5.66px;stroke-linecap:butt;stroke-linejoin:miter;"/><path d="M712.645,1380.29c0,-0 -25.262,23.492 -37.616,29.037c-12.35,5.542 -33.738,24.65 -10.88,42.08c22.859,17.425 79.513,-3.834 96.275,-16.492c16.759,-12.654 40.834,-35.35 40.834,-35.35" style="fill:none;fill-rule:nonzero;stroke:#000;stroke-width:8.06px;"/><path d="M850.133,1402.12c-0,0 -30.517,28.238 -40.867,36.484c-10.35,8.246 -22.796,31.796 -3.879,41.279c18.917,9.487 81.617,4.579 101.317,-10.338c19.7,-14.916 43.616,-43.595 43.616,-43.595" style="fill:none;fill-rule:nonzero;stroke:#000;stroke-width:8.06px;"/><path d="M724.82,110.232c0,0 91.259,-18.834 151.671,-3.837c60.408,14.997 54.146,35.517 51.167,48.583c-2.979,13.066 -6.784,53.227 -0.471,68.584c6.312,15.356 15.4,30.959 15.4,30.959c-0,0 -9.063,33.474 -12.879,46.877c-3.821,13.403 -3.129,75.34 -4.554,79.627c-1.425,4.289 10.358,9.655 9.187,-0.404c-1.167,-10.058 0.742,-58.798 5.908,-74.357c5.167,-15.558 17.442,-66.176 20.346,-86.539c2.9,-20.362 6.463,-60.516 4.45,-82.069c-2.012,-21.552 -8.987,-32.149 -8.987,-32.149c-0,0 9.929,17.901 9.408,30.585c-0.525,12.684 -3.133,22.399 12.275,21.098c15.408,-1.302 28.171,-16.447 23.421,-23.924c-4.754,-7.477 -19.817,-23.861 -22.679,-42.514c-2.863,-18.653 -7.742,-40.307 -23.779,-43.974c-16.038,-3.667 -42.638,-19.564 -59.017,-30.009c-16.383,-10.446 -41.567,-12.161 -63.921,-3.048c-22.358,9.112 -53.554,16.938 -63.996,17.494c-10.437,0.557 -27.516,35.972 -39.796,55.768c-12.275,19.797 -29.858,50.54 -22.391,76.718" style="fill:none;fill-rule:nonzero;stroke:#000;stroke-width:8.69px;"/><path d="M859.504,126.9c-0,0 -66.884,21.026 -89.425,23.756c-22.546,2.73 -30.488,12.327 -30.488,12.327c0,-0 5.013,32.237 2.379,40.72c-2.629,8.481 -1.304,23.086 -1.458,31.567c-0.154,8.483 8.354,65.808 10.079,75.636c1.725,9.827 13.046,39.602 13.046,39.602l3.029,12.127c0,0 -24.387,-7.331 -35.796,-23.027c-11.408,-15.697 -17.246,-80.257 -17.046,-96.967c0.2,-16.71 -20.725,-65.806 9.455,-112.095" style="fill:none;fill-rule:nonzero;stroke:#000;stroke-width:8.06px;"/><path d="M860.799,127.57l3.075,24.067l15.167,-2.164c0,-0 -3.037,67.391 -4.296,89.542c-0.921,29.375 10.092,114.444 9.95,111.38l9.992,-10.295l4.667,7.819l23.329,-8.656" style="fill:none;fill-rule:nonzero;stroke:#000;stroke-width:8.06px;"/><path d="M803.054,217.764c-0,0 -7.496,25.387 -9.705,31.861c-2.212,6.473 -8.625,15.599 -3.604,20.883c5.017,5.284 7.425,5.069 7.425,5.069" style="fill:none;fill-rule:nonzero;stroke:#000;stroke-width:5.66px;"/><path d="M801.308,307.575c-0,-0 39.529,1.365 55.296,-8.482" style="fill:none;fill-rule:nonzero;stroke:#000;stroke-width:5.66px;"/><path d="M729.324,109.34l-9.133,25.551c0,0 -9.258,30.328 -12.342,42.575c-3.087,12.247 2.955,46.139 2.955,46.139l3.295,19.879l6.121,54.035l5.371,29.383l8.271,17.005l19.108,13.347l13.071,4.496l-9.8,-34.946l-10.258,-51.428c-0,-0 -6.504,-39.191 -5.084,-48.206c1.421,-9.014 4.58,-39.657 1.713,-52.906c-2.863,-13.249 0.296,-17.506 8.975,-19.749c8.679,-2.242 47.567,-10.63 47.567,-10.63l61.583,-17.517l4.208,27.206l14.629,-4.777l-3.554,61.955l-0.512,66.481l8.633,73.995l10.496,-9.776l7.021,6.826l24.762,-10.756l2.446,-32.964l13.571,-52.714c-0,-0 -13.638,-26.204 -17.229,-34.859c-3.596,-8.655 -2.767,-34.451 0.108,-44.597c2.875,-10.147 6.396,-32.399 3.025,-38.147c-3.371,-5.748 -25.858,-20.326 -36.662,-23.701c-10.8,-3.374 -47.575,-10.592 -47.575,-10.592l-64.946,1.368l-49.834,8.024Z" style="fill-rule:nonzero;stroke:#000;stroke-width:3.16px;stroke-linecap:butt;stroke-linejoin:miter;"/><path d="M741.833,189.227l39.341,51.091l9.963,-6.946l-43.129,-51.264l-6.175,7.119Z" style="fill-rule:nonzero;stroke:#000;stroke-width:3.16px;stroke-linecap:butt;stroke-linejoin:miter;"/><path d="M810.999,189.957l43.425,48.097l10.125,-8.503l-46.366,-47.138l-7.184,7.544Z" style="fill-rule:nonzero;stroke:#000;stroke-width:3.16px;stroke-linecap:butt;stroke-linejoin:miter;"/><path d="M889.558,1323.7c-0,0 -55.571,74.409 -124.254,23.817c-68.684,-50.592 -46.005,-279.654 -46.005,-279.654c0,-0 -28.383,76.842 -37.862,171.167c-9.475,94.325 4.233,268.983 266.129,163.866c0,0 -29.167,-50.025 -58.008,-79.196Z" style="fill:#4ac4d9;fill-rule:nonzero;stroke:#000;stroke-width:8.9px;"/><path d="M1035.25,825.209l9.295,5.896c0,-0 5.459,2.637 6.375,2.408c0.921,-0.229 5.021,-9.713 5.505,-11.417c0.483,-1.704 1.408,-6.933 1.408,-6.933l-22.583,10.046Z" style="fill:#fff;fill-rule:nonzero;"/><path d="M1067.72,836.413c0,-0 4.225,-13.583 7.663,-14.225c3.433,-0.646 14.816,8.704 14.816,8.704l-22.479,5.521Z" style="fill:#fff;fill-rule:nonzero;"/><path d="M1080.1,807.221c0,0 14.155,10.379 17.692,7.796c3.542,-2.583 6.542,-20.167 6.542,-20.167l-24.234,12.371Z" style="fill:#fff;fill-rule:nonzero;"/><path d="M1112.8,823.917c-0,0 1.458,-15.108 6.125,-16.712c4.662,-1.605 8.591,0.341 10.595,3.483c2.005,3.146 6.205,10.254 6.205,10.254l-22.925,2.975Z" style="fill:#fff;fill-rule:nonzero;"/><path d="M1128.86,785.159c-0,-0 13.175,8.283 17.087,7.871c3.909,-0.409 4.596,-3.725 5.917,-7.846c1.321,-4.125 0.821,-12.325 0.821,-12.325l-23.825,12.3Z" style="fill:#fff;fill-rule:nonzero;"/><path d="M845.541,1345.52c0,0 6.358,35.754 20.529,52.775c14.171,17.017 31.754,35.138 71.45,37.338c39.696,2.195 82.088,-16.496 82.088,-16.496l42.446,-31.438l51.662,-54.712l43.25,-38.204l14.229,-14.567l0.788,44.679l2.925,30.725l4.087,12.071l50.734,6.354l59.375,-2.542l25.366,-5.033l6.992,-6.633l1.112,-44.5l-3.337,-104.363l-2.608,-82.212l-5.138,-29.909l-6.487,-19.32l6.204,-3.667l51.979,-50.629l65.371,-66.988l18.366,-25.391l-0.775,-9.917l-16.045,-22.025l-36.175,-38.238l-38.28,-27.929l-18.1,-3.9l-35.162,30.442l-83.2,85.75l-93.425,101.971l-49.708,51.491l5.745,14.346l-1.462,20.825l-15.542,48.279l-29.346,42.15l-43.72,56.771l-34.025,34.346l-31.2,19.738l-21.763,10.545l-28.175,4.18l-21.921,-3.53l-9.104,-2.633Z" style="fill-rule:nonzero;stroke:#000;stroke-width:3.1px;stroke-linecap:butt;stroke-linejoin:miter;"/><path d="M798.429,961.934l0.595,78.821c0,-0 -9.608,16.366 -9.916,31.779c-0.309,15.412 -3.679,66.337 -3.679,66.337c-0,0 -8.413,19.229 -9.3,32.063c-0.892,12.833 2.545,67.512 2.545,67.512l7.688,49.163c-0,-0 8.671,22.621 17.512,32.708c8.838,10.092 31.325,20.75 37.038,23.163c5.708,2.412 41.883,15.795 72.046,0.85c30.162,-14.946 77.066,-57.334 89.5,-73.275c12.429,-15.938 59.521,-81.384 59.521,-81.384l17.15,-50.05c-0,0 7.17,-17.975 -0.096,-35.333c-7.267,-17.358 -20.709,-31.971 -20.709,-31.971l-31.225,-20.537l-14.429,-3.288l-2.704,-32.846l-9.071,-57.083l-6.429,-21.763l-6.396,-7.87l-8.275,2.187l-9.15,9.483l-8.308,4.3l-12.558,-7.666l-15.134,4.471l-15.729,7.162l-6.712,-5.992l-23.813,11.605l-10.212,-6.309l-15.792,-1l-11.167,4.492l-7.346,5.996l-19.695,-7.479l-11.413,1.275l-14.337,10.479Z" style="fill:#fff;fill-rule:nonzero;stroke:#000;stroke-width:3.1px;stroke-linecap:butt;stroke-linejoin:miter;"/><path d="M1030.22,1052.28l31.45,-19.396l36.304,-14.038l16.021,3.046l5.754,5.034l17.013,2.208l3.65,1.346l-63.175,68.554l-21.8,-27.842l-16.421,-12.404l-8.796,-6.508Z" style="fill:#4ac4d9;fill-rule:nonzero;stroke:#000;stroke-width:3.1px;stroke-linecap:butt;stroke-linejoin:miter;"/><path d="M802.095,957.467l-12.016,-82l-10.867,-87.575l0.433,-26.521l7.138,-24.412l13.129,-11.9l19.879,-5.363l21.475,1.863l16.346,11.221l6.083,9.083l6.842,-20.975l22.417,-11.942l19.545,-1.887l14.655,4.966l9.191,8.042l6.421,9.492l4.304,14.862l128.579,-49.254l34.546,-13.442l4.159,-9.137l1.55,-13.958l10.795,-2.921l14.692,0.45l8.875,-4.759l10.046,-0.554l9.421,9.404l16.65,36.575l13.471,45.871l-1.125,7.859l-83.138,37.779l-149.112,63.221l-32.288,14.529l2.721,5.779l71.229,-19.321l150.829,-37.1l7.375,4.179l2.054,6.496l0.713,13.308l-9.008,6.834l-6.98,6.383l-53.441,24.65l-55.859,21.967l-36.133,18.112l-17.012,15.209l-7.75,-2.113l-11.68,9.671l-6.204,2.921l-7.508,-0.617l-7.121,-5.075l-12.746,3.367l-15.741,6.591l-8.925,-2.695l-5.9,-1.367l-7.255,5.3l-11.245,7.579l-9.25,-6.983l-18.434,-1.767l-9.9,4.425l-6.133,4.775l-11.196,-2.1l-11.379,-3.229l-9.829,1.792l-10.388,4.412Z" style="fill:#4ac4d9;fill-rule:nonzero;stroke:#000;stroke-width:3.1px;stroke-linecap:butt;stroke-linejoin:miter;"/><path d="M1190.5,1370.13l5.067,50.787l1.487,37.588l1.934,12.7l10.521,9.62l23.791,5.467l72.888,5.083l69.558,-2.258l7.063,0.842l24.058,0.304l5.054,-4.404l-1.742,-9.85l-4.45,-10.292l-3.508,-7.462l-2.067,-11.221l-8.679,-11.013l-25.154,-8.712l-57.254,-10.25l-3.263,-48.359l-49.55,4.93l-38.195,-0.463l-27.559,-3.037Z" style="fill:#4ac4d9;fill-rule:nonzero;stroke:#000;stroke-width:3.1px;stroke-linecap:butt;stroke-linejoin:miter;"/><path d="M1358.38,835.742l29.27,-34.008l-29.237,-62.004l-4.958,-23.367l3.087,-9.85l18.167,-15.967l22.7,-7.779l17.233,8.475l25.175,29.617l22.767,39.687l20.987,36.859l7.217,13.612l-0.142,15.288l-17.733,32.633l-36.679,51.875l-21.617,-26.767l-31.65,-29.287l-24.587,-19.017Z" style="fill:#4ac4d9;fill-rule:nonzero;stroke:#000;stroke-width:3.1px;stroke-linecap:butt;stroke-linejoin:miter;"/><path d="M914.27,1156.82l44.004,-54.65c0,0 8.946,-27.108 29.45,-42.162c20.509,-15.059 32.525,-14.971 55.938,2.025c23.408,16.995 33.512,32.65 38.012,50.5c4.496,17.85 -14.412,65.75 -21.183,78.012c-6.771,12.263 -58.521,83.113 -83.525,108.083c-25.004,24.975 -61.567,51.546 -95.012,51.955c-33.442,0.404 -83.584,-15.305 -94.805,-61.563c-11.22,-46.254 -16.25,-122.35 -5.562,-140.2c10.687,-17.85 -3.254,-69.008 17.421,-109.317l-1.425,-76.045c-0,-0 13.516,-14.463 26.454,-12.138c12.937,2.325 18.162,10.45 27.083,1.175c8.925,-9.279 28.85,-5.608 34.025,1.088c5.175,6.695 20.192,-16.08 30.059,-8.167c9.866,7.908 26.02,-14.804 40.166,-4.329c14.146,10.471 23.771,-19.475 36.129,-8.275c12.355,11.196 20.746,114.287 20.746,114.287" style="fill:none;fill-rule:nonzero;stroke:#000;stroke-width:6.61px;"/><path d="M876.695,1204.38c-0.196,-2.3 5.367,-49.07 54.021,-50.945" style="fill:none;fill-rule:nonzero;stroke:#000;stroke-width:6.61px;"/><path d="M890.741,1089.62c0,0 37.992,21.304 22.2,67.263" style="fill:none;fill-rule:nonzero;stroke:#000;stroke-width:6.61px;"/><path d="M844.72,1345.76c0,-0 7.784,66.858 64.467,83.345c56.683,16.484 115.737,1.238 163.787,-52.612c48.05,-53.85 101.909,-97.175 101.909,-97.175" style="fill:none;fill-rule:nonzero;stroke:#000;stroke-width:6.61px;"/><path d="M1170.41,1193.17c-0,0 -5.009,168.413 9.404,174.446c14.412,6.038 135.2,11.817 141.004,-7.571c5.804,-19.383 -2.329,-226.929 -6.583,-245.846c-4.259,-18.916 -7.567,-83.516 -105.313,-88.72c0,-0 -67.787,20.062 -127.396,87.891" style="fill:none;fill-rule:nonzero;stroke:#000;stroke-width:6.61px;"/><path d="M990.174,930.642c0,0 11.221,-11.092 38.28,-24.867c27.062,-13.779 137.47,-49.341 139.72,-67.404c2.25,-18.062 -1.62,-22.712 -11.245,-22.221c-9.621,0.488 -219.33,55.638 -219.33,55.638l-2.204,-6.013c0,0 259.713,-108.541 263.654,-116.795c3.942,-8.255 -18.812,-73.221 -28.97,-88.405c-10.155,-15.183 -22.875,-10.216 -27.009,-5.779c-4.137,4.434 -24.883,-4.246 -26.962,7.209c-2.084,11.45 -0.8,17.637 -12.067,22.479c-11.271,4.837 -157.304,60.291 -157.304,60.291c-0,0 -4.158,-41.029 -45.125,-37.425c-40.963,3.605 -37.504,37.705 -37.504,37.705c-0,-0 -12.679,-31.95 -49.921,-25.167c-37.242,6.779 -38.108,48.175 -35.158,74.771c2.95,26.591 21.875,163.537 21.875,163.537" style="fill:none;fill-rule:nonzero;stroke:#000;stroke-width:6.61px;"/><path d="M917.845,855.671c0,0 13.292,0.3 18.138,11.2c4.85,10.896 1.621,18.746 -3.421,25.975c-0,0 11.025,-26.533 -14.717,-37.175Z" style="fill-rule:nonzero;stroke:#000;stroke-width:3.1px;"/><path d="M1077.77,1100.31c0,-0 236.588,-261.908 260.254,-268.967c23.667,-7.058 109.471,77.904 109.438,98.113c-0.034,20.204 -141.754,152.125 -141.754,152.125" style="fill:none;fill-rule:nonzero;stroke:#000;stroke-width:6.61px;"/><path d="M1029.6,1051.88c-0,0 20.275,-13.075 38.57,-22.366c18.296,-9.288 34.18,-12.471 44.288,-7.571c10.104,4.904 10.496,5.5 10.496,5.5" style="fill:none;fill-rule:nonzero;stroke:#000;stroke-width:6.61px;"/><path d="M1075.44,1047.89c0,0 42.833,-30.187 65.2,-15.65" style="fill:none;fill-rule:nonzero;stroke:#000;stroke-width:6.61px;"/><path d="M1087,1061.62c0,0 28.03,-17.329 38.409,-13.467l-47.725,52.613" style="fill:none;fill-rule:nonzero;stroke:#000;stroke-width:6.61px;"/><path d="M1356.83,836.867l30.796,-35.258c-0,-0 -27.63,-56.775 -31.955,-69.263c-4.329,-12.483 -4.087,-23.071 8.292,-33.641c12.379,-10.571 31.958,-24.234 52.221,-7.209c20.262,17.025 52.637,83.371 62.537,97.563c9.9,14.187 20.059,24.083 7.746,46.141c-12.312,22.063 -47.95,75.025 -47.95,75.025" style="fill:none;fill-rule:nonzero;stroke:#000;stroke-width:6.61px;"/><path d="M1189.45,1372.17c0,0 7.23,62.017 7.038,75.9c-0.196,13.883 -3,29.263 19.779,36.108c22.779,6.846 158.021,10.138 161.408,3.313c3.384,-6.825 13.371,-26.679 -30.858,-24.633" style="fill:none;fill-rule:nonzero;stroke:#000;stroke-width:6.61px;"/><path d="M1377.43,1489.13c-0,-0 30.883,4.82 33.516,-2.471c2.638,-7.296 -4.596,-34.229 -32.45,-34.084" style="fill:none;fill-rule:nonzero;stroke:#000;stroke-width:6.61px;"/><path d="M1403.91,1462.35c-0,0 0.892,-24.721 -26.625,-31.95c-27.521,-7.229 -68.775,-11.9 -68.775,-11.9l-3.533,-48.537" style="fill:none;fill-rule:nonzero;stroke:#000;stroke-width:6.61px;"/><path d="M1033.67,824.438c0,-0 13.246,10.292 17.296,8.412c4.054,-1.875 7.542,-19.291 7.542,-19.291" style="fill:none;fill-rule:nonzero;stroke:#000;stroke-width:3.1px;"/><path d="M1067.17,838.288c0,-0 3.659,-14.463 8.646,-16.138c4.984,-1.67 15.25,10.084 15.25,10.084" style="fill:none;fill-rule:nonzero;stroke:#000;stroke-width:3.1px;"/><path d="M1078.76,806.063c-0,-0 15.487,12.125 19.221,8.725c3.737,-3.4 6.533,-20.871 6.533,-20.871" style="fill:none;fill-rule:nonzero;stroke:#000;stroke-width:3.1px;"/><path d="M1112.13,826.992c-0,0 2.062,-19.958 9.125,-20.912c7.062,-0.959 14.979,14.966 14.979,14.966" style="fill:none;fill-rule:nonzero;stroke:#000;stroke-width:3.1px;"/><path d="M1127.17,784.542c0,0 17.038,11.3 21.279,8.404c4.242,-2.891 5.146,-21.487 5.146,-21.487" style="fill:none;fill-rule:nonzero;stroke:#000;stroke-width:3.1px;"/><path d="M908.274,773.917c15.88,0 28.75,-12.05 28.75,-26.912c0,-14.863 -12.87,-26.909 -28.75,-26.909c-15.879,0 -28.754,12.046 -28.754,26.909c0,14.862 12.875,26.912 28.754,26.912Z" style="fill:#fff;fill-rule:nonzero;stroke:#000;stroke-width:3.1px;"/><path d="M829.962,790.08c15.879,-0 28.75,-12.046 28.75,-26.909c-0,-14.862 -12.871,-26.912 -28.75,-26.912c-15.879,-0 -28.754,12.05 -28.754,26.912c-0,14.863 12.875,26.909 28.754,26.909Z" style="fill:#fff;fill-rule:nonzero;stroke:#000;stroke-width:3.1px;"/><path d="M838.933,777.646c10.579,0 19.154,-8.025 19.154,-17.929c-0,-9.9 -8.575,-17.925 -19.154,-17.925c-10.579,0 -19.159,8.025 -19.159,17.925c0,9.904 8.58,17.929 19.159,17.929Z" style="fill-rule:nonzero;stroke:#000;stroke-width:2.06px;"/><path d="M916.812,761.484c10.579,-0 19.154,-8.025 19.154,-17.929c0,-9.9 -8.575,-17.925 -19.154,-17.925c-10.579,-0 -19.154,8.025 -19.154,17.925c-0,9.904 8.575,17.929 19.154,17.929Z" style="fill-rule:nonzero;stroke:#000;stroke-width:2.06px;"/></g></g></svg>