<?xml version="1.0" encoding="UTF-8" standalone="no"?><!DOCTYPE svg PUBLIC "-//W3C//DTD SVG 1.1//EN" "http://www.w3.org/Graphics/SVG/1.1/DTD/svg11.dtd"><svg width="100%" height="100%" viewBox="0 0 3324 2674" version="1.1" xmlns="http://www.w3.org/2000/svg" xmlns:xlink="http://www.w3.org/1999/xlink" xml:space="preserve" xmlns:serif="http://www.serif.com/" style="fill-rule:evenodd;clip-rule:evenodd;"><g id="starexplodions"><g id="raiozitos"><g id="raiziton1"><path id="path5208" d="M2064.22,2658.3l3.975,-117.273l209.419,-142.824l19.767,-157.944l550.121,-518.507l240.761,553.948l-54.389,153.189l-225.091,-550.106l-10.216,-0.336l-531.345,511.583l59.848,130.444l-91.091,51.783l-171.759,86.043Z" style="fill-rule:nonzero;"/><path id="cor-cropio" serif:id="cor cropio" d="M3027.31,2428.12l-222.329,-554.623l-534.061,517.115l57.842,133.568l-262.172,135.708l554.466,-12.897l-43.713,-227.995l449.967,9.124Z" style="fill:#fff;fill-rule:nonzero;stroke:#000;stroke-width:6.78px;"/><path id="path5212" d="M2576.23,2421.68l457.593,10.919l51.614,-162.737l-236.025,-554.512l-553.253,535.461l-21.11,146.179l52.901,125.573l-271.391,140.971l563.615,-16.767l-43.944,-225.087Z" style="fill:none;fill-rule:nonzero;stroke:#000;stroke-width:17.03px;stroke-linecap:round;stroke-linejoin:round;"/><path id="path5214" d="M2272.25,2405.89l-202.064,142.365l-5.507,109.825" style="fill:none;fill-rule:nonzero;stroke:#000;stroke-width:17.03px;stroke-linecap:round;stroke-linejoin:round;"/><path id="path5216" d="M2848.16,1714.04l-45.693,174.177" style="fill:none;fill-rule:nonzero;stroke:#000;stroke-width:17.03px;stroke-linecap:round;stroke-linejoin:round;"/><path id="path5218" d="M3032.98,2432.16l-226.369,-560.829l-538.763,522.637" style="fill:none;fill-rule:nonzero;stroke:#000;stroke-width:17.03px;stroke-linecap:round;stroke-linejoin:round;"/><path id="path5220" d="M2909.99,2320.33l-62.128,-18.875l-12.084,67.625" style="fill:none;fill-rule:nonzero;stroke:#000;stroke-width:17.03px;stroke-linecap:round;stroke-linejoin:round;"/><path id="path5222" d="M2768.17,2056.02l-19.282,75.986l-68.157,-34.299" style="fill:none;fill-rule:nonzero;stroke:#000;stroke-width:17.03px;stroke-linecap:round;stroke-linejoin:round;"/><path id="path5224" d="M2777.33,2221.38c0,0 18.147,-82.394 -41.424,-71.744c-59.572,10.649 -53.723,131.909 8.641,160.563c62.363,28.653 114.122,-31.578 32.783,-88.819Z" style="fill-rule:nonzero;stroke:#000;stroke-width:17.03px;stroke-linecap:round;stroke-linejoin:round;"/></g><g id="raiziton11" serif:id="raiziton1"><path id="path44516" d="M1345.37,2640.33l-3.975,-117.273l-209.419,-142.824l-19.767,-157.943l-550.12,-518.508l-240.761,553.948l54.389,153.189l225.09,-550.106l10.217,-0.336l531.344,511.583l-59.847,130.445l91.09,51.782l171.759,86.043Z" style="fill-rule:nonzero;"/><path id="cor-cropio1" serif:id="cor cropio" d="M382.278,2410.15l222.329,-554.623l534.061,517.114l-57.842,133.568l262.171,135.709l-554.465,-12.898l43.712,-227.995l-449.966,9.125Z" style="fill:#fff;fill-rule:nonzero;stroke:#000;stroke-width:6.78px;"/><path id="path37592" d="M833.358,2403.71l-457.593,10.918l-51.613,-162.736l236.024,-554.512l553.253,535.461l21.111,146.178l-52.901,125.573l271.391,140.972l-563.615,-16.768l43.943,-225.086Z" style="fill:none;fill-rule:nonzero;stroke:#000;stroke-width:17.03px;stroke-linecap:round;stroke-linejoin:round;"/><path id="path37594" d="M1137.34,2387.91l202.065,142.365l5.507,109.825" style="fill:none;fill-rule:nonzero;stroke:#000;stroke-width:17.03px;stroke-linecap:round;stroke-linejoin:round;"/><path id="path37596" d="M561.426,1696.06l45.694,174.177" style="fill:none;fill-rule:nonzero;stroke:#000;stroke-width:17.03px;stroke-linecap:round;stroke-linejoin:round;"/><path id="path37598" d="M376.614,2414.19l226.369,-560.829l538.762,522.637" style="fill:none;fill-rule:nonzero;stroke:#000;stroke-width:17.03px;stroke-linecap:round;stroke-linejoin:round;"/><path id="path37600" d="M499.599,2302.35l62.128,-18.876l12.083,67.626" style="fill:none;fill-rule:nonzero;stroke:#000;stroke-width:17.03px;stroke-linecap:round;stroke-linejoin:round;"/><path id="path37602" d="M641.422,2038.05l19.282,75.985l68.157,-34.298" style="fill:none;fill-rule:nonzero;stroke:#000;stroke-width:17.03px;stroke-linecap:round;stroke-linejoin:round;"/><path id="path37604" d="M632.259,2203.4c-0,-0 -18.148,-82.394 41.424,-71.745c59.571,10.65 53.723,131.91 -8.641,160.563c-62.363,28.654 -114.123,-31.578 -32.783,-88.818Z" style="fill-rule:nonzero;stroke:#000;stroke-width:17.03px;stroke-linecap:round;stroke-linejoin:round;"/></g></g><g id="starexploions"><g id="starexplotion"><g id="star"><path id="path10979" d="M2955.53,525.802c0,-0 -44.081,-14.663 -90.624,-6.377c-46.544,8.285 -116.814,-11.828 -116.814,-11.828c-0,0 124.721,55.411 116.995,72.148c-7.727,16.737 -102.778,4.027 -102.778,4.027l136.92,54.987l-36.31,-14.785c-0,0 -146.953,66.435 -149.189,97.118c-2.235,30.683 6.717,23.756 -10.661,36.909c-17.379,13.153 -12.062,16.765 -12.637,27.947c-0.576,11.181 -10.628,4.191 -10.628,4.191c-0,-0 23.548,28.779 18.907,37.684c-4.642,8.906 -22.868,40.589 -33.009,45.926c-10.141,5.338 -23.148,26.673 -22.098,35.623c1.049,8.951 -31.441,32.447 -24.209,46.123c7.233,13.675 -3.349,33.317 -11.913,34.866c-8.564,1.549 -17.982,32.241 -35.313,7.729c-17.332,-24.513 -19.974,-56.481 -26.961,-57.365c-6.988,-0.885 -10.574,10.126 -17.472,8.504c-6.899,-1.622 -29.006,-19.299 -20.746,-33.965c8.261,-14.666 -11.596,-31.955 -37.588,-30.941c-25.991,1.015 -32.064,-6.344 -57.926,-52.923c-25.862,-46.579 -59.021,-71.153 -104.788,-71.096c-45.766,0.057 -51.211,25.679 -52.317,39.138c-1.105,13.459 -66.801,38.28 -79.948,73.344c-13.146,35.063 -49.199,49.448 -59.9,84.073c-10.701,34.625 -31.439,93.854 -42.4,119.495c-10.96,25.642 -23.051,125.929 -61.476,116.691c-38.425,-9.238 -60.304,16.686 -97.727,9.608c-37.424,-7.077 -92.772,-5.505 -102.001,12.691c-9.229,18.196 -58.296,28.045 -94.033,20.048c-35.737,-7.996 -60.668,3.691 -81.822,36.068c-21.155,32.376 -77.844,149.33 -140.54,74.135c-62.697,-75.196 -132.504,-72.907 -157.755,-43.951c-25.25,28.957 -48.366,53.407 -48.366,53.407c0,0 92.821,-111.899 177.723,-16.108c84.901,95.792 68.494,54.173 115.454,13.209c46.96,-40.964 92.508,-108.046 124.762,-93.782c32.255,14.264 80.508,-5.854 110.752,-22.221c30.244,-16.368 150.749,-5.576 150.749,-5.576l-4.359,-9.483c0,-0 12.276,-12.564 26.624,-1.96c14.348,10.603 39.071,9.073 44.975,6.393c5.903,-2.68 29.198,23.931 53.596,-6.879c24.399,-30.809 34.034,-111.075 30.444,-133.65c-3.59,-22.574 17.427,-12.74 31.633,-59.113c14.207,-46.373 14.727,-53.422 23.654,-78.627c8.927,-25.204 2.844,-36.93 39.567,-61.784c36.724,-24.855 42.515,-12.209 42.515,-12.209c-0,-0 27.968,-36.299 41.099,-39.615c13.132,-3.315 37.623,-26.734 60.108,20.259c22.484,46.993 60.681,128.936 75.493,120.353c14.811,-8.582 29.629,18.595 37.89,36.543c8.261,17.948 3.565,32.715 3.565,32.715l26.515,25.588c0,0 -11.126,65.243 1.5,82.94c12.625,17.697 14.672,40.819 33.522,33.633c18.85,-7.186 40.653,-14.649 40.653,-14.649l-10.563,14.031c0,0 50.795,-22.5 59.285,-18.792c8.49,3.709 44.972,-12.938 62.633,-32.234c17.661,-19.296 35.566,-20.579 45.004,-41.206c9.437,-20.627 72.027,-66.151 65.75,-124.14l15.367,6.778l0.011,-14.375l19.731,-3.969l-15.263,-15.088c-0,-0 18.011,-13.374 18.45,-25.994c0.438,-12.622 -29.16,-50.957 -3.857,-69.344c25.303,-18.388 29.937,-10.852 40.552,-26.623c10.616,-15.772 17.722,-13.36 33.976,-9.725c16.254,3.636 35.869,-4.831 33.26,8.691c-2.609,13.522 -41.022,35.074 -41.022,35.074c0,-0 65.083,32.633 75.139,20.825c10.057,-11.808 18.137,-3.896 18.137,-3.896c-0,-0 4.229,-25.141 15.555,-20.684c11.326,4.457 43.226,-23.859 41.336,-40.936c-1.891,-17.077 16.539,-57.428 26.346,-69.477c9.806,-12.049 44.998,-92.973 -121.137,-214.145l0.003,0.003Z" style="fill:#30aad8;fill-rule:nonzero;"/><path id="path10908" d="M3287.93,797.574l-172.633,13.347l-156.099,74.921l-66.04,-160.059l-119.492,-125.307l131.818,-112.269l82.249,-152.365l147.508,90.673l170.324,31.14l-40.653,168.308l23.018,171.611Z" style="fill:#fff;fill-rule:nonzero;stroke:#000;stroke-width:35.4px;stroke-linecap:round;stroke-linejoin:round;stroke-miterlimit:4.9;"/><path id="path11258" d="M3029.14,528.988c30.174,35.306 25.955,89.187 -9.347,119.366c-35.302,30.179 -89.183,25.968 -119.367,-9.329c-30.185,-35.298 -25.982,-89.18 9.311,-119.369c35.293,-30.19 89.175,-25.995 119.37,9.293" style="stroke:#000;stroke-width:6.93px;"/><path id="path11258-5" d="M3225.98,479.623c30.174,35.306 25.955,89.187 -9.347,119.366c-35.302,30.179 -89.183,25.968 -119.368,-9.329c-30.184,-35.297 -25.981,-89.18 9.312,-119.369c35.293,-30.19 89.175,-25.995 119.37,9.294" style="stroke:#000;stroke-width:6.93px;"/><path id="path11287" d="M2885.48,554.342l-69.258,-1.775l-15.965,15.219l88.346,5.133l-3.123,-18.577Z" style="fill-rule:nonzero;stroke:#000;stroke-width:6.93px;"/><path id="path11289" d="M2959.21,503.463l200.393,-37.208l-3.115,15.366l-185.856,36.82l-11.422,-14.978Z" style="fill-rule:nonzero;stroke:#000;stroke-width:6.93px;"/><path id="path11291" d="M2995.16,544.175l112.779,-23.511l-1.635,21.522l-104.636,24.881l-6.508,-22.892Z" style="fill-rule:nonzero;stroke:#000;stroke-width:6.93px;"/><path id="path11293" d="M2882.73,560.062l68.366,52.637l-9.617,-41.57l87.524,67.911l14.056,-21.069l-114.566,-82.252l-0.595,40.885l-37.663,-30.402l-7.505,13.86Z" style="fill:#fff;fill-rule:nonzero;stroke:#000;stroke-width:6.93px;"/><path id="path11295" d="M3084.12,503.492l76.293,57.305l-12.934,-29.584l82.234,50.157l9.813,-18.031l-116.714,-67.759l11.371,29.542l-42.775,-32.795l-7.288,11.165Z" style="fill:#fff;fill-rule:nonzero;stroke:#000;stroke-width:6.93px;"/><path id="path11297" d="M3211.93,464.99l31.248,-25.404l7.099,2.187l-33.889,29.918l-4.458,-6.701Z" style="fill-rule:nonzero;stroke:#000;stroke-width:6.93px;"/></g></g><g id="starexplotion1" serif:id="starexplotion"><g id="star1" serif:id="star"><path id="path5152" d="M367.734,418.317c0,0 44.082,-14.662 90.625,-6.377c46.543,8.285 116.814,-11.827 116.814,-11.827c-0,-0 -124.722,55.41 -116.995,72.147c7.726,16.738 102.778,4.027 102.778,4.027l-136.921,54.988l36.311,-14.785c-0,-0 146.953,66.434 149.188,97.118c2.236,30.682 -6.716,23.756 10.662,36.909c17.378,13.152 12.061,16.765 12.637,27.946c0.575,11.182 10.628,4.191 10.628,4.191c-0,0 -23.548,28.78 -18.907,37.685c4.642,8.906 22.867,40.588 33.008,45.926c10.141,5.338 23.148,26.672 22.099,35.623c-1.05,8.951 31.441,32.447 24.208,46.122c-7.233,13.675 3.349,33.317 11.913,34.866c8.565,1.55 17.983,32.242 35.314,7.729c17.331,-24.512 19.973,-56.48 26.961,-57.365c6.987,-0.885 10.574,10.127 17.472,8.505c6.898,-1.622 29.005,-19.299 20.745,-33.965c-8.261,-14.666 11.597,-31.956 37.588,-30.941c25.991,1.014 32.065,-6.344 57.926,-52.923c25.862,-46.579 59.022,-71.154 104.788,-71.096c45.766,0.057 51.212,25.678 52.317,39.137c1.105,13.46 66.802,38.28 79.948,73.344c13.147,35.064 49.199,49.449 59.9,84.073c10.701,34.625 31.44,93.854 42.4,119.496c10.961,25.641 23.052,125.929 61.476,116.691c38.425,-9.238 60.305,16.686 97.728,9.608c37.423,-7.078 92.771,-5.506 102.001,12.69c9.229,18.196 58.296,28.045 94.033,20.049c35.737,-7.997 60.667,3.691 81.822,36.067c21.155,32.377 77.843,149.33 140.54,74.135c62.696,-75.195 132.504,-72.907 157.754,-43.95c25.251,28.956 48.366,53.407 48.366,53.407c0,-0 -92.821,-111.9 -177.723,-16.109c-84.901,95.793 -68.493,54.174 -115.454,13.21c-46.96,-40.964 -92.507,-108.046 -124.762,-93.783c-32.254,14.264 -80.507,-5.853 -110.751,-22.221c-30.244,-16.367 -150.749,-5.576 -150.749,-5.576l4.358,-9.483c0,0 -12.275,-12.563 -26.623,-1.96c-14.348,10.604 -39.071,9.074 -44.975,6.394c-5.904,-2.68 -29.198,23.93 -53.597,-6.879c-24.398,-30.809 -34.034,-111.076 -30.444,-133.65c3.59,-22.574 -17.426,-12.741 -31.633,-59.114c-14.206,-46.372 -14.726,-53.422 -23.653,-78.626c-8.928,-25.204 -2.844,-36.93 -39.568,-61.785c-36.723,-24.854 -42.514,-12.209 -42.514,-12.209c-0,0 -27.968,-36.299 -41.1,-39.614c-13.131,-3.316 -37.623,-26.735 -60.107,20.258c-22.485,46.993 -60.681,128.936 -75.493,120.354c-14.812,-8.583 -29.63,18.594 -37.89,36.543c-8.261,17.948 -3.566,32.714 -3.566,32.714l-26.515,25.589c0,-0 11.126,65.242 -1.499,82.939c-12.626,17.697 -14.672,40.819 -33.522,33.633c-18.85,-7.186 -40.654,-14.649 -40.654,-14.649l10.563,14.032c0,-0 -50.794,-22.501 -59.284,-18.792c-8.49,3.708 -44.972,-12.938 -62.633,-32.234c-17.661,-19.296 -35.567,-20.58 -45.004,-41.206c-9.437,-20.627 -72.027,-66.152 -65.751,-124.14l-15.366,6.777l-0.012,-14.374l-19.73,-3.969l15.263,-15.089c-0,0 -18.012,-13.373 -18.451,-25.994c-0.438,-12.621 29.16,-50.957 3.857,-69.344c-25.303,-18.388 -29.936,-10.851 -40.552,-26.623c-10.616,-15.771 -17.721,-13.359 -33.975,-9.724c-16.255,3.635 -35.869,-4.832 -33.26,8.69c2.609,13.523 41.021,35.074 41.021,35.074c0,0 -65.082,32.633 -75.139,20.825c-10.056,-11.807 -18.136,-3.896 -18.136,-3.896c-0,0 -4.229,-25.141 -15.555,-20.684c-11.326,4.457 -43.227,-23.858 -41.336,-40.935c1.89,-17.077 -16.539,-57.428 -26.346,-69.477c-9.807,-12.05 -44.998,-92.974 121.137,-214.145l-0.004,0.002Z" style="fill:#30aad8;fill-rule:nonzero;"/><path id="path5154" d="M35.337,690.089l172.632,13.347l156.1,74.922l66.039,-160.059l119.492,-125.307l-131.817,-112.269l-82.249,-152.366l-147.508,90.673l-170.325,31.14l40.653,168.308l-23.017,171.611Z" style="fill:#fff;fill-rule:nonzero;stroke:#000;stroke-width:35.4px;stroke-linecap:round;stroke-linejoin:round;stroke-miterlimit:4.9;"/><path id="path5156" d="M294.125,421.503c-30.174,35.306 -25.955,89.187 9.346,119.366c35.302,30.179 89.184,25.968 119.368,-9.329c30.184,-35.297 25.981,-89.179 -9.311,-119.369c-35.293,-30.19 -89.176,-25.994 -119.371,9.294" style="stroke:#000;stroke-width:6.93px;"/><path id="path5158" d="M97.291,372.138c-30.174,35.306 -25.955,89.187 9.347,119.366c35.301,30.18 89.183,25.969 119.367,-9.329c30.185,-35.297 25.981,-89.179 -9.311,-119.369c-35.293,-30.189 -89.176,-25.994 -119.371,9.294" style="stroke:#000;stroke-width:6.93px;"/><path id="path5160" d="M437.789,446.858l69.258,-1.776l15.966,15.219l-88.347,5.133l3.123,-18.576Z" style="fill-rule:nonzero;stroke:#000;stroke-width:6.93px;"/><path id="path5162" d="M364.058,395.978l-200.394,-37.207l3.116,15.365l185.855,36.821l11.423,-14.979Z" style="fill-rule:nonzero;stroke:#000;stroke-width:6.93px;"/><path id="path5164" d="M328.105,436.69l-112.778,-23.511l1.634,21.522l104.636,24.882l6.508,-22.893Z" style="fill-rule:nonzero;stroke:#000;stroke-width:6.93px;"/><path id="path5166" d="M440.538,452.577l-68.365,52.637l9.617,-41.57l-87.525,67.912l-14.055,-21.07l114.566,-82.251l0.595,40.885l37.663,-30.403l7.504,13.86Z" style="fill:#fff;fill-rule:nonzero;stroke:#000;stroke-width:6.93px;"/><path id="path5168" d="M239.147,396.007l-76.292,57.306l12.933,-29.584l-82.233,50.157l-9.813,-18.032l116.714,-67.759l-11.371,29.542l42.775,-32.794l7.287,11.164Z" style="fill:#fff;fill-rule:nonzero;stroke:#000;stroke-width:6.93px;"/><path id="path5170" d="M111.338,357.505l-31.249,-25.403l-7.099,2.187l33.889,29.918l4.459,-6.702Z" style="fill-rule:nonzero;stroke:#000;stroke-width:6.93px;"/></g></g></g></g><g id="happyblue"><g id="happytree"><path id="corhappy" d="M1364.85,1270.9l-316.631,-1108.25c0,-0 -36.437,-103.299 -120.789,-81.214c-84.351,22.087 -74.121,135.698 -74.121,135.698l77.373,269.611c0,0 -89.278,-9.169 -134.092,39.277l-82.743,-280.677c0,-0 -24.318,-90.665 -115.768,-71.771c-91.452,18.895 -79.317,130.654 -79.317,130.654l104.162,362.564l218.053,758.31c0,-0 -113.81,46.307 -112.885,113.757c0.925,67.449 18.535,84.203 18.535,84.203l128.322,-35.341l168.883,-52.558c0,-0 41.133,-4.407 11.757,-96.285c-29.376,-91.879 -73.198,-247.751 -73.198,-247.751c0,-0 86.935,-60.35 139.275,-35.016l82.888,284.06c-0,-0 17.339,50.34 72.314,35.418c54.974,-14.92 276.965,-85.653 276.965,-85.653c-0,0 -11.267,-155.222 -188.983,-119.038l0,-0Z" style="fill-rule:nonzero;stroke:#000;stroke-width:9.67px;"/><path id="sombra6" d="M1295.44,1313.19l58.196,-66.336l15.883,28.404l-74.079,37.932Z" style="fill:#fff;fill-rule:nonzero;stroke:#fff;stroke-width:9.67px;"/><path id="sombra5" d="M919.827,1420.57l-86.244,-26.426l9.513,37.432l76.731,-11.006Z" style="fill:#fff;fill-rule:nonzero;stroke:#fff;stroke-width:9.67px;"/><path id="sombra4" d="M907.307,1263.29l86.645,-28.359l-11.12,-44.767l-75.525,73.126Z" style="fill:#fff;fill-rule:nonzero;stroke:#fff;stroke-width:9.67px;"/><path id="sombra3" d="M1247.99,1170.64l-113.297,11.783l-8.459,-36.343l121.756,24.56Z" style="fill:#fff;fill-rule:nonzero;stroke:#fff;stroke-width:9.67px;"/><path id="sombra2" d="M1022.85,509.656l-111.344,-78.858l13.285,56.287l98.059,22.571Z" style="fill:#fff;fill-rule:nonzero;stroke:#fff;stroke-width:9.67px;"/><path id="sombra1" d="M739.465,585.392l40.011,-113.262l18.373,56.499l-58.384,56.763Z" style="fill:#fff;fill-rule:nonzero;stroke:#fff;stroke-width:9.67px;"/><path id="path3820" d="M840.963,1422.94l-314.201,-1096.47c-0,0 -40.084,-97.753 55.298,-142.957c95.382,-45.203 133.695,62.163 136.438,77.942c2.745,15.779 76.399,266.608 76.399,266.608" style="fill:none;fill-rule:nonzero;stroke:#fff;stroke-width:24.32px;stroke-linecap:round;stroke-linejoin:round;"/><path id="path3822" d="M743.832,592.11c0,-0 33.829,-75.903 115.534,-98.225c81.704,-22.321 161.174,22.455 161.174,22.455" style="fill:none;fill-rule:nonzero;stroke:#fff;stroke-width:24.32px;stroke-linecap:round;stroke-linejoin:round;"/><path id="path3824" d="M1365.83,1277.43l-314.42,-1097.23c0,-0 -17.786,-109.504 -115.662,-95.006c-97.874,14.498 -86.264,115.554 -83.345,131.803c2.922,16.249 78.092,272.515 78.092,272.515" style="fill:none;fill-rule:nonzero;stroke:#fff;stroke-width:24.32px;stroke-linecap:round;stroke-linejoin:round;"/><path id="path3826" d="M1294.69,1321.01c-0,-0 79.197,-72.617 170.118,-49.928c90.919,22.687 89.655,122.012 89.655,122.012c-0,0 -286.084,89.255 -311.797,85.647c-25.712,-3.607 -37.903,-32.802 -41.312,-47.689c-3.411,-14.888 -78.578,-274.211 -78.578,-274.211" style="fill:none;fill-rule:nonzero;stroke:#fff;stroke-width:24.32px;stroke-linecap:round;stroke-linejoin:round;"/><path id="path3828" d="M918.446,1425.92c-0,-0 -92.521,-17.305 -157.129,47.529c-64.607,64.834 -14.154,152.216 -14.154,152.216c0,0 296.651,-84.536 310.236,-99.222c13.585,-14.687 5.808,-53.236 -1.581,-75.826c-7.39,-22.59 -73.535,-256.615 -73.535,-256.615" style="fill:none;fill-rule:nonzero;stroke:#fff;stroke-width:24.32px;stroke-linecap:round;stroke-linejoin:round;"/><path id="path3831" d="M905.565,1258.63c0,0 63.58,-81.792 156.845,-103.023c93.265,-21.232 182.545,14.01 182.545,14.01" style="fill:none;fill-rule:nonzero;stroke:#fff;stroke-width:24.32px;stroke-linecap:round;stroke-linejoin:round;"/><path id="path3833" d="M917.115,859.757c-0,0 12.221,38.744 50.721,29.836c38.503,-8.911 27.053,-52.463 27.053,-52.463" style="fill:none;fill-rule:nonzero;stroke:#fff;stroke-width:17px;stroke-linecap:round;stroke-linejoin:round;"/><path id="path3835" d="M804.549,829.341c6.694,23.361 -7.019,48.094 -30.379,54.792c-23.361,6.698 -48.096,-7.011 -54.797,-30.371c-6.701,-23.36 7.004,-48.096 30.363,-54.801c23.358,-6.705 48.097,6.997 54.805,30.354" style="fill:#fff;"/><path id="path3837" d="M1155.18,728.603c6.694,23.362 -7.018,48.094 -30.379,54.792c-23.36,6.698 -48.095,-7.011 -54.796,-30.371c-6.702,-23.359 7.003,-48.096 30.362,-54.801c23.359,-6.704 48.097,6.997 54.806,30.355" style="fill:#fff;"/><path id="path3839" d="M1152.79,698.462c2.71,9.456 -2.84,19.466 -12.295,22.177c-9.455,2.711 -19.467,-2.838 -22.179,-12.292c-2.712,-9.455 2.835,-19.467 12.289,-22.181c9.454,-2.713 19.467,2.832 22.182,12.286"/><path id="path3841" d="M804.158,801.826c2.709,9.456 -2.841,19.466 -12.296,22.177c-9.455,2.711 -19.466,-2.838 -22.179,-12.292c-2.712,-9.455 2.835,-19.467 12.289,-22.181c9.455,-2.714 19.467,2.832 22.183,12.286"/></g><g id="happytwo"><path id="corhappy1" serif:id="corhappy" d="M2535.86,1488.11l184.732,-1261.87c0,0 10.234,-120.767 -84.894,-136.859c-95.128,-16.09 -136.487,103.157 -136.487,103.157l-44.593,307.139c-0,0 -85.881,-49.857 -153.119,-21.376l44.211,-320.744c0,-0 16.712,-102.511 -84.124,-125.051c-100.838,-22.54 -139.434,95.706 -139.434,95.706l-59.854,413.082l-124.988,864.059c-0,-0 -135.859,-5.06 -165.607,63.394c-29.747,68.454 -19.605,93.363 -19.605,93.363l145.508,22.722l194.252,23.806c-0,0 43.493,14.265 55.655,-91.77c12.163,-106.036 38.862,-283.191 38.862,-283.191c0,-0 115.138,-21.329 156.409,28.032l-45.605,324.222c-0,-0 -5.409,58.662 56.83,68.618c62.236,9.957 318.322,39.587 318.322,39.587c0,0 59.241,-161.69 -136.472,-206.031l0.001,0.001Z" style="fill:#fff;fill-rule:nonzero;stroke:#000;stroke-width:10.7px;"/><path id="sombra61" serif:id="sombra6" d="M2446.61,1499.19l88.874,-40.438l3.1,35.875l-91.974,4.563Z" style="fill-rule:nonzero;stroke:#000;stroke-width:10.7px;"/><path id="sombra51" serif:id="sombra5" d="M2018.9,1436.65l-74.97,-65.884l-7.431,42.083l82.401,23.801Z" style="fill-rule:nonzero;stroke:#000;stroke-width:10.7px;"/><path id="sombra41" serif:id="sombra4" d="M2077.81,1272.32l100.295,10.808l9.146,-50.213l-109.441,39.405Z" style="fill-rule:nonzero;stroke:#000;stroke-width:10.7px;"/><path id="sombra31" serif:id="sombra3" d="M2463.59,1333.83l-119.637,-39.65l7.998,-40.505l111.639,80.155Z" style="fill-rule:nonzero;stroke:#000;stroke-width:10.7px;"/><path id="sombra21" serif:id="sombra2" d="M2537.15,564.712l-76.437,-130.187l-12.204,62.817l88.641,67.37Z" style="fill-rule:nonzero;stroke:#000;stroke-width:10.7px;"/><path id="sombra11" serif:id="sombra1" d="M2216.87,512.204l91.877,-96.043l-7.167,65.345l-84.71,30.698Z" style="fill-rule:nonzero;stroke:#000;stroke-width:10.7px;"/><path id="path3763" d="M1938.28,1403.17l181.824,-1248.88c-0,0 4.033,-116.832 120.803,-119.041c116.769,-2.209 106.576,123.514 102.165,140.678c-4.408,17.163 -44.21,303.666 -44.21,303.666" style="fill:none;fill-rule:nonzero;stroke:#000;stroke-width:26.91px;stroke-linecap:round;stroke-linejoin:round;"/><path id="path3765" d="M2218.22,520.966c-0,-0 68.647,-61.172 161.212,-46.522c92.565,14.649 152.356,95.961 152.356,95.961" style="fill:none;fill-rule:nonzero;stroke:#000;stroke-width:26.91px;stroke-linecap:round;stroke-linejoin:round;"/><path id="path3767" d="M2533.87,1495.15l181.949,-1249.75c0,0 31.869,-118.541 -73.448,-148.438c-105.316,-29.897 -139.573,77.315 -144.019,95.033c-4.444,17.719 -45.191,310.395 -45.191,310.395" style="fill:none;fill-rule:nonzero;stroke:#000;stroke-width:26.91px;stroke-linecap:round;stroke-linejoin:round;"/><path id="path3769" d="M2442.3,1506.74c0,0 112.914,-37.22 194.301,27.021c81.387,64.24 34.932,163.85 34.932,163.85c0,-0 -329.159,-40.103 -353.454,-55.438c-24.293,-15.334 -23.31,-50.326 -19.977,-66.893c3.332,-16.568 45.471,-312.327 45.471,-312.327" style="fill:none;fill-rule:nonzero;stroke:#000;stroke-width:26.91px;stroke-linecap:round;stroke-linejoin:round;"/><path id="path3771" d="M2015.07,1441.42c0,0 -85.451,-59.539 -180.109,-23.531c-94.656,36.007 -83.514,147.095 -83.514,147.095c0,0 337.672,49.669 358.055,41.034c20.383,-8.634 30.073,-51.054 32.895,-77.201c2.822,-26.147 42.554,-292.285 42.554,-292.285" style="fill:none;fill-rule:nonzero;stroke:#000;stroke-width:26.91px;stroke-linecap:round;stroke-linejoin:round;"/><path id="path3773" d="M2078.18,1266.82c0,-0 101.335,-53.58 205.064,-32.573c103.73,21.008 177.753,97.166 177.753,97.166" style="fill:none;fill-rule:nonzero;stroke:#000;stroke-width:26.91px;stroke-linecap:round;stroke-linejoin:round;"/><path id="path3775" d="M2271.26,869.75c0,0 -5.297,44.638 37.589,53.166c42.889,8.525 51.151,-40.612 51.151,-40.612" style="fill:none;fill-rule:nonzero;stroke:#000;stroke-width:18.81px;stroke-linecap:round;stroke-linejoin:round;"/><path id="path3777" d="M2171.55,787.868c-3.874,26.609 -28.956,45.318 -55.565,41.448c-26.61,-3.87 -45.323,-28.949 -41.457,-55.558c3.866,-26.611 28.943,-45.327 55.553,-41.465c26.611,3.862 45.331,28.935 41.473,55.546"/><path id="path3779" d="M2571.04,845.748c-3.874,26.609 -28.955,45.318 -55.565,41.448c-26.609,-3.87 -45.322,-28.949 -41.456,-55.559c3.866,-26.61 28.942,-45.326 55.552,-41.464c26.611,3.862 45.331,28.935 41.473,55.546"/><path id="path3781" d="M2582.34,814.258c-1.568,10.77 -11.72,18.342 -22.49,16.776c-10.77,-1.567 -18.344,-11.717 -16.779,-22.487c1.565,-10.77 11.714,-18.346 22.485,-16.783c10.77,1.563 18.347,11.712 16.785,22.482" style="fill:#fff;"/><path id="path3783" d="M2183.67,759.938c-1.568,10.77 -11.72,18.342 -22.49,16.776c-10.77,-1.567 -18.344,-11.717 -16.779,-22.487c1.565,-10.771 11.714,-18.346 22.484,-16.783c10.771,1.563 18.348,11.711 16.786,22.482" style="fill:#fff;"/></g><g id="happy"><path id="corhappy2" serif:id="corhappy" d="M1857.61,1243.42l0.88,-1114.12c-0,-0 -6.353,-105.69 -90.615,-107.629c-84.263,-1.937 -105.009,106.357 -105.009,106.357l0.106,271.131c0,0 -80.517,-32.292 -135.059,0.792l-2.149,-282.845c-0,0 1.544,-90.722 -88.464,-97.516c-90.01,-6.795 -108.493,100.285 -108.493,100.285l0.247,364.639l0.7,762.701c0,0 -118.086,12.725 -135.186,75.647c-17.101,62.922 -5.198,83.179 -5.198,83.179l128.65,1.329l170.925,-3.869c-0,0 39.395,6.859 36.563,-86.339c-2.831,-93.198 -2.047,-249.707 -2.047,-249.707c0,0 96.852,-32.93 138.742,4.548l1.382,286.026c-0,0 2.707,51.394 57.765,52.168c55.056,0.774 280.169,-5.842 280.169,-5.842c0,0 30.862,-147.236 -143.91,-160.935l0.001,-0Z" style="fill:#30aad8;fill-rule:nonzero;stroke:#000;stroke-width:9.35px;"/><path id="sombra62" serif:id="sombra6" d="M1781.85,1264.23l71.741,-46.145l7.195,30.624l-78.936,15.521Z" style="fill-rule:nonzero;stroke:#000;stroke-width:9.35px;"/><path id="sombra52" serif:id="sombra5" d="M1404.23,1264l-73.103,-47.52l-1.128,37.316l74.231,10.204Z" style="fill-rule:nonzero;stroke:#000;stroke-width:9.35px;"/><path id="sombra42" serif:id="sombra4" d="M1434.47,1114.52l88.063,-3.281l1.588,-44.559l-89.651,47.84Z" style="fill-rule:nonzero;stroke:#000;stroke-width:9.35px;"/><path id="sombra32" serif:id="sombra3" d="M1775.71,1119.14l-108.415,-19.22l1.817,-36.022l106.598,55.242Z" style="fill-rule:nonzero;stroke:#000;stroke-width:9.35px;"/><path id="sombra22" serif:id="sombra2" d="M1742.51,444.988l-82.464,-102.925l-2.644,55.841l85.108,47.084Z" style="fill-rule:nonzero;stroke:#000;stroke-width:9.35px;"/><path id="sombra12" serif:id="sombra1" d="M1459.02,439.907l67.338,-94.592l2.029,57.392l-69.367,37.2Z" style="fill-rule:nonzero;stroke:#000;stroke-width:9.35px;"/><path id="path1388" d="M1330.31,1245.2l-0,-1102.53c-0,0 -11.218,-101.508 89.45,-118.114c100.668,-16.606 107.68,93.363 106.027,108.756c-1.651,15.392 0,268.081 0,268.081" style="fill:none;fill-rule:nonzero;stroke:#000;stroke-width:23.5px;stroke-linecap:round;stroke-linejoin:round;"/><path id="path1390" d="M1461.29,447.311c0,0 51.646,-61.522 133.512,-60.508c81.865,1.014 143.787,63.782 143.787,63.782" style="fill:none;fill-rule:nonzero;stroke:#000;stroke-width:23.5px;stroke-linecap:round;stroke-linejoin:round;"/><path id="path1392" d="M1856.78,1249.75l0,-1103.29c0,0 12.631,-106.489 -82.178,-119.079c-94.807,-12.59 -110.928,84.405 -112.542,100.282c-1.612,15.877 -0,274.021 -0,274.021" style="fill:none;fill-rule:nonzero;stroke:#000;stroke-width:23.5px;stroke-linecap:round;stroke-linejoin:round;"/><path id="path1394" d="M1779.07,1271.3c-0,0 92.928,-46.388 171.372,-1.095c78.443,45.291 50.821,137.249 50.821,137.249c-0,0 -289.603,6.76 -312.535,-3.439c-22.932,-10.198 -26.486,-40.573 -25.69,-55.314c0.795,-14.742 0,-275.726 0,-275.726" style="fill:none;fill-rule:nonzero;stroke:#000;stroke-width:23.5px;stroke-linecap:round;stroke-linejoin:round;"/><path id="path1396" d="M1401.52,1268.6c-0,-0 -81.365,-40.716 -158.664,2.326c-77.298,43.041 -53.684,137.673 -53.684,137.673c0,0 298.165,0.439 314.699,-9.591c16.534,-10.029 19.573,-47.921 18.722,-70.88c-0.852,-22.959 -0,-258.033 -0,-258.033" style="fill:none;fill-rule:nonzero;stroke:#000;stroke-width:23.5px;stroke-linecap:round;stroke-linejoin:round;"/><path id="path1398" d="M1434.09,1109.72c-0,0 80.859,-59.073 173.176,-53.968c92.318,5.105 165.895,61.627 165.895,61.627" style="fill:none;fill-rule:nonzero;stroke:#000;stroke-width:23.5px;stroke-linecap:round;stroke-linejoin:round;"/><path id="path2008" d="M1551.04,742.156c0,0 1.04,39.256 39.187,41.23c38.15,1.972 39.108,-41.546 39.108,-41.546" style="fill:none;fill-rule:nonzero;stroke:#000;stroke-width:16.44px;stroke-linecap:round;stroke-linejoin:round;"/><path id="path2010" d="M1454.54,683.919c0,23.491 -19.328,42.822 -42.818,42.825c-23.491,0.003 -42.825,-19.322 -42.831,-42.812c-0.007,-23.491 19.315,-42.828 42.806,-42.838c23.49,-0.01 42.83,19.309 42.843,42.8"/><path id="path2010-6" d="M1807.17,683.676c-0,23.49 -19.328,42.821 -42.818,42.825c-23.491,0.003 -42.825,-19.322 -42.832,-42.813c-0.007,-23.49 19.316,-42.827 42.806,-42.837c23.491,-0.011 42.83,19.309 42.844,42.799"/><path id="path2579" d="M1812.98,655.031c-0,9.508 -7.823,17.332 -17.331,17.333c-9.508,0.002 -17.333,-7.82 -17.336,-17.328c-0.002,-9.507 7.818,-17.334 17.326,-17.338c9.507,-0.004 17.335,7.815 17.341,17.323" style="fill:#fff;"/><path id="path2579-7" d="M1461.5,658.248c-0,9.508 -7.823,17.332 -17.331,17.333c-9.508,0.001 -17.333,-7.82 -17.336,-17.328c-0.003,-9.508 7.818,-17.334 17.326,-17.338c9.507,-0.005 17.335,7.815 17.341,17.323" style="fill:#fff;"/></g></g><g id="copocool"><g id="cupcool"><g id="copo"><g id="cup"><path id="cor-copo" serif:id="cor copo" d="M1151.51,1091.24l30.094,22.736c-0,-0 58.454,64.661 70.065,85.232c11.612,20.571 12.019,26.145 12.019,26.145l46.069,77.11l498.402,813.564l-17.745,44.176l-31.277,55.234c-0,0 -56.324,81.567 -98.744,122.938c-42.42,41.372 -75.969,68.784 -75.969,68.784c0,-0 -69.901,57.064 -100.612,75.398c-30.711,18.334 -76.159,45.603 -76.159,45.603c0,0 -50.274,34.096 -99.452,49.336c-49.179,15.238 -84.439,20.768 -84.439,20.768c-0,0 -29.649,2.183 -40.657,-8.582c-11.009,-10.765 -50.857,-52.206 -50.857,-52.206l-69.733,-66.437l-213.514,-204.917l-147.14,-139.174l-116.309,-113.707l-163.136,-158.633l-42.322,-45.938c-0,-0 -31.307,-34.59 -28.815,-42.017c2.491,-7.426 3.517,20.742 61.275,22.266c57.758,1.526 138.288,-32.842 138.288,-32.842c-0,0 123.836,-61.393 160.979,-87.586c37.143,-26.195 71.586,-51.47 71.586,-51.47c-0,-0 120.444,-95.311 174.01,-147.365c53.566,-52.054 104.457,-114.508 104.457,-114.508c-0,-0 100.796,-130.82 102.956,-182.677c2.16,-51.858 6.787,-60.558 -13.321,-81.231l0.001,0Z" style="fill:#fff;fill-rule:nonzero;stroke:#000;stroke-width:8.93px;"/><path id="path25232" d="M351.405,1765.74c58.829,70.305 288.561,-23.226 508.943,-207.205c220.381,-183.979 353.359,-393.246 294.595,-463.605c-58.764,-70.359 -288.456,23.109 -508.855,207.067c-220.399,183.958 -353.445,393.253 -294.746,463.667" style="fill:#fff;stroke:#000;stroke-width:22.42px;stroke-linecap:round;stroke-linejoin:round;"/><path id="path25234" d="M1152.71,1089.46c-0,0 105.121,90.665 106.134,133.604c1.004,42.572 -126.735,285.69 -443.419,513.802c-286.351,206.261 -391.033,120.476 -391.033,120.476c0,0 -65.873,-68.528 -78.376,-95.568" style="fill:none;fill-rule:nonzero;stroke:#000;stroke-width:22.43px;stroke-linecap:round;stroke-linejoin:round;"/><path id="path25236" d="M1252.71,1207.01l556.062,910.35c0,0 -57.307,188.271 -317.592,359.784c-260.286,171.513 -307.453,110.559 -307.453,110.559l-754.759,-725.098" style="fill:none;fill-rule:nonzero;stroke:#000;stroke-width:22.43px;stroke-linecap:round;stroke-linejoin:round;"/></g><path id="path25248" d="M478.572,1628.98c21.391,27.073 153.611,-40.103 292.917,-148.819c139.306,-108.716 236.36,-220.469 215.011,-247.575c-21.349,-27.105 -153.541,40.037 -292.853,148.746c-139.313,108.708 -236.406,220.481 -215.098,247.618" style="stroke:#000;stroke-width:9.03px;"/><g id="mone"><path id="cor-mao" serif:id="cor mao" d="M757.396,1278.08l58.45,88.119c0,0 54.859,-7.376 86.849,-37.039c31.99,-29.664 54.583,-64.428 54.583,-64.428l-140.741,-243.13c0,-0 -64.243,-164.883 -210.468,-45.764c-0,-0 -51.856,-53.624 -108.39,-10.269c-56.534,43.354 -103.077,86.229 -103.077,86.229l-83.988,-93.162l-49.201,-83.802l-5.675,-22.967c0,0 -52.528,-50.25 -81.399,30.066c-28.87,80.315 20.84,173.194 20.84,173.194l42.672,74.283c0,-0 -117.092,113.912 -101.529,174.984c15.563,61.073 30.117,79.3 30.117,79.3l26.168,14.723c-0,0 8.588,36.938 26.56,58.413c17.972,21.475 58.671,47.587 58.671,47.587c-0,-0 78.464,66.832 116.731,67.942c38.267,1.111 106.992,-47.161 106.992,-47.161c0,-0 44.181,-50.009 50.735,-62.932c6.553,-12.923 4.439,-53.817 4.439,-53.817l164.266,-93.875l36.395,-36.494Z" style="fill:#fff;fill-rule:nonzero;stroke:#000;stroke-width:8.93px;"/><path id="path25238" d="M556.588,1410.21c-0,0 144.853,-77.81 192.658,-120.871c47.805,-43.061 -129.112,-324.2 -180.987,-341.564c-51.874,-17.364 -171.088,103.449 -171.088,103.449c0,-0 -127.218,-121.871 -136.825,-189.491c-9.608,-67.619 -194.131,-3.244 -17.449,271.516c-14.884,-10.176 -162.062,153.018 -82.855,242.916c55.988,63.545 294.118,-28.263 342.814,-155.618c48.697,-127.354 -118.54,-163.077 -221.675,-4.763" style="fill:none;fill-rule:nonzero;stroke:#000;stroke-width:22.43px;stroke-linecap:round;stroke-linejoin:round;"/><path id="path25240" d="M189.786,1395.04c0,-0 44.468,144.743 149.179,94.702c104.711,-50.04 235.005,-88.366 158.512,-250.988" style="fill:none;fill-rule:nonzero;stroke:#000;stroke-width:22.43px;stroke-linecap:round;stroke-linejoin:round;"/><path id="path25242" d="M275.126,1498.2c0,0 79.366,102.423 166.32,62.799c86.952,-39.624 165.1,-126.504 78.257,-211.794" style="fill:none;fill-rule:nonzero;stroke:#000;stroke-width:22.43px;stroke-linecap:round;stroke-linejoin:round;"/><path id="path25244" d="M713.266,1137.27l31.221,-17.892" style="fill:none;fill-rule:nonzero;stroke:#000;stroke-width:22.43px;stroke-linecap:round;stroke-linejoin:round;"/><path id="path25246" d="M604.582,977.933c0,-0 103.883,-88.373 158.868,-29.456c54.985,58.918 193.043,321.979 193.043,321.979c-0,-0 -74.815,102.996 -141.007,94.112l-56.711,-89.032" style="fill:none;fill-rule:nonzero;stroke:#000;stroke-width:22.43px;stroke-linecap:round;stroke-linejoin:round;"/></g><path id="path25324" d="M1169.86,1900.23l-298.366,204.338c0,0 104.151,166.076 242.357,99.537c138.207,-66.54 142.835,-189.181 56.009,-303.875Z" style="fill-rule:nonzero;stroke:#000;stroke-width:8.93px;"/><path id="path25262" d="M877.051,1802.25c56.242,88.296 175.175,114.681 263.479,58.451c88.305,-56.23 114.707,-175.158 58.49,-263.472c-56.216,-88.313 -175.141,-114.732 -263.462,-58.528c-88.321,56.203 -114.759,175.124 -58.568,263.453"/><path id="path25262-9" d="M539.877,2047.49c56.242,88.296 175.175,114.681 263.48,58.451c88.304,-56.23 114.706,-175.158 58.49,-263.471c-56.217,-88.313 -175.142,-114.733 -263.463,-58.529c-88.321,56.203 -114.758,175.124 -58.568,263.453"/><path id="path25262-9-1" d="M556.255,2035.45c49.44,77.616 153.986,100.809 231.61,51.381c77.623,-49.428 100.832,-153.972 51.415,-231.602c-49.417,-77.631 -153.956,-100.855 -231.595,-51.45c-77.638,49.405 -100.877,153.942 -51.483,231.587"/><path id="path25318" d="M897.11,1790.9c48.934,76.822 152.411,99.778 229.24,50.855c76.83,-48.922 99.801,-152.396 50.889,-229.233c-48.911,-76.836 -152.381,-99.823 -229.225,-50.923c-76.844,48.9 -99.845,152.367 -50.957,229.218"/><path id="path25320" d="M913.086,1834.8l-48.002,30.576l-12.109,-19.009l46.839,-29.835l13.272,18.268Z" style="fill-rule:nonzero;stroke:#000;stroke-width:8.93px;"/><path id="path25322" d="M878.312,1780.2l-55.042,35.061l-12.28,-18.9l54.048,-34.427l13.274,18.266Z" style="fill-rule:nonzero;stroke:#000;stroke-width:8.93px;"/><path id="path25326" d="M1096.45,1545.3l-4.869,164.73l-25.594,-47.362l-5.106,215.236l-41.927,0.056l23.302,-292.15l25.531,49.498l-6.45,-106.307l35.113,16.299Z" style="fill:#fff;fill-rule:nonzero;stroke:#000;stroke-width:8.93px;"/><path id="path25328" d="M749.423,1777.48l7.519,200.622l-21.668,-49.511l-16.999,194.235l-34.559,-2.731l7.73,-291.57l37.207,53.074l-7.251,-113.179l28.021,9.06Z" style="fill:#fff;fill-rule:nonzero;stroke:#000;stroke-width:8.93px;"/><path id="path26193" d="M1145.58,1553.42l144.759,-278.033l34.78,54.602l-138.999,266.972l-40.54,-43.541Z" style="fill-rule:nonzero;stroke:#000;stroke-width:8.93px;"/></g></g></g><g id="pato"><g id="pato1" serif:id="pato"><g id="corcopo"><path id="base" d="M2511.14,1304.77l-729.663,653.552l2.574,64.547c0,0 27.404,328.335 393.025,514.505l900.26,-466.602c0,-0 -509.784,-365.182 -566.196,-766.002Z" style="fill:#fff;fill-rule:nonzero;"/><path id="path48984" d="M2459.78,1342.62c-0,-0 -103.791,352.787 -39.455,485.177c64.336,132.391 107.161,130.157 106.598,243.951c-0.565,113.794 133.087,217.863 133.087,217.863l-125.3,66.497c0,0 -116.197,-95.755 -118.35,-219.681c-2.153,-123.925 -93.512,-153.534 -123.858,-319.379c-30.346,-165.845 66.395,-403.158 66.395,-403.158l100.883,-71.27Z" style="fill-rule:nonzero;"/><path id="cop2" d="M3127.45,2036.18c0,-0 -65.645,67.02 -143.803,42.769c-78.159,-24.251 -159.785,-131.332 -159.785,-131.332l-143.061,-164.388l-76.468,-105.669l-73.563,-157.45c-0,-0 -41.361,-105.666 -36.877,-160.383c4.485,-54.718 48.901,-94.841 48.901,-94.841l41.655,-18.909c-0,0 -45.52,79.045 24.143,223.383c69.664,144.338 141.432,247.535 141.432,247.535l96.145,123.992l86.641,93.5l92.891,76.673c-0,-0 77.943,40.925 101.749,25.12Z" style="fill:#fff;fill-rule:nonzero;stroke:#000;stroke-width:7.06px;"/><path id="cop" d="M2680.75,1621.25l-52.877,-108.658l-47.716,-125.871c0,0 -11.866,-81.764 -5.666,-113.349c6.198,-31.585 47.076,-50.903 47.076,-50.903l57.578,4.602l83.844,38.631l106.365,89.387l101.899,130.1l92.761,121.181l54.981,104.577l55.564,143.207l13.202,86.386l-12.21,58.492l-26.509,25.447l-33.065,9.477l-66.837,-12.2l-116.107,-90.657l-92.888,-100.137l-74.215,-92.905l-85.18,-116.807Z" style="fill:#fff;fill-rule:nonzero;stroke:#000;stroke-width:7.06px;"/><path id="path48987" d="M2077.81,1736.06c0,0 -47.733,85.932 -9.502,179.087c38.231,93.155 69.629,119.456 65.328,233.129c-4.301,113.673 175.279,315.052 175.279,315.052l-94.24,52.519c-0,0 -191.096,-196.377 -201.694,-294.383c-10.598,-98.006 7.314,-305.97 -58.01,-305.474c-65.324,0.495 -0.867,-119.321 -0.867,-119.321l123.706,-60.609Z" style="fill-rule:nonzero;"/></g><g id="copo1" serif:id="copo"><path id="path26828" d="M2726.98,1518.94c39.112,60.977 99.512,97.915 133.809,81.832c34.297,-16.083 30.343,-79.49 -8.759,-140.471c-39.101,-60.981 -99.503,-97.938 -133.811,-81.873c-34.308,16.064 -30.373,79.461 8.719,140.446"/><path id="path36901" d="M2847.96,1337.24c-0,-0 -152.78,-152.989 -242.001,-106.142c-89.221,46.846 10.776,303.675 113.117,443.83c102.34,140.155 289.982,381.077 404.793,359.763c114.812,-21.314 42.149,-223.721 -7.126,-332.476c-49.275,-108.756 -222.92,-329.211 -268.783,-364.975Z" style="fill:none;fill-rule:nonzero;stroke:#000;stroke-width:17.74px;stroke-linecap:round;stroke-linejoin:round;"/><path id="path36903" d="M3139.99,2028.63c-0,-0 -114.952,108.353 -216.284,16.905c-101.333,-91.448 -289.15,-295.445 -346.681,-425.697c-57.529,-130.251 -159.167,-319.602 13.983,-376.651" style="fill:none;fill-rule:nonzero;stroke:#000;stroke-width:17.74px;stroke-linecap:round;stroke-linejoin:round;"/><path id="path36905" d="M3091.7,2062.03l-919.091,476.678c-0,-0 -240.602,-118.49 -331.168,-337.692c-90.567,-219.201 -54.396,-245.981 -54.396,-245.981l730.69,-659.19" style="fill:none;fill-rule:nonzero;stroke:#000;stroke-width:17.74px;stroke-linecap:round;stroke-linejoin:round;"/><path id="corcanudo" d="M2843.35,1545.39l182.766,-169.887l61.72,71.062c0,-0 109.61,4.662 127.881,-109.014l-136.454,-146.541c0,-0 -69.595,-57.935 -123.099,4.45c-53.504,62.386 -218.698,244.818 -218.698,244.818l105.884,105.112Z" style="fill:#fff;fill-rule:nonzero;stroke:#000;stroke-width:7.06px;"/><path id="path36907" d="M2747.96,1427.28l208.232,-227.64c0,0 62.812,-68.776 125.884,-3.168c63.072,65.607 133.237,147.995 133.237,147.995c0,0 -28.927,109.803 -127.679,98.999l-111.345,-114.654" style="fill:none;fill-rule:nonzero;stroke:#000;stroke-width:17.74px;stroke-linecap:round;stroke-linejoin:round;"/><path id="path36909" d="M3025.01,1381.37l-198.24,178.704" style="fill:none;fill-rule:nonzero;stroke:#000;stroke-width:17.74px;stroke-linecap:round;stroke-linejoin:round;"/></g><g id="corpato"><path id="sapato" d="M2402.45,1767.58l20.529,-116.236l41.619,4.272c0,-0 3.262,-60.399 45.093,-70.129c41.829,-9.73 94.193,-2.129 93.635,87.472c-0.558,89.601 -33.774,124.061 -33.774,124.061l-167.102,-29.44Z" style="fill-rule:nonzero;stroke:#000;stroke-width:7.06px;"/><path id="cor-pato" serif:id="cor pato" d="M2303.71,1635.58c0,0 74.902,-76.432 97.105,-138.755c22.203,-62.323 41.864,-147.151 -24.171,-267.591c-66.035,-120.44 -259.294,-299.027 -259.294,-299.027c-0,0 -136.304,-144.508 -252.345,-128.791c-116.042,15.716 -159.991,80.008 -173.958,98.006c-13.967,17.999 -42.047,101.199 -27.965,153.992c0,0 114.661,-10.749 149.031,33.335c34.37,44.084 52.213,119.483 50.298,164.254c0,0 -139.339,-18.548 -146.058,9.561c-6.72,28.108 -2.444,43.687 48.819,82.863c51.264,39.175 89.058,21.724 83.973,59.313c-5.085,37.588 -59.217,99.631 -59.217,99.631c-0,0 -31.014,89.486 22.016,187.969c53.03,98.483 239.878,108.255 285.926,93.365c46.048,-14.89 111.655,-63.837 111.655,-63.837c0,0 132.963,50.797 194.143,51.583l21.929,-118.158c-0,-0 -93.187,-2.393 -121.887,-17.713Z" style="fill:#fff;fill-rule:nonzero;stroke:#000;stroke-width:7.06px;"/></g><g id="corfone"><path id="path49752" d="M2131.43,939.243l-164.532,-122.176l45.874,-4.703c0,-0 101.558,-5.193 118.658,126.879Z" style="fill-rule:nonzero;stroke:#000;stroke-width:7.06px;"/><path id="path49754" d="M1665.78,1054.06l-2.946,-26.7c0,-0 68.295,-9.605 115.976,16.012c47.68,25.616 84.661,47.216 100.325,106.119c15.666,58.903 3.856,107.785 3.856,107.785l-21.466,-5.632c0,-0 10.289,-233.774 -195.745,-197.584Z" style="fill-rule:nonzero;"/><path id="path49747" d="M1663.51,1054.87l-61.193,38.635l-6.495,-114.049c0,0 1.436,-166.123 92.897,-222.813c91.463,-56.69 203.98,-48.249 203.98,-48.249c-0,0 129.201,23.083 131.761,59.925c2.561,36.842 -20.817,51.582 -45.112,45.097c-24.295,-6.485 -133.544,-22.501 -186.189,-1.705c-52.646,20.797 -156.502,82.53 -129.649,243.159l-0,0Z" style="fill:#fff;fill-rule:nonzero;"/><path id="path49606" d="M2130.26,944.78c-0,0 5.954,-116.079 -127.497,-136.221c0,0 23.685,-14.319 19.048,-50.947c-0,0 163.914,-12.387 142.114,211.922l-33.665,-24.754Z" style="fill:#fff;fill-rule:nonzero;"/><path id="path49534" d="M1860.62,1255.6l-2.769,-68.381l-25.465,-73.141c-0,-0 -53.156,-63.882 -99.999,-62.663c-46.842,1.22 -64.783,2.022 -64.783,2.022c0,0 -41.738,12.443 -58.28,38.444c-16.541,26.001 -26.776,75.507 -26.776,75.507c0,0 -7.763,48.131 20.13,87.392c27.893,39.26 54.318,68.185 54.318,68.185l59.302,21.337l37.795,-9.401c0,-0 -82.126,-56.751 -34.378,-81.9c47.748,-25.148 140.905,2.599 140.905,2.599Z" style="fill:#fff;fill-rule:nonzero;"/></g><g id="pato2" serif:id="pato"><path id="path36919" d="M2093.41,1631.65c0,0 50.471,73.811 169.661,107.715c119.189,33.903 310.421,54.067 310.421,54.067c0,0 59.405,-143.187 9.823,-188.937c-49.582,-45.75 -111.893,-23.29 -120.444,51.525c0,-0 -170.042,9.69 -280.154,-93.779" style="fill:none;fill-rule:nonzero;stroke:#000;stroke-width:17.74px;stroke-linecap:round;stroke-linejoin:round;"/><path id="path36921" d="M2203.33,1721.37c-0,0 -126.623,106.767 -268.165,54.63c-141.542,-52.137 -192.679,-190.655 -134.559,-286.225c58.12,-95.571 72.472,-108.713 9.813,-125.459c-62.66,-16.746 -139.642,-98.522 -76.651,-114.42c62.991,-15.899 190.987,18.252 190.987,18.252" style="fill:none;fill-rule:nonzero;stroke:#000;stroke-width:17.74px;stroke-linecap:round;stroke-linejoin:round;"/><path id="path36923" d="M2305.09,1636.25c-0,0 201.64,-184.966 77.727,-389.994c-123.912,-205.027 -388.655,-454.082 -482.045,-444.354" style="fill:none;fill-rule:nonzero;stroke:#000;stroke-width:17.74px;stroke-linecap:round;stroke-linejoin:round;"/><path id="path36925" d="M1862.83,1256.05c0,-0 9.289,-186.17 -128.229,-203.717c-135.93,-17.344 -167.774,92.778 -147.577,166.406c20.197,73.629 76.073,135.025 168.106,119.616" style="fill:none;fill-rule:nonzero;stroke:#000;stroke-width:17.74px;stroke-linecap:round;stroke-linejoin:round;"/><path id="path36929" d="M1602.63,1092.04c0,-0 -42.712,-252.131 87.204,-335.769c129.916,-83.639 310.363,-37.649 328.082,6.794c17.72,44.442 -25.133,64.936 -78.988,44.182c-53.856,-20.754 -321.43,-9.24 -273.8,242.589" style="fill:none;fill-rule:nonzero;stroke:#000;stroke-width:17.74px;stroke-linecap:round;stroke-linejoin:round;"/><path id="path36931" d="M1664.04,1033.28c0,-0 113.628,-36.782 191.559,69.985c53.117,72.771 27.023,157.361 27.023,157.361" style="fill:none;fill-rule:nonzero;stroke:#000;stroke-width:17.74px;stroke-linecap:round;stroke-linejoin:round;"/><path id="path36933" d="M2000.83,808.972c-0,0 134.818,13.25 128.228,136.756" style="fill:none;fill-rule:nonzero;stroke:#000;stroke-width:17.74px;stroke-linecap:round;stroke-linejoin:round;"/><path id="path36935" d="M2015.6,759.322c0,-0 177.421,-10.379 146.008,217.164" style="fill:none;fill-rule:nonzero;stroke:#000;stroke-width:17.74px;stroke-linecap:round;stroke-linejoin:round;"/></g><g id="rostopato"><path id="path37463" d="M2043.12,985.859c-0,0 0.213,-49.989 -46.723,-36.695c-46.935,13.295 -88.195,101.528 -41.844,107.694c46.352,6.166 74.963,-44.751 88.567,-70.999Z" style="fill:#fff;fill-rule:nonzero;stroke:#000;stroke-width:17.74px;stroke-linecap:round;stroke-linejoin:round;"/><path id="path37465" d="M2012.58,874.825c0,0 -18.4,55.157 -54.895,44.55" style="fill:none;fill-rule:nonzero;stroke:#000;stroke-width:17.74px;stroke-linecap:round;stroke-linejoin:round;"/><path id="path37467" d="M1879.79,979.299c0,0 5.677,58.792 -49.987,60.903" style="fill:none;fill-rule:nonzero;stroke:#000;stroke-width:17.74px;stroke-linecap:round;stroke-linejoin:round;"/></g></g></g></svg>