<?xml version="1.0" encoding="UTF-8" standalone="no"?><!DOCTYPE svg PUBLIC "-//W3C//DTD SVG 1.1//EN" "http://www.w3.org/Graphics/SVG/1.1/DTD/svg11.dtd"><svg width="100%" height="100%" viewBox="0 0 1780 550" version="1.1" xmlns="http://www.w3.org/2000/svg" xmlns:xlink="http://www.w3.org/1999/xlink" xml:space="preserve" xmlns:serif="http://www.serif.com/" style="fill-rule:evenodd;clip-rule:evenodd;stroke-linejoin:round;stroke-miterlimit:2;"><g><g><g><path d="M740.684,444.081l-84.362,0l0,-326.724l84.362,-0l0,326.724Zm123.614,-125.911l-147.165,0l0,-67.742l147.165,0l-0,67.742Zm12.139,-132.803l-159.304,-0l0,-68.01l159.304,-0l-0,68.01Z" style="fill:#30aad8;fill-rule:nonzero;"/><path d="M740.684,444.081l-84.362,0l0,-326.724l84.362,-0l0,326.724Zm123.614,-125.911l-147.165,0l0,-67.742l147.165,0l-0,67.742Zm12.139,-132.803l-159.304,-0l0,-68.01l159.304,-0l-0,68.01Z" style="fill:#30aad8;fill-rule:nonzero;"/><g><rect x="894.344" y="99.435" width="80.992" height="344.646" style="fill:#30aad8;"/></g><g><path d="M1137.74,201.297l80.992,0l0,242.784l-75.592,0l-5.4,-59.7l0,-183.084Zm28.07,132.804c-0,22.019 -3.447,41.587 -10.34,58.819c-6.893,17.194 -16.887,30.75 -30.061,40.707c-13.173,9.956 -29.103,14.935 -47.791,14.935c-24.087,-0 -43.655,-7.008 -58.666,-20.986c-15.05,-13.977 -22.555,-36.992 -22.555,-69.005l-0,-157.274l80.762,0l-0,157.733c-0,5.093 0.996,9.459 3.025,13.135c2.03,3.638 5.093,6.472 9.191,8.386c4.135,1.953 9.19,2.911 15.164,2.911c10.608,-0 18.879,-2.068 24.776,-6.281c5.936,-4.174 10.072,-9.956 12.484,-17.385c2.375,-7.391 3.562,-15.815 3.562,-25.236l20.449,-0.459Z" style="fill:#30aad8;fill-rule:nonzero;"/></g><g><path d="M1336.72,262.108l31.861,-60.811l83.673,0l-62.152,118.022l65.33,124.762l-84.4,0l-34.541,-65.98l-33.891,65.98l-84.591,0l65.291,-124.762l-61.692,-118.022l84.592,0l30.52,60.811Z" style="fill:#30aad8;fill-rule:nonzero;"/></g><g><rect x="1456.69" y="201.297" width="80.992" height="242.784" style="fill:#30aad8;"/></g><g><path d="M1693.58,201.297l85.051,0l-78.081,242.784l-50.28,0l-1.341,-56.56l44.651,-186.224Zm-24.47,185.994l-0.881,56.79l-50.241,0l-78.12,-242.784l85.51,0l43.732,185.994Z" style="fill:#30aad8;fill-rule:nonzero;"/></g></g></g><g><g><path d="M424.603,513.791c78.601,-11.323 133.269,-84.299 121.945,-162.936l-32.719,-227.419c-11.323,-78.601 -84.299,-133.268 -162.937,-121.945l-227.419,32.72c-78.601,11.286 -133.268,84.299 -121.945,162.899l32.719,227.456c11.287,78.6 84.299,133.231 162.937,121.944l227.419,-32.719Zm-150.583,-303.152l33.344,-63.601l87.534,0l-64.998,123.452l68.27,130.474l-88.232,-0l-36.139,-69.006l-35.44,69.006l-88.49,-0l68.307,-130.474l-64.52,-123.452l88.453,0l31.911,63.601Z" style="fill:#30aad8;"/></g></g></g></svg>