<?xml version="1.0" encoding="UTF-8" standalone="no"?><!DOCTYPE svg PUBLIC "-//W3C//DTD SVG 1.1//EN" "http://www.w3.org/Graphics/SVG/1.1/DTD/svg11.dtd"><svg width="100%" height="100%" viewBox="0 0 7411 2284" version="1.1" xmlns="http://www.w3.org/2000/svg" xmlns:xlink="http://www.w3.org/1999/xlink" xml:space="preserve" xmlns:serif="http://www.serif.com/" style="fill-rule:evenodd;clip-rule:evenodd;stroke-linejoin:round;stroke-miterlimit:2;"><g><g><path d="M3086,1850.31l-351.509,-0l0,-1361.35l351.509,-0l-0,1361.35Zm515.058,-524.629l-613.188,-0l0,-282.259l613.188,0l-0,282.259Zm50.579,-553.346l-663.767,-0l0,-283.375l663.767,-0l0,283.375Z" style="fill:#fff;fill-rule:nonzero;"/><path d="M3086,1850.31l-351.509,-0l0,-1361.35l351.509,-0l-0,1361.35Zm515.058,-524.629l-613.188,-0l0,-282.259l613.188,0l-0,282.259Zm50.579,-553.346l-663.767,-0l0,-283.375l663.767,-0l0,283.375Z" style="fill:#fff;fill-rule:nonzero;"/><g><rect x="3726.25" y="414.287" width="337.467" height="1436.03" style="fill:#fff;"/></g><g><path d="M4740.4,838.712l337.466,-0l0,1011.6l-314.966,-0l-22.5,-248.75l-0,-762.85Zm116.958,553.35c-0,91.746 -14.363,173.279 -43.083,245.079c-28.721,71.642 -70.363,128.125 -125.255,169.613c-54.887,41.483 -121.262,62.229 -199.129,62.229c-100.362,-0 -181.896,-29.2 -244.441,-87.442c-62.709,-58.237 -93.98,-154.133 -93.98,-287.521l0,-655.308l336.509,-0l-0,657.221c-0,21.221 4.15,39.412 12.604,54.729c8.458,15.158 21.221,26.967 38.296,34.942c17.229,8.137 38.291,12.129 63.183,12.129c44.2,-0 78.663,-8.617 103.233,-26.171c24.734,-17.392 41.967,-41.483 52.017,-72.438c9.896,-30.795 14.842,-65.895 14.842,-105.15l85.204,-1.912Z" style="fill:#fff;fill-rule:nonzero;"/></g><g><path d="M5569.49,1092.09l132.754,-253.379l348.638,-0l-258.967,491.758l272.208,519.842l-351.666,-0l-143.921,-274.917l-141.213,274.917l-352.462,-0l272.046,-519.842l-257.05,-491.758l352.466,-0l127.167,253.379Z" style="fill:#fff;fill-rule:nonzero;"/></g><g><rect x="6069.36" y="838.712" width="337.467" height="1011.6" style="fill:#fff;"/></g><g><path d="M7056.4,838.712l354.379,-0l-325.338,1011.6l-209.5,-0l-5.587,-235.667l186.046,-775.933Zm-101.959,774.975l-3.671,236.625l-209.337,-0l-325.5,-1011.6l356.292,-0l182.216,774.975Z" style="fill:#fff;fill-rule:nonzero;"/></g></g></g><g><g><path d="M1769,2140.77c327.505,-47.179 555.288,-351.246 508.105,-678.9l-136.33,-947.579c-47.179,-327.504 -351.245,-555.283 -678.904,-508.104l-947.579,136.333c-327.504,47.025 -555.283,351.246 -508.104,678.746l136.329,947.733c47.029,327.5 351.246,555.13 678.904,508.1l947.579,-136.329Zm-627.429,-1263.13l138.934,-265.004l364.725,-0l-270.825,514.383l284.458,543.642l-367.633,-0l-150.58,-287.525l-147.666,287.525l-368.709,-0l284.613,-543.642l-268.833,-514.383l368.554,-0l132.962,265.004Z" style="fill:#fff;"/></g></g></svg>