<?xml version="1.0" encoding="UTF-8" standalone="no"?><!DOCTYPE svg PUBLIC "-//W3C//DTD SVG 1.1//EN" "http://www.w3.org/Graphics/SVG/1.1/DTD/svg11.dtd"><svg width="100%" height="100%" viewBox="0 0 1896 1594" version="1.1" xmlns="http://www.w3.org/2000/svg" xmlns:xlink="http://www.w3.org/1999/xlink" xml:space="preserve" xmlns:serif="http://www.serif.com/" style="fill-rule:evenodd;clip-rule:evenodd;"><path d="M1389.03,497.021l-29.733,-32.795l-39.371,-14.075l-35.287,2.683l-52.292,26.7l-38.417,27.829l-21.437,-4.962l-21.125,-15.592l-10.217,-10.725l-1.437,22.8l16.554,32.129l-7.559,3.2l-13.366,4.375l-36.421,-1.546l31.925,26.996l26.046,15.158l34.775,2.209c-0,-0 33.412,-5.317 31.862,-4.942c-1.55,0.371 -25.616,18.963 -25.616,18.963l30.833,5.654l22.262,14.871l34.834,23.841l26.166,11.463l24.759,2.208l26.896,-7.296l17.045,-18.704l9.646,-32.737l1.217,-90.3l1.567,-8.48l-4.109,1.075Z" style="fill:#4ac4d9;fill-rule:nonzero;stroke:#000;stroke-width:3.17px;"/><path d="M1450.7,494.038l-58.45,-37.425l-0.25,196.213l60.863,-36.763l-2.163,-122.025Z" style="fill:#fff;fill-rule:nonzero;stroke:#000;stroke-width:3.17px;"/><path d="M1542.18,423.106c0,-0 -2.979,-15.866 -9.879,-25.509c-6.9,-9.644 -19.8,-16.873 -38.708,-17.646c-18.909,-0.774 -34.221,8.324 -38.475,16.898c-4.254,8.573 -4.821,80.468 -4.821,80.468l0.9,180.167c-0,-0 -1.408,42.583 11.937,60.183c13.342,17.6 42.017,13.934 53.513,6.446c11.496,-7.487 18.046,-21.15 18.046,-21.15l48.633,-0.821c0,0 21.75,26.454 49.933,35.079c28.184,8.625 177.067,7.046 178.15,2.055c1.08,-4.992 27.8,0.47 44.359,-4.463c16.558,-4.937 28.187,-20.825 28.187,-20.825l4.175,-22.187l-5.708,-24.967l-17.463,-12.838l-6.554,-0.787l16.654,-11.396c0,0 13.238,-13.246 15.075,-24.625c1.838,-11.379 -6.979,-28.442 -6.979,-28.442l-20.462,-14.379l17.841,-15.95l10.067,-24.737l-0.675,-3.563l-2.029,-21.037l-12.525,-10.875l-13.742,-2.675l17.171,-10.092l5.792,-10.662l5.066,-14.296l-1.787,-21.675l-5.917,-14.463l-23.033,-8.633l-41.638,-1.273l-68.408,-4.2l-32.175,3.771l-5.458,0.621l-6.909,-15.917l-1.462,-26.84l1.904,-44.446l-7.092,-50.142l-10.279,-29.16l-25.075,-33.341l-38.091,-18.802l-17.192,-0.212l-19.871,16.275l-6.646,13.005l4.654,39.327l10.23,56.652l2.779,29.67l-6.8,31.526l-13.992,40.548l-35.221,0.335Z" style="fill:#fff;fill-rule:nonzero;"/><path d="M1539.25,422.819c0,-0 -1.346,-35.707 -35.696,-41.701c-34.35,-5.993 -47.654,4.417 -51.795,36.859c-4.138,32.44 0.129,262.536 0.129,262.536c-0,0 -0.163,45.633 35.837,49.129c36,3.5 46.604,-26.187 46.604,-26.187l48.838,-1.017" style="fill:none;fill-rule:nonzero;stroke:#000;stroke-width:10.37px;stroke-linecap:round;stroke-linejoin:round;"/><path d="M1571.9,679.709c0,-0 15.208,46.208 63.208,56.192c48.005,9.983 218.596,9.341 237.113,-6.205c18.517,-15.55 17.608,-42.095 12.954,-56.658c-4.654,-14.558 -19.475,-20.687 -42.696,-19.392c-23.221,1.292 -115.829,-4.67 -139.512,6.625c-23.688,11.292 -22.096,28.188 -15.121,48.134c6.975,19.95 16.587,33.583 46.075,33.808" style="fill:none;fill-rule:nonzero;stroke:#000;stroke-width:10.37px;stroke-linecap:round;stroke-linejoin:round;"/><path d="M1856.22,654.088c-0,0 31.537,-11.842 32.954,-38.642c1.417,-26.8 -14.183,-37.533 -28.746,-39.4c-14.562,-1.862 -154.4,4.371 -154.4,4.371c0,0 -30.333,6.7 -22.312,38.617c8.016,31.921 19.954,37.608 36.871,37.142" style="fill:none;fill-rule:nonzero;stroke:#000;stroke-width:10.37px;stroke-linecap:round;stroke-linejoin:round;"/><path d="M1859.21,575.876c0,-0 30.313,-10.334 30.7,-46.071c0.388,-35.738 -14.15,-33.129 -51.52,-34.304c-37.371,-1.171 -131.413,-9.521 -143.53,7.47c-12.12,16.992 -22.325,71.446 39.9,76.359" style="fill:none;fill-rule:nonzero;stroke:#000;stroke-width:10.37px;stroke-linecap:round;stroke-linejoin:round;"/><path d="M1859.13,496.405c0,-0 29.392,-6.546 31.213,-39.017c1.825,-32.475 -15.525,-44.594 -62.421,-43.427c-40.512,1.007 -124.204,-15.597 -139.625,21.298c-15.425,36.892 3.254,62.517 32.142,59.112" style="fill:none;fill-rule:nonzero;stroke:#000;stroke-width:10.37px;stroke-linecap:round;stroke-linejoin:round;"/><path d="M1714.54,416.486c-0,-0 -10.375,-3.432 -11.738,-28.9c-1.362,-25.467 15.071,-110.883 -29.554,-161.418c-44.625,-50.536 -89.217,-32.152 -92.329,4.926c-3.113,37.079 28.562,92.792 11.85,145.133c-16.708,52.34 -15.267,44.706 -15.267,44.706l-37.225,1.418" style="fill:none;fill-rule:nonzero;stroke:#000;stroke-width:10.37px;stroke-linecap:round;stroke-linejoin:round;"/><path d="M1452.78,615.571l-62.429,35.234l1.275,-193.696l60.638,37.85" style="fill:none;fill-rule:nonzero;stroke:#000;stroke-width:10.37px;stroke-linecap:round;stroke-linejoin:round;"/><path d="M1389.11,603.18c-0,-0 -9.463,53.596 -61.963,49.954c-52.496,-3.642 -70.5,-42.483 -98.246,-52.029c-27.741,-9.542 -29.479,-5.021 -29.479,-5.021l25.558,-21.296c0,0 -52.041,18.475 -86.012,-6.6c-33.971,-25.079 -40.367,-31.021 -40.367,-31.021c0,0 40.284,4.8 49.459,-1.512c9.175,-6.313 9.65,-4.113 9.65,-4.113c-0,0 -17.625,-18.204 -17.838,-34.916c-0.212,-16.717 2.221,-19.888 2.221,-19.888c-0,0 33.929,45.683 61.062,24.379c27.134,-21.3 126.534,-101.109 187.88,-2.858" style="fill:none;fill-rule:nonzero;stroke:#000;stroke-width:10.37px;stroke-linecap:round;stroke-linejoin:round;"/><path d="M140.626,818.892c0,0 -26.248,17.984 -31.942,34.938c-5.693,16.95 -8.557,34.908 -5.235,46.012c3.323,11.104 4.516,24.809 14.679,37.984c10.164,13.179 18.579,26.716 22.644,34.075c4.066,7.354 11.977,22.529 12.042,31.279c0.067,8.746 -11.792,41.979 -11.792,41.979c-0,-0 11.77,-0.65 18.152,-5.746c6.383,-5.1 16.645,-9.808 16.645,-9.808c-0,-0 7.612,15.254 8.432,22.116c0.82,6.867 -3.355,29.634 -3.355,29.634c-0,-0 23.059,-23.25 27.693,-37.5c4.633,-14.25 11.701,-32.475 11.253,-45.942c-0.448,-13.471 -5.606,-28.837 -5.606,-28.837l19.835,12.512c0,0 -3.027,-22.862 10.098,-36.642c13.125,-13.779 30.626,-29.129 36.713,-52.283c6.088,-23.15 0.514,-43.225 -3.027,-48.417c-3.541,-5.195 -19.346,-22.208 -26.887,-25.095c-7.541,-2.888 -20.612,-2.755 -20.612,-2.755l-89.73,2.496Z" style="fill:#fff;fill-rule:nonzero;stroke:#000;stroke-width:2.88px;"/><path d="M158.766,818.471c-0,0 -16.371,10.275 -18.882,22.4c-2.512,12.125 -3.255,25.267 -0.465,31.846c2.789,6.575 12.417,21.534 15.906,26.088c3.489,4.554 10.023,18.262 10.691,23.133c0.668,4.871 -1.356,13.492 -1.356,13.492l-5.294,13.333c0,0 8.876,-1.621 12.45,-5c3.574,-3.379 7.198,-4.425 7.198,-4.425c-0,0 4.403,7.121 5.242,12.346c0.839,5.225 -1.639,17.708 -1.639,17.708l14.173,-18.716c-0,-0 5.818,-12.625 6.803,-19.555c0.985,-6.929 1.626,-16.337 0.583,-18.291c-1.043,-1.95 -2.742,-9.046 -2.742,-9.046l11.615,7.85c-0,-0 0.54,-13.263 3.16,-16.988c2.62,-3.72 19.02,-23.095 20.353,-25.491c1.333,-2.4 6.384,-10.754 5,-20.834c-1.383,-10.079 -3.921,-15.429 -3.921,-15.429c-0,0 -4.252,-7.371 -7.807,-9.587c-3.554,-2.213 -10.212,-6.054 -10.212,-6.054l-60.856,1.22Z" style="fill:#4ac4d9;fill-rule:nonzero;"/><path d="M145.553,420.441l1.224,-51.44l17.38,-72.546l20.455,-85.562l4.95,-18.923c0,0 8.601,-14.917 15.279,-21.212c6.677,-6.295 24.086,-12.763 31.747,-14.617c7.661,-1.854 22.546,12.339 22.546,12.339c-0,-0 5.983,17.314 7.305,22.788c1.323,5.475 1.629,29.757 1.629,29.757l-7.858,43.968l-15.484,61.785c-0,0 16.205,-2.748 24.893,2.089c8.688,4.837 15.038,27.044 15.038,27.044c-0,-0 11.442,-24.292 34.556,-26.725c23.114,-2.433 32.926,4.88 37.002,17.373c4.077,12.493 7.913,60.806 7.913,60.806c-0,0 1.998,58.231 2.73,65.906c0.733,7.675 -6.057,45.959 -6.648,49.705c-0.59,3.745 1.028,6.095 1.531,12.833c0.502,6.737 1.483,43.608 -0.78,53.708c-2.262,10.1 -2.557,17.754 -6.862,22.546c-4.307,4.788 -20.107,17.8 -22.719,29.096c-2.612,11.3 0.732,34.867 0.048,36.062c-0.689,1.196 23.008,11.705 23.763,31.005c0.753,19.3 -2.394,29.775 -9.268,36.504c-6.874,6.729 -18.043,12.291 -30.261,11.362c-12.218,-0.925 -69.736,-0.462 -69.736,-0.462l41.06,60.029l-178.648,2.992l38.381,-64.43l-82.575,-2.183c0,0 -18.076,-4.817 -23.322,-17.379c-5.245,-12.558 -2.863,-26.017 -1.999,-29.396c0.863,-3.379 7.396,-14.967 17.276,-19.071c9.879,-4.104 19.507,-7.704 19.507,-7.704l-2.612,-47.967l-42.61,-43.041c-0,-0 -17.866,-21.429 -21.953,-32.8c-4.088,-11.375 -4.066,-29.129 6.929,-42.279c10.994,-13.15 37.692,-37.171 37.692,-37.171l23.997,-17.967l-14.754,-57.388l-25.81,-110.524l-11.777,-50.964l0.634,-43.312c-0,0 4.555,-34.352 24.74,-39.469c20.185,-5.117 41.102,19.745 41.102,19.745c0,-0 13.204,18.625 17.237,32.5c4.033,13.873 15.967,69.833 15.967,69.833l19.158,90.322l2.007,52.435Z" style="fill:#fff;fill-rule:nonzero;stroke:#000;stroke-width:2.88px;"/><path d="M91.61,647.571c0,0 -48.741,-45.337 -67.473,-68.162c-18.732,-22.825 -27.343,-46.054 -3.891,-73.088c23.453,-27.033 95.361,-85.453 126.005,-70.216c30.644,15.233 23.322,55.9 -4.415,75.208c-27.737,19.313 -64.96,46.113 -64.96,46.113c0,-0 100.675,-74.755 183.623,4.395" style="fill:none;fill-rule:nonzero;stroke:#000;stroke-width:6.14px;stroke-linecap:round;stroke-linejoin:round;"/><path d="M75.449,457.255c0,-0 -37.125,-163.187 -46.458,-199.046c-9.333,-35.858 -6.754,-89.728 16.043,-100.116c22.797,-10.389 52.588,11.895 62.227,48.757c9.639,36.862 38.054,168.565 38.054,168.565l-0.349,47.328l0.786,-49.317l42.288,-179.853c0,-0 17.421,-37.5 48.873,-36.67c31.453,0.83 32.677,44.973 30.775,65.441c-1.902,20.468 -23.23,103.991 -23.23,103.991" style="fill:none;fill-rule:nonzero;stroke:#000;stroke-width:6.14px;stroke-linecap:round;stroke-linejoin:round;"/><path d="M287.544,515.109c0,-0 -16.873,32.362 -43.277,27.054c-26.403,-5.312 -25.048,-28.617 -26.884,-50.958c-1.836,-22.342 -19.48,-156.634 27.053,-164.609c46.535,-7.975 40.043,36.67 40.72,69.071c0.678,32.4 2.388,119.442 2.388,119.442Z" style="fill:none;fill-rule:nonzero;stroke:#000;stroke-width:6.14px;stroke-linecap:round;stroke-linejoin:round;"/><path d="M284.403,359.339c-0,0 4.218,-27.516 37.179,-30.103c32.961,-2.588 37.704,15.988 40.479,50.495c2.776,34.506 10.978,133.236 -7.447,150.711c-18.426,17.479 -61.398,16.629 -67.102,-14.925" style="fill:none;fill-rule:nonzero;stroke:#000;stroke-width:6.14px;stroke-linecap:round;stroke-linejoin:round;"/><path d="M117.911,421.74l95.013,1.158" style="fill:none;fill-rule:nonzero;stroke:#000;stroke-width:6.14px;stroke-linecap:round;stroke-linejoin:round;"/><path d="M360.271,522.955c0,-0 6.885,73.204 -6.972,89.287c-13.858,16.088 -23.978,23.734 -23.191,35.688c0.787,11.95 0.35,29.85 0.35,29.85c0,-0 24.418,13.079 25.697,34.058c1.279,20.979 -11.103,43.796 -40.567,44.104c-29.464,0.309 -249.057,-3.483 -249.057,-3.483c-0,-0 -27.398,-1.846 -28.95,-34.854c-1.552,-33.009 37.562,-38.425 37.562,-38.425l-1.995,-49.846" style="fill:none;fill-rule:nonzero;stroke:#000;stroke-width:6.14px;stroke-linecap:round;stroke-linejoin:round;"/><path d="M147.488,754.071l-39.131,64.359l179.264,-2.463l-41.42,-60.987" style="fill:none;fill-rule:nonzero;stroke:#000;stroke-width:6.14px;stroke-linecap:round;stroke-linejoin:round;"/><path d="M142.197,818.38c-0,-0 -36.235,18.95 -38.891,55.125c-2.655,36.179 5.227,51.546 20.953,72.479c15.727,20.929 30.36,49.017 27.989,65.325c-2.372,16.304 -12.739,34.408 -12.739,34.408c0,0 14.284,-2.375 22.917,-8.912c8.634,-6.534 12.514,-7.559 12.514,-7.559c-0,0 6.83,7.975 8.688,22.642c1.858,14.667 -4.743,31.058 -4.743,31.058c0,0 28.189,-27.525 34.79,-51.866c6.601,-24.338 8.485,-39.629 3.84,-51.696c-4.645,-12.071 -4.47,-12.108 -4.47,-12.108l21.191,15.004c0,-0 -4.896,-20.671 10.218,-36.938c15.115,-16.271 40.915,-41.854 39.985,-72.954c-0.928,-31.096 -19.595,-49.208 -40.622,-55.458" style="fill:none;fill-rule:nonzero;stroke:#000;stroke-width:6.14px;stroke-linecap:round;stroke-linejoin:round;"/><path d="M160.321,818.088c0,0 -20.806,10.879 -22.331,31.654c-1.525,20.771 3.001,29.596 12.031,41.617c9.03,12.017 17.433,28.146 16.071,37.508c-1.362,9.363 -7.314,19.759 -7.314,19.759c-0,-0 8.201,-1.363 13.159,-5.117c4.957,-3.754 7.185,-4.342 7.185,-4.342c-0,0 3.922,4.579 4.989,13c1.067,8.421 -2.724,17.834 -2.724,17.834c0,-0 16.186,-15.805 19.976,-29.78c3.791,-13.975 4.872,-22.754 2.206,-29.683c-2.668,-6.929 -2.567,-6.954 -2.567,-6.954l12.167,8.617c0,-0 -2.811,-11.871 5.868,-21.213c8.678,-9.342 23.492,-24.029 22.959,-41.887c-0.533,-17.859 -11.252,-28.259 -23.325,-31.842" style="fill:none;fill-rule:nonzero;stroke:#000;stroke-width:3.53px;stroke-linecap:round;stroke-linejoin:round;"/><path d="M1336.76,473.492c-0,0 65.195,31.317 116,70.642c50.808,39.325 96.095,83.571 116.991,106.904c20.9,23.333 58.579,73.792 76.259,101.929c17.683,28.134 46.316,84.579 54.629,104.913c8.308,20.333 36.258,99.641 40.912,116.762c4.654,17.121 23.496,83.513 25.592,122.025c2.1,38.513 3.358,71.8 3.358,71.8c0,0 -1.825,50.25 -7.7,76.284c-5.871,26.037 -19.621,61.545 -38.7,91.587c-19.079,30.042 -74.483,57.804 -74.483,57.804c-0,0 -48.154,12.646 -73.129,15.204c-24.975,2.559 -64.713,-2.912 -64.713,-2.912l-47.558,-213.013l39.271,-227.841l-126.929,-137.779l-39.463,-6.675c0,-0 53.433,-113.95 45.379,-155.675c-8.05,-41.725 -101.312,-147.175 -101.312,-147.175l51.225,-50.271l4.371,5.487Z" style="fill:#fff;fill-rule:nonzero;stroke:#000;stroke-width:5.79px;"/><path d="M512.794,511.851l-16.042,6.883c0,-0 -25.787,10.492 -36.962,17.562c-11.179,7.067 -61.83,35.813 -73.089,45.038c-11.257,9.221 -57.29,46.504 -63.664,53.333c-6.373,6.834 -43.367,46.338 -49.281,53.971c-5.914,7.633 -33.248,44.846 -37.314,52.508c-4.066,7.659 -30.721,54.175 -35.266,62.442c-4.545,8.271 -29.242,58.379 -34.576,68.175c-5.335,9.796 -25.626,65.975 -25.626,65.975l-25.94,78.679l-16.92,72.109c0,-0 -9.415,66.216 -10.334,77.379c-0.919,11.166 -1.078,44.754 -1.078,44.754c-0,-0 1.519,33.346 3.457,50.129c1.939,16.788 5.895,38.354 7.593,42.475c1.698,4.121 8.281,20.317 8.281,20.317c0,-0 13.115,31.966 29.667,49.141c16.553,17.175 30.648,28.18 30.648,28.18c-0,-0 27.877,15.379 43.141,22.512c15.264,7.129 52.038,10.983 52.038,10.983l23.276,-2.012l14.755,-6.858l4.814,-8.725l93.874,-223.242l25.515,-331.946l77.958,-267.446l51.387,-42.679l-40.312,-39.637Z" style="fill-rule:nonzero;stroke:#000;stroke-width:5.79px;"/><path d="M395.562,900.242c-0,0 -78.476,-220.233 101.89,-329.521c180.367,-109.283 430.592,-163.52 532.017,-311.727c101.429,-148.207 198.575,-313.413 375.125,-219.691c176.55,93.721 31.017,297.588 -13.85,364.824c-44.863,67.236 -146.779,190.59 -389.658,237.99c-242.875,47.4 -507.33,144.854 -605.524,258.125Z" style="fill:#fff;fill-rule:nonzero;stroke:#000;stroke-width:5.79px;"/><path d="M1288.76,516.517c0,0 87.871,33.942 109.696,127.779c21.821,93.838 -3.433,169.9 -161.196,247.009c-152.987,74.775 -463.383,126.404 -609.191,186.387c-143.079,58.854 -266.634,158.542 -266.634,158.542c0,-0 -88.458,-174.792 12.591,-309.058c101.051,-134.267 356.464,-229.759 538.055,-261.3c181.592,-31.542 297.421,-81.925 376.679,-149.359Z" style="fill-rule:nonzero;stroke:#000;stroke-width:5.79px;"/><path d="M1352.36,817.401c-0,-0 92.575,-18.938 151.429,122.029c58.854,140.966 -52.15,320.875 -156.729,370.462c-104.575,49.588 -719.555,176.804 -764.821,204c-45.263,27.196 -186.693,62.763 -254.156,-36.546c-67.463,-99.308 6.817,-228.62 78.328,-276.766c71.511,-48.15 250.061,-151.888 524.211,-211.563c274.146,-59.675 393.204,-143.316 421.738,-171.616Z" style="fill:#fff;fill-rule:nonzero;stroke:#000;stroke-width:5.79px;"/><path d="M535.19,1535.46c-0,0 369.266,33.317 558.416,35.004c189.146,1.692 381.067,-41.508 420.571,-159.696c39.504,-118.187 -31.033,-214.245 -41.8,-216.141c-10.766,-1.9 -14.433,83.662 -222.583,146.396c-208.15,62.733 -621.367,139.766 -714.604,194.437Z" style="fill-rule:nonzero;stroke:#000;stroke-width:5.79px;"/><path d="M532.573,549.459c0,-0 -158.088,-198.303 -161.841,-274.678c-3.754,-76.374 34.878,-188.981 168.862,-201.76c133.987,-12.78 173.229,82.832 213.858,160.334c40.629,77.502 135.954,146.446 135.954,146.446c0,-0 -270.9,135.858 -356.833,169.658Z" style="fill-rule:nonzero;stroke:#000;stroke-width:5.79px;"/><path d="M511.915,511.867c-0,0 -167.688,61.667 -269.296,220.096c-101.609,158.429 -178.453,383.55 -150.187,546.392c28.266,162.837 206.935,174.587 210.828,139.466" style="fill:none;fill-rule:nonzero;stroke:#000;stroke-width:5.79px;"/><path d="M1336.76,473.967c0,0 234.521,100.104 354.371,363.884c119.85,263.775 136.017,603.995 -179.091,569.216" style="fill:none;fill-rule:nonzero;stroke:#000;stroke-width:5.79px;"/><path d="M1266.29,271.531c14.475,7.879 38.37,-8.154 53.375,-35.812c15.004,-27.657 15.437,-56.465 0.966,-64.344c-14.475,-7.879 -38.371,8.153 -53.375,35.811c-15.004,27.657 -15.437,56.465 -0.966,64.345Z" style="fill-rule:nonzero;stroke:#000;stroke-width:4.24px;"/><path d="M1158.88,210.246c14.709,8.43 39.275,-6.874 54.875,-34.183c15.6,-27.308 16.325,-56.28 1.621,-64.71c-14.708,-8.429 -39.275,6.875 -54.875,34.183c-15.6,27.309 -16.325,56.28 -1.621,64.71Z" style="fill-rule:nonzero;stroke:#000;stroke-width:4.3px;"/><path d="M613.365,310.131c14.362,-8.062 13.55,-36.858 -1.813,-64.318c-15.362,-27.46 -39.458,-43.185 -53.816,-35.124c-14.363,8.062 -13.55,36.858 1.812,64.318c15.363,27.46 39.458,43.186 53.817,35.124Z" style="fill:#fff;fill-rule:nonzero;stroke:#fff;stroke-width:4.24px;"/><path d="M699.036,265.625c14.479,-7.365 14.675,-36.093 0.441,-64.165c-14.233,-28.072 -37.504,-44.858 -51.983,-37.493c-14.475,7.366 -14.671,36.093 -0.438,64.165c14.234,28.072 37.505,44.859 51.98,37.493Z" style="fill:#fff;fill-rule:nonzero;stroke:#fff;stroke-width:4.21px;"/><path d="M648.744,371.379c-0,-0 67.442,-0.506 71.379,-62.061" style="fill:none;fill-rule:nonzero;stroke:#fff;stroke-width:5.79px;"/><path d="M1134.74,258.491c-0,0 3.77,85.845 76.15,63.052" style="fill:none;fill-rule:nonzero;stroke:#000;stroke-width:5.79px;"/><path d="M1076.65,536.238l-271.317,320.946l192.784,325.429l263.812,-325.979l-185.279,-320.396Z" style="fill:#fff;fill-rule:nonzero;stroke:#000;stroke-width:8.11px;"/><path d="M1245.44,873.363l-47.667,43.429l-169.041,228.109l200.591,-247.825l16.117,-23.713Z" style="fill-rule:nonzero;stroke:#000;stroke-width:8.11px;"/><path d="M1076.29,534.438l-272.2,322.471l194.254,328.804l263.108,-328.712l-185.162,-322.563Z" style="fill:none;fill-rule:nonzero;stroke:#000;stroke-width:8.11px;stroke-linecap:round;stroke-linejoin:round;"/><path d="M807.265,857.746l393.771,56.471l59.55,-55.796" style="fill:none;fill-rule:nonzero;stroke:#000;stroke-width:8.11px;stroke-linecap:round;stroke-linejoin:round;"/><path d="M1200.78,909.976l-123.954,-370.93" style="fill:none;fill-rule:nonzero;stroke:#000;stroke-width:8.11px;stroke-linecap:round;stroke-linejoin:round;"/><path d="M1060.55,767.98c7.088,1.525 16.763,-15.613 21.617,-38.279c4.854,-22.667 3.046,-42.28 -4.042,-43.809c-7.083,-1.525 -16.762,15.613 -21.616,38.279c-4.855,22.667 -3.046,42.28 4.041,43.809Z" style="fill-rule:nonzero;"/><path d="M988.211,753.392c7.083,1.525 16.762,-15.612 21.616,-38.279c4.854,-22.667 3.046,-42.283 -4.041,-43.808c-7.088,-1.525 -16.763,15.612 -21.617,38.279c-4.854,22.667 -3.046,42.279 4.042,43.808Z" style="fill-rule:nonzero;"/><path d="M944.452,784.355c0,-0 76.996,55.116 139.6,11.737" style="fill:none;fill-rule:nonzero;stroke:#000;stroke-width:8.11px;stroke-linecap:round;stroke-linejoin:round;"/><path d="M1009.94,715.351c4.804,1.033 8.987,0.516 9.346,-1.155c0.354,-1.67 -3.246,-3.866 -8.05,-4.9c-4.8,-1.037 -8.984,-0.52 -9.342,1.155c-0.358,1.67 3.246,3.862 8.046,4.9Z" style="fill:#fff;fill-rule:nonzero;"/><path d="M1082.17,728.83c4.804,1.033 8.987,0.516 9.342,-1.154c0.358,-1.671 -3.242,-3.867 -8.046,-4.9c-4.8,-1.034 -8.984,-0.517 -9.342,1.154c-0.358,1.671 3.246,3.862 8.046,4.9Z" style="fill:#fff;fill-rule:nonzero;"/><path d="M1201.07,913.392l-203.137,267.167" style="fill:none;fill-rule:nonzero;stroke:#000;stroke-width:8.11px;stroke-linecap:round;stroke-linejoin:round;"/><path d="M1026.06,1039.25c18.284,1.263 34.15,-12.558 35.396,-30.87l3.613,-52.963c1.246,-18.304 -12.579,-34.2 -30.875,-35.467l-52.909,-3.67c-18.283,-1.275 -34.15,12.558 -35.395,30.866l-3.613,52.967c-1.254,18.3 12.583,34.192 30.875,35.467l52.908,3.67Zm-19.329,-75.795l10.604,-12.746l19.755,4.258l-20.638,24.721l9.096,32.792l-19.913,-4.292l-4.816,-17.342l-11.338,13.863l-19.971,-4.304l21.725,-26.15l-8.591,-31.021l19.962,4.3l4.125,15.921Z"/><path d="M1258.54,790.126c-13.471,-2.8 -27.513,-5.438 -42.029,-7.905c0.162,0.217 0.291,0.455 0.45,0.675c0.3,0.425 0.604,0.846 0.904,1.275c1.325,1.921 2.45,3.909 3.546,5.971c0.729,1.463 1.362,2.988 1.858,4.55c43.975,9.442 79.704,20.688 104.133,32.771c24.429,12.088 36.842,24.658 36.171,36.642c-0.558,9.754 -9.783,18.908 -27.142,26.933c-17.358,8.029 -42.512,14.771 -74.029,19.842c-31.516,5.075 -68.775,8.379 -109.646,9.725c-40.87,1.35 -84.558,0.712 -128.566,-1.871c-44.004,-2.583 -87.467,-7.063 -127.904,-13.183c-40.442,-6.121 -77.063,-13.759 -107.78,-22.484c-30.716,-8.729 -54.925,-18.366 -71.237,-28.371c-16.317,-10 -24.425,-20.17 -23.858,-29.925c0.858,-13.77 18.962,-26.25 52.295,-36.05c33.338,-9.8 80.588,-16.533 136.48,-19.441c0.42,-0.784 1.062,-1.488 1.6,-2.142c1.55,-1.908 1.233,-1.5 3.029,-3.412c0.696,-0.609 1.391,-1.217 2.083,-1.825c0.121,-0.088 0.233,-0.159 0.354,-0.238c0.009,-0.012 0.017,-0.025 0.034,-0.033c0.545,-0.488 0.891,-0.792 1.137,-1.009c-71.554,2.425 -132.979,9.98 -176.562,21.709c-43.58,11.729 -67.371,27.112 -68.384,44.216c-0.662,11.396 8.809,23.275 27.867,34.959c19.062,11.687 47.337,22.946 83.217,33.137c35.879,10.192 78.662,19.117 125.895,26.267c47.238,7.15 98.009,12.383 149.413,15.4c51.4,3.017 102.433,3.758 150.175,2.183c47.742,-1.571 91.262,-5.433 128.079,-11.358c36.813,-5.925 66.196,-13.8 86.479,-23.175c20.279,-9.375 31.054,-20.067 31.713,-31.463c0.829,-14.27 -14.229,-29.254 -43.846,-43.625c-29.613,-14.366 -72.867,-27.675 -125.929,-38.745Zm-169.742,-23.98c-0.621,-0.05 -1.237,-0.1 -1.858,-0.15c0.058,0.055 0.116,0.109 0.129,0.142c0.579,0.008 1.154,-0.008 1.729,0.008Zm-181.283,2.096c-0.104,0.004 -0.209,0.013 -0.313,0.017c0.1,-0.008 0.213,-0.025 0.313,-0.017Zm-0.313,0.017c-0.104,0.004 -0.204,0.004 -0.308,0.012c0.1,-0.008 0.208,-0.02 0.308,-0.012Zm-0.308,0.012c-1.013,0.009 -2.021,0.009 -3.038,0.025c-0.033,0.021 -0.066,0.055 -0.1,0.08c1.046,-0.042 2.088,-0.071 3.138,-0.105Z" style="fill:#4ac4d9;"/><path d="M1186.35,659.359c11.246,2.421 22.313,-4.738 24.725,-15.992c2.409,-11.254 -4.754,-22.346 -16,-24.766c-11.246,-2.425 -22.316,4.733 -24.725,15.991c-2.408,11.254 4.754,22.342 16,24.767Z" style="fill-rule:nonzero;"/><path d="M1330.48,742.642c9.088,1.959 18.038,-3.829 19.984,-12.925c1.95,-9.1 -3.842,-18.062 -12.934,-20.021c-9.087,-1.962 -18.037,3.825 -19.983,12.925c-1.95,9.1 3.842,18.063 12.933,20.021Z" style="fill:#4ac4d9;fill-rule:nonzero;"/><path d="M800.931,607.901c15.742,3.391 31.238,-6.634 34.613,-22.388c3.371,-15.754 -6.658,-31.275 -22.4,-34.671c-15.742,-3.391 -31.233,6.634 -34.608,22.388c-3.371,15.754 6.654,31.275 22.395,34.671Z" style="fill-rule:nonzero;"/><path d="M797.936,1175.87c11.341,2.442 22.508,-4.779 24.937,-16.133c2.429,-11.35 -4.796,-22.538 -16.137,-24.979c-11.342,-2.446 -22.509,4.775 -24.938,16.129c-2.429,11.354 4.796,22.537 16.138,24.983Z" style="fill:#4ac4d9;fill-rule:nonzero;"/><path d="M885.069,692.405c9.342,2.012 18.542,-3.934 20.542,-13.284c2,-9.35 -3.95,-18.562 -13.292,-20.579c-9.342,-2.012 -18.538,3.938 -20.542,13.288c-2,9.35 3.95,18.562 13.292,20.575Z" style="fill:#4ac4d9;fill-rule:nonzero;"/><path d="M1188.57,1147.39c15.279,3.292 30.317,-6.437 33.588,-21.725c3.275,-15.287 -6.459,-30.354 -21.734,-33.646c-15.279,-3.291 -30.316,6.434 -33.587,21.725c-3.275,15.288 6.458,30.35 21.733,33.646Z" style="fill-rule:nonzero;"/><path d="M867.027,1083.85c13.588,2.929 26.959,-5.721 29.871,-19.317c2.908,-13.596 -5.746,-26.992 -19.329,-29.921c-13.588,-2.929 -26.958,5.721 -29.871,19.317c-2.908,13.6 5.746,26.996 19.329,29.921Z" style="fill-rule:nonzero;"/><path d="M1196.97,1050c9.171,1.975 18.196,-3.862 20.158,-13.041c1.967,-9.175 -3.875,-18.217 -13.045,-20.192c-9.171,-1.979 -18.196,3.858 -20.159,13.038c-1.966,9.179 3.875,18.22 13.046,20.195Z" style="fill:#4ac4d9;fill-rule:nonzero;"/><path d="M1360.08,1422.57l18.809,-9.416l22.525,-16.038l18.196,-16l24.462,-11.187l24.046,-18.621l10.929,-15.054l15.596,-21.763l21.158,-25.25l13.842,-14.042l21.525,-18.175l18.821,-8.2l8.875,3.842l5.558,7.325l0.879,6.383l-3.766,9.346l-17.367,13.479l-16.942,16.705l-24.458,36.52l-18.371,27.017l-27.008,27.317l-26.467,20.429l-22.079,12.108l-13.142,3.034l-3.533,-9.771l-10.608,-2.367l-24.467,0.946l-17.013,1.433Z" style="fill-rule:nonzero;"/><path d="M1241.72,1434.9c0,-0 0.579,-10.221 -8.233,-14.534c-8.813,-4.316 -30.525,-5.271 -30.525,-5.271l-37.596,-4.287l-41.788,-11.179l-31.575,-16.671l-39.012,-31.833l-37.667,-24.255l-26.762,-8.766l-12.3,-0.55l-6.009,6.266l-2.412,11.209l4.762,6.816l18.775,6.863l22.075,9.817l20.996,20.937l49.325,35.079l56.825,30.909l26.225,11.566l16.446,1.984l3.775,-8.909l8.067,-7.737l14.912,-4.338l18.004,-1.816l13.692,-1.3Z" style="fill-rule:nonzero;"/><path d="M1059.42,1160.97c0,0 19.496,17.775 26.742,32.33c7.241,14.55 12.408,29.304 10.571,47.291c-1.838,17.984 -4.43,65.338 -4.43,65.338c0,-0 -1.858,24.971 6.405,45.5c8.266,20.525 19.966,36.079 19.966,36.079l12.296,14.283c0,0 45.058,10.484 46.046,10.709c0.983,0.229 27.6,3.275 35.192,3.32c7.591,0.059 19.554,0.755 24.537,7.371c4.983,6.621 5.621,13.071 5.621,13.071l66.887,-7.967l50.271,-4.958c0,0 22.834,-11.279 30.975,-17.167c8.142,-5.883 30.504,-25.75 33.85,-30.041c3.35,-4.296 21.209,-26.392 25.467,-34.542c4.254,-8.154 13.367,-26.937 14.475,-31.983c1.108,-5.046 6.804,-24.675 6.267,-31.542c-0.538,-6.867 -0.95,-23.958 -5.596,-38.025c-4.65,-14.067 -14.034,-32.15 -14.034,-32.15l-20.241,-31.608c-0,-0 -13.621,-20.563 -15.459,-28.546c-1.833,-7.983 -1.541,-21.654 -1.541,-21.654l4.4,-21.892l9.283,-21.112c0,-0 -27.333,13.483 -34.587,15.7c-7.259,2.216 -39.43,5.708 -39.43,5.708l-53.195,2.371l-47.213,8.437l-37.658,11.6l-40.792,16.575l-31.971,11.725l-38.216,7.509l-33.417,-0.071l-11.471,-1.659Z" style="fill:#30aad8;fill-rule:nonzero;"/><path d="M1142.81,1155.32c0,0 -40.462,9.921 -63.125,8.188c-22.662,-1.738 -35.504,-10.521 -35.504,-10.521c0,-0 -24.75,-14.063 -37.546,-29.1c-12.795,-15.042 -27.966,-43.454 -27.966,-43.454c-0,-0 -5.609,-19.829 6.429,-41.809c12.033,-21.979 36.517,-39.37 49.425,-47.85c12.904,-8.475 40.379,-16.229 51.575,-17.487c11.196,-1.258 25.4,-5.446 35.179,-5.488c9.779,-0.041 27.529,-1.229 27.529,-1.229l54.579,-9.25c0,0 46.421,-11.008 53.142,-15.541c6.725,-4.534 19.038,-10.459 19.038,-10.459c-0,0 29.85,-13.691 56.725,-12.433c26.87,1.258 37.22,-0.825 50.087,3.317c12.867,4.141 26.621,2.22 40.921,10.941c14.3,8.725 24.117,20.909 24.117,20.909c-0,-0 8.908,13.791 11.425,20.95c2.52,7.154 4.895,30.141 4.845,35.941c-0.041,5.8 -3.695,28.079 -3.695,28.079c-0,0 -4.396,17.642 -7.571,21.3c-3.175,3.659 -23.079,22.296 -23.079,22.296l-14.555,6.859l-25.583,9.487l-35.387,5.508l-49.1,1.996l-42.025,7.046l-28.467,6.85l-48.283,17.996l-29.988,13.479l-13.142,3.479Z" style="fill:#30aad8;fill-rule:nonzero;stroke:#000;stroke-width:4.17px;"/><path d="M1157.82,1099.49c0,0 -46.542,17.475 -52.646,19.288c-6.104,1.812 -26.541,-1.692 -26.541,-1.692c-0,-0 -19.955,-5.533 -29.171,-12.746c-9.217,-7.212 -19.746,-20.712 -19.746,-20.712l-7.833,-17.509l-1.205,-15.55l5.355,-13.221l9.558,-11.783l24.154,-13.542l22.933,-6.47l31.309,-2.092l47.271,-3.425l45.045,-10.292l26.834,-6.271l30.829,-11.425l12.971,-9.254c-0,0 35.229,-16.15 59.221,-16.837c23.991,-0.684 43.17,-2.188 43.17,-2.188l21.459,7.554l11.241,10.888l9.025,15.054l5.613,21.867l-0.238,20.246l-6.466,12.8l-12.846,11.941l-16.146,7.463l-45.008,8.666l-30.263,-2.7l-42.925,2.78l-39.575,9.779l-40.916,13.812l-34.463,15.571Z" style="fill:#fff;fill-rule:nonzero;"/><path d="M1147.6,967.001c0,-0 -92.891,-2.392 -133.529,38.041c-40.633,40.429 -48.9,63.963 -19.762,102.409c29.137,38.445 38.816,38.058 57.691,49.616c18.879,11.554 81.209,5.9 122.542,-13.487c41.333,-19.392 93.483,-37.354 157.492,-38.5c64.012,-1.15 117.95,-19.309 127.895,-65.925c9.942,-46.613 0.325,-102.725 -63.716,-114.7c-64.042,-11.975 -108.1,-3.304 -132.554,13.233c-24.45,16.538 -116.059,29.313 -116.059,29.313Z" style="fill:none;fill-rule:nonzero;stroke:#000;stroke-width:4.17px;stroke-linecap:round;stroke-linejoin:round;"/><path d="M1056.47,1158.78c-0,-0 33.671,28.316 38.708,59.879c5.034,31.562 -9.175,91.083 1.434,126.646c10.612,35.562 33.604,54.254 33.604,54.254" style="fill:none;fill-rule:nonzero;stroke:#000;stroke-width:4.17px;stroke-linecap:round;stroke-linejoin:round;"/><path d="M1427.88,1082.26c0,-0 -25.283,41.125 -8.116,75.762c17.166,34.642 59.195,71.6 48.808,133.075c-10.388,61.471 -71.704,122.721 -115.729,132.85" style="fill:none;fill-rule:nonzero;stroke:#000;stroke-width:4.17px;stroke-linecap:round;stroke-linejoin:round;"/><path d="M1241.41,1434.61c-0,-0 3.016,-18.159 -31.125,-18.971c-34.142,-0.813 -91.563,-12.117 -120.605,-34.613c-29.045,-22.495 -52.925,-45.275 -79.404,-56.241c-26.475,-10.971 -40.762,-10.55 -42.408,6.716c-1.646,17.263 33.479,12.059 53.304,35.088c19.829,23.025 77.563,57.712 111.604,75.075c41.021,20.925 52.175,18.396 51.488,15.079" style="fill:none;fill-rule:nonzero;stroke:#000;stroke-width:4.17px;stroke-linecap:round;stroke-linejoin:round;"/><path d="M1420.04,1381.15c-0,-0 41.079,-14.017 58.404,-43.175c17.325,-29.155 79.716,-99.721 98.375,-87.325c18.654,12.391 6.046,26.245 -13.338,39.17c-19.383,12.93 -34.166,44.725 -53.012,71.113c-18.846,26.383 -72.054,70.9 -94.638,70.929" style="fill:none;fill-rule:nonzero;stroke:#000;stroke-width:4.17px;stroke-linecap:round;stroke-linejoin:round;"/><path d="M1239.44,1435.87c-0,0 -52.942,-4.175 -55.025,21.467c-2.083,25.642 15.408,125.5 48.575,131.575c33.171,6.071 163.492,-1.425 175.783,-20.321c12.296,-18.896 14.471,-90.896 9.588,-120.116c-4.884,-29.225 -2.642,-30.255 -31.804,-27.78c-29.159,2.475 -147.117,15.175 -147.117,15.175Z" style="fill:#fff;fill-rule:nonzero;stroke:#000;stroke-width:4.17px;stroke-linecap:round;stroke-linejoin:round;"/><path d="M1156.18,1000.43c0,-0 -44.029,2 -67.545,4.317c-23.517,2.312 -79.325,21.266 -65.509,64.22c13.817,42.955 69.292,64.975 120.984,37.375c51.687,-27.6 124.17,-52.737 178.233,-48.383c54.067,4.354 107.871,-10.833 104.712,-52.662c-3.158,-41.825 -25.6,-64.105 -62.529,-61.73c-36.929,2.375 -71.162,6.417 -94.879,24.105c-23.717,17.687 -113.467,32.758 -113.467,32.758Z" style="fill:none;fill-rule:nonzero;stroke:#000;stroke-width:4.17px;stroke-linecap:round;stroke-linejoin:round;"/><path d="M1302.16,1300.63c-0,-0 32.808,12.387 50.212,-15.333" style="fill:none;fill-rule:nonzero;stroke:#000;stroke-width:4.17px;stroke-linecap:round;stroke-linejoin:round;"/><path d="M1232.64,1287.31c11.125,-2.459 16.754,-19.838 12.579,-38.821c-4.179,-18.983 -16.583,-32.379 -27.708,-29.925c-11.125,2.458 -16.759,19.837 -12.58,38.821c4.18,18.983 16.584,32.383 27.709,29.925Z" style="fill-rule:nonzero;"/><path d="M1403.87,1249.06c11.125,-2.458 16.754,-19.837 12.575,-38.821c-4.175,-18.983 -16.583,-32.383 -27.708,-29.925c-11.121,2.459 -16.755,19.838 -12.575,38.821c4.179,18.983 16.583,32.379 27.708,29.925Z" style="fill-rule:nonzero;"/><path d="M1144.67,1105.08c-0,-0 -18.775,-11.7 -32.796,-8.021c-14.021,3.683 -13.708,25.725 -11.871,38.466c1.838,12.742 8.196,10.446 10.75,1.225c2.554,-9.22 7.3,-15.787 10.484,7.892c3.179,23.683 3.625,46.754 10.95,47.05c7.325,0.3 6.383,-27.621 3.27,-43.229c-3.112,-15.613 0.38,-29.067 6.092,-18.342c5.708,10.725 8.508,35.359 13.617,32.567c5.104,-2.792 -5.375,-25.542 -2.488,-33.854c2.892,-8.309 6.675,1.504 8.959,-6.309c2.283,-7.816 3.629,-26.812 -1.455,-24.416c-5.083,2.396 -15.512,6.971 -15.512,6.971Z" style="fill-rule:nonzero;stroke:#000;stroke-width:4.17px;stroke-linecap:round;stroke-linejoin:round;"/><path d="M1316.72,1056.48c-0,-0 12.475,-16.679 35.946,-18.6c23.471,-1.917 41.925,5.662 45.283,26.908c3.358,21.25 -2.171,36.704 5.442,49.129c7.616,12.425 2.396,43.746 -4.5,31.38c-6.9,-12.367 -4.659,-39.613 -11.713,-44.575c-7.058,-4.967 -11.758,-3.225 -10.616,9.575c1.141,12.8 -12.967,-0.396 -14.334,-22.913c-1.366,-22.517 -7.187,-0.054 -15.183,-9.379c-7.996,-9.317 -18.658,-21.425 -30.325,-21.525Z" style="fill-rule:nonzero;stroke:#000;stroke-width:4.17px;stroke-linecap:round;stroke-linejoin:round;"/><path d="M1409.44,1212.76c5.979,-1.592 9.062,-9.537 6.887,-17.754c-2.175,-8.213 -8.787,-13.583 -14.767,-11.992c-5.983,1.588 -9.066,9.538 -6.891,17.75c2.179,8.213 8.787,13.584 14.771,11.996Z" style="fill:#fff;fill-rule:nonzero;"/><path d="M1235.54,1252.49c5.983,-1.591 9.066,-9.537 6.891,-17.754c-2.179,-8.212 -8.787,-13.583 -14.771,-11.996c-5.979,1.592 -9.062,9.538 -6.887,17.754c2.175,8.213 8.787,13.584 14.767,11.996Z" style="fill:#fff;fill-rule:nonzero;"/><path d="M248.958,1285.68c-0,-0 45.239,44.362 93.524,62.604c48.285,18.242 92.67,18.937 126.466,13.437c33.792,-5.5 78.092,-23.066 78.092,-23.066l44.904,-31.004c-0,-0 -69.471,9.516 -104.454,9.87c-34.984,0.359 -172.832,-18.545 -172.832,-18.545l-65.7,-13.296Z" style="fill:#4ac4d9;fill-rule:nonzero;"/><path d="M176.74,913.901l-4.121,70.395c-0,0 -6.536,74.08 -3.378,103.205c3.158,29.125 14.358,95.937 18.703,113.92c4.344,17.984 25.009,70.034 40.171,76.525c15.162,6.488 67.362,15.725 67.362,15.725c-0,0 101.241,13.496 152.417,19.725c51.171,6.234 137.375,-3.32 137.375,-3.32c-0,-0 37.475,-8.763 44.392,-18.717c6.92,-9.95 33.416,-71.146 33.416,-71.146c0,0 23.6,-57.087 27.567,-78.117c3.962,-21.033 11.354,-66.795 11.354,-66.795l10.008,-77.8l2.35,-49.663c0,0 -24.408,11.1 -51.733,13.138c-27.321,2.037 -91.396,0.258 -91.396,0.258l-130.787,-11.392l-180.661,-22.016l-83.039,-13.925Z" style="fill:#fff;fill-rule:nonzero;"/><path d="M188.386,915.542c-0,0 -21.284,9.234 -28.22,-16.621c-6.937,-25.854 13.048,-63.783 13.048,-63.783c0,0 25.976,-47.037 53.658,-71.479c27.681,-24.442 82.656,-51.704 104.763,-58.492c22.108,-6.783 63.566,-17.837 63.566,-17.837l61.151,-6.663l2.817,-34.937c-0,-0 14.375,-59.654 36.208,-97.959c21.838,-38.304 41.367,-68.595 59.417,-71.05c18.05,-2.454 29.742,4.234 32.675,15.434c2.933,11.2 -1.075,31.775 -6.921,39.254c-5.846,7.479 -21.85,28.283 -39.7,50.308c-17.85,22.021 -32.004,58.009 -36.171,73.242c-4.162,15.237 -4.521,31.775 -4.521,31.775c0,-0 65.738,12.187 109.475,39.571c43.742,27.383 76.417,58.566 76.417,58.566c0,0 20.258,30.93 30.113,48.875c9.854,17.946 19.104,45.525 21.008,63.75c1.9,18.221 -1.975,44.817 -26.992,54.63c-25.012,9.816 -131.55,9.658 -131.55,9.658l-173,-13.479l-156.346,-22.263l-60.895,-10.5Z" style="fill:#4ac4d9;fill-rule:nonzero;"/><path d="M179.246,915.305c0,-0 -22.893,4.408 -18.129,-37.454c4.764,-41.863 42.276,-134.117 183.322,-176.563c141.047,-42.45 226.305,-4.229 311.051,57.529c60.096,43.796 107.262,156.354 65.887,186.859c-69.525,51.258 -548.008,-33.005 -542.131,-30.371Z" style="fill:none;fill-rule:nonzero;stroke:#000;stroke-width:10.47px;stroke-linecap:round;stroke-linejoin:round;"/><path d="M176.057,916.726c0,-0 -10.476,120.254 -7.353,177.766c3.123,57.509 27.935,157.513 51.982,178.113c24.047,20.6 148.718,33.546 217.829,41.683c69.108,8.133 170.333,-0.692 188.954,-22.121c18.625,-21.425 63.733,-120.429 74.242,-205.912c10.508,-85.479 12.629,-136.384 12.629,-136.384" style="fill:none;fill-rule:nonzero;stroke:#000;stroke-width:10.47px;stroke-linecap:round;stroke-linejoin:round;"/><path d="M240.498,1282.19c0,0 54.23,62.004 151.307,79.163c97.076,17.154 167.772,-26.846 201.597,-54.171" style="fill:none;fill-rule:nonzero;stroke:#000;stroke-width:10.47px;stroke-linecap:round;stroke-linejoin:round;"/><path d="M464.794,980.709c-0,-0 -5.867,43.6 -44.017,47.104c-38.151,3.504 -49.143,-54.892 -49.143,-54.892c0,0 40.943,60 93.16,7.788Z" style="fill-rule:nonzero;stroke:#000;stroke-width:10.47px;stroke-linecap:round;stroke-linejoin:round;"/><path d="M682.919,996.351c-0,-0 -4.725,43.716 -35.471,47.225c-30.746,3.512 -39.604,-55.034 -39.604,-55.034c-0,0 39.375,72.071 75.075,7.809Z" style="fill-rule:nonzero;stroke:#000;stroke-width:10.47px;stroke-linecap:round;stroke-linejoin:round;"/><path d="M455.844,677.971c-0,0 3.046,-60.92 27.004,-106.47c23.954,-45.55 50.896,-99.455 78.567,-95.688c27.671,3.763 38.587,35.4 12.879,61.317c-25.713,25.912 -76.321,105.937 -76.433,147.962" style="fill:none;fill-rule:nonzero;stroke:#000;stroke-width:10.47px;stroke-linecap:round;stroke-linejoin:round;"/><path d="M438.127,1158.13c0,-0 103.017,38.066 164.563,7.595" style="fill:none;fill-rule:nonzero;stroke:#000;stroke-width:10.47px;stroke-linecap:round;stroke-linejoin:round;"/><path d="M337.54,1489.23c-0,-0 -22.068,-19.338 -40.492,-7.704c-18.424,11.637 -29.069,38.416 -16.637,48.262c12.431,9.846 81.25,4.25 87.763,-7.1c6.514,-11.35 -2.44,-29.258 -4.856,-32.85c-2.417,-3.591 0.604,-32.166 -8.588,-34.229c-9.192,-2.062 -30.422,-1.575 -30.422,-1.575l-5.685,24.463c0,-0 11.603,2.804 18.917,10.733Z" style="fill-rule:nonzero;stroke:#000;stroke-width:12.41px;stroke-linecap:round;stroke-linejoin:round;"/><path d="M335.099,1449.93l0.302,-100.48l11.347,0l-0,99.73l-11.649,0.75Z" style="fill-rule:nonzero;stroke:#000;stroke-width:4.94px;"/><path d="M509.773,1493.19c0,0 21.238,-18.612 38.971,-7.412c17.733,11.2 27.975,36.971 16.012,46.45c-11.966,9.475 -78.2,4.091 -84.47,-6.834c-6.267,-10.92 2.35,-28.162 4.675,-31.616c2.325,-3.459 -0.58,-30.963 8.266,-32.946c8.846,-1.983 29.279,-1.517 29.279,-1.517l5.471,23.546c0,0 -11.166,2.7 -18.204,10.329Z" style="fill-rule:nonzero;stroke:#000;stroke-width:11.95px;stroke-linecap:round;stroke-linejoin:round;"/><path d="M512.119,1455.36l-0.288,-96.708l-10.92,-0l-0,95.983l11.208,0.725Z" style="fill-rule:nonzero;stroke:#000;stroke-width:4.75px;"/><path d="M832.073,964.384c0,-0 -61.812,-33.442 -88.587,-34.271c-26.775,-0.833 -61.992,10.95 -100.425,49.546c-38.438,38.592 -30.563,95.642 -30.563,95.642l7.379,34.441c0,0 -67.091,22.6 -77.871,91.025c-10.775,68.425 64.634,118.392 64.634,118.392l58.383,13.037l44.158,-12.158l26.209,25.788l18.429,10.762c-0,0 0.171,25.538 -4.883,35.154c-5.059,9.617 -19.705,25.363 -19.705,25.363c0,-0 -18.762,6.516 -22.354,37.154c-3.591,30.637 6.417,93.683 35.567,97.858c29.154,4.175 32.687,-46.479 32.687,-46.479l7.713,-46.771l18.9,-34.446l14.4,-41.541l53.217,5.175l52.2,-5.446l8.958,5.879l16.771,67.646c-0,-0 -14.009,61.15 24.512,64.446c38.517,3.291 77.588,-34.692 77.588,-34.692l-4.892,-24.337l-32.908,-8.909l-4.642,-51.408l-19.067,-53.829l29.65,-26.096c0,-0 63.088,29.754 112.663,-6.133c49.571,-35.884 55.208,-89.98 55.208,-89.98c0,0 3.417,-46.258 -18.246,-69.837c-21.666,-23.583 -74.191,-47.213 -74.191,-47.213c-0,0 -2.717,-78.129 -12.054,-99.608c-9.342,-21.483 -47.888,-65.45 -73.5,-75.675c-25.617,-10.229 -98.28,-27.479 -175.338,31.521Z" style="fill:#fff;fill-rule:nonzero;"/><path d="M713.994,1318.56c-0,-0 -80.067,38.737 -139.583,-25.684c-59.513,-64.42 -34.388,-147.275 44.508,-184.487c-0,-0 -36.738,-86.338 41.967,-147.958c78.7,-61.621 153.612,-6.596 171.079,6.87c-0,0 68.3,-68.97 173.104,-32.412c104.808,36.558 87.337,176.754 87.337,176.754c0,0 84.484,16.288 91.755,95.967c7.266,79.675 -67.255,155.316 -168.034,115.996c0,-0 -29.1,27.275 -34.587,27.879" style="fill:none;fill-rule:nonzero;stroke:#000;stroke-width:18.27px;stroke-linejoin:round;"/><path d="M973.527,1337.1c0,-0 20.029,22.8 25.696,43.32c5.667,20.525 13.263,52.55 11.488,62.305c-1.78,9.754 -1.859,12.479 -1.859,12.479c0,-0 29.017,-0.588 37.963,12.204c8.95,12.792 0.804,25.358 -14.163,35.162c-14.966,9.805 -53.087,20.075 -66.821,15.017c-13.737,-5.058 -17.275,-12.446 -18.054,-32.262c-0.783,-19.817 -9.537,-96.109 -30.012,-113.388" style="fill:none;fill-rule:nonzero;stroke:#000;stroke-width:18.27px;stroke-linecap:round;stroke-linejoin:round;"/><path d="M925.831,1382.62c0,0 -87.791,11.571 -112.058,-0.666c0,-0 -9.321,79.846 -58.325,87.304" style="fill:none;fill-rule:nonzero;stroke:#000;stroke-width:18.27px;stroke-linecap:round;stroke-linejoin:round;"/><path d="M780.452,1458.27c0,0 0.313,85.617 -27.529,90.5c-27.846,4.888 -41.092,-4.158 -45.292,-56.375c-4.2,-52.216 4.025,-66.454 24.738,-78.745c20.708,-12.288 21.629,-57.809 21.629,-57.809c0,0 -29.887,-12.146 -43.837,-33.929" style="fill:none;fill-rule:nonzero;stroke:#000;stroke-width:18.27px;stroke-linecap:round;stroke-linejoin:round;"/><path d="M873.786,1187.48c15.533,-0.904 28.129,-21.596 28.129,-46.213c-0,-24.621 -12.596,-43.846 -28.129,-42.941c-15.534,0.904 -28.13,21.595 -28.13,46.212c0,24.621 12.596,43.846 28.13,42.942Z" style="fill:#4ac4d9;fill-rule:nonzero;stroke:#000;stroke-width:8.91px;"/><path d="M977.415,1187.34c15.533,-0.904 28.129,-21.596 28.129,-46.212c-0,-24.621 -12.596,-43.846 -28.129,-42.942c-15.534,0.904 -28.129,21.596 -28.129,46.213c-0,24.62 12.595,43.845 28.129,42.941Z" style="fill:#4ac4d9;fill-rule:nonzero;stroke:#000;stroke-width:8.91px;"/><path d="M901.861,1224.48c-0,-0 23.758,17.416 50.583,-2.379" style="fill:none;fill-rule:nonzero;stroke:#000;stroke-width:18.27px;stroke-linecap:round;stroke-linejoin:round;"/><path d="M997.748,1152.77c5.938,0 10.746,-12.766 10.746,-28.512c-0,-15.75 -4.808,-28.517 -10.746,-28.517c-5.933,0 -10.746,12.767 -10.746,28.517c0,15.746 4.813,28.512 10.746,28.512Z" style="fill:#fff;fill-rule:nonzero;"/><path d="M892.356,1150.28c5.938,-0 10.746,-12.767 10.746,-28.517c0,-15.75 -4.808,-28.516 -10.746,-28.516c-5.933,-0 -10.745,12.766 -10.745,28.516c-0,15.75 4.812,28.517 10.745,28.517Z" style="fill:#fff;fill-rule:nonzero;"/></svg>