<?xml version="1.0" encoding="UTF-8" standalone="no"?><!DOCTYPE svg PUBLIC "-//W3C//DTD SVG 1.1//EN" "http://www.w3.org/Graphics/SVG/1.1/DTD/svg11.dtd"><svg width="100%" height="100%" viewBox="0 0 1961 1777" version="1.1" xmlns="http://www.w3.org/2000/svg" xmlns:xlink="http://www.w3.org/1999/xlink" xml:space="preserve" xmlns:serif="http://www.serif.com/" style="fill-rule:evenodd;clip-rule:evenodd;"><path d="M793.474,179.496c-0,0 41,-41.653 90.983,-38.79c49.988,2.863 -90.983,38.79 -90.983,38.79Z" style="fill-rule:nonzero;stroke:#000;stroke-width:4.17px;"/><path d="M939.861,238.414c0,-0 41,-41.654 90.984,-38.791c49.983,2.863 -90.984,38.791 -90.984,38.791Z" style="fill-rule:nonzero;stroke:#000;stroke-width:4.17px;"/><path d="M743.941,600.594c-0,0 41.004,-41.654 90.987,-38.792c49.983,2.863 -90.987,38.792 -90.987,38.792Z" style="fill-rule:nonzero;stroke:#000;stroke-width:4.17px;"/><path d="M158.251,761.561c0,-0 41.004,-41.654 90.988,-38.792c49.983,2.863 -90.988,38.792 -90.988,38.792Z" style="fill-rule:nonzero;stroke:#000;stroke-width:4.17px;"/><path d="M550.086,47.521c0,0 41,-41.653 90.984,-38.79c49.983,2.863 -90.984,38.79 -90.984,38.79Z" style="fill-rule:nonzero;stroke:#000;stroke-width:4.17px;"/><path d="M255.35,73.329c0,0 41.004,-41.653 90.987,-38.79c49.984,2.863 -90.987,38.79 -90.987,38.79Z" style="fill-rule:nonzero;stroke:#000;stroke-width:4.17px;"/><path d="M1069.78,472.644c0,0 41.004,-41.654 90.988,-38.792c49.983,2.863 -90.988,38.792 -90.988,38.792Z" style="fill-rule:nonzero;stroke:#000;stroke-width:4.17px;"/><path d="M871.757,202.921c0,2.761 -1.096,5.409 -3.046,7.362c-1.95,1.953 -4.595,3.05 -7.358,3.05c-2.758,0.001 -5.404,-1.096 -7.354,-3.048c-1.954,-1.952 -3.05,-4.6 -3.05,-7.361c-0.004,-2.762 1.092,-5.41 3.042,-7.363c1.954,-1.954 4.6,-3.052 7.358,-3.053c2.758,-0.001 5.404,1.095 7.358,3.046c1.95,1.952 3.05,4.605 3.05,7.367Z" style="stroke:#000;stroke-width:2.59px;"/><path d="M629.761,99.066c0,2.762 -1.095,5.41 -3.045,7.363c-1.95,1.952 -4.6,3.049 -7.359,3.05c-2.758,0 -5.404,-1.096 -7.358,-3.048c-1.95,-1.952 -3.046,-4.6 -3.046,-7.362c-0.004,-2.761 1.092,-5.41 3.042,-7.362c1.954,-1.954 4.6,-3.052 7.358,-3.053c2.758,-0.001 5.404,1.094 7.358,3.046c1.95,1.951 3.05,4.605 3.05,7.366Z" style="stroke:#000;stroke-width:2.59px;"/><path d="M514.274,627.373c-0,2.763 -1.096,5.409 -3.046,7.363c-1.95,1.95 -4.596,3.05 -7.358,3.05c-2.759,-0 -5.404,-1.096 -7.354,-3.05c-1.955,-1.95 -3.05,-4.6 -3.05,-7.359c-0,-2.762 1.091,-5.412 3.045,-7.366c1.95,-1.95 4.596,-3.05 7.355,-3.05c2.758,-0 5.404,1.096 7.358,3.046c1.954,1.95 3.05,4.604 3.05,7.366Z" style="stroke:#000;stroke-width:2.59px;"/><path d="M221.429,123.831c-0,2.761 -1.096,5.409 -3.047,7.362c-1.951,1.952 -4.598,3.049 -7.357,3.05c-2.759,0 -5.406,-1.096 -7.358,-3.048c-1.951,-1.952 -3.048,-4.6 -3.049,-7.361c-0.001,-2.762 1.095,-5.41 3.045,-7.363c1.951,-1.954 4.596,-3.052 7.356,-3.053c2.76,-0.001 5.406,1.095 7.358,3.046c1.952,1.952 3.05,4.605 3.052,7.367Z" style="stroke:#000;stroke-width:2.59px;"/><path d="M266.799,643.882c-0,2.762 -1.097,5.408 -3.048,7.362c-1.951,1.954 -4.597,3.05 -7.357,3.05c-2.759,0 -5.405,-1.096 -7.357,-3.046c-1.952,-1.954 -3.049,-4.6 -3.05,-7.362c-0.001,-2.763 1.095,-5.409 3.045,-7.363c1.951,-1.954 4.597,-3.054 7.357,-3.054c2.759,0 5.406,1.096 7.358,3.046c1.952,1.954 3.05,4.604 3.052,7.367Z" style="stroke:#000;stroke-width:2.59px;"/><path d="M69.341,554.707c0,-0 -52.502,-153.02 56.877,-311.637c-0,0 132.561,-183.733 362.923,-161.427c230.362,22.306 295.35,199.878 295.35,199.878c-0,-0 114.225,12.291 144.879,69.878c-0,-0 113.479,-15.599 118.096,94.67c-0,0 -5.317,56.167 -57.921,63.021c-0,-0 -66.05,23.612 -136.884,-11.313c0,0 -68.358,37.071 -107.5,-28.187c0,-0 -16.341,75.046 -130.404,33.792c0,-0 -39.233,72.858 -115.666,40.133c-0,-0 -20.813,114.483 -106.086,111.517c-85.275,-2.967 -71.562,-77.771 -71.562,-77.771c0,-0 7.38,25.383 -30.304,31.221c-37.685,5.837 -56.014,5.691 -56.014,5.691c-0,0 -16.467,27.129 -34.309,36.075c-0,0 -2.813,93.096 -95.226,107.134c-0,-0 -66.821,-1.038 -84.51,-78.95c0,-0 -22.411,-33.221 31.21,-86.509c-0,0 6.967,-32.35 17.051,-37.216Z" style="fill:#fff;fill-rule:nonzero;stroke:#000;stroke-width:4.17px;"/><path d="M67.956,552.469c0,0 -78.502,-256.959 175.663,-412.861c254.167,-155.902 567.242,18.931 556.559,240.049l-0.871,12.328" style="fill:none;fill-rule:nonzero;stroke:#000;stroke-width:10.47px;stroke-linecap:round;stroke-linejoin:round;"/><path d="M171.188,518.89c-0,-0 -99.391,-4.633 -121.695,74.4c-0,-0 -61.749,47.95 -14.141,122.854c47.607,74.9 154.881,41.833 166.854,-67.554" style="fill:none;fill-rule:nonzero;stroke:#000;stroke-width:10.47px;stroke-linecap:round;stroke-linejoin:round;"/><path d="M120.161,668.469c0,0 82.148,9.367 113.884,-53.646" style="fill:none;fill-rule:nonzero;stroke:#000;stroke-width:10.47px;stroke-linecap:round;stroke-linejoin:round;"/><path d="M162.446,582.036c0,-0 65.419,63.341 158.652,15.046" style="fill:none;fill-rule:nonzero;stroke:#000;stroke-width:10.47px;stroke-linecap:round;stroke-linejoin:round;"/><path d="M324.807,553.59c-0,-0 -29.629,91.762 61.493,100.675c91.12,8.917 114.366,-109.975 114.366,-109.975" style="fill:none;fill-rule:nonzero;stroke:#000;stroke-width:10.47px;stroke-linecap:round;stroke-linejoin:round;"/><path d="M477.541,529.994c-0,0 79.879,64.208 139.079,-28.087" style="fill:none;fill-rule:nonzero;stroke:#000;stroke-width:10.47px;stroke-linecap:round;stroke-linejoin:round;"/><path d="M581.266,486.732c-0,-0 142.758,86.833 170.7,-35.713" style="fill:none;fill-rule:nonzero;stroke:#000;stroke-width:10.47px;stroke-linecap:round;stroke-linejoin:round;"/><path d="M744.666,474.852c-0,0 58.329,76.825 143.983,-5.925" style="fill:none;fill-rule:nonzero;stroke:#000;stroke-width:10.47px;stroke-linecap:round;stroke-linejoin:round;"/><path d="M664.249,325.259c-0,0 121.225,-36.001 141.033,97.657" style="fill:none;fill-rule:nonzero;stroke:#000;stroke-width:10.47px;stroke-linecap:round;stroke-linejoin:round;"/><path d="M783.02,279.174c-0,0 116.725,12.753 147.612,72.573c0,0 99.038,-12.721 116.242,79.355c17.208,92.08 -140.017,106.392 -198.688,65.505" style="fill:none;fill-rule:nonzero;stroke:#000;stroke-width:10.47px;stroke-linecap:round;stroke-linejoin:round;"/><path d="M483.257,230.944c0,0 -65.15,35.628 -61.696,80.973c3.45,45.345 44.15,77.375 97.209,50.466c53.058,-26.909 6.025,-55.231 6.025,-55.231c-0,-0 23.412,-10.986 28.108,-28.535" style="fill:none;fill-rule:nonzero;stroke:#000;stroke-width:10.47px;stroke-linecap:round;stroke-linejoin:round;"/><path d="M486.549,335.235c-0,-0 2.775,25.668 31.233,29.32" style="fill:none;fill-rule:nonzero;stroke:#000;stroke-width:10.47px;stroke-linecap:round;stroke-linejoin:round;"/><path d="M219.095,323.713c-26.039,4.825 -71.31,-18.709 -61.781,-49.976c9.528,-31.268 110.51,-93.36 132.724,-72.666c22.214,20.693 -24.529,114.04 -70.943,122.642Z" style="fill-rule:nonzero;stroke:#000;stroke-width:10.47px;stroke-linecap:round;stroke-linejoin:round;"/><path d="M419.27,177.109c-0,6.002 -2.381,11.758 -6.623,16.003c-4.241,4.244 -9.993,6.629 -15.991,6.63c-5.997,0.001 -11.75,-2.383 -15.992,-6.626c-4.242,-4.243 -6.627,-9.999 -6.629,-16.001c-0.001,-6.002 2.379,-11.758 6.619,-16.004c4.24,-4.246 9.991,-6.632 15.989,-6.635c5.998,-0.003 11.751,2.378 15.994,6.621c4.244,4.241 6.629,10.01 6.633,16.012Z"/><path d="M422.336,164.684c0,2.91 -1.154,5.7 -3.208,7.758c-2.058,2.057 -4.844,3.213 -7.752,3.213c-2.907,0.001 -5.696,-1.154 -7.752,-3.211c-2.057,-2.057 -3.213,-4.847 -3.213,-7.756c-0.001,-2.91 1.153,-5.7 3.208,-7.759c2.055,-2.057 4.843,-3.214 7.751,-3.215c2.907,-0.002 5.696,1.153 7.754,3.209c2.054,2.056 3.212,4.852 3.212,7.761Z" style="fill:#fff;"/><path d="M985.636,375.409c0,0 -109.42,2.76 -139.32,10.233c-29.905,7.473 47.962,149.331 47.962,149.331c0,0 12.888,-108.904 91.358,-159.564Z" style="fill-rule:nonzero;stroke:#000;stroke-width:3.64px;"/><path d="M951.449,531.84c-0,-0 -109.421,2.758 -139.321,10.233c-29.904,7.475 47.967,149.329 47.967,149.329c-0,0 12.883,-108.904 91.354,-159.562Z" style="fill-rule:nonzero;stroke:#000;stroke-width:3.64px;"/><path d="M899.361,709.986c0,-0 -109.42,2.758 -139.32,10.233c-29.905,7.471 47.962,149.329 47.962,149.329c0,0 12.888,-108.904 91.358,-159.562Z" style="fill-rule:nonzero;stroke:#000;stroke-width:3.64px;"/><path d="M1057.58,250.268c0,0 -109.417,2.76 -139.321,10.233c-29.9,7.473 47.967,149.331 47.967,149.331c-0,-0 12.883,-108.904 91.354,-159.564Z" style="fill-rule:nonzero;stroke:#000;stroke-width:3.64px;"/><path d="M937.957,1665.05l84.675,-218.779c0,0 -43.771,7.646 -96.162,-2.462c-52.392,-10.109 -92.113,-29.746 -91.5,-27.471c0.608,2.271 -49.979,122.783 -49.979,122.783l-44.792,109.925c-0,0 -22.317,41.404 13.554,66.392c35.867,24.987 132.975,34.475 132.975,34.475c0,-0 58.183,3.996 62.263,-28.104c4.075,-32.105 -11.034,-56.759 -11.034,-56.759Z" style="fill:#fff;fill-rule:nonzero;stroke:#000;stroke-width:3.64px;"/><path d="M945.303,1731.5c0,0 -140.171,-73.07 -211.708,-53.475" style="fill:none;fill-rule:nonzero;stroke:#000;stroke-width:9.14px;stroke-linecap:round;stroke-linejoin:round;"/><path d="M836.007,1417.57l-92.271,223.75c0,0 -30.162,44.704 10.355,72.446c40.512,27.746 177.175,49.917 189.608,22.233c12.429,-27.683 4.25,-75.77 -42.521,-100.812" style="fill:none;fill-rule:nonzero;stroke:#000;stroke-width:9.14px;stroke-linecap:round;stroke-linejoin:round;"/><path d="M969.72,1579.52c-0,0 -68.938,-107.092 -171.538,-65.483" style="fill:none;fill-rule:nonzero;stroke:#000;stroke-width:9.14px;stroke-linecap:round;stroke-linejoin:round;"/><path d="M1022.19,1448.99l-85.025,220.804" style="fill:none;fill-rule:nonzero;stroke:#000;stroke-width:9.14px;stroke-linecap:round;stroke-linejoin:round;"/><path d="M947.145,1719.41c-0,-0 -93.484,-64.025 -209.409,-63.725" style="fill:none;fill-rule:nonzero;stroke:#000;stroke-width:9.14px;stroke-linecap:round;stroke-linejoin:round;"/><path d="M1426.6,762.823c-0,0 44.083,-2.979 68.871,14.009c24.783,16.987 32.196,61.941 32.196,61.941c-0,0 3.97,33.813 -18.463,60.417c-22.437,26.604 -44.183,11.125 -44.087,-0.35c0.091,-11.471 -10.746,-19.413 -11.646,-30.346c-0.9,-10.933 -24.125,-9.804 -10.75,-23.779c13.375,-13.979 21.329,-14.233 16.583,-17.683c-4.742,-3.45 -35.979,-0.15 -37.421,6.633c-1.441,6.783 4.717,-70.842 4.717,-70.842Z" style="fill:#fff;fill-rule:nonzero;stroke:#000;stroke-width:3.64px;"/><path d="M1455.41,811.277c0,0 9.784,15.975 0.788,23.438c-8.992,7.467 -21.971,12.067 -11.746,25.362c10.225,13.296 21.258,9.025 38.371,-3.112" style="fill:none;fill-rule:nonzero;stroke:#000;stroke-width:9.14px;stroke-linecap:round;stroke-linejoin:round;"/><path d="M1454.44,867.886c-0,-0 -2.68,17.516 14.345,23.279c17.03,5.762 29.396,-24.063 29.396,-24.063" style="fill:none;fill-rule:nonzero;stroke:#000;stroke-width:9.14px;stroke-linecap:round;stroke-linejoin:round;"/><path d="M1466.19,890.24c0,-0 -7.283,21.15 12.113,24.2c19.396,3.05 59.921,-34.917 47.071,-86.008c-12.85,-51.092 -41.988,-66.68 -80.3,-65.538c-38.309,1.142 -86.567,18.579 -100.346,40.696c-13.783,22.121 10.767,45.054 44.537,36.987c33.775,-8.07 64.305,-22.495 70.921,-10.662" style="fill:none;fill-rule:nonzero;stroke:#000;stroke-width:9.14px;stroke-linecap:round;stroke-linejoin:round;"/><path d="M1345.55,266.012c0,0 -72.046,-62.986 -177.321,-53.382c-105.275,9.605 -160.837,69.676 -160.837,69.676c-0,-0 -70.567,61.465 -125.346,248.451c-54.779,186.983 -60,288.758 -60,288.758c-0,-0 -57.45,30.975 -84.125,65.546c-0,-0 68.95,-207.113 -111.913,-206.775c0,-0 33.955,41.562 15.305,117.462c-18.65,75.9 -49.721,107.821 -65.625,164.413c-15.905,56.591 -27.621,92.616 -14.988,190.554c12.633,97.933 131.792,191.062 131.792,191.062c-0,0 103.887,69.084 163.191,85.363c59.305,16.279 101.234,21.875 151.492,20.712c50.258,-1.162 138.125,-32.579 138.125,-32.579c0,0 85.988,-38.333 136.8,-96.729c50.808,-58.396 74.458,-123.033 75.946,-128.887c1.492,-5.855 27.621,-104.813 27.621,-104.813l18.996,-103.783l15.62,-142.821l4.992,-115.404c0,-0 96.079,8.504 138.042,-6.517c41.958,-15.017 73.075,-58.108 73.075,-58.108c-0,-0 33.766,-48.3 -8.85,-70.984c-42.617,-22.683 -69.854,-40.195 -69.854,-40.195l57.666,-18.405c0,0 51.175,-16.212 67.709,-65.266c16.533,-49.051 -10.117,-117.505 -59.917,-161.013c-49.8,-43.508 -92.171,-56.813 -116.633,-60.72c-24.467,-3.906 -68.842,-1.352 -68.842,-1.352l-60.292,14.261l-31.829,11.475Z" style="fill:#fff;fill-rule:nonzero;stroke:#000;stroke-width:3.64px;"/><path d="M817.224,1201.1l17.058,164.609l48.9,-33.879l77.013,-31.93c-0,0 50.529,-10.545 84.721,-9.979c34.191,0.567 56.079,8.925 56.079,8.925c-0,0 -24.709,-39.866 -60.992,-42.737l-2.692,-94.696l-23.641,-16.617c-0,0 -58.496,-25.112 -106.938,-17.158c-48.446,7.954 -89.508,73.462 -89.508,73.462Z" style="fill:#30aad8;fill-rule:nonzero;stroke:#000;stroke-width:3.64px;"/><path d="M938.936,1663.57l30.767,-82.283c0,-0 -34.133,-52.367 -89.125,-70.967c-54.996,-18.6 -87.162,6.979 -87.162,6.979l-54.305,132.855l-0.72,3.458l29.645,2.887l72.792,14.684l63.617,25.075l44.796,21.708l-4.184,-32.433l-7.891,-15.467l1.77,-6.496Z" style="fill:#30aad8;fill-rule:nonzero;stroke:#000;stroke-width:3.64px;"/><path d="M1488.55,511.827l89.4,-33.35l11.558,-21.258c0,0 -16.071,-20.242 -43.5,-37.227c-27.429,-16.988 -83.658,-37.392 -116.796,-30.09c-33.133,7.302 -88.937,18.374 -131.775,36.58c-42.841,18.208 -99.641,41.433 -99.641,41.433l91.966,11.267c0,-0 78.313,9.741 89.409,8.375c11.091,-1.367 29.845,-0.871 29.845,-0.871c0,-0 13.092,0.362 30.68,5.787c17.587,5.425 48.854,19.354 48.854,19.354Z" style="fill-rule:nonzero;stroke:#000;stroke-width:3.64px;"/><path d="M1445.1,390.075c-0,-0 -21.15,42.661 2.65,53.686c23.796,11.021 32.492,-5.225 36.15,-14.575c3.662,-9.355 14.175,-28.564 14.175,-28.564c-0,0 -11.521,-14.278 -52.975,-10.547Z" style="fill:#fff;fill-rule:nonzero;stroke:#000;stroke-width:3.64px;"/><path d="M1347.31,268.418c0,0 -113.266,-108.415 -291.116,-22.449c-177.854,85.966 -233.413,573.683 -233.413,573.683c0,0 -139.35,54.621 -175.891,270.73" style="fill:none;fill-rule:nonzero;stroke:#000;stroke-width:9.14px;stroke-linecap:round;stroke-linejoin:round;"/><path d="M735.299,886.457c-0,-0 75.054,-216.488 -111.217,-207.475c0,-0 43.542,49.229 11.492,136.579c-32.05,87.35 -112.471,198.854 -68.746,356.721c43.725,157.862 246.042,255.087 371.308,273.095c125.263,18.005 351.75,-47.27 419.571,-258.883c67.821,-211.612 68.342,-466.567 68.342,-466.567" style="fill:none;fill-rule:nonzero;stroke:#000;stroke-width:9.14px;stroke-linecap:round;stroke-linejoin:round;"/><path d="M1203.05,352.062c-0,0 137.104,-112.414 264.996,-113.437c127.887,-1.024 229.504,121.431 220.066,193.357c-9.437,71.925 -57.691,100.07 -133.916,114.57" style="fill:none;fill-rule:nonzero;stroke:#000;stroke-width:9.14px;stroke-linecap:round;stroke-linejoin:round;"/><path d="M1224.67,633.327c-0,0 15.408,41.788 155.775,78.617c74.804,19.625 179.129,24.367 230.8,-23.533c51.666,-47.9 38.491,-83.421 20.737,-96.996c-17.75,-13.571 -177.9,-109.05 -225.425,-103.808c-47.525,5.237 -209.183,-19.584 -209.183,-19.584c-0,0 208.291,-98.733 284.291,-75.232c76.005,23.501 123.575,71.153 142.3,101.741" style="fill:none;fill-rule:nonzero;stroke:#000;stroke-width:9.14px;stroke-linecap:round;stroke-linejoin:round;"/><path d="M1660.81,496.011c0,-0 -0.783,-33.013 -50.954,-69.817c-50.171,-36.804 -111.75,-84.939 -211.625,-72.339c-99.875,12.599 -227.129,65.884 -236.075,108.435c-8.942,42.55 39.713,44.067 111.413,55.267c71.7,11.195 164.22,6.825 239.312,49.65c75.092,42.82 118.313,97.637 118.313,97.637" style="fill:none;fill-rule:nonzero;stroke:#000;stroke-width:9.14px;stroke-linecap:round;stroke-linejoin:round;"/><path d="M1446.72,390.311c-0,0 -20.629,37.525 -4.717,49.237c15.908,11.713 33.658,18.092 55.154,-40.139" style="fill:none;fill-rule:nonzero;stroke:#000;stroke-width:9.14px;stroke-linecap:round;stroke-linejoin:round;"/><path d="M1622.44,492.727c-0,0 -9.505,29.467 -32.442,27.55c-22.938,-1.916 -21.904,-30.6 0.667,-65.5" style="fill:none;fill-rule:nonzero;stroke:#000;stroke-width:9.14px;stroke-linecap:round;stroke-linejoin:round;"/><path d="M1577.57,479.057l-90.675,33.058" style="fill:none;fill-rule:nonzero;stroke:#000;stroke-width:9.14px;stroke-linecap:round;stroke-linejoin:round;"/><path d="M1101.54,667.919c0,0 18.305,3.929 17.5,15.596c-0.804,11.667 -6.429,24.246 10.246,26.008c16.671,1.763 21.192,-9.179 24.217,-29.95" style="fill:none;fill-rule:nonzero;stroke:#000;stroke-width:9.14px;stroke-linecap:round;stroke-linejoin:round;"/><path d="M1141.83,707.669c0,0 10.825,14.025 26.738,5.663c15.916,-8.363 2.866,-37.892 2.866,-37.892" style="fill:none;fill-rule:nonzero;stroke:#000;stroke-width:9.14px;stroke-linecap:round;stroke-linejoin:round;"/><path d="M1166.1,714.577c0,0 10.275,19.867 25.863,7.917c15.587,-11.946 16.075,-67.5 -29.755,-93.433c-45.833,-25.929 -77.204,-15.575 -102.808,12.971c-25.6,28.541 -46.271,75.529 -39.775,100.775c6.496,25.241 40.025,23.275 57.479,-6.759c17.459,-30.033 28.084,-62.104 41.209,-58.733" style="fill:none;fill-rule:nonzero;stroke:#000;stroke-width:9.14px;stroke-linecap:round;stroke-linejoin:round;"/><path d="M803.349,1047.01l30.883,319.458c0,0 -6.075,63.883 54.654,64.008c60.734,0.134 222.825,-69.325 219.788,-104.712c-3.042,-35.392 -40.738,-77.004 -106.663,-70.317" style="fill:none;fill-rule:nonzero;stroke:#000;stroke-width:9.14px;stroke-linecap:round;stroke-linejoin:round;"/><path d="M1041.84,1253.63c-0,-0 -2.959,-254.417 -56.588,-315.275c-53.629,-60.859 -118.533,-59.513 -188.092,21.595c-69.554,81.113 -62.375,213.842 -44.016,255.063c18.358,41.217 68.116,44.954 68.116,44.954" style="fill:none;fill-rule:nonzero;stroke:#000;stroke-width:9.14px;stroke-linecap:round;stroke-linejoin:round;"/><path d="M1035.17,1157.93c-0,0 -136.309,-95.4 -215.363,44.217" style="fill:none;fill-rule:nonzero;stroke:#000;stroke-width:9.14px;stroke-linecap:round;stroke-linejoin:round;"/><path d="M1098.58,1299.51c0,-0 -113.325,-46.559 -265.179,66.312" style="fill:none;fill-rule:nonzero;stroke:#000;stroke-width:9.14px;stroke-linecap:round;stroke-linejoin:round;"/><path d="M1107.62,1331.97c-0,0 -35.075,-29.317 -106.004,-10.437c-70.93,18.879 -145.034,51.479 -163.725,73.962" style="fill:none;fill-rule:nonzero;stroke:#000;stroke-width:9.14px;stroke-linecap:round;stroke-linejoin:round;"/><path d="M1006.58,344.202c-10.625,15.145 -16.467,33.713 -16.237,51.62c0.225,17.905 6.5,33.685 17.45,43.864c10.945,10.179 25.662,13.925 40.916,10.412c15.259,-3.508 29.8,-13.987 40.429,-29.13c10.625,-15.143 16.475,-33.71 16.25,-51.617c-0.22,-17.907 -6.491,-33.689 -17.437,-43.872c-10.942,-10.183 -25.658,-13.935 -40.917,-10.43c-15.254,3.504 -29.796,13.978 -40.429,29.118" style="fill:#fff;"/><path d="M1014.42,350.712c-8.588,12.237 -13.308,27.239 -13.125,41.706c0.183,14.467 5.254,27.214 14.1,35.439c8.846,8.225 20.737,11.25 33.062,8.416c12.325,-2.837 24.071,-11.304 32.659,-23.539c8.591,-12.235 13.312,-27.235 13.133,-41.703c-0.179,-14.468 -5.246,-27.219 -14.087,-35.446c-8.842,-8.228 -20.734,-11.258 -33.059,-8.427c-12.325,2.832 -24.075,11.294 -32.666,23.526"/><path d="M1004.52,339.939c-4.009,5.711 -6.213,12.713 -6.125,19.464c0.083,6.752 2.45,12.701 6.579,16.54c4.129,3.838 9.679,5.25 15.429,3.927c5.754,-1.324 11.238,-5.274 15.246,-10.984c4.004,-5.71 6.208,-12.712 6.125,-19.464c-0.083,-6.753 -2.446,-12.703 -6.575,-16.543c-4.125,-3.84 -9.675,-5.255 -15.425,-3.933c-5.754,1.321 -11.238,5.271 -15.246,10.98" style="fill:#fff;"/><path d="M1554.81,293.599c0,3.808 1.509,7.459 4.2,10.151c2.688,2.693 6.338,4.206 10.142,4.206c3.804,0.001 7.454,-1.511 10.146,-4.203c2.691,-2.691 4.204,-6.342 4.204,-10.15c-0,-3.807 -1.508,-7.459 -4.196,-10.152c-2.692,-2.694 -6.337,-4.207 -10.146,-4.209c-3.804,-0.002 -7.454,1.509 -10.146,4.2c-2.691,2.69 -4.204,6.35 -4.204,10.157Z"/><path d="M1629.19,339.156c-0,3.807 1.512,7.458 4.2,10.151c2.691,2.692 6.341,4.205 10.146,4.206c3.804,0.001 7.454,-1.511 10.145,-4.203c2.688,-2.692 4.2,-6.343 4.205,-10.15c-0,-3.808 -1.509,-7.459 -4.2,-10.153c-2.688,-2.693 -6.338,-4.207 -10.142,-4.208c-3.804,-0.002 -7.454,1.508 -10.146,4.199c-2.692,2.691 -4.204,6.35 -4.208,10.158Z"/><path d="M1320.98,1593.56c0,-0 -58.525,78.416 -130.862,25.1c-72.334,-53.317 -48.45,-294.725 -48.45,-294.725c-0,-0 -29.892,80.983 -39.871,180.391c-9.983,99.413 4.454,283.48 280.279,172.696c0,0 -30.717,-52.721 -61.096,-83.462Z" style="fill:#4ac4d9;fill-rule:nonzero;stroke:#000;stroke-width:8.9px;stroke-linecap:round;stroke-linejoin:round;"/><path d="M1474.42,1068.2l9.792,6.217c-0,0 5.745,2.779 6.716,2.538c0.967,-0.242 5.284,-10.234 5.792,-12.034c0.508,-1.796 1.487,-7.308 1.487,-7.308l-23.787,10.587Z" style="fill:#fff;fill-rule:nonzero;"/><path d="M1508.62,1080.02c-0,-0 4.45,-14.317 8.071,-14.996c3.616,-0.679 15.604,9.175 15.604,9.175l-23.675,5.821Z" style="fill:#fff;fill-rule:nonzero;"/><path d="M1521.66,1049.25c0,0 14.909,10.938 18.638,8.217c3.725,-2.725 6.887,-21.254 6.887,-21.254l-25.525,13.037Z" style="fill:#fff;fill-rule:nonzero;"/><path d="M1556.1,1066.84c0,0 1.533,-15.921 6.446,-17.612c4.912,-1.696 9.05,0.354 11.162,3.67c2.113,3.313 6.534,10.805 6.534,10.805l-24.142,3.137Z" style="fill:#fff;fill-rule:nonzero;"/><path d="M1573.01,1025.99c0,0 13.875,8.729 17.992,8.3c4.121,-0.437 4.842,-3.929 6.233,-8.275c1.392,-4.346 0.863,-12.987 0.863,-12.987l-25.088,12.962Z" style="fill:#fff;fill-rule:nonzero;"/><path d="M1274.62,1616.56c-0,-0 6.7,37.679 21.625,55.612c14.925,17.938 33.442,37.038 75.246,39.35c41.804,2.317 86.45,-17.383 86.45,-17.383l44.704,-33.129l54.412,-57.663l45.55,-40.262l14.988,-15.35l0.825,47.087l3.083,32.375l4.304,12.725l53.434,6.696l62.533,-2.679l26.713,-5.304l7.362,-6.992l1.171,-46.896l-3.513,-109.992l-2.745,-86.637l-5.413,-31.525l-6.833,-20.358l6.533,-3.867l54.742,-53.358l68.85,-70.596l19.346,-26.759l-0.817,-10.454l-16.9,-23.208l-38.1,-40.3l-40.313,-29.433l-19.062,-4.113l-37.033,32.083l-87.625,90.371l-98.392,107.467l-52.35,54.267l6.046,15.116l-1.538,21.95l-16.371,50.879l-30.904,44.425l-46.046,59.825l-35.833,36.2l-32.858,20.8l-22.921,11.117l-29.671,4.404l-23.087,-3.721l-9.592,-2.77Z" style="fill-rule:nonzero;stroke:#000;stroke-width:3.1px;"/><path d="M1225.01,1212.29l0.629,83.075c0,0 -10.12,17.25 -10.445,33.492c-0.325,16.241 -3.871,69.912 -3.871,69.912c-0,0 -8.863,20.263 -9.8,33.788c-0.934,13.525 2.683,71.154 2.683,71.154l8.1,51.812c0,0 9.129,23.838 18.438,34.471c9.312,10.634 32.995,21.867 39.008,24.413c6.017,2.541 44.112,16.641 75.879,0.891c31.767,-15.75 81.163,-60.425 94.258,-77.225c13.092,-16.795 62.684,-85.766 62.684,-85.766l18.062,-52.746c0,-0 7.554,-18.946 -0.1,-37.242c-7.654,-18.291 -21.808,-33.691 -21.808,-33.691l-32.883,-21.646l-15.2,-3.467l-2.846,-34.612l-9.554,-60.163l-6.771,-22.933l-6.738,-8.296l-8.712,2.304l-9.638,9.996l-8.75,4.529l-13.225,-8.075l-15.937,4.713l-16.567,7.545l-7.071,-6.316l-25.075,12.229l-10.758,-6.646l-16.633,-1.058l-11.759,4.737l-7.737,6.317l-20.742,-7.879l-12.021,1.341l-15.1,11.042Z" style="fill:#fff;fill-rule:nonzero;stroke:#000;stroke-width:3.1px;"/><path d="M1469.12,1307.52l33.121,-20.442l38.233,-14.796l16.875,3.217l6.062,5.304l17.917,2.325l3.846,1.417l-66.538,72.25l-22.958,-29.346l-17.292,-13.067l-9.266,-6.862Z" style="fill:#4ac4d9;fill-rule:nonzero;stroke:#000;stroke-width:3.1px;"/><path d="M1228.87,1207.59l-12.658,-86.421l-11.442,-92.296l0.458,-27.95l7.513,-25.725l13.829,-12.541l20.937,-5.655l22.613,1.967l17.217,11.821l6.408,9.575l7.204,-22.104l23.613,-12.588l20.583,-1.987l15.433,5.237l9.679,8.471l6.763,10.004l4.533,15.663l135.417,-51.909l36.383,-14.162l4.379,-9.633l1.63,-14.709l11.375,-3.079l15.47,0.471l9.346,-5.013l10.584,-0.583l9.92,9.913l17.534,38.545l14.191,48.342l-1.187,8.283l-87.558,39.813l-157.042,66.629l-34.004,15.313l2.866,6.091l75.017,-20.366l158.846,-39.096l7.767,4.404l2.166,6.846l0.75,14.025l-9.487,7.2l-7.35,6.729l-56.284,25.979l-58.833,23.15l-38.05,19.088l-17.917,16.029l-8.162,-2.229l-12.304,10.195l-6.534,3.08l-7.904,-0.655l-7.504,-5.345l-13.421,3.55l-16.579,6.945l-9.4,-2.845l-6.212,-1.438l-7.642,5.588l-11.842,7.987l-9.741,-7.358l-19.413,-1.867l-10.429,4.667l-6.458,5.033l-11.792,-2.212l-11.983,-3.409l-10.35,1.888l-10.942,4.654Z" style="fill:#4ac4d9;fill-rule:nonzero;stroke:#000;stroke-width:3.1px;"/><path d="M1637.92,1642.49l5.333,53.525l1.567,39.613l2.037,13.387l11.08,10.133l25.058,5.763l76.762,5.358l73.259,-2.379l7.437,0.888l25.338,0.32l5.321,-4.641l-1.834,-10.384l-4.683,-10.845l-3.696,-7.867l-2.175,-11.821l-9.146,-11.608l-26.491,-9.184l-60.296,-10.8l-3.438,-50.962l-52.183,5.192l-40.225,-0.488l-29.025,-3.2Z" style="fill:#4ac4d9;fill-rule:nonzero;stroke:#000;stroke-width:3.1px;"/><path d="M1814.73,1079.3l30.834,-35.837l-30.792,-65.35l-5.225,-24.625l3.25,-10.379l19.133,-16.825l23.909,-8.204l18.15,8.933l26.512,31.212l23.979,41.83l22.104,38.845l7.6,14.346l-0.15,16.109l-18.675,34.391l-38.633,54.675l-22.762,-28.212l-33.334,-30.863l-25.9,-20.046Z" style="fill:#4ac4d9;fill-rule:nonzero;stroke:#000;stroke-width:3.1px;"/><path d="M1347.02,1417.69l46.341,-57.6c0,-0 9.421,-28.567 31.017,-44.434c21.6,-15.866 34.258,-15.779 58.908,2.138c24.654,17.912 35.3,34.408 40.038,53.221c4.737,18.812 -15.179,69.291 -22.313,82.216c-7.129,12.925 -61.629,87.592 -87.962,113.909c-26.334,26.321 -64.842,54.325 -100.067,54.75c-35.221,0.429 -88.029,-16.125 -99.846,-64.875c-11.816,-48.75 -17.116,-128.946 -5.858,-147.759c11.258,-18.812 -3.429,-72.725 18.346,-115.208l-1.5,-80.146c-0,0 14.237,-15.237 27.862,-12.787c13.625,2.45 19.125,11.012 28.525,1.233c9.396,-9.775 30.384,-5.908 35.834,1.15c5.45,7.054 21.266,-16.95 31.654,-8.608c10.391,8.337 27.404,-15.6 42.304,-4.563c14.9,11.034 25.033,-20.521 38.05,-8.721c13.012,11.8 21.85,120.446 21.85,120.446" style="fill:none;fill-rule:nonzero;stroke:#000;stroke-width:6.61px;stroke-linecap:round;stroke-linejoin:round;"/><path d="M1307.44,1467.81c-0.2,-2.43 5.655,-51.717 56.9,-53.696" style="fill:none;fill-rule:nonzero;stroke:#000;stroke-width:6.61px;stroke-linecap:round;stroke-linejoin:round;"/><path d="M1322.23,1346.87c0,-0 40.013,22.454 23.379,70.887" style="fill:none;fill-rule:nonzero;stroke:#000;stroke-width:6.61px;stroke-linecap:round;stroke-linejoin:round;"/><path d="M1273.76,1616.8c0,0 8.2,70.463 67.9,87.838c59.696,17.375 121.892,1.304 172.496,-55.45c50.604,-56.75 107.325,-102.413 107.325,-102.413" style="fill:none;fill-rule:nonzero;stroke:#000;stroke-width:6.61px;stroke-linecap:round;stroke-linejoin:round;"/><path d="M1616.77,1456c-0,0 -5.275,177.488 9.904,183.846c15.179,6.363 142.396,12.454 148.504,-7.979c6.113,-20.429 -2.454,-239.163 -6.933,-259.096c-4.484,-19.937 -7.971,-88.017 -110.913,-93.5c0,0 -71.391,21.142 -134.171,92.629" style="fill:none;fill-rule:nonzero;stroke:#000;stroke-width:6.61px;stroke-linecap:round;stroke-linejoin:round;"/><path d="M1426.95,1179.32c0,0 11.817,-11.687 40.317,-26.208c28.5,-14.521 144.783,-52 147.15,-71.038c2.371,-19.037 -1.704,-23.933 -11.842,-23.416c-10.137,0.516 -230.996,58.637 -230.996,58.637l-2.316,-6.337c-0,-0 273.516,-114.392 277.67,-123.088c4.15,-8.7 -19.812,-77.171 -30.508,-93.171c-10.696,-16.004 -24.096,-10.766 -28.45,-6.091c-4.354,4.675 -26.204,-4.475 -28.396,7.595c-2.191,12.071 -0.841,18.588 -12.708,23.692c-11.867,5.1 -165.667,63.542 -165.667,63.542c0,-0 -4.379,-43.242 -47.525,-39.442c-43.141,3.796 -39.5,39.733 -39.5,39.733c0,0 -13.35,-33.67 -52.575,-26.52c-39.221,7.145 -40.137,50.77 -37.029,78.8c3.108,28.025 23.042,172.35 23.042,172.35" style="fill:none;fill-rule:nonzero;stroke:#000;stroke-width:6.61px;stroke-linecap:round;stroke-linejoin:round;"/><path d="M1350.78,1100.31c0,-0 13.992,0.312 19.1,11.8c5.104,11.483 1.704,19.754 -3.604,27.375c0,-0 11.613,-27.963 -15.496,-39.175Z" style="fill-rule:nonzero;stroke:#000;stroke-width:3.1px;stroke-linecap:round;stroke-linejoin:round;"/><path d="M1519.21,1358.14c0,-0 249.167,-276.025 274.092,-283.467c24.921,-7.437 115.292,82.104 115.254,103.4c-0.033,21.296 -149.292,160.329 -149.292,160.329" style="fill:none;fill-rule:nonzero;stroke:#000;stroke-width:6.61px;stroke-linecap:round;stroke-linejoin:round;"/><path d="M1468.48,1307.09c0,-0 21.35,-13.779 40.621,-23.571c19.271,-9.792 36,-13.142 46.642,-7.979c10.646,5.166 11.054,5.796 11.054,5.796" style="fill:none;fill-rule:nonzero;stroke:#000;stroke-width:6.61px;stroke-linecap:round;stroke-linejoin:round;"/><path d="M1516.76,1302.89c0,-0 45.109,-31.821 68.667,-16.5" style="fill:none;fill-rule:nonzero;stroke:#000;stroke-width:6.61px;stroke-linecap:round;stroke-linejoin:round;"/><path d="M1528.93,1317.35c0,0 29.513,-18.262 40.446,-14.191l-50.262,55.45" style="fill:none;fill-rule:nonzero;stroke:#000;stroke-width:6.61px;stroke-linecap:round;stroke-linejoin:round;"/><path d="M1813.11,1080.49l32.434,-37.158c-0,-0 -29.096,-59.834 -33.655,-72.992c-4.554,-13.163 -4.304,-24.317 8.734,-35.458c13.041,-11.142 33.658,-25.542 55,-7.596c21.341,17.941 55.433,87.862 65.858,102.816c10.429,14.959 21.125,25.384 8.158,48.634c-12.962,23.25 -50.495,79.066 -50.495,79.066" style="fill:none;fill-rule:nonzero;stroke:#000;stroke-width:6.61px;stroke-linecap:round;stroke-linejoin:round;"/><path d="M1636.82,1644.64c-0,-0 7.617,65.358 7.412,79.992c-0.204,14.633 -3.158,30.837 20.834,38.05c23.987,7.216 166.421,10.687 169.987,3.495c3.567,-7.195 14.084,-28.12 -32.496,-25.962" style="fill:none;fill-rule:nonzero;stroke:#000;stroke-width:6.61px;stroke-linecap:round;stroke-linejoin:round;"/><path d="M1834.81,1767.91c0,-0 32.521,5.079 35.296,-2.609c2.779,-7.687 -4.837,-36.075 -34.175,-35.916" style="fill:none;fill-rule:nonzero;stroke:#000;stroke-width:6.61px;stroke-linecap:round;stroke-linejoin:round;"/><path d="M1862.69,1739.68c-0,0 0.941,-26.05 -28.042,-33.67c-28.983,-7.617 -72.429,-12.542 -72.429,-12.542l-3.721,-51.154" style="fill:none;fill-rule:nonzero;stroke:#000;stroke-width:6.61px;stroke-linecap:round;stroke-linejoin:round;"/><path d="M1472.77,1067.39c-0,-0 13.946,10.846 18.216,8.867c4.267,-1.98 7.942,-20.334 7.942,-20.334" style="fill:none;fill-rule:nonzero;stroke:#000;stroke-width:3.1px;stroke-linecap:round;stroke-linejoin:round;"/><path d="M1508.05,1081.99c-0,-0 3.854,-15.242 9.104,-17.004c5.246,-1.763 16.063,10.625 16.063,10.625" style="fill:none;fill-rule:nonzero;stroke:#000;stroke-width:3.1px;stroke-linecap:round;stroke-linejoin:round;"/><path d="M1520.25,1048.02c0,0 16.308,12.779 20.242,9.196c3.937,-3.583 6.883,-21.996 6.883,-21.996" style="fill:none;fill-rule:nonzero;stroke:#000;stroke-width:3.1px;stroke-linecap:round;stroke-linejoin:round;"/><path d="M1555.4,1070.09c-0,-0 2.171,-21.034 9.608,-22.046c7.438,-1.008 15.775,15.775 15.775,15.775" style="fill:none;fill-rule:nonzero;stroke:#000;stroke-width:3.1px;stroke-linecap:round;stroke-linejoin:round;"/><path d="M1571.24,1025.34c0,0 17.946,11.913 22.413,8.858c4.467,-3.05 5.421,-22.645 5.421,-22.645" style="fill:none;fill-rule:nonzero;stroke:#000;stroke-width:3.1px;stroke-linecap:round;stroke-linejoin:round;"/><path d="M1340.7,1014.14c16.721,0 30.279,-12.696 30.279,-28.358c0,-15.663 -13.558,-28.363 -30.279,-28.363c-16.725,0 -30.283,12.7 -30.283,28.363c-0,15.662 13.558,28.358 30.283,28.358Z" style="fill:#fff;fill-rule:nonzero;stroke:#000;stroke-width:3.1px;stroke-linecap:round;stroke-linejoin:round;"/><path d="M1258.22,1031.18c16.725,-0 30.279,-12.696 30.279,-28.359c-0,-15.666 -13.554,-28.362 -30.279,-28.362c-16.725,-0 -30.284,12.696 -30.284,28.362c0,15.663 13.559,28.359 30.284,28.359Z" style="fill:#fff;fill-rule:nonzero;stroke:#000;stroke-width:3.1px;stroke-linecap:round;stroke-linejoin:round;"/><path d="M1267.67,1018.08c11.141,0 20.175,-8.458 20.175,-18.895c-0,-10.434 -9.034,-18.892 -20.175,-18.892c-11.142,-0 -20.171,8.458 -20.171,18.892c-0,10.437 9.029,18.895 20.171,18.895Z" style="fill-rule:nonzero;stroke:#000;stroke-width:2.06px;stroke-linecap:round;stroke-linejoin:round;"/><path d="M1349.69,1001.04c11.141,0 20.175,-8.458 20.175,-18.896c-0,-10.433 -9.034,-18.891 -20.175,-18.891c-11.142,-0 -20.175,8.458 -20.175,18.891c-0,10.438 9.033,18.896 20.175,18.896Z" style="fill-rule:nonzero;stroke:#000;stroke-width:2.06px;stroke-linecap:round;stroke-linejoin:round;"/><path d="M201.249,1462.37c0,0 4.74,-10.979 9.13,-8.104c4.389,2.875 8.843,20.717 8.843,20.717l-8.096,14.358l-41.051,48.192l-38.601,39.912c-0,0 -43.987,9.392 -63.169,1.692c-19.181,-7.7 -12.923,-16.813 -12.923,-16.813c-0,0 18.996,-14.92 28.587,-19.208c9.591,-4.283 13.525,-21.004 13.525,-21.004l19.314,-42.979l12.365,-20.759c0,0 10.945,-11.583 22.245,-1.925c11.301,9.663 16.63,14.134 16.63,14.134c-0,-0 30.859,1.796 33.201,-8.213Z" style="fill-rule:nonzero;"/><path d="M376.55,1354.25c0,0 1.994,-18.671 -7.988,-18.996c-9.983,-0.325 -24.054,-1.916 -24.054,-1.916c-0,-0 -2.874,-22.446 -31.497,-23.875c-28.621,-1.429 -28.443,15.85 -28.443,15.85c0,-0 -17.999,13.046 -29.557,13.208c-11.559,0.163 -52.609,9.733 -53.572,16.817c-0.964,7.083 15.688,27.104 31.337,34.091c15.648,6.992 24.528,6.559 24.528,6.559c-0,-0 23.271,-42.284 54.335,-46.879c31.063,-4.592 60.592,5.308 63.879,6.608c3.286,1.296 1.032,-1.467 1.032,-1.467Z" style="fill-rule:nonzero;"/><path d="M218.941,1415.07l-9.699,23.117l-12.644,1.287l-31.238,-0.437l-16.009,-3.967l-8.747,-13.842l-5.48,-11l-4.704,-11.283l-3.321,-32.258l-4.838,-14.284l-1.684,-23.221l0,-49.345l3.027,-13.005l10.14,-18.779l24.387,-28.116l32.321,-27.996l45.797,-32.171l30.779,-19.5l6.944,-21.65l1.98,-18.3l0.887,-30.271l-3.103,-23.387l-3.205,-11.038l-37.337,-0.533l-16.194,-3.721l-11.401,-8.725l-12.037,7.042l-75.353,22.595l-15.954,2.405l-7.121,-3.588l-13.748,-17.667l-5.166,-19.85l1.61,-12.116l7.459,-18.884l12.787,-17.987c-0,-0 9.493,-11.004 9.345,-9.875c-0.142,1.133 16.698,-16.521 37.455,-21.696c20.756,-5.171 60.104,-14.287 60.104,-14.287l44.587,-9.05l-16.54,-7.609l-24.873,-12.687c-0,-0 -21.024,-15.525 -21.63,-18.396c-0.607,-2.871 -5.668,-13.163 18.39,-18.317c0,0 23.344,26.513 46.949,34.513c23.606,8 45.362,14.425 44.006,13.712c-1.357,-0.708 35.562,3.471 61.624,-1.258c26.062,-4.725 59.081,-20.413 59.081,-20.413l31.425,-17.77l28.9,-22.367l20.412,-21.825l14.142,-21.525l7.65,-28.85c0,-0 13.992,6.258 21.521,14.708c7.529,8.45 7.833,17.054 5.612,22.338c-2.225,5.283 -9.754,14.05 -9.754,14.05l15.079,0.087c0,0 57.263,-1.666 90.755,12.492c33.491,14.162 48.954,25.5 48.954,25.5l26.396,22.717l17.837,20.645l-55.758,67.275l-64.229,3.471c-0,0 -41.375,4.075 -43.042,-14.471l-13.738,3.059l-9.129,-0.142c0,0 20.017,15.625 22.875,40.929c2.859,25.3 3.971,50.709 3.971,50.709l-0.108,26.045c-0,0 2.241,23.05 -4.092,38.663c-6.333,15.608 -13.792,19.5 -13.792,19.5c0,-0 5.321,20.821 4.759,31.712c-0.563,10.888 -2.904,22.317 -2.904,22.317c-0,0 -3.9,22.696 -20.259,45.342c-16.358,22.65 -44.304,29.558 -44.304,29.558c0,0 -41.637,8.296 -47.079,1.438c-0,-0 -6.725,19.958 -17.967,27.07c-11.246,7.109 -32.751,5.88 -32.751,5.88l-15.697,17.916c-0,0 -29.268,-17.321 -54.093,-16.4l-9.737,1l-0.763,8.813c0,-0 -27.01,0.633 -31.933,10.533c-4.923,9.904 -9.219,15.825 -19.602,17.254c-10.384,1.429 -53.558,9.471 -63.695,17.025c-10.137,7.554 -24.616,13.738 -11.922,36.375c12.694,22.642 22.948,16.984 28.427,24.767Z" style="fill-rule:nonzero;"/><path d="M201.129,1353.73c-0,-0 3.797,17.5 18.095,27.316c14.298,9.813 38.052,15.413 38.052,15.413l-12.277,23.508c-0,0 -38.327,-5.392 -48.63,-22.417c-10.304,-17.025 -16.989,-32.416 4.76,-43.82Z" style="fill:#fff;fill-rule:nonzero;"/><path d="M53.681,1563.62c-0.123,1.254 1.544,14.729 22.9,16.838c21.356,2.108 53.702,-3.509 53.702,-3.509l-42.064,44.146c-0,0 -24.043,4.313 -35.673,-4.325c-11.632,-8.637 -13.308,-35.6 1.135,-53.15Z" style="fill:#fff;fill-rule:nonzero;"/><path d="M155.888,1437.52l-0.375,21.925l12.86,11.663l21.183,-1.625c-0,-0 10.358,-1.334 10.297,-2.855c-0.053,-1.52 -1.046,-26.554 -1.046,-26.554l-42.919,-2.554Z" style="fill:#fff;fill-rule:nonzero;"/><path d="M318.231,1299.71l-0.43,8.95c0,-0 23.71,6.508 26.781,24.083l22.099,2.167l4.587,-27.021c0,0 -33.689,-11.483 -53.037,-8.179Z" style="fill:#fff;fill-rule:nonzero;"/><path d="M8.066,1050.16l15.266,-0.3l10.654,25.158l6.243,-2.604c-0,-0 5.467,2.446 6.912,-0.454c1.445,-2.896 10.056,-6.059 12.491,-2.775c2.435,3.283 5.147,-0.784 9.166,-5.046c4.019,-4.263 5.994,-9.313 12.638,-1.917c6.643,7.396 10.673,16.934 5.463,18.742c-5.21,1.812 -17.106,0.779 -19.029,0.312c-1.923,-0.47 -3.991,-1.437 -3.991,-1.437c-0,-0 -3.966,8.829 -13.97,8.233c-10.003,-0.591 -18.603,-7.046 -18.603,-7.046c-0,0 -12.834,7.446 -16.349,2.788c-3.515,-4.663 0.124,-11.708 0.124,-11.708l-7.334,-15.88l0.319,-6.066Z" style="fill:#fff;fill-rule:nonzero;"/><path d="M621.499,969.677c-0,0 -6.575,17.484 6.133,25.259c12.704,7.771 26.959,2.104 26.959,2.104l20.379,-8.75c-0,-0 9.079,-1.138 14.55,3.304c5.471,4.442 35.041,13.067 55.579,-3.854c20.537,-16.917 20.346,-37.275 19.029,-42.688c-1.321,-5.408 -14.204,-18.275 -14.204,-18.275c-0,0 7.025,-26.166 -3.754,-27.62c-10.779,-1.455 -18.2,8.183 -18.434,10.329c-0.233,2.146 -16.754,-9.617 -20.791,4.733l-14.738,-4.221c0,0 -8.116,-21.616 -20.929,-17.725c-12.812,3.892 -38.996,23.496 -34.954,43.696c4.046,20.2 26.25,12.321 26.25,12.321l4.017,-6.167l-0.93,-7.325l10.688,5.567l-0.483,17.433l4.791,8.713l-59.158,3.166Z" style="fill:#fff;fill-rule:nonzero;"/><path d="M79.047,1027.72c-0,0 -30.129,-5.487 -34.174,-7.942c-4.045,-2.45 -17.404,-11.875 -21.522,-1.337c-4.118,10.537 -13.842,31.475 -13.842,31.475l13.532,-0.004l4.129,7.408l7.856,18.354l3.7,-3.266c0,-0 2.661,3.45 6.295,0.383c3.633,-3.067 8.785,-7.721 12.18,-4.433c3.394,3.291 7.488,-0.255 7.488,-0.255l8.586,-8.991c0,-0 6.671,-0.867 8.218,3.158c1.548,4.021 7.053,7.913 7.053,7.913l9.951,-18.238c0,0 -13.243,-11.487 -14.223,-13.517c-0.98,-2.033 -5.227,-10.708 -5.227,-10.708Z" style="fill-rule:nonzero;"/><path d="M251.699,909.807c0,-0 -85.79,14.3 -121.249,29.129c-27.08,11.329 -53.285,48.183 -53.925,70.633c-0.639,22.454 18.033,45.667 29.804,44.738c11.77,-0.93 88.51,-19.842 98.71,-31.817" style="fill:none;fill-rule:nonzero;stroke:#000;stroke-width:14.34px;stroke-linecap:round;stroke-linejoin:round;"/><path d="M171.329,963.848c0,0 26.719,69.642 58.727,71.217c32.009,1.575 49.046,0.387 49.046,0.387" style="fill:none;fill-rule:nonzero;stroke:#000;stroke-width:14.34px;stroke-linecap:round;stroke-linejoin:round;"/><path d="M448.153,1183.96c0,-0 31.258,119.241 -49.739,114.1l-16.345,17.008c0,-0 -32.651,-21.475 -72.377,-14.071l-1.902,-28.05c-0,0 -37.611,-7.883 -44.615,-69.104c-7.489,-65.45 14.269,-158.771 149.14,-129.196c90.059,19.746 125.58,27.421 142.971,54.063c21.446,32.845 3.155,152.508 -106.325,137.908" style="fill:none;fill-rule:nonzero;stroke:#000;stroke-width:14.34px;stroke-linecap:round;stroke-linejoin:round;"/><path d="M557.645,1136.21c-0,-0 21.3,-13.238 19,-54.45c-2.296,-41.213 5.846,-99.271 -28.154,-122.796" style="fill:none;fill-rule:nonzero;stroke:#000;stroke-width:14.34px;stroke-linecap:round;stroke-linejoin:round;"/><path d="M506.782,894.357c0,-0 -5.762,80.129 66.879,61.7" style="fill:none;fill-rule:nonzero;stroke:#000;stroke-width:14.34px;stroke-linecap:round;stroke-linejoin:round;"/><path d="M591.086,872.194c0,0 2.342,27.621 -7.508,44.279c-9.85,16.663 -25.604,50.642 11.35,52.971c36.95,2.325 85.546,-3.237 85.546,-3.237" style="fill:none;fill-rule:nonzero;stroke:#000;stroke-width:14.34px;stroke-linecap:round;stroke-linejoin:round;"/><path d="M535.099,819.198c-0,0 128.125,-20.879 200.496,81.242" style="fill:none;fill-rule:nonzero;stroke:#000;stroke-width:14.34px;stroke-linecap:round;stroke-linejoin:round;"/><path d="M750.741,927.436c-0,-0 5.987,-25.384 -5.059,-27.954c-11.041,-2.58 -25.308,9.112 -18.758,32.045c6.546,22.934 21.517,11.992 23.817,-4.091Z" style="fill:none;fill-rule:nonzero;stroke:#000;stroke-width:14.34px;stroke-linecap:round;stroke-linejoin:round;"/><path d="M728.374,910.511c-0,-0 -17.096,-10.421 -20.675,2.55c-3.579,12.966 -3.696,48.204 6.525,49.983c10.217,1.783 11.758,-19.546 10.437,-35.412" style="fill:none;fill-rule:nonzero;stroke:#000;stroke-width:14.34px;stroke-linecap:round;stroke-linejoin:round;"/><path d="M706.003,913.952c0,0 -20.129,-6.666 -24.004,-1.85c-3.871,4.813 -5.671,9.155 -5.567,24.963c0.109,15.812 -4.021,28.254 9.879,31.129c13.9,2.879 12.355,-27.467 12.613,-33.754c0.254,-6.288 0.508,-15.375 0.508,-15.375" style="fill:none;fill-rule:nonzero;stroke:#000;stroke-width:14.34px;stroke-linecap:round;stroke-linejoin:round;"/><path d="M694.286,911.257c0,-0 -9.737,-21.55 -22.729,-18.392c-12.987,3.162 -31.654,15.342 -34.946,35.804c-3.295,20.467 16.121,25.796 25.6,19.171c9.48,-6.629 -2.041,-10.142 6.7,-24.142" style="fill:none;fill-rule:nonzero;stroke:#000;stroke-width:14.34px;stroke-linecap:round;stroke-linejoin:round;"/><path d="M621.12,970.702c-0,0 -8.725,23.546 15.962,27.284c24.688,3.737 37.688,-17.046 49.625,-7.809c11.934,9.238 64.238,18.271 77.967,-32.529c-0,0 4.975,-17.7 -14.75,-30.512" style="fill:none;fill-rule:nonzero;stroke:#000;stroke-width:14.34px;stroke-linecap:round;stroke-linejoin:round;"/><path d="M675.932,939.936c0,-0 -8.971,-7.163 -10.65,-5.104" style="fill:none;fill-rule:nonzero;stroke:#000;stroke-width:14.34px;stroke-linecap:round;stroke-linejoin:round;"/><path d="M80.244,1027.69c-0,-0 -27.667,-3.292 -42.503,-11.575c-14.836,-8.284 -17.777,8.554 -20.644,16.383c-2.866,7.829 -12.863,20.288 -9.087,25.554c3.776,5.267 7.833,17.754 7.439,14.438" style="fill:none;fill-rule:nonzero;stroke:#000;stroke-width:14.34px;stroke-linecap:round;stroke-linejoin:round;"/><path d="M49.22,1052c-0,0 -18.093,-0.704 -23.572,7.646c-5.479,8.35 -15.991,17.254 -11.166,23.717c4.825,6.462 19.687,-1.8 22.735,-10.3c3.048,-8.496 13.652,-8.088 13.652,-8.088" style="fill:none;fill-rule:nonzero;stroke:#000;stroke-width:14.34px;stroke-linecap:round;stroke-linejoin:round;"/><path d="M29.768,1081.92c0,0 26.001,12.233 32.221,1.808c6.22,-10.42 -7.441,-21 -14.225,-13.62c-6.785,7.383 -9.671,1.566 -9.671,1.566" style="fill:none;fill-rule:nonzero;stroke:#000;stroke-width:14.34px;stroke-linecap:round;stroke-linejoin:round;"/><path d="M63.528,1080.14c0,-0 24.772,6.812 25.826,-3.079c1.054,-9.892 -14.765,-23.742 -18.815,-15.479c-4.05,8.262 -10.045,8.575 -10.045,8.575" style="fill:none;fill-rule:nonzero;stroke:#000;stroke-width:14.34px;stroke-linecap:round;stroke-linejoin:round;"/><path d="M88.142,1070.22l10.923,-18.108" style="fill:none;fill-rule:nonzero;stroke:#000;stroke-width:14.34px;stroke-linecap:round;stroke-linejoin:round;"/><path d="M34.558,1076.14c-1.64,-7.329 -7.163,-17.1 -7.163,-17.1l-3.89,-9.654l-14.464,-0.05" style="fill:none;fill-rule:nonzero;stroke:#000;stroke-width:14.34px;stroke-linecap:round;stroke-linejoin:round;"/><path d="M268.162,1139.64c0,-0 -146.931,83.987 -147.769,142.854c-0.839,58.871 1.234,71.729 5.775,82.192c4.541,10.466 0.981,31.533 7.867,42.546c6.886,11.012 9.403,29.05 22.496,30.441c13.093,1.392 50.143,5.709 53.37,-1.104c3.228,-6.812 9.292,-23.183 9.292,-23.183" style="fill:none;fill-rule:nonzero;stroke:#000;stroke-width:14.34px;stroke-linecap:round;stroke-linejoin:round;"/><path d="M246.665,1418.52c-13.543,3.704 -53.991,-11.225 -59.251,-37.621c-5.26,-26.395 25.215,-34.604 69.926,-43.441c44.713,-8.838 14.346,-22.921 47.133,-27.454c32.787,-4.534 40.271,23.725 40.271,23.725l24.986,2.033c-0,-0 5.188,-0.738 6.572,8.983c1.383,9.721 0.124,14.059 0.124,14.059" style="fill:none;fill-rule:nonzero;stroke:#000;stroke-width:14.34px;stroke-linecap:round;stroke-linejoin:round;"/><path d="M366.914,1334.13l4.453,-24.596" style="fill:none;fill-rule:nonzero;stroke:#000;stroke-width:14.34px;stroke-linecap:round;stroke-linejoin:round;"/><path d="M318.145,1299.99l-0.555,9.4" style="fill:none;fill-rule:nonzero;stroke:#000;stroke-width:14.34px;stroke-linecap:round;stroke-linejoin:round;"/><path d="M89.559,1620.48c0,0 -39.59,27.313 -33.125,45.896c6.465,18.579 45.895,76.692 100.333,64.009c54.438,-12.68 122.04,-68.88 172.9,-129.071c50.86,-60.192 127.644,-170.075 82.985,-218.192c-44.658,-48.112 -110.363,-44.637 -139.322,-9.579c-28.959,35.058 -38.051,86.746 -73.144,129.133c-35.092,42.392 -110.627,117.804 -110.627,117.804Z" style="fill:#fff;fill-rule:nonzero;stroke:#000;stroke-width:14.34px;stroke-linecap:round;stroke-linejoin:round;"/><path d="M61.246,1674.87c0,-0 36.97,-46.125 46.255,-51.375c9.285,-5.246 133.669,-138.867 147.728,-196.35c14.059,-57.488 78.375,-82.392 108.38,-73.996" style="fill:none;fill-rule:nonzero;stroke:#000;stroke-width:14.34px;stroke-linecap:round;stroke-linejoin:round;"/><path d="M91.02,1619.7c0.071,-0.591 -44.184,11.384 -47.708,-18.658c-4.476,-38.162 29.337,-52.154 42.104,-59.021c12.766,-6.871 32.109,-77.771 46.963,-86.596c14.853,-8.825 35.057,15.055 35.057,15.055c0,-0 35.936,1.158 34.916,-7.942c-1.021,-9.096 15.015,-16.338 17.064,12.612" style="fill:none;fill-rule:nonzero;stroke:#000;stroke-width:14.34px;stroke-linecap:round;stroke-linejoin:round;"/><path d="M199.206,1440.59l0.418,24.238" style="fill:none;fill-rule:nonzero;stroke:#000;stroke-width:14.34px;stroke-linecap:round;stroke-linejoin:round;"/><path d="M155.631,1438.74l0.004,21.825" style="fill:none;fill-rule:nonzero;stroke:#000;stroke-width:14.34px;stroke-linecap:round;stroke-linejoin:round;"/><path d="M53.886,1564.61c0,-0 -1.25,28.762 78.196,12.012" style="fill:none;fill-rule:nonzero;stroke:#000;stroke-width:14.34px;stroke-linecap:round;stroke-linejoin:round;"/><path d="M44.653,1584.43c-0,-0 31.768,21.337 66.959,13.291" style="fill:none;fill-rule:nonzero;stroke:#000;stroke-width:14.34px;stroke-linecap:round;stroke-linejoin:round;"/><path d="M200.699,1354.99c0,0 10.165,35.225 55.446,41.188" style="fill:none;fill-rule:nonzero;stroke:#000;stroke-width:14.34px;stroke-linecap:round;stroke-linejoin:round;"/><path d="M271.348,1035.67c-0,0 13.201,39.213 -0.177,91.863" style="fill:none;fill-rule:nonzero;stroke:#000;stroke-width:14.34px;stroke-linecap:round;stroke-linejoin:round;"/><path d="M390.441,891.057c0,-0 168.7,-64.092 120.079,-169c-45.717,-98.646 -110.738,-53.617 -100.663,-117.35c10.075,-63.738 75.342,-163.688 27.371,-190.647c-47.969,-26.957 -77.883,44.142 -79.569,112.48c-1.685,68.333 3.96,105.412 3.96,105.412c-0,0 -64.083,10.738 -70.375,7.555c-6.291,-3.184 -63.193,-174.567 -138.028,-178.063c-74.836,-3.496 -8.609,76.933 23.935,118.075c17.996,22.75 73.646,78.188 53.135,97.063c-20.622,18.975 -52.768,56.591 -51.315,114.079c1.454,57.487 78.893,142.754 211.47,100.396Z" style="fill:#fff;fill-rule:nonzero;stroke:#000;stroke-width:14.34px;stroke-linecap:round;stroke-linejoin:round;"/><path d="M519.978,766.74c0,-0 36.496,15.329 25.375,38.542c-11.125,23.212 -77.067,70.441 -135.543,77.566" style="fill:none;fill-rule:nonzero;stroke:#000;stroke-width:4.93px;stroke-linecap:round;stroke-linejoin:round;"/><path d="M203.745,852.419c0,0 -26.653,6.4 -15.941,20.113c10.712,13.708 65.871,55.512 124.654,31.029" style="fill:none;fill-rule:nonzero;stroke:#000;stroke-width:4.93px;stroke-linecap:round;stroke-linejoin:round;"/><path d="M373.331,631.861l22.225,0.712c-0,0 18.789,-114.55 30.347,-138.525c11.558,-23.971 4.796,-54.471 -23.103,-41.525c-27.898,12.946 -29.469,179.338 -29.469,179.338Z" style="fill-rule:nonzero;stroke:#000;stroke-width:4.93px;stroke-linecap:round;stroke-linejoin:round;"/><path d="M254.854,662.19l24.027,-13.733c-0,-0 -76.353,-157.03 -110.96,-144.65c-34.605,12.379 73.848,102.654 86.933,158.383Z" style="fill-rule:nonzero;stroke:#000;stroke-width:4.93px;stroke-linecap:round;stroke-linejoin:round;"/><path d="M473.591,802.298c0.383,1.017 -0.063,2.3 -1.238,3.567c-1.179,1.267 -2.996,2.412 -5.046,3.187c-2.05,0.775 -4.166,1.113 -5.887,0.942c-1.721,-0.171 -2.904,-0.837 -3.288,-1.854c-0.383,-1.017 0.063,-2.3 1.238,-3.567c1.179,-1.266 2.991,-2.412 5.041,-3.187c2.05,-0.775 4.171,-1.117 5.892,-0.946c1.721,0.171 2.904,0.842 3.288,1.858Z"/><path d="M416.867,802.411c0,-0 -51.738,-25.625 -70.648,-20.504l70.648,20.504Z" style="fill-rule:nonzero;"/><path d="M469.624,778.402c-0,0 11.075,-56.695 26.625,-68.62l-26.625,68.62Z" style="fill-rule:nonzero;"/><path d="M672.528,1644.92l54.438,64.804c-0,0 29.67,41.567 44.762,40.621c15.096,-0.941 24.567,-18.404 24.567,-18.404l14.279,-36.233c-0,-0 14.454,-36.625 1.275,-47.375c-13.179,-10.754 -27.017,8.962 -27.017,8.962l-16.175,23.284l-41.487,-41.409l-54.642,5.75Z" style="fill:#fff;fill-rule:nonzero;stroke:#000;stroke-width:9.45px;stroke-linecap:round;stroke-linejoin:round;"/><path d="M622.236,1650.04c0,-0 -32.004,54.392 -46.195,70.521c-14.188,16.129 -25.967,30.125 -43.371,28.741c-17.404,-1.383 -32.021,-13.704 -35.567,-20.6c0,0 -33.396,34.488 -46.221,29.867c-12.821,-4.621 -11.737,-20.967 -9.166,-32.104c2.57,-11.138 13.17,-31.304 27.766,-44.396c14.6,-13.087 34.013,-28.346 39.971,-28.612c5.963,-0.263 9.517,1.57 11.396,4.291c1.875,2.721 11.054,14.317 11.054,14.317l14.096,-22.692l76.237,0.667Z" style="fill:#fff;fill-rule:nonzero;stroke:#000;stroke-width:9.45px;stroke-linecap:round;stroke-linejoin:round;"/><path d="M769.657,1260.18l-210.566,-4.83l-124.321,55.934l17.441,335.15l136.113,6.1l229.537,-20.721l-48.204,-371.633Z" style="fill:#fff;fill-rule:nonzero;stroke:#000;stroke-width:9.45px;stroke-linecap:round;stroke-linejoin:round;"/><path d="M753.32,1373.76c-0,20.083 -7.971,39.341 -22.163,53.541c-14.187,14.2 -33.433,22.184 -53.504,22.184c-20.067,0.004 -39.312,-7.971 -53.508,-22.167c-14.192,-14.196 -22.171,-33.454 -22.175,-53.538c-0.009,-20.079 7.958,-39.341 22.146,-53.545c14.183,-14.209 33.425,-22.192 53.495,-22.2c20.067,-0.013 39.317,7.958 53.513,22.15c14.2,14.191 22.183,33.445 22.196,53.529" style="fill:#fff;"/><path d="M753.32,1373.76c-0,20.083 -7.971,39.341 -22.163,53.541c-14.187,14.2 -33.433,22.184 -53.504,22.184c-20.067,0.004 -39.312,-7.971 -53.508,-22.167c-14.192,-14.196 -22.171,-33.454 -22.175,-53.538c-0.009,-20.079 7.958,-39.341 22.146,-53.545c14.183,-14.209 33.425,-22.192 53.495,-22.2c20.067,-0.013 39.317,7.958 53.513,22.15c14.2,14.191 22.183,33.445 22.196,53.529" style="fill:none;fill-rule:nonzero;stroke:#000;stroke-width:9.45px;stroke-linecap:round;stroke-linejoin:round;"/><path d="M706.078,1426.62c0,-0 14.029,-18.854 -2.742,-51.896c-16.775,-33.046 -52.279,-41.667 -76.345,-37.1c-0,0 -16.271,20.875 -7.55,48.538c8.72,27.662 31.079,42.983 44.895,44.662c13.821,1.679 31.442,3.129 41.742,-4.204Z" style="fill-rule:nonzero;stroke:#000;stroke-width:9.45px;stroke-linecap:round;stroke-linejoin:round;"/><path d="M741.732,1370.07c0,16.554 -6.571,32.429 -18.266,44.134c-11.696,11.704 -27.559,18.279 -44.096,18.283c-16.542,-0 -32.404,-6.571 -44.104,-18.271c-11.7,-11.7 -18.275,-27.575 -18.28,-44.125c-0.004,-16.55 6.563,-32.429 18.255,-44.137c11.691,-11.709 27.55,-18.288 44.091,-18.296c16.538,-0.009 32.404,6.558 44.109,18.258c11.7,11.696 18.279,27.567 18.291,44.121" style="fill:none;fill-rule:nonzero;stroke:#000;stroke-width:9.45px;stroke-linecap:round;stroke-linejoin:round;"/><path d="M628.236,1336.58c0,-0 44.209,-6.905 69.959,30.641c25.75,37.546 7.041,58.813 7.041,58.813" style="fill:none;fill-rule:nonzero;stroke:#000;stroke-width:9.45px;stroke-linecap:round;stroke-linejoin:round;"/><path d="M772.778,1546.24c0,20.083 -7.975,39.342 -22.162,53.542c-14.188,14.204 -33.434,22.183 -53.505,22.183c-20.066,0.004 -39.312,-7.971 -53.508,-22.167c-14.192,-14.196 -22.171,-33.454 -22.175,-53.537c-0.008,-20.079 7.958,-39.342 22.142,-53.546c14.187,-14.208 33.429,-22.192 53.5,-22.2c20.066,-0.008 39.316,7.958 53.512,22.15c14.2,14.192 22.184,33.45 22.196,53.529" style="fill:#fff;"/><path d="M772.778,1546.24c0,20.083 -7.975,39.342 -22.162,53.542c-14.188,14.204 -33.434,22.183 -53.505,22.183c-20.066,0.004 -39.312,-7.971 -53.508,-22.167c-14.192,-14.196 -22.171,-33.454 -22.175,-53.537c-0.008,-20.079 7.958,-39.342 22.142,-53.546c14.187,-14.208 33.429,-22.192 53.5,-22.2c20.066,-0.008 39.316,7.958 53.512,22.15c14.2,14.192 22.184,33.45 22.196,53.529" style="fill:none;fill-rule:nonzero;stroke:#000;stroke-width:9.45px;stroke-linecap:round;stroke-linejoin:round;"/><path d="M646.424,1509.15c-0,0 36.262,-5.654 64.604,21.825c28.342,27.484 20.975,57.884 13.783,67.904c0,0 -27.279,14.88 -57.266,-2.358c-29.984,-17.242 -38.3,-55.821 -21.121,-87.371Z" style="fill-rule:nonzero;stroke:#000;stroke-width:9.45px;stroke-linecap:round;stroke-linejoin:round;"/><path d="M761.191,1542.56c-0,16.55 -6.571,32.425 -18.267,44.129c-11.696,11.704 -27.558,18.279 -44.096,18.283c-16.542,0.004 -32.404,-6.571 -44.104,-18.271c-11.7,-11.7 -18.275,-27.57 -18.279,-44.125c-0.004,-16.55 6.562,-32.425 18.254,-44.133c11.692,-11.708 27.55,-18.292 44.092,-18.3c16.537,-0.004 32.404,6.563 44.108,18.258c11.7,11.7 18.279,27.567 18.292,44.121" style="fill:none;fill-rule:nonzero;stroke:#000;stroke-width:9.45px;stroke-linecap:round;stroke-linejoin:round;"/><path d="M647.686,1509.07c0,-0 44.213,-6.904 69.963,30.642c25.75,37.545 7.042,58.812 7.042,58.812" style="fill:none;fill-rule:nonzero;stroke:#000;stroke-width:9.45px;stroke-linecap:round;stroke-linejoin:round;"/><path d="M622.632,1650.87c0,0 -49.421,88.759 -78.591,96.846c-29.171,8.092 -44.746,-13.487 -62.142,-41.071" style="fill:none;fill-rule:nonzero;stroke:#000;stroke-width:9.45px;stroke-linecap:round;stroke-linejoin:round;"/><path d="M546.428,1650.44l-16.779,23.867" style="fill:none;fill-rule:nonzero;stroke:#000;stroke-width:9.45px;stroke-linecap:round;stroke-linejoin:round;"/><path d="M537.924,1684.94c-0,-0 -16.121,-37.325 -28.892,-31.188c-24.8,11.921 -58.425,40.346 -66.029,68.267c-7.6,27.917 0.979,41.329 16.842,34.775c15.862,-6.554 37.708,-28.271 37.708,-28.271" style="fill:none;fill-rule:nonzero;stroke:#000;stroke-width:9.45px;stroke-linecap:round;stroke-linejoin:round;"/><path d="M673.749,1645.35l73.725,88.9c-0,0 12.537,15.434 23.446,15.913c10.912,0.483 21.371,-9.204 24.966,-19.054c3.6,-9.85 31.525,-62.342 17.405,-81.179c-14.121,-18.834 -45.95,24.82 -48.23,41.033" style="fill:none;fill-rule:nonzero;stroke:#000;stroke-width:9.45px;stroke-linecap:round;stroke-linejoin:round;"/><path d="M768.716,1681.28l-40.071,-40.338" style="fill:none;fill-rule:nonzero;stroke:#000;stroke-width:9.45px;stroke-linecap:round;stroke-linejoin:round;"/><path d="M808.049,1647.69c-0,-0 -55.513,59.342 -42.188,101.521" style="fill:none;fill-rule:nonzero;stroke:#000;stroke-width:9.45px;stroke-linecap:round;stroke-linejoin:round;"/><path d="M703.97,1565.63l34.771,-4.395l4.316,-54.955l177.788,-73.679l7.454,140.367l-28.221,22.137l-81.517,-36.933l-0.654,32.392l-28.979,18.779l-84.958,-43.713Z" style="fill:#fff;fill-rule:nonzero;stroke:#000;stroke-width:9.45px;stroke-linecap:round;stroke-linejoin:round;"/><path d="M817.482,1557.37l-15.654,-8.262l-12.333,58.183" style="fill:none;fill-rule:nonzero;stroke:#000;stroke-width:9.45px;stroke-linecap:round;stroke-linejoin:round;"/><path d="M725.303,551.757c-9.012,29.687 -29.442,54.57 -56.796,69.179c-27.358,14.608 -59.396,17.746 -89.075,8.721c-29.675,-9.025 -54.562,-29.471 -69.179,-56.842c-14.617,-27.371 -17.771,-59.425 -8.771,-89.117c9.004,-29.687 29.425,-54.575 56.775,-69.191c27.35,-14.617 59.392,-17.764 89.071,-8.749c29.679,9.016 54.571,29.453 69.196,56.824c14.625,27.366 17.792,59.42 8.796,89.108" style="fill:#30aad8;"/><path d="M725.303,551.757c-9.012,29.687 -29.442,54.57 -56.796,69.179c-27.358,14.608 -59.396,17.746 -89.075,8.721c-29.675,-9.025 -54.562,-29.471 -69.179,-56.842c-14.617,-27.371 -17.771,-59.425 -8.771,-89.117c9.004,-29.687 29.425,-54.575 56.775,-69.191c27.35,-14.617 59.392,-17.764 89.071,-8.749c29.679,9.016 54.571,29.453 69.196,56.824c14.625,27.366 17.792,59.42 8.796,89.108" style="fill:none;fill-rule:nonzero;stroke:#000;stroke-width:2.01px;"/><path d="M636.424,402.838c-0,0 -1.979,-47.416 26.129,-96.951c28.104,-49.536 54.025,-59.517 64.675,-46.935c10.65,12.582 9.617,24.592 -12.171,37.535c-21.787,12.942 -63.216,70.439 -59.296,111.453l-19.337,-5.102Z" style="fill-rule:nonzero;stroke:#000;stroke-width:1.87px;"/><path d="M547.441,473.782c-3.938,7.85 -8.85,14.808 -13.655,19.345c-4.804,4.538 -9.108,6.28 -11.966,4.842c-2.859,-1.433 -4.038,-5.925 -3.275,-12.492c0.762,-6.566 3.404,-14.662 7.341,-22.512c3.938,-7.85 8.846,-14.813 13.655,-19.35c4.804,-4.538 9.108,-6.283 11.966,-4.85c2.863,1.433 4.038,5.925 3.279,12.487c-0.762,6.563 -3.4,14.663 -7.337,22.513" style="fill:#fff;"/><path d="M547.441,473.782c-3.938,7.85 -8.85,14.808 -13.655,19.345c-4.804,4.538 -9.108,6.28 -11.966,4.842c-2.859,-1.433 -4.038,-5.925 -3.275,-12.492c0.762,-6.566 3.404,-14.662 7.341,-22.512c3.938,-7.85 8.846,-14.813 13.655,-19.35c4.804,-4.538 9.108,-6.283 11.966,-4.85c2.863,1.433 4.038,5.925 3.279,12.487c-0.762,6.563 -3.4,14.663 -7.337,22.513" style="fill:none;fill-rule:nonzero;stroke:#000;stroke-width:2.07px;"/><path d="M545.066,469.452c-2.709,5.405 -6.092,10.196 -9.396,13.317c-3.309,3.125 -6.275,4.325 -8.242,3.333c-1.967,-0.987 -2.775,-4.079 -2.25,-8.6c0.525,-4.516 2.342,-10.091 5.05,-15.495c2.713,-5.405 6.092,-10.196 9.4,-13.321c3.308,-3.125 6.271,-4.325 8.242,-3.338c1.966,0.984 2.779,4.079 2.254,8.596c-0.525,4.517 -2.342,10.092 -5.05,15.496"/><path d="M669.111,479.282c-2.362,7.783 -7.72,14.304 -14.891,18.137c-7.171,3.829 -15.567,4.65 -23.35,2.283c-7.779,-2.362 -14.3,-7.725 -18.134,-14.9c-3.833,-7.175 -4.658,-15.579 -2.3,-23.362c2.363,-7.779 7.713,-14.304 14.884,-18.138c7.171,-3.829 15.571,-4.654 23.35,-2.291c7.779,2.362 14.304,7.721 18.137,14.896c3.838,7.17 4.667,15.575 2.309,23.358" style="fill:#fff;"/><path d="M669.111,479.282c-2.362,7.783 -7.72,14.304 -14.891,18.137c-7.171,3.829 -15.567,4.65 -23.35,2.283c-7.779,-2.362 -14.3,-7.725 -18.134,-14.9c-3.833,-7.175 -4.658,-15.579 -2.3,-23.362c2.363,-7.779 7.713,-14.304 14.884,-18.138c7.171,-3.829 15.571,-4.654 23.35,-2.291c7.779,2.362 14.304,7.721 18.137,14.896c3.838,7.17 4.667,15.575 2.309,23.358" style="fill:none;fill-rule:nonzero;stroke:#000;stroke-width:2.45px;"/><path d="M560.957,532.323c0,0 -28.475,1.467 -23.341,-17.566c5.133,-19.03 31.15,-30.875 52.333,-12.125c21.183,18.754 13.754,43.3 -28.992,29.691Z" style="fill-rule:nonzero;stroke:#000;stroke-width:1.87px;"/><path d="M656.507,473.832c-1.762,5.795 -5.483,10.733 -10.35,13.729c-4.871,2.996 -10.483,3.804 -15.608,2.246c-5.129,-1.559 -9.346,-5.355 -11.729,-10.555c-2.379,-5.2 -2.729,-11.379 -0.971,-17.175c1.754,-5.791 5.479,-10.733 10.346,-13.729c4.866,-2.996 10.479,-3.808 15.608,-2.25c5.125,1.559 9.346,5.354 11.729,10.55c2.384,5.2 2.734,11.375 0.979,17.171"/><path d="M717.995,459.298l-8.696,14.492c-0,-0 -6.2,-0.742 -9.296,5.592c-3.092,6.337 -3.092,14.458 2.525,19.25c5.621,4.795 18.517,3.783 17.954,-6.813l-0.05,-6.196l-3.908,-8.475c-0,0 8.237,-8.671 18.321,-2.958c10.083,5.717 19.279,24.275 19.279,24.275l3.021,8.392l0.708,12.679l-0.946,11.987l-3.587,16.442l8.291,-4.688l0.842,-4.116l-0.667,-7.088l1.109,-7.508l-1.35,-13.304l-6.142,-22.984l-37.408,-28.979Z" style="fill-rule:nonzero;"/><path d="M713.991,465.727l-5.196,-1.058c-0,0 -12.896,-3.15 -18.738,7.567c-5.841,10.712 -10.179,26.583 -10.179,26.583l-3.137,10.333l-3.705,18.759l-0.437,7.858l0.212,4.983l1.613,6.292l2.937,5.071l-12.591,4.154l-18.296,5.813l-14.446,2.354l-22.092,0.354l-12.42,-0.492c-0,0 1.15,-12.25 -12.075,-16.812c-13.225,-4.559 -23.925,-2.109 -23.925,-2.109c-0,0 -14.98,1.88 -18.1,8.771c-3.121,6.888 -4.867,19.696 3,24.809c7.862,5.116 26.533,6.091 26.533,6.091c-0,0 19.004,2.488 24.575,-12.816l20.121,-0.134l19.875,-1.266l18.666,-3.267l16.146,-5.038l9.084,-4.633l2.483,4.658l9.146,9.93c-0,-0 17.887,16.308 33.425,4.462c-0,0 11.641,1.75 18.083,-9.367c6.442,-11.116 9.983,-24.541 9.983,-24.541l2.43,-10.159l0.812,-13.566l-0.292,-11.304l-4.22,-11.9l-10.738,-15.63l-9.442,-7.27l-7.462,-1.413l-6.725,3.113l-2.788,2.104c0,-0 8.213,10.25 3.73,18.771c-4.488,8.525 -14.546,4.333 -14.546,4.333c-0,-0 -8.063,-3.658 -7.45,-13.183c-0,-0 1.25,-13.775 11.154,-13.134l4.992,-8.071Z" style="fill:#fff;fill-rule:nonzero;"/><path d="M655.924,405.355c-0,-0 40.471,-1.403 68.937,23.943c28.467,25.346 30.775,60.017 30.775,60.017l-37.591,-30.05c-0,-0 -16.192,-38.821 -59.859,-49.416l-3.975,-1.041l1.713,-3.453Z" style="fill:#fff;fill-rule:nonzero;stroke:#000;stroke-width:1.87px;"/><path d="M701.591,497.948l-10.671,41.992" style="fill:none;fill-rule:nonzero;stroke:#000;stroke-width:1.87px;"/><path d="M703.141,535.248c-0,0 -4.53,-0.379 -11.109,4.663c-6.579,5.041 -8.246,6.508 -8.246,6.508l-0.337,2.725c-0,0 -23.883,9.6 -40.842,13.608c-16.958,4.005 -52.904,1.171 -52.904,1.171l-1.058,7.375c-0,0 71.925,6.671 99.254,-18.637l2.008,2.508c0,0 14.234,-8.175 16.334,-14.275" style="fill:none;fill-rule:nonzero;stroke:#000;stroke-width:1.87px;"/><path d="M598.003,564.319c0,0 -0.533,-13.133 -14.083,-17.392c-13.546,-4.258 -36.404,-2.462 -39.938,7.313c-3.537,9.779 -6.816,23.958 10.354,28.062c17.171,4.109 37.238,5.98 43.15,-10.166" style="fill:none;fill-rule:nonzero;stroke:#000;stroke-width:1.87px;"/><path d="M696.024,552.048c-0,0 17.142,24.138 28.579,25.059c11.438,0.916 18.954,-3.642 26.392,-22.759c7.437,-19.121 8.421,-39.141 5.387,-50.075c-3.029,-10.937 -22.666,-44.583 -40.416,-27.162" style="fill:none;fill-rule:nonzero;stroke:#000;stroke-width:1.87px;"/><path d="M718.374,458.482l-9.396,15.708l7.192,2.804" style="fill:none;fill-rule:nonzero;stroke:#000;stroke-width:1.87px;"/><path d="M755.511,489.386c0,-0 9.021,28 6.921,40.062c-2.096,12.063 4.15,12.592 -8.708,18.229" style="fill:none;fill-rule:nonzero;stroke:#000;stroke-width:1.87px;"/><path d="M714.207,465.994c0,0 -17.358,-6.579 -24.733,7.463c-7.371,14.037 -24.667,65.466 -12.675,77.025" style="fill:none;fill-rule:nonzero;stroke:#000;stroke-width:1.87px;"/><path d="M681.403,558.911c0,-0 19.583,32.575 44.617,18.737" style="fill:none;fill-rule:nonzero;stroke:#000;stroke-width:1.87px;"/><path d="M709.378,474.057c0,-0 -6.533,-2.388 -10.296,7.279c-3.762,9.662 1.034,18.887 11.467,19.954c10.433,1.067 14.204,-15.238 5.404,-23.996" style="fill:none;fill-rule:nonzero;stroke:#000;stroke-width:1.87px;"/><path d="M660.728,466.19c-0.671,2.208 -1.854,4.162 -3.296,5.429c-1.437,1.271 -3.012,1.75 -4.379,1.333c-1.362,-0.412 -2.404,-1.687 -2.896,-3.545c-0.491,-1.855 -0.391,-4.138 0.279,-6.346c0.671,-2.209 1.855,-4.163 3.296,-5.429c1.438,-1.271 3.013,-1.75 4.375,-1.338c1.367,0.417 2.409,1.688 2.9,3.546c0.492,1.854 0.392,4.142 -0.279,6.35Z" style="fill:#fff;"/><path d="M551.278,456.869c-0.733,2.413 -1.758,4.629 -2.846,6.167c-1.087,1.533 -2.15,2.258 -2.954,2.012c-0.804,-0.246 -1.283,-1.437 -1.333,-3.316c-0.054,-1.88 0.329,-4.292 1.062,-6.709c0.734,-2.412 1.754,-4.633 2.842,-6.166c1.087,-1.534 2.15,-2.263 2.958,-2.017c0.804,0.242 1.284,1.437 1.334,3.317c0.054,1.879 -0.334,4.295 -1.063,6.712Z" style="fill:#fff;"/></svg>