<?xml version="1.0" encoding="UTF-8" standalone="no"?><!DOCTYPE svg PUBLIC "-//W3C//DTD SVG 1.1//EN" "http://www.w3.org/Graphics/SVG/1.1/DTD/svg11.dtd"><svg width="100%" height="100%" viewBox="0 0 961 677" version="1.1" xmlns="http://www.w3.org/2000/svg" xmlns:xlink="http://www.w3.org/1999/xlink" xml:space="preserve" xmlns:serif="http://www.serif.com/" style="fill-rule:evenodd;clip-rule:evenodd;"><g id="fumasa"><path id="path25224" d="M411.615,178.78c-0,0 -45.72,-75.687 -157.407,-61.821l-64.678,-110.004l35.216,133.714c0,0 -29.373,14.899 -37.89,60.548l-177.345,38.941l168.919,2.528c-0,0 -54.607,15.432 -64.364,81.551c-9.758,66.12 -1.816,135.188 103.651,148.538c-0,-0 10.059,84.872 123.747,74.434l80.868,122.912l-2.848,-110.73c0,-0 91.249,9.041 106.878,-117.74l-114.747,-262.871Z" style="fill:#fff;fill-rule:nonzero;stroke:#000;stroke-width:3.12px;"/><path id="path25165" d="M525.242,441.171c-0,0 -3.842,117.757 -106.273,119.458" style="fill:none;fill-rule:nonzero;stroke:#000;stroke-width:3.12px;"/><path id="path25167" d="M418.743,545.476l2.237,122.345l-79.65,-120.855c0,0 -101.13,17.363 -125.139,-74.912c-0,-0 -108.965,-1.307 -106.431,-111.555c2.534,-110.249 70.841,-117.928 70.841,-117.928l-174.159,-0.911l179.922,-40.698c0,0 7.251,-40.228 35.956,-59.974" style="fill:none;fill-rule:nonzero;stroke:#000;stroke-width:3.12px;"/><path id="path25169" d="M230.677,164.361l-40.901,-157.919l76.241,131.629" style="fill:none;fill-rule:nonzero;stroke:#000;stroke-width:3.12px;"/><path id="path25171" d="M254.299,117.657c0,-0 101.855,-19.012 157.718,62.442" style="fill:none;fill-rule:nonzero;stroke:#000;stroke-width:3.12px;"/><path id="path25173" d="M414.15,461.108c0,0 51.663,-84.674 -9.532,-126.282c-61.196,-41.608 -109.525,-17.686 -109.525,-17.686" style="fill:none;fill-rule:nonzero;stroke:#000;stroke-width:3.12px;"/><path id="path25175" d="M361.443,314.965c-0,0 55.595,-77.496 -69.725,-122.548" style="fill:none;fill-rule:nonzero;stroke:#000;stroke-width:3.12px;"/></g><g id="foguete"><path id="path3367" d="M448.543,164.67c0,0 -59.437,20.033 -60.62,30.741c-1.184,10.708 73.123,194.498 85.135,198.099c12.013,3.6 41.807,-17.106 41.807,-17.106" style="fill:#fff;fill-rule:nonzero;stroke:#000;stroke-width:7.85px;stroke-linecap:round;stroke-linejoin:round;"/><path id="path3365" d="M717.029,368.173c-0,0 -4.809,107.202 -85.098,96.931c-80.288,-10.27 -154.1,-24.893 -139.161,-59.302c14.94,-34.41 23.024,-33.049 23.024,-33.049" style="fill:#fff;fill-rule:nonzero;stroke:#000;stroke-width:7.85px;stroke-linecap:round;stroke-linejoin:round;"/><path id="path3363" d="M559.375,57.314c0,-0 -49.574,-65.05 -91.918,-49.52c-42.345,15.529 -120.581,79.941 -117.99,101.535c2.591,21.594 87.172,38.931 99.806,58.999" style="fill:#fff;fill-rule:nonzero;stroke:#000;stroke-width:7.85px;stroke-linecap:round;stroke-linejoin:round;"/><path id="base" d="M447.687,168.864c0,0 170.254,-299.809 508.099,-69.002c0,0 -26.024,331.372 -440.096,275.248l-68.003,-206.246Z" style="fill:#fff;fill-rule:nonzero;stroke:#000;stroke-width:7.85px;stroke-linecap:round;stroke-linejoin:round;"/><path id="path2628" d="M786.701,21.095c-0,-0 59.744,195.221 95.771,248.614c0,0 65.757,-80.864 73.702,-169.845c-0,0 -118.585,-74.928 -169.473,-78.769Z" style="fill:#fff;fill-rule:nonzero;stroke:#000;stroke-width:7.85px;stroke-linecap:round;stroke-linejoin:round;"/><path id="path2778" d="M809.214,154.856c0,72.448 -66.849,132.066 -148.096,132.077c-81.247,0.01 -148.116,-59.59 -148.14,-132.038c-0.024,-72.448 66.805,-132.084 148.052,-132.116c81.247,-0.032 148.136,59.551 148.184,131.998" style="fill:#fff;stroke:#000;stroke-width:4.85px;"/><path id="path2778-3" d="M774.291,155.377c-0,57.141 -52.725,104.162 -116.805,104.171c-64.08,0.008 -116.82,-46.999 -116.839,-104.14c-0.019,-57.14 52.69,-104.175 116.77,-104.201c64.08,-0.025 116.836,46.969 116.874,104.109" style="fill:none;stroke:#000;stroke-width:3.83px;"/><path id="path2778-3-9" d="M773.931,155.621c0,57.14 -52.724,104.161 -116.804,104.17c-64.08,0.008 -116.821,-46.999 -116.84,-104.139c-0.019,-57.14 52.69,-104.176 116.77,-104.201c64.08,-0.026 116.836,46.968 116.874,104.108" style="stroke:#000;stroke-width:3.83px;"/><path id="path3369" d="M442.944,281.472l-21.149,-53.986l136.313,-19.191l-115.164,73.177Z" style="fill:#fff;fill-rule:nonzero;stroke:#000;stroke-width:7.85px;stroke-linecap:round;stroke-linejoin:round;"/></g><path id="path47321" d="M656.295,51.114c0,0 -51.766,75.209 -33.101,88.918c18.664,13.709 -37.652,96.724 -37.652,96.724l6.269,5.456c0,0 27.31,13.368 38.05,15.053c10.74,1.685 44.684,-82.833 36.881,-118.651c-7.802,-35.817 26.499,-82.091 26.499,-82.091c0,0 -28.711,-6.447 -36.946,-5.409Z" style="fill:#fff;fill-rule:nonzero;stroke:#000;stroke-width:3.12px;"/></svg>