<?xml version="1.0" encoding="UTF-8" standalone="no"?><!DOCTYPE svg PUBLIC "-//W3C//DTD SVG 1.1//EN" "http://www.w3.org/Graphics/SVG/1.1/DTD/svg11.dtd"><svg width="100%" height="100%" viewBox="0 0 1050 971" version="1.1" xmlns="http://www.w3.org/2000/svg" xmlns:xlink="http://www.w3.org/1999/xlink" xml:space="preserve" xmlns:serif="http://www.serif.com/" style="fill-rule:evenodd;clip-rule:evenodd;"><g id="twise"><path id="corbraso2" d="M776.163,290.114c0,0 40.139,19.246 71.418,43.415c31.28,24.168 59.162,51.361 72.028,65.702c12.866,14.341 36.063,45.351 46.949,62.642c10.885,17.292 28.514,51.984 33.631,64.48c5.117,12.497 22.323,61.237 25.188,71.76c2.866,10.522 14.466,51.325 15.757,74.995c1.292,23.669 2.067,44.128 2.067,44.128c-0,0 -1.123,30.883 -4.739,46.883c-3.616,16 -12.081,37.825 -23.828,56.288c-11.746,18.462 -45.855,35.526 -45.855,35.526c0,-0 -29.648,7.77 -45.023,9.343c-15.376,1.573 -39.841,-1.79 -39.841,-1.79l-29.279,-130.915l24.178,-140.026l-78.147,-84.68l-24.293,-4.1c-0,-0 32.895,-70.033 27.938,-95.676c-4.957,-25.644 -62.376,-90.453 -62.376,-90.453l31.538,-30.894l2.689,3.372Z" style="fill:#fff;fill-rule:nonzero;stroke:#000;stroke-width:3.12px;"/><path id="corbraso1" d="M268.883,313.689l-9.876,4.228c-0,0 -15.876,6.449 -22.758,10.794c-6.882,4.344 -38.066,22.012 -44.997,27.68c-6.931,5.668 -35.271,28.581 -39.195,32.779c-3.924,4.199 -26.7,28.478 -30.341,33.17c-3.641,4.691 -20.469,27.561 -22.972,32.269c-2.503,4.708 -18.914,33.296 -21.712,38.378c-2.798,5.082 -18.003,35.878 -21.287,41.898c-3.284,6.021 -15.777,40.546 -15.777,40.546l-15.97,48.355l-10.417,44.318c0,-0 -5.797,40.696 -6.362,47.557c-0.566,6.861 -0.664,27.504 -0.664,27.504c-0,0 0.935,20.493 2.129,30.81c1.193,10.316 3.628,23.572 4.674,26.105c1.045,2.532 5.098,12.485 5.098,12.485c0,0 8.074,19.647 18.265,30.202c10.191,10.555 18.869,17.319 18.869,17.319c-0,-0 17.163,9.452 26.56,13.834c9.398,4.383 32.038,6.752 32.038,6.752l14.33,-1.237l9.083,-4.214l2.965,-5.365l57.794,-137.199l15.709,-204.011l47.995,-164.367l31.636,-26.229l-24.817,-24.361Z" style="fill-rule:nonzero;stroke:#000;stroke-width:3.12px;"/><path id="path1572" d="M196.708,552.389c-0,-0 -48.314,-135.354 62.73,-202.519c111.044,-67.165 265.096,-100.499 327.54,-191.585c62.444,-91.086 122.254,-192.619 230.949,-135.019c108.695,57.6 19.095,182.894 -8.526,224.216c-27.622,41.322 -90.368,117.133 -239.897,146.265c-149.529,29.133 -312.341,89.025 -372.796,158.642Z" style="fill:#fff;fill-rule:nonzero;stroke:#000;stroke-width:3.12px;"/><path id="path1574" d="M746.611,316.556c-0,-0 54.098,20.86 67.533,78.531c13.435,57.67 -2.113,104.419 -99.242,151.809c-94.186,45.954 -285.284,77.685 -375.053,114.549c-88.086,36.173 -164.154,97.437 -164.154,97.437c-0,0 -54.46,-107.423 7.751,-189.942c62.212,-82.519 219.46,-141.205 331.259,-160.591c111.799,-19.386 183.109,-50.349 231.906,-91.793Z" style="fill-rule:nonzero;stroke:#000;stroke-width:3.12px;"/><path id="path1576" d="M785.768,501.474c0,0 56.996,-11.637 93.23,74.998c36.235,86.635 -32.107,197.205 -96.491,227.681c-64.384,30.475 -443.001,108.661 -470.869,125.375c-27.867,16.715 -114.939,38.573 -156.473,-22.461c-41.535,-61.033 4.196,-140.506 48.223,-170.097c44.027,-29.591 153.953,-93.346 322.734,-130.022c168.781,-36.676 242.08,-88.082 259.646,-105.474Z" style="fill:#fff;fill-rule:nonzero;stroke:#000;stroke-width:3.12px;"/><path id="path1578" d="M282.669,942.785c-0,0 227.344,20.476 343.794,21.515c116.45,1.039 234.607,-25.51 258.928,-98.147c24.321,-72.637 -19.104,-131.674 -25.733,-132.84c-6.629,-1.166 -8.888,51.419 -137.037,89.974c-128.149,38.555 -382.55,85.9 -439.952,119.498Z" style="fill-rule:nonzero;stroke:#000;stroke-width:3.12px;"/><path id="path1676" d="M281.06,336.801c-0,0 -97.328,-121.874 -99.639,-168.813c-2.311,-46.938 21.473,-116.145 103.962,-123.999c82.489,-7.854 106.649,50.908 131.662,98.539c25.014,47.632 83.701,90.004 83.701,90.004c-0,-0 -166.781,83.496 -219.686,104.269Z" style="fill-rule:nonzero;stroke:#000;stroke-width:3.12px;"/><path id="path1678" d="M268.342,313.699c-0,-0 -103.239,37.899 -165.795,135.268c-62.557,97.368 -109.866,235.723 -92.464,335.803c17.402,100.079 127.401,107.299 129.798,85.715" style="fill:none;fill-rule:nonzero;stroke:#000;stroke-width:3.12px;"/><path id="path1680" d="M776.16,290.405c0,-0 144.386,61.524 218.173,223.637c73.788,162.113 83.738,371.208 -110.26,349.833" style="fill:none;fill-rule:nonzero;stroke:#000;stroke-width:3.12px;"/><path id="path2393" d="M766.231,104.436c8.904,4.839 8.638,22.559 -0.594,39.545c-9.232,16.986 -23.956,26.848 -32.86,22.009c-8.904,-4.839 -8.638,-22.559 0.594,-39.545c9.231,-16.987 23.956,-26.849 32.86,-22.009Z" style="stroke:#000;stroke-width:2.29px;"/><path id="path2393-3" d="M701.431,67.548c9.047,5.177 8.601,22.997 -0.997,39.769c-9.598,16.772 -24.736,26.186 -33.783,21.008c-9.048,-5.177 -8.601,-22.997 0.997,-39.769c9.598,-16.772 24.735,-26.186 33.783,-21.008Z" style="stroke:#000;stroke-width:2.32px;"/><path id="path2393-6" d="M296.55,128.598c8.835,-4.951 23.681,4.721 33.133,21.587c9.451,16.865 9.952,34.577 1.117,39.528c-8.835,4.952 -23.681,-4.721 -33.133,-21.586c-9.451,-16.866 -9.952,-34.578 -1.117,-39.529Z" style="fill:#fff;stroke:#fff;stroke-width:2.29px;"/><path id="path2393-7" d="M351.812,99.883c8.906,-4.523 23.246,5.802 32.003,23.043c8.757,17.241 8.635,34.911 -0.271,39.435c-8.907,4.523 -23.247,-5.802 -32.004,-23.043c-8.756,-17.241 -8.635,-34.911 0.272,-39.435Z" style="fill:#fff;stroke:#fff;stroke-width:2.27px;"/><path id="path2450" d="M352.58,227.355c0,0 41.521,-0.31 43.947,-38.141" style="fill:none;fill-rule:nonzero;stroke:#fff;stroke-width:3.12px;"/><path id="path2452" d="M651.787,157.977c-0,-0 2.321,52.758 46.881,38.75" style="fill:none;fill-rule:nonzero;stroke:#000;stroke-width:3.12px;"/></g></svg>